<svg xmlns="http://www.w3.org/2000/svg" xmlns:xlink="http://www.w3.org/1999/xlink" viewBox="0 0 44 44"><defs><style>.cls-1{fill:#00b9ff;}.cls-2{fill:#485cc7;}.cls-3{fill:url(#linear-gradient);}.cls-4{fill:#3c549e;}.cls-5{fill:#00a4df;}</style><linearGradient id="linear-gradient" y1="38.44" x2="44" y2="38.44" gradientUnits="userSpaceOnUse"><stop offset="0" stop-opacity="0"/><stop offset="0.07" stop-opacity="0.21"/><stop offset="0.5" stop-opacity="0.4"/><stop offset="0.93" stop-opacity="0.21"/><stop offset="1" stop-opacity="0"/></linearGradient></defs><g id="Layer_1" data-name="Layer 1"><path class="cls-1" d="M14.13,8.93h-1.5A8.76,8.76,0,0,1,13.85,5.2L15.14,6A7.21,7.21,0,0,0,14.13,8.93Z"/><path class="cls-1" d="M30.12,8.93h-1.5a7.21,7.21,0,0,0-1-3L28.9,5.2A8.76,8.76,0,0,1,30.12,8.93Z"/><path class="cls-2" d="M28.49,4.57,29,3.46A.38.38,0,0,0,28.84,3a16.38,16.38,0,0,0-15,0,.37.37,0,0,0-.17.47l.48,1.16a1,1,0,0,0-.72,1,1,1,0,0,0,1.05,1,1,1,0,0,0,1-.72c1.49-.83,5.66-2.53,11.83-.2a1,1,0,0,0,1,.92,1,1,0,0,0,1.05-1A1,1,0,0,0,28.49,4.57Z"/><path class="cls-3" d="M0,37.94v1H44v-1Z"/><path class="cls-4" d="M8.92,3.32H34.74A1.72,1.72,0,0,1,36.47,5V42.83a1.72,1.72,0,0,1-1.72,1.72H9.12A1.72,1.72,0,0,1,7.4,42.83v-38A1.52,1.52,0,0,1,8.92,3.32Z" transform="translate(45.87 2.01) rotate(90)"/><path class="cls-5" d="M25.28,24.46v2.9a.74.74,0,0,1-.74.74H18.93a.74.74,0,0,1-.74-.74v-3"/><path class="cls-2" d="M42,9.17l-11.16,0a.73.73,0,0,0-.72-.64H28.6a.74.74,0,0,0-.72.65l-13,0a.75.75,0,0,0-.73-.67H12.64a.75.75,0,0,0-.73.67l-10,0a.74.74,0,0,0-.74.74V24a1.59,1.59,0,0,0,1.74,1.37H41A1.59,1.59,0,0,0,42.71,24v-14A.75.75,0,0,0,42,9.17Z"/><path class="cls-1" d="M25.63,24.28a1.11,1.11,0,0,0-1.11-1.11H19a1.11,1.11,0,0,0-1.11,1.11v1.06h1.85v1.18a.37.37,0,0,0,.37.37h3.35a.37.37,0,0,0,.37-.37V25.34h1.85Z"/></g></svg>