<?xml version="1.0" encoding="utf-8"?>
<!-- Generator: Adobe Illustrator 16.0.0, SVG Export Plug-In . SVG Version: 6.00 Build 0)  -->
<!DOCTYPE svg PUBLIC "-//W3C//DTD SVG 1.1//EN" "http://www.w3.org/Graphics/SVG/1.1/DTD/svg11.dtd">
<svg version="1.1" id="Layer_1" xmlns="http://www.w3.org/2000/svg" xmlns:xlink="http://www.w3.org/1999/xlink" x="0px" y="0px"
	 width="62px" height="62px" viewBox="0 0 62 62" enable-background="new 0 0 62 62" xml:space="preserve">
<path fill="#3C57A7" d="M-200.518-127.25h49.035V-156h-49.035V-127.25z M-180.985-136.434l-2.032,2.032l-7.225-7.225l7.225-7.225
	l2.032,2.032l-5.194,5.193L-180.985-136.434z M-176.259-132.962l-2.818-0.561l3.336-16.767l2.818,0.56L-176.259-132.962z
	 M-168.983-134.402l-2.032-2.032l5.194-5.193l-5.194-5.193l2.032-2.032l7.225,7.225L-168.983-134.402z"/>
<polygon fill="#3C57A7" points="-151.482,-115.751 -151.482,-124.378 -200.518,-124.378 -200.518,-115.751 -184.779,-115.751 
	-184.779,-112.873 -187.655,-112.873 -187.655,-110 -164.344,-110 -164.344,-112.873 -167.22,-112.873 -167.22,-115.751 "/>
<path fill="#FDB814" d="M71.418-247h-6.434c-0.875,0-1.582,0.708-1.582,1.582v1.582H50.455C49.8-245.673,48.06-247,46-247
	c-2.061,0-3.8,1.327-4.455,3.164H28.598v-1.582c0-0.874-0.708-1.582-1.582-1.582h-6.434c-0.874,0-1.582,0.708-1.582,1.582v6.328
	c0,0.875,0.708,1.582,1.582,1.582h6.434c0.874,0,1.582-0.707,1.582-1.582v-1.603h6.497c-5.49,3.43-9.11,9.454-9.543,16.202
	c-1.898,0.621-3.282,2.388-3.282,4.491c0,2.617,2.129,4.746,4.746,4.746s4.746-2.129,4.746-4.746c0-2.019-1.272-3.735-3.053-4.42
	c0.54-7.522,5.789-13.863,13.091-15.672c0.789,1.527,2.366,2.584,4.2,2.584s3.411-1.057,4.2-2.584
	c7.302,1.809,12.551,8.15,13.091,15.672c-1.78,0.685-3.053,2.401-3.053,4.42c0,2.617,2.129,4.746,4.746,4.746
	s4.746-2.129,4.746-4.746c0-2.103-1.384-3.87-3.282-4.491c-0.433-6.748-4.053-12.751-9.543-16.181h6.497v1.582
	c0,0.875,0.707,1.582,1.582,1.582h6.434c0.874,0,1.582-0.707,1.582-1.582v-6.328C73-246.292,72.292-247,71.418-247"/>
<path fill="#FDB814" d="M56.763-194.962c-0.827-2.532-3.211-4.472-6.017-4.472h-9.492c-2.806,0-5.189,1.94-6.017,4.472
	c-0.319,0.976,0.511,1.962,1.538,1.962h18.449C56.251-193,57.082-193.986,56.763-194.962"/>
<path fill="#FDB814" d="M59.973-214.549l-12.391-18.586v15.009c1.838,0.655,3.164,2.395,3.164,4.454
	c0,2.618-2.129,4.747-4.746,4.747s-4.746-2.129-4.746-4.747c0-2.059,1.326-3.799,3.164-4.454v-15.009l-12.391,18.586
	c-0.419,0.627-0.335,1.463,0.198,1.996c2.904,2.904,4.761,6.646,5.476,10.659c1.101-0.446,2.295-0.703,3.553-0.703h9.492
	c1.257,0,2.452,0.257,3.552,0.703c0.716-4.014,2.571-7.755,5.477-10.659C60.308-213.086,60.392-213.922,59.973-214.549"/>
<path fill="#FDB814" d="M46-215.254c-0.873,0-1.582,0.709-1.582,1.582c0,0.873,0.709,1.582,1.582,1.582s1.582-0.709,1.582-1.582
	C47.582-214.544,46.873-215.254,46-215.254"/>
<path fill="#F05225" d="M-263.531,4.651c-0.023,2.016,1.22,3.831,3.107,4.537V0.55c0-0.124,0.063-0.311,0.063-0.435
	C-262.262,0.815-263.527,2.625-263.531,4.651"/>
<path fill="#F05225" d="M-246.563,15.342h-8.142l3.045,11.063c0.451,1.688,1.982,2.862,3.729,2.858
	c1.244,0.016,2.42-0.562,3.17-1.553c0.758-0.944,0.991-2.204,0.622-3.357L-246.563,15.342z"/>
<path fill="#F05225" d="M-260.361,0.052h0.062v-0.062C-260.299,0.052-260.299,0.052-260.361,0.052"/>
<path fill="#F05225" d="M-215.798-0.818h-0.497v11.188h0.497c3.089,0,5.594-2.505,5.594-5.594
	C-210.204,1.687-212.709-0.818-215.798-0.818"/>
<path fill="#F05225" d="M-258.559,0.549v8.826c0.067,2.285,1.94,4.103,4.227,4.102h11.311V-3.304h-11.311
	C-256.57-3.304-258.559-1.688-258.559,0.549"/>
<polygon fill="#F05225" points="-241.156,13.726 -218.159,22.925 -218.159,-13 -241.156,-3.801 "/>
<path fill="#359FD9" d="M-70.892,29.953h-37.167l29.826-11.163c0.437-0.163,0.775-0.518,0.917-0.962l4.847-15.134l-15.225-15.225
	l-15.134,4.847c-0.444,0.143-0.798,0.481-0.962,0.917l-13.997,37.399l0.233-0.232c-0.276,0.275-0.445,0.656-0.445,1.076
	c0,0.842,0.682,1.523,1.523,1.523h45.584c0.841,0,1.523-0.682,1.523-1.523S-70.051,29.953-70.892,29.953 M-116.476,29.953
	c-0.42,0-0.801,0.17-1.076,0.445l18.812-18.812c-1.555-2.515-1.267-5.888,0.951-8.106c2.567-2.567,6.743-2.567,9.31,0
	c2.572,2.573,2.572,6.736,0,9.309c-2.182,2.182-5.549,2.524-8.105,0.95l-16.214,16.214H-116.476z"/>
<path fill="#359FD9" d="M-66.446-6.861l-11.693-11.693C-78.425-18.839-78.812-19-79.216-19s-0.792,0.16-1.077,0.446l-4.558,4.557
	l13.848,13.848l4.557-4.557C-66.16-4.992-66-5.379-66-5.784C-66-6.188-66.16-6.575-66.446-6.861"/>
<path fill="#F15C61" d="M31.894,12.799h3.633c0,3.249,2.418,5.942,5.548,6.378v-2.079c0-5.555-4.519-10.075-10.074-10.075
	c-5.555,0-10.074,4.52-10.074,10.075v2.143h4.525C29.004,19.242,31.894,16.352,31.894,12.799"/>
<path fill="#F15C61" d="M13.967,30.949h3.426c-0.065-0.573-0.1-1.156-0.1-1.748V17.098C17.293,9.54,23.441,3.391,31,3.391
	S44.707,9.54,44.707,17.098v12.103c0,0.592-0.034,1.176-0.1,1.748h3.426c2.728,0,4.945-2.219,4.945-4.945v-5.511
	c0-2.659-2.109-4.834-4.743-4.94C47.345,6.829,39.955,0,31,0S14.654,6.829,13.765,15.553c-2.634,0.106-4.743,2.281-4.743,4.94v5.511
	C9.021,28.73,11.238,30.949,13.967,30.949"/>
<path fill="#F15C61" d="M31,40.041c3.093,0,5.863-1.506,7.713-3.875h-5.628v-3.633h7.502c0.316-1.049,0.487-2.17,0.487-3.332v-6.366
	c-3.043-0.269-5.702-1.897-7.364-4.271c-1.823,2.604-4.846,4.311-8.259,4.311h-4.525v6.327C20.926,35.179,25.445,40.041,31,40.041"
	/>
<path fill="#F15C61" d="M41.203,43.701v-4.846c-2.511,2.955-6.154,4.819-10.203,4.819c-4.023,0-7.645-1.839-10.154-4.762v4.784
	l-0.018,0.004c2.384,1.855,6.341,4.391,10.156,4.391C34.817,48.092,38.8,45.559,41.203,43.701"/>
<path fill="#F15C61" d="M57.421,49.027l-12.146-3.98c-2.055,1.832-8.081,6.678-14.29,6.678c-6.218,0-12.196-4.856-14.229-6.688
	l-12.177,3.99C1.841,49.926,0,52.467,0,55.35V62h12.507v-6.297h3.633V62h29.72v-6.297h3.634V62H62v-6.65
	C62,52.467,60.159,49.926,57.421,49.027"/>
<path fill="#7FBA42" d="M-64.172-181.207c0,1.769,1.439,3.207,3.207,3.207h29.93c1.768,0,3.207-1.438,3.207-3.207v-3.207h-36.344
	V-181.207z M-52.414-182.276h12.827v2.138h-12.827V-182.276z"/>
<path fill="#7FBA42" d="M-49.207-196.172v-10.69c0-2.947-2.397-5.345-5.345-5.345h-17.104c-2.948,0-5.345,2.398-5.345,5.345v10.69
	c0,2.947,2.397,5.345,5.345,5.345h17.104C-51.604-190.827-49.207-193.225-49.207-196.172"/>
<path fill="#7FBA42" d="M-44.931-213.276v-10.69c0-4.126,3.358-7.482,7.483-7.482h9.62v-2.138h-36.344v19.241h9.62
	c4.125,0,7.483,3.357,7.483,7.483v10.69c0,4.126-3.358,7.483-7.483,7.483h-9.62v2.137h36.344v-19.241h-9.62
	C-41.573-205.793-44.931-209.149-44.931-213.276 M-55.621-218.621h-2.138v-2.138h2.138V-218.621z M-51.345-218.621h-2.138v-2.138
	h2.138V-218.621z M-47.069-218.621h-2.138v-2.138h2.138V-218.621z M-42.793-198.311h-2.138v-2.138h2.138V-198.311z M-38.517-198.311
	h-2.138v-2.138h2.138V-198.311z M-36.379-200.448h2.138v2.138h-2.138V-200.448z"/>
<path fill="#7FBA42" d="M-27.828-236.793c0-1.769-1.439-3.207-3.207-3.207h-29.931c-1.768,0-3.207,1.438-3.207,3.207v1.069h36.345
	V-236.793z"/>
<path fill="#7FBA42" d="M-20.345-229.311h-17.104c-2.947,0-5.344,2.398-5.344,5.345v10.69c0,2.947,2.397,5.344,5.344,5.344
	c0-3.356,1.949-6.259,4.771-7.658c-1.592-1.168-2.633-3.047-2.633-5.169c0-3.537,2.877-6.414,6.414-6.414
	c3.537,0,6.414,2.877,6.414,6.414c0,2.122-1.04,4.001-2.633,5.169c2.822,1.399,4.771,4.302,4.771,7.658
	c2.947,0,5.345-2.397,5.345-5.344v-10.69C-15-226.912-17.398-229.311-20.345-229.311"/>
<path fill="#7FBA42" d="M-28.896-214.345c-3.537,0-6.414,2.876-6.414,6.414h12.828C-22.482-211.468-25.359-214.345-28.896-214.345"
	/>
<path fill="#7FBA42" d="M-28.896-225.034c2.361,0,4.276,1.914,4.276,4.275c0,2.362-1.915,4.277-4.276,4.277
	s-4.276-1.915-4.276-4.277C-33.172-223.12-31.257-225.034-28.896-225.034"/>
<polygon fill="#FFFFFF" points="-67.092,-197.406 -68.352,-196.146 -72.833,-200.627 -68.352,-205.107 -67.092,-203.847 
	-70.313,-200.627 "/>
<rect x="-64.891" y="-205.928" transform="matrix(0.9808 0.1951 -0.1951 0.9808 -40.3641 8.6302)" fill="#FFFFFF" width="1.782" height="10.603"/>
<polygon fill="#FFFFFF" points="-59.648,-196.146 -60.908,-197.406 -57.688,-200.627 -60.908,-203.848 -59.648,-205.107 
	-55.168,-200.627 "/>
</svg>
