<?xml version="1.0" encoding="utf-8"?>
<!-- Generator: Adobe Illustrator 23.0.5, SVG Export Plug-In . SVG Version: 6.00 Build 0)  -->
<svg version="1.1" id="Layer_1" xmlns="http://www.w3.org/2000/svg" xmlns:xlink="http://www.w3.org/1999/xlink" x="0px" y="0px"
	 viewBox="0 0 16 16" style="enable-background:new 0 0 16 16;" xml:space="preserve">
<style type="text/css">
	.st0{fill:#DF146E;}
	.st1{fill:#FFFFFF;}
</style>
<g>
	<path class="st0" d="M15.2,16H0.8C0.3,16,0,15.6,0,15.2V0.8C0,0.4,0.3,0,0.8,0h14.5C15.7,0,16,0.4,16,0.8v14.4
		C16,15.6,15.7,16,15.2,16"/>
	<path class="st1" d="M11.5,8.8L6.4,7.9l0.7,3L11.5,8.8z M11.7,8.5l-4-5.6L6.4,7.7L11.7,8.5z M6.1,7.6L1.9,2.3l5.5,0.7L6.1,7.6z
		 M4.1,5.4L1.8,3.2h0.6L4.1,5.4z M12.9,5.8l-1,2.7l-1.6-2.2L12.9,5.8z M7.7,10.9l3.9-1.6l0.2-0.5L7.7,10.9z M4.5,13.7l1.7-5.8
		L7,11.7L4.5,13.7z M13.2,5.8l-0.4,1.1l1.5,0L13.2,5.8z"/>
</g>
</svg>
