<?xml version="1.0" encoding="utf-8"?>
<!-- Generator: Adobe Illustrator 16.0.0, SVG Export Plug-In . SVG Version: 6.00 Build 0)  -->
<!DOCTYPE svg PUBLIC "-//W3C//DTD SVG 1.1//EN" "http://www.w3.org/Graphics/SVG/1.1/DTD/svg11.dtd">
<svg version="1.1" id="Layer_1" xmlns="http://www.w3.org/2000/svg" xmlns:xlink="http://www.w3.org/1999/xlink" x="0px" y="0px"
	 width="21.717px" height="22.451px" viewBox="0 0 21.717 22.451" enable-background="new 0 0 21.717 22.451" xml:space="preserve">
<path fill="#5F6F82" d="M8.639,17.142c1.465,0,2.653,1.188,2.653,2.654c0,1.466-1.188,2.654-2.653,2.654
	c-1.466,0-2.654-1.188-2.654-2.654C5.984,18.33,7.173,17.142,8.639,17.142"/>
<path fill="#5F6F82" d="M16.383,17.142L16.383,17.142c-1.467,0-2.654,1.188-2.654,2.654c0,1.466,1.188,2.654,2.654,2.654
	c1.465,0,2.654-1.188,2.654-2.654C19.038,18.33,17.848,17.142,16.383,17.142"/>
<path fill="#5F6F82" d="M20.905,14.434H7.067l-0.271-1.57H18.17c0.334,0.001,0.635-0.204,0.758-0.515l2.707-6.824
	c0.166-0.418-0.041-0.889-0.457-1.054c-0.096-0.037-0.197-0.057-0.301-0.057H5.388L4.738,0.678C4.672,0.282,4.327-0.005,3.927,0
	H0.813C0.363,0,0,0.364,0,0.813c0,0.449,0.363,0.812,0.813,0.812h2.437l2.329,13.757c0.066,0.395,0.412,0.682,0.813,0.677h14.514
	c0.449,0,0.813-0.364,0.813-0.813C21.717,14.798,21.354,14.434,20.905,14.434"/>
</svg>
