<?xml version="1.0" encoding="utf-8"?>
<!-- Generator: Adobe Illustrator 16.0.0, SVG Export Plug-In . SVG Version: 6.00 Build 0)  -->
<!DOCTYPE svg PUBLIC "-//W3C//DTD SVG 1.1//EN" "http://www.w3.org/Graphics/SVG/1.1/DTD/svg11.dtd">
<svg version="1.1" id="Layer_1" xmlns="http://www.w3.org/2000/svg" xmlns:xlink="http://www.w3.org/1999/xlink" x="0px" y="0px"
	 width="26.672px" height="25.606px" viewBox="0 0 26.672 25.606" enable-background="new 0 0 26.672 25.606" xml:space="preserve">
<path fill="#3FB655" d="M7.041,4.145C7.185,3.623,7.316,3.12,7.464,2.623c0.114-0.387,0.217-0.782,0.383-1.147
	c0.614-1.348,1.895-1.773,3.2-1.066c0.311,0.168,0.594,0.393,0.875,0.612c0.449,0.35,0.885,0.716,1.388,1.124
	c0.227-0.181,0.443-0.352,0.658-0.524c0.48-0.389,0.929-0.825,1.445-1.158c1.439-0.926,2.917-0.432,3.507,1.178
	c0.284,0.777,0.468,1.592,0.72,2.469c0.329,0,0.655,0.006,0.981-0.001c0.499-0.011,0.999-0.059,1.497-0.041
	c1.844,0.066,2.763,1.333,2.239,3.096c-0.175,0.59-0.428,1.158-0.637,1.739c-0.21,0.586-0.208,0.592,0.296,0.926
	c0.257,0.171,0.539,0.307,0.786,0.49c0.419,0.31,0.861,0.605,1.218,0.979c0.87,0.908,0.871,2.11-0.009,2.998
	c-0.378,0.382-0.858,0.666-1.307,0.974c-0.368,0.251-0.757,0.471-1.175,0.727c0.125,0.368,0.224,0.68,0.336,0.988
	c0.169,0.469,0.372,0.928,0.516,1.404c0.495,1.644-0.46,2.93-1.957,3.026c-0.425,0.027-0.853,0.011-1.28,0.012
	c-0.472,0.001-0.945,0-1.5,0c-0.1,0.331-0.208,0.687-0.316,1.042c-0.172,0.568-0.291,1.158-0.527,1.698
	c-0.49,1.114-1.47,1.53-2.637,1.197c-0.631-0.179-1.173-0.508-1.66-0.942c-0.353-0.314-0.721-0.614-1.155-0.982
	c-0.399,0.327-0.771,0.645-1.157,0.946c-0.411,0.321-0.802,0.686-1.259,0.925c-1.239,0.648-2.502,0.199-3.077-1.087
	c-0.23-0.516-0.348-1.084-0.511-1.629c-0.101-0.34-0.19-0.683-0.303-1.091c-0.372,0-0.722-0.003-1.073,0.001
	c-0.523,0.008-1.048,0.059-1.568,0.028c-1.676-0.102-2.57-1.338-2.124-2.962c0.175-0.639,0.459-1.247,0.682-1.874
	c0.204-0.574,0.197-0.592-0.309-0.924c-0.338-0.221-0.703-0.404-1.025-0.646c-0.378-0.284-0.765-0.576-1.074-0.93
	c-0.733-0.839-0.745-1.979,0.022-2.786c0.451-0.474,1.015-0.854,1.57-1.211c1.183-0.762,1.075-0.538,0.6-1.817
	c-0.157-0.423-0.346-0.837-0.466-1.27c-0.449-1.616,0.41-2.861,2.086-3.001C4.881,4.07,5.407,4.135,5.93,4.144
	C6.282,4.15,6.635,4.145,7.041,4.145 M11.828,14.232c-0.211-0.28-0.337-0.485-0.5-0.656c-0.361-0.378-0.723-0.758-1.115-1.101
	c-0.452-0.396-1.104-0.423-1.591-0.114c-0.496,0.314-0.748,0.928-0.547,1.488c0.091,0.256,0.274,0.498,0.466,0.697
	c0.775,0.802,1.566,1.589,2.358,2.375c0.759,0.755,1.574,0.72,2.254-0.107c0.708-0.861,1.4-1.737,2.097-2.608
	c0.993-1.243,1.981-2.488,2.977-3.728c0.3-0.373,0.466-0.775,0.324-1.252c-0.148-0.494-0.477-0.819-0.979-0.939
	c-0.533-0.127-0.992,0.02-1.341,0.446c-0.495,0.606-0.979,1.223-1.468,1.835C13.83,11.733,12.896,12.898,11.828,14.232"/>
</svg>
