<?xml version="1.0" encoding="utf-8"?>
<!-- Generator: Adobe Illustrator 23.0.5, SVG Export Plug-In . SVG Version: 6.00 Build 0)  -->
<svg version="1.1" id="Layer_1" xmlns="http://www.w3.org/2000/svg" xmlns:xlink="http://www.w3.org/1999/xlink" x="0px" y="0px"
	 viewBox="0 0 50 50" style="enable-background:new 0 0 50 50;" xml:space="preserve">
<style type="text/css">
	.st0{fill:#D80027;}
	.st1{fill:#FFDA44;}
</style>
<g>
	<circle class="st0" cx="25" cy="25" r="24"/>
	<g>
		<polygon class="st1" points="14.1,15.6 16.2,22 22.9,22 17.5,25.9 19.6,32.3 14.1,28.4 8.7,32.3 10.8,25.9 5.4,22 12.1,22 		"/>
		<polygon class="st1" points="29.5,38.2 27.9,36.2 25.5,37.1 26.9,35 25.3,33.1 27.7,33.7 29.1,31.6 29.2,34.1 31.7,34.8 
			29.3,35.7 		"/>
		<polygon class="st1" points="32.6,32.5 33.4,30.1 31.3,28.6 33.8,28.6 34.6,26.2 35.4,28.5 37.9,28.5 35.9,30 36.7,32.4 
			34.6,30.9 		"/>
		<polygon class="st1" points="36.8,18.6 35.7,20.9 37.5,22.6 35.1,22.3 34,24.5 33.5,22 31,21.7 33.3,20.5 32.8,18 34.6,19.8 		"/>
		<polygon class="st1" points="29.5,11.8 29.3,14.3 31.7,15.2 29.2,15.8 29,18.3 27.7,16.2 25.3,16.8 26.9,14.9 25.6,12.7 
			27.9,13.7 		"/>
	</g>
</g>
</svg>
