<?xml version="1.0" encoding="utf-8"?>
<!-- Generator: Adobe Illustrator 16.0.0, SVG Export Plug-In . SVG Version: 6.00 Build 0)  -->
<!DOCTYPE svg PUBLIC "-//W3C//DTD SVG 1.1//EN" "http://www.w3.org/Graphics/SVG/1.1/DTD/svg11.dtd">
<svg version="1.1" id="Layer_1" xmlns="http://www.w3.org/2000/svg" xmlns:xlink="http://www.w3.org/1999/xlink" x="0px" y="0px"
	 width="54px" height="54px" viewBox="0 0 54 54" enable-background="new 0 0 54 54" xml:space="preserve">
<path fill="#3C57A7" d="M-219.518,119.75h49.035V91h-49.035V119.75z M-199.985,110.566l-2.032,2.032l-7.225-7.225l7.225-7.225
	l2.032,2.032l-5.194,5.193L-199.985,110.566z M-195.259,114.038l-2.818-0.561l3.336-16.767l2.818,0.56L-195.259,114.038z
	 M-187.983,112.598l-2.032-2.032l5.194-5.193l-5.194-5.193l2.032-2.032l7.225,7.225L-187.983,112.598z"/>
<polygon fill="#3C57A7" points="-170.482,131.249 -170.482,122.622 -219.518,122.622 -219.518,131.249 -203.779,131.249 
	-203.779,134.127 -206.655,134.127 -206.655,137 -183.344,137 -183.344,134.127 -186.22,134.127 -186.22,131.249 "/>
<path fill="#FDB814" d="M52.418,0h-6.434c-0.875,0-1.582,0.708-1.582,1.582v1.582H31.455C30.8,1.327,29.06,0,27,0
	c-2.061,0-3.8,1.327-4.455,3.164H9.598V1.582C9.598,0.708,8.89,0,8.016,0H1.582C0.708,0,0,0.708,0,1.582V7.91
	c0,0.875,0.708,1.582,1.582,1.582h6.434c0.874,0,1.582-0.707,1.582-1.582V6.307h6.497c-5.49,3.43-9.11,9.454-9.543,16.202
	C4.653,23.13,3.27,24.897,3.27,27c0,2.617,2.129,4.746,4.746,4.746s4.746-2.129,4.746-4.746c0-2.019-1.272-3.735-3.053-4.42
	c0.54-7.522,5.789-13.863,13.091-15.672c0.789,1.527,2.366,2.584,4.2,2.584s3.411-1.057,4.2-2.584
	c7.302,1.809,12.551,8.15,13.091,15.672c-1.78,0.685-3.053,2.401-3.053,4.42c0,2.617,2.129,4.746,4.746,4.746S50.73,29.617,50.73,27
	c0-2.103-1.384-3.87-3.282-4.491c-0.433-6.748-4.053-12.751-9.543-16.181h6.497V7.91c0,0.875,0.707,1.582,1.582,1.582h6.434
	C53.292,9.492,54,8.785,54,7.91V1.582C54,0.708,53.292,0,52.418,0"/>
<path fill="#FDB814" d="M37.763,52.038c-0.827-2.532-3.211-4.472-6.017-4.472h-9.492c-2.806,0-5.189,1.94-6.017,4.472
	C15.918,53.014,16.748,54,17.775,54h18.449C37.251,54,38.082,53.014,37.763,52.038"/>
<path fill="#FDB814" d="M40.973,32.451L28.582,13.865v15.009c1.838,0.655,3.164,2.395,3.164,4.454c0,2.618-2.129,4.747-4.746,4.747
	s-4.746-2.129-4.746-4.747c0-2.059,1.326-3.799,3.164-4.454V13.865L13.027,32.451c-0.419,0.627-0.335,1.463,0.198,1.996
	c2.904,2.904,4.761,6.646,5.476,10.659c1.101-0.446,2.295-0.703,3.553-0.703h9.492c1.257,0,2.452,0.257,3.552,0.703
	c0.716-4.014,2.571-7.755,5.477-10.659C41.308,33.914,41.392,33.078,40.973,32.451"/>
<path fill="#FDB814" d="M27,31.746c-0.873,0-1.582,0.709-1.582,1.582c0,0.873,0.709,1.582,1.582,1.582s1.582-0.709,1.582-1.582
	C28.582,32.456,27.873,31.746,27,31.746"/>
<path fill="#F05225" d="M-282.531,251.651c-0.023,2.016,1.22,3.831,3.107,4.537v-8.639c0-0.124,0.063-0.311,0.063-0.435
	C-281.262,247.815-282.527,249.625-282.531,251.651"/>
<path fill="#F05225" d="M-265.563,262.342h-8.142l3.045,11.063c0.451,1.688,1.982,2.862,3.729,2.858
	c1.244,0.016,2.42-0.562,3.17-1.553c0.758-0.944,0.991-2.204,0.622-3.357L-265.563,262.342z"/>
<path fill="#F05225" d="M-279.361,247.052h0.062v-0.062C-279.299,247.052-279.299,247.052-279.361,247.052"/>
<path fill="#F05225" d="M-234.798,246.182h-0.497v11.188h0.497c3.089,0,5.594-2.505,5.594-5.594
	C-229.204,248.687-231.709,246.182-234.798,246.182"/>
<path fill="#F05225" d="M-277.559,247.549v8.826c0.067,2.285,1.94,4.103,4.227,4.102h11.311v-16.782h-11.311
	C-275.57,243.696-277.559,245.313-277.559,247.549"/>
<polygon fill="#F05225" points="-260.156,260.726 -237.159,269.925 -237.159,234 -260.156,243.199 "/>
<path fill="#359FD9" d="M-89.892,276.953h-37.167l29.826-11.163c0.437-0.163,0.775-0.518,0.917-0.962l4.847-15.134l-15.225-15.225
	l-15.134,4.847c-0.444,0.143-0.798,0.481-0.962,0.917l-13.997,37.399l0.233-0.232c-0.276,0.275-0.445,0.656-0.445,1.076
	c0,0.842,0.682,1.523,1.523,1.523h45.584c0.841,0,1.523-0.682,1.523-1.523S-89.051,276.953-89.892,276.953 M-135.476,276.953
	c-0.42,0-0.801,0.17-1.076,0.445l18.812-18.812c-1.555-2.515-1.267-5.888,0.951-8.106c2.567-2.567,6.743-2.567,9.31,0
	c2.572,2.573,2.572,6.736,0,9.309c-2.182,2.182-5.549,2.524-8.105,0.95l-16.214,16.214H-135.476z"/>
<path fill="#359FD9" d="M-85.446,240.139l-11.693-11.693c-0.286-0.286-0.673-0.446-1.077-0.446s-0.792,0.16-1.077,0.446
	l-4.558,4.557l13.848,13.848l4.557-4.557c0.286-0.286,0.446-0.674,0.446-1.078C-85,240.813-85.16,240.425-85.446,240.139"/>
<path fill="#F15C61" d="M12.894,259.799h3.633c0,3.249,2.418,5.942,5.548,6.378v-2.079c0-5.555-4.519-10.075-10.074-10.075
	c-5.555,0-10.074,4.52-10.074,10.075v2.143h4.525C10.004,266.242,12.894,263.352,12.894,259.799"/>
<path fill="#F15C61" d="M-5.033,277.949h3.426c-0.065-0.573-0.1-1.156-0.1-1.748v-12.103c0-7.558,6.148-13.707,13.707-13.707
	s13.707,6.149,13.707,13.707v12.103c0,0.592-0.034,1.176-0.1,1.748h3.426c2.728,0,4.945-2.219,4.945-4.945v-5.511
	c0-2.659-2.109-4.834-4.743-4.94C28.345,253.829,20.955,247,12,247s-16.346,6.829-17.235,15.553
	c-2.634,0.106-4.743,2.281-4.743,4.94v5.511C-9.979,275.73-7.762,277.949-5.033,277.949"/>
<path fill="#F15C61" d="M12,287.041c3.093,0,5.863-1.506,7.713-3.875h-5.628v-3.633h7.502c0.316-1.049,0.487-2.17,0.487-3.332
	v-6.366c-3.043-0.269-5.702-1.897-7.364-4.271c-1.823,2.604-4.846,4.311-8.259,4.311H1.926v6.327
	C1.926,282.179,6.445,287.041,12,287.041"/>
<path fill="#F15C61" d="M22.203,290.701v-4.846c-2.511,2.955-6.154,4.819-10.203,4.819c-4.023,0-7.645-1.839-10.154-4.762v4.784
	l-0.018,0.004c2.384,1.855,6.341,4.391,10.156,4.391C15.817,295.092,19.8,292.559,22.203,290.701"/>
<path fill="#F15C61" d="M38.421,296.027l-12.146-3.98c-2.055,1.832-8.081,6.678-14.29,6.678c-6.218,0-12.196-4.856-14.229-6.688
	l-12.177,3.99c-2.738,0.898-4.579,3.439-4.579,6.322V309h12.507v-6.297h3.633V309h29.72v-6.297h3.634V309H43v-6.65
	C43,299.467,41.159,296.926,38.421,296.027"/>
<path fill="#7FBA42" d="M-83.172,65.793c0,1.769,1.439,3.207,3.207,3.207h29.93c1.768,0,3.207-1.438,3.207-3.207v-3.207h-36.344
	V65.793z M-71.414,64.724h12.827v2.138h-12.827V64.724z"/>
<path fill="#7FBA42" d="M-68.207,50.828v-10.69c0-2.947-2.397-5.345-5.345-5.345h-17.104c-2.948,0-5.345,2.398-5.345,5.345v10.69
	c0,2.947,2.397,5.345,5.345,5.345h17.104C-70.604,56.173-68.207,53.775-68.207,50.828"/>
<path fill="#7FBA42" d="M-63.931,33.724v-10.69c0-4.126,3.358-7.482,7.483-7.482h9.62v-2.138h-36.344v19.241h9.62
	c4.125,0,7.483,3.357,7.483,7.483v10.69c0,4.126-3.358,7.483-7.483,7.483h-9.62v2.137h36.344V41.207h-9.62
	C-60.573,41.207-63.931,37.851-63.931,33.724 M-74.621,28.379h-2.138v-2.138h2.138V28.379z M-70.345,28.379h-2.138v-2.138h2.138
	V28.379z M-66.069,28.379h-2.138v-2.138h2.138V28.379z M-61.793,48.689h-2.138v-2.138h2.138V48.689z M-57.517,48.689h-2.138v-2.138
	h2.138V48.689z M-55.379,46.552h2.138v2.138h-2.138V46.552z"/>
<path fill="#7FBA42" d="M-46.828,10.207c0-1.769-1.439-3.207-3.207-3.207h-29.931c-1.768,0-3.207,1.438-3.207,3.207v1.069h36.345
	V10.207z"/>
<path fill="#7FBA42" d="M-39.345,17.689h-17.104c-2.947,0-5.344,2.398-5.344,5.345v10.69c0,2.947,2.397,5.344,5.344,5.344
	c0-3.356,1.949-6.259,4.771-7.658c-1.592-1.168-2.633-3.047-2.633-5.169c0-3.537,2.877-6.414,6.414-6.414
	c3.537,0,6.414,2.877,6.414,6.414c0,2.122-1.04,4.001-2.633,5.169c2.822,1.399,4.771,4.302,4.771,7.658
	c2.947,0,5.345-2.397,5.345-5.344v-10.69C-34,20.088-36.398,17.689-39.345,17.689"/>
<path fill="#7FBA42" d="M-47.896,32.655c-3.537,0-6.414,2.876-6.414,6.414h12.828C-41.482,35.532-44.359,32.655-47.896,32.655"/>
<path fill="#7FBA42" d="M-47.896,21.966c2.361,0,4.276,1.914,4.276,4.275c0,2.362-1.915,4.277-4.276,4.277s-4.276-1.915-4.276-4.277
	C-52.172,23.88-50.257,21.966-47.896,21.966"/>
<polygon fill="#FFFFFF" points="-86.092,49.594 -87.352,50.854 -91.833,46.373 -87.352,41.893 -86.092,43.153 -89.313,46.373 "/>
<rect x="-83.891" y="41.072" transform="matrix(0.9808 0.1951 -0.1951 0.9808 7.4513 17.081)" fill="#FFFFFF" width="1.782" height="10.603"/>
<polygon fill="#FFFFFF" points="-78.648,50.854 -79.908,49.594 -76.688,46.373 -79.908,43.152 -78.648,41.893 -74.168,46.373 "/>
</svg>
