<?xml version="1.0" encoding="utf-8"?>
<!-- Generator: Adobe Illustrator 23.0.5, SVG Export Plug-In . SVG Version: 6.00 Build 0)  -->
<svg version="1.1" id="Layer_1" xmlns="http://www.w3.org/2000/svg" xmlns:xlink="http://www.w3.org/1999/xlink" x="0px" y="0px"
	 viewBox="0 0 50 50" style="enable-background:new 0 0 50 50;" xml:space="preserve">
<style type="text/css">
	.st0{fill:#0052B4;}
	.st1{fill:#FFDA44;}
</style>
<g>
	<circle class="st0" cx="25" cy="25" r="24"/>
	<g>
		<polygon class="st1" points="25,10.4 25.8,12.8 28.3,12.8 26.3,14.3 27,16.7 25,15.2 23,16.7 23.7,14.3 21.7,12.8 24.2,12.8 		"/>
		<polygon class="st1" points="14.7,14.7 16.9,15.8 18.7,14 18.3,16.5 20.5,17.7 18.1,18.1 17.7,20.5 16.5,18.3 14,18.7 15.8,16.9 
					"/>
		<polygon class="st1" points="10.4,25 12.8,24.2 12.8,21.7 14.3,23.7 16.7,23 15.2,25 16.7,27 14.3,26.3 12.8,28.3 12.8,25.8 		"/>
		<polygon class="st1" points="14.7,35.3 15.8,33.1 14,31.3 16.5,31.7 17.7,29.5 18.1,31.9 20.5,32.3 18.3,33.5 18.7,36 16.9,34.2 
					"/>
		<polygon class="st1" points="25,39.6 24.2,37.2 21.7,37.2 23.7,35.7 23,33.3 25,34.8 27,33.3 26.3,35.7 28.3,37.2 25.8,37.2 		"/>
		<polygon class="st1" points="35.3,35.3 33.1,34.2 31.3,36 31.7,33.5 29.5,32.3 31.9,31.9 32.3,29.5 33.5,31.7 36,31.3 34.2,33.1 
					"/>
		<polygon class="st1" points="39.6,25 37.2,25.8 37.2,28.3 35.7,26.3 33.3,27 34.8,25 33.3,23 35.7,23.7 37.2,21.7 37.2,24.2 		"/>
		<polygon class="st1" points="35.3,14.7 34.2,16.9 36,18.7 33.5,18.3 32.3,20.5 31.9,18.1 29.5,17.7 31.7,16.5 31.3,14 33.1,15.8 
					"/>
	</g>
</g>
</svg>
