<?xml version="1.0" encoding="utf-8"?>
<!-- Generator: Adobe Illustrator 23.0.5, SVG Export Plug-In . SVG Version: 6.00 Build 0)  -->
<svg version="1.1" id="Layer_1" xmlns="http://www.w3.org/2000/svg" xmlns:xlink="http://www.w3.org/1999/xlink" x="0px" y="0px"
	 viewBox="0 0 100 100" style="enable-background:new 0 0 100 100;" xml:space="preserve">
<style type="text/css">
	.st0{fill:#4267B2;}
	.st1{fill:#FFFFFF;}
</style>
<g>
	<path class="st0" d="M91,1.5H10c-2.8,0-5,2.4-5,5.3v85.3c0,2.9,2.3,5.3,5,5.3h81c2.8,0,5-2.4,5-5.3c0,0,0,0,0,0V6.8
		C96,3.9,93.7,1.5,91,1.5z"/>
	<path class="st1" d="M67.8,97.5V60.4h11.9l1.8-14.5H67.8v-9.2c0-4.2,1.1-7.1,6.8-7.1h7.2v-13c-1.3-0.2-5.6-0.6-10.6-0.6
		c-10.5,0-17.7,6.7-17.7,19.1v10.7H41.8v14.5h11.8v37.1H67.8z"/>
</g>
</svg>
