<?xml version="1.0" encoding="utf-8"?>
<!-- Generator: Adobe Illustrator 16.0.0, SVG Export Plug-In . SVG Version: 6.00 Build 0)  -->
<!DOCTYPE svg PUBLIC "-//W3C//DTD SVG 1.1//EN" "http://www.w3.org/Graphics/SVG/1.1/DTD/svg11.dtd">
<svg version="1.1" id="Layer_1" xmlns="http://www.w3.org/2000/svg" xmlns:xlink="http://www.w3.org/1999/xlink" x="0px" y="0px"
	 width="20.398px" height="26.781px" viewBox="0 0 20.398 26.781" enable-background="new 0 0 20.398 26.781" xml:space="preserve">
<path fill="#64B4E4" d="M-183.71-19.265V5.967c0,0.55-0.446,0.997-0.996,0.997h-32.006c-0.55,0-0.996-0.447-0.996-0.997v-25.232
	c0-0.55,0.446-0.996,0.996-0.996h32.006C-184.156-20.261-183.71-19.815-183.71-19.265"/>
<path fill="#5493CE" d="M-184.706-20.261h-16.003V6.964h16.003c0.55,0,0.996-0.447,0.996-0.996v-25.233
	C-183.71-19.815-184.156-20.261-184.706-20.261"/>
<path fill="#52C7E3" d="M-203.432-3.728V6.963h-13.28c-0.55,0-0.996-0.446-0.996-0.996v-10.69h13.28
	C-203.878-4.723-203.432-4.278-203.432-3.728"/>
<path fill="#9EDBE8" d="M-183.71,5.484v0.483c0,0.55-0.446,0.996-0.996,0.996h-32.006c-0.55,0-0.996-0.446-0.996-0.996V5.484
	l12.947-10.207l3.435-2.708c0.362-0.285,0.872-0.285,1.234,0L-183.71,5.484z"/>
<path fill="#52C7E3" d="M-200.092-7.431c-0.183-0.143-0.399-0.214-0.617-0.214V6.964h16.003c0.55,0,0.996-0.447,0.996-0.997V5.484
	L-200.092-7.431z"/>
<path fill="#FEDD40" d="M-192.011-16.277c-2.38,0-4.315,1.936-4.315,4.315c0,2.38,1.936,4.317,4.315,4.317s4.316-1.937,4.316-4.317
	C-187.694-14.341-189.631-16.277-192.011-16.277"/>
<path fill="#64B4E4" d="M-76.21-13.375h-0.565v1.134h0.872c0.09-0.091,0.26-0.307,0.26-0.567
	C-75.642-13.127-75.892-13.375-76.21-13.375"/>
<path fill="#64B4E4" d="M-76.21-20.743c-3.129,0-5.666-2.538-5.666-5.666c0-2.244,1.326-4.239,3.299-5.146
	c0.317-0.612,0.701-1.168,1.167-1.654h-11.55c-1.721,0-3.114,1.394-3.114,3.116v20.964c0,1.724,1.394,3.118,3.114,3.118h16.434
	c1.723,0,3.116-1.394,3.116-3.116v-11.615h-6.8V-20.743z M-84.991-9.976c0.469,0,0.85,0.381,0.85,0.85c0,0.47-0.381,0.85-0.85,0.85
	h-2.834c-0.301,0-0.579-0.16-0.732-0.418c-0.154-0.26-0.156-0.579-0.01-0.843l2.131-3.837h-1.389c-0.469,0-0.85-0.381-0.85-0.85
	c0-0.468,0.381-0.849,0.85-0.849h2.834c0.301,0,0.58,0.159,0.732,0.418c0.153,0.257,0.156,0.579,0.01,0.842l-2.131,3.837H-84.991z
	 M-80.46-9.126c0,0.47-0.381,0.85-0.85,0.85s-0.85-0.38-0.85-0.85v-5.1c0-0.468,0.381-0.849,0.85-0.849s0.85,0.381,0.85,0.849
	V-9.126z M-75.778-10.544h-0.997v1.416c0,0.465-0.386,0.851-0.851,0.851s-0.85-0.386-0.85-0.851v-5.1
	c0-0.463,0.385-0.849,0.85-0.849h1.416c1.246,0,2.267,1.021,2.267,2.265C-73.942-11.666-74.85-10.544-75.778-10.544"/>
<path fill="#64B4E4" d="M-68.843-23.009h-7.365c-1.875,0-3.4-1.524-3.4-3.399c0-1.653,1.184-3.033,2.748-3.337
	c0.588-2.015,2.466-3.463,4.618-3.463c1.698,0,3.271,0.904,4.128,2.338c1.851,0.338,3.237,1.963,3.237,3.895
	C-64.877-24.788-66.656-23.009-68.843-23.009"/>
<path fill="#557FC0" d="M20.398,7.062l-5.492-1.569L13.337,0H2.354C1.054,0,0,1.055,0,2.355v22.071c0,1.301,1.054,2.355,2.354,2.355
	h15.69c1.299,0,2.354-1.054,2.354-2.355V7.062z"/>
<path fill="#89ACDA" d="M20.398,7.062h-5.492c-0.863,0-1.569-0.706-1.569-1.569V0c0.204,0,0.408,0.08,0.549,0.237l6.276,6.276
	C20.319,6.654,20.398,6.858,20.398,7.062"/>
<path fill="#FEF5F5" d="M14.906,12.606H5.491c-0.434,0-0.784-0.351-0.784-0.784c0-0.434,0.351-0.785,0.784-0.785h9.415
	c0.434,0,0.784,0.351,0.784,0.785C15.69,12.255,15.34,12.606,14.906,12.606"/>
<path fill="#FEF5F5" d="M14.906,15.745H5.491c-0.434,0-0.784-0.352-0.784-0.785c0-0.434,0.351-0.784,0.784-0.784h9.415
	c0.434,0,0.784,0.35,0.784,0.784C15.69,15.393,15.34,15.745,14.906,15.745"/>
<path fill="#FEF5F5" d="M14.906,18.882H5.491c-0.434,0-0.784-0.351-0.784-0.784c0-0.434,0.351-0.785,0.784-0.785h9.415
	c0.434,0,0.784,0.351,0.784,0.785C15.69,18.531,15.34,18.882,14.906,18.882"/>
<path fill="#FEF5F5" d="M11.768,22.021H5.491c-0.434,0-0.785-0.352-0.785-0.785c0-0.434,0.352-0.784,0.785-0.784h6.276
	c0.434,0,0.785,0.35,0.785,0.784C12.553,21.669,12.201,22.021,11.768,22.021"/>
<polygon fill="#D9E2EF" points="124.152,110.692 102.582,110.692 102.582,81.032 119.298,81.032 124.152,85.885 "/>
<polygon fill="#A4B2C2" points="119.299,81.032 119.299,85.886 124.152,85.886 "/>
<rect x="102.582" y="102.603" fill="#B63639" width="21.57" height="9.707"/>
<path fill="#FFFFFF" d="M105.817,110.692c-0.298,0-0.539-0.241-0.539-0.539v-5.393c0-0.298,0.241-0.54,0.539-0.54
	s0.539,0.242,0.539,0.54v5.393C106.356,110.451,106.115,110.692,105.817,110.692"/>
<path fill="#FFFFFF" d="M120.917,105.299h-3.235c-0.298,0-0.54-0.242-0.54-0.539c0-0.298,0.242-0.54,0.54-0.54h3.235
	c0.298,0,0.539,0.242,0.539,0.54C121.456,105.057,121.215,105.299,120.917,105.299"/>
<path fill="#FFFFFF" d="M120.917,107.996h-3.235c-0.298,0-0.54-0.241-0.54-0.539s0.242-0.54,0.54-0.54h3.235
	c0.298,0,0.539,0.242,0.539,0.54S121.215,107.996,120.917,107.996"/>
<path fill="#FFFFFF" d="M117.682,110.692c-0.298,0-0.54-0.241-0.54-0.539v-5.393c0-0.298,0.242-0.54,0.54-0.54
	s0.539,0.242,0.539,0.54v5.393C118.221,110.451,117.979,110.692,117.682,110.692"/>
<path fill="#B63639" d="M112.979,86.843c-0.053,0.018-0.715,0.933,0.052,1.707C113.54,87.427,113.003,86.837,112.979,86.843
	 M113.306,91.335c-0.385,1.313-0.892,2.73-1.438,4.014c1.123-0.43,2.344-0.805,3.491-1.071
	C114.634,93.446,113.909,92.407,113.306,91.335 M117.32,94.829c0.437,0.332,0.544,0.5,0.831,0.5c0.126,0,0.484-0.005,0.65-0.233
	c0.08-0.111,0.111-0.183,0.123-0.219c-0.065-0.035-0.153-0.105-0.633-0.105C118.021,94.771,117.681,94.783,117.32,94.829
	 M109.992,97.186c-1.148,0.637-1.618,1.161-1.651,1.456c-0.004,0.05-0.019,0.178,0.232,0.367
	C108.653,98.984,109.121,98.774,109.992,97.186 M108.562,99.907c-0.188,0-0.367-0.062-0.521-0.173
	c-0.558-0.416-0.634-0.877-0.598-1.191c0.098-0.863,1.18-1.768,3.216-2.689c0.808-1.75,1.578-3.905,2.036-5.706
	c-0.536-1.152-1.058-2.648-0.678-3.525c0.133-0.308,0.3-0.543,0.609-0.646c0.122-0.04,0.433-0.09,0.545-0.09
	c0.283,0,0.554,0.336,0.685,0.555c0.242,0.406,0.243,0.879,0.205,1.335c-0.037,0.442-0.112,0.884-0.199,1.319
	c-0.063,0.321-0.136,0.64-0.212,0.957c0.724,1.478,1.75,2.982,2.732,4.013c0.705-0.125,1.312-0.188,1.806-0.188
	c0.841,0,1.352,0.193,1.56,0.592c0.172,0.33,0.101,0.716-0.21,1.146c-0.3,0.413-0.711,0.632-1.192,0.632
	c-0.655,0-1.415-0.407-2.264-1.213c-1.524,0.315-3.305,0.876-4.744,1.498c-0.449,0.94-0.879,1.699-1.28,2.256
	C109.507,99.552,109.031,99.907,108.562,99.907"/>
<path fill="#FFFFFF" d="M107.436,108.535h-1.618c-0.298,0-0.539-0.241-0.539-0.539v-3.234c0-0.299,0.241-0.541,0.539-0.541h1.618
	c1.189,0,2.157,0.967,2.157,2.157C109.593,107.567,108.625,108.535,107.436,108.535 M106.356,107.457h1.079
	c0.595,0,1.078-0.484,1.078-1.079s-0.483-1.078-1.078-1.078h-1.079V107.457z"/>
<path fill="#FFFFFF" d="M112.289,110.693h-0.539c-0.298,0-0.54-0.242-0.54-0.539v-5.394c0-0.298,0.242-0.54,0.54-0.54h0.539
	c1.783,0,3.235,1.451,3.235,3.236C115.524,109.24,114.072,110.693,112.289,110.693 M112.289,109.613h0.005H112.289z
	 M112.289,105.299v4.313c1.188,0,2.155-0.967,2.155-2.156C114.444,106.266,113.478,105.299,112.289,105.299"/>
</svg>
