<?xml version="1.0" encoding="utf-8"?>
<!-- Generator: Adobe Illustrator 16.0.0, SVG Export Plug-In . SVG Version: 6.00 Build 0)  -->
<!DOCTYPE svg PUBLIC "-//W3C//DTD SVG 1.1//EN" "http://www.w3.org/Graphics/SVG/1.1/DTD/svg11.dtd">
<svg version="1.1" id="Layer_1" xmlns="http://www.w3.org/2000/svg" xmlns:xlink="http://www.w3.org/1999/xlink" x="0px" y="0px"
	 width="224.511px" height="54.499px" viewBox="0 0 224.511 54.499" enable-background="new 0 0 224.511 54.499"
	 xml:space="preserve">
<path fill="#9FAAC1" d="M18.237,10.337c-1.418,0.781-3.386,2.578-4.393,3.976c-1.008,1.397-1.788,3.012-2.343,4.84
	c-0.555,1.829-0.832,3.771-0.832,5.827c0,2.138,0.328,3.987,0.986,5.549c0.657,1.563,1.654,2.765,2.99,3.607
	c1.335,0.843,2.989,1.263,4.964,1.263c1.562,0,2.918-0.246,4.068-0.739c1.151-0.493,2.098-1.181,2.837-2.065
	c0.74-0.883,1.295-1.9,1.665-3.052l0.432-1.356H18.87l1.604-7.029h18.188l-5.487,21.703h-7.029l2.097-9.557l0.925,0.986
	c-0.74,1.974-1.686,3.639-2.836,4.995c-1.152,1.356-2.559,2.384-4.224,3.083c-1.665,0.698-3.607,1.048-5.827,1.048
	c-3.042,0-5.786-0.709-8.231-2.127c-2.445-1.419-4.398-3.442-5.857-6.073c-1.425-2.568-2.153-5.627-2.188-9.176
	c-0.001-0.075-0.001-0.149-0.001-0.225c0-0.012-0.005-0.023,0-0.034C7.075,11.641,18.237,10.337,18.237,10.337"/>
<path fill="#9FAAC1" d="M0.115,23.215c0,0,2.966-11.275,16.018-14.592c0,0,8.899-2.653,15.425,3.979l-2.966,3.316h13.645L38.083,0
	l-1.78,5.307c0,0-10.679-8.623-24.323-1.326C11.98,3.98,0.115,9.286,0.115,23.215"/>
<path fill="#9FAAC1" d="M163.763,33.059c-0.368,0.368-0.736,0.613-1.104,0.981c-1.472,1.35-3.067,2.332-5.03,2.699
	c-1.718,0.368-2.699-0.245-3.189-1.841c-0.368-1.104-0.491-2.208-0.368-3.313c0.123-1.472,0.368-2.821,0.981-4.171
	c0.858-1.962,1.963-3.681,3.804-5.03c0.735-0.491,1.471-0.981,2.331-0.858c1.226,0.122,2.331,0.735,3.066,1.595
	c0.613,0.736,1.104,1.595,1.596,2.332c0.613-2.087,1.103-4.173,1.595-6.258c0-0.246,0-0.49-0.123-0.736
	c-1.104-1.35-2.331-2.454-4.049-2.944c-2.822-0.859-5.521-0.491-8.097,0.982c-2.209,1.226-4.049,2.82-5.521,4.906
	c-1.963,2.699-3.189,5.767-3.558,9.079c-0.245,2.453-0.123,5.03,0.98,7.238c1.596,3.313,4.172,5.03,7.853,5.276
	c2.454,0.122,4.54-0.614,6.626-1.841c0.122-0.123,0.245-0.369,0.245-0.491c0.49-1.962,0.981-3.926,1.472-5.767
	C163.518,34.285,163.64,33.672,163.763,33.059C163.886,32.936,163.763,32.936,163.763,33.059
	C163.763,32.936,163.763,33.059,163.763,33.059"/>
<path fill="#9FAAC1" d="M125.853,42.874c0-0.123,0.122-0.246,0.122-0.368c0.368-1.473,0.736-2.822,1.104-4.294
	c0.981-3.804,2.087-7.608,3.067-11.533c0.122-0.613,0.368-1.227,0.858-1.595c0.981-0.859,1.963-1.718,3.067-2.576
	c0.368-0.246,0.858-0.368,1.227-0.491c1.35-0.245,2.453,0.981,2.086,2.331c-0.245,0.981-0.491,1.963-0.736,2.944
	c-1.104,4.294-2.208,8.711-3.436,13.005c-0.245,0.981-0.49,1.841-0.735,2.822c-0.246,1.227-0.246,2.453-0.368,3.803
	c0,0.491-0.123,0.981-0.123,1.473c0.613,2.944,2.331,4.785,5.153,5.767c1.35,0.49,2.699,0.368,4.049,0.122
	c2.085-0.368,4.048-1.104,5.643-2.576c0.369-0.245,0.369-0.49,0.246-0.981c-0.491-1.35-0.981-2.822-1.473-4.172
	c0-0.122-0.122-0.245-0.245-0.491c-0.368,0.246-0.613,0.491-0.982,0.614c-1.349,0.736-2.698,0.368-3.435-0.858
	c-0.613-1.104-0.736-2.331-0.49-3.436c0.368-1.35,0.736-2.822,1.104-4.171c1.104-4.049,2.209-8.221,3.313-12.27
	c0.367-1.227,0.613-2.453,0.613-3.803c-0.123-2.454-1.228-4.417-3.313-5.767c-0.614-0.368-1.228-0.736-1.964-0.858
	c-1.227-0.368-2.576-0.123-3.926,0.122s-2.576,0.859-3.803,1.473c0.122-0.613,0.245-1.228,0.368-1.841h-7.975
	c-2.455,9.079-4.785,18.158-7.239,27.359C120.7,42.874,123.276,42.874,125.853,42.874"/>
<path fill="#9FAAC1" d="M65,15.392c-0.49,1.963-0.981,3.926-1.595,6.012h3.681c-1.841,7.238-3.681,14.354-5.644,21.471h7.975
	c2.086-7.116,3.926-14.354,5.767-21.471h5.029c0.491-1.963,1.104-3.926,1.596-6.012h-5.03c0.981-4.049,2.085-7.853,3.067-11.9H71.87
	c-0.981,3.926-2.085,7.975-3.066,11.9H65z"/>
<path fill="#9FAAC1" d="M77.146,42.874h7.975c3.558-13.741,7.238-27.482,10.796-41.224H87.82
	C84.261,15.392,80.704,29.133,77.146,42.874"/>
<path fill="#9FAAC1" d="M183.27,34.163C183.27,34.285,183.27,34.285,183.27,34.163C183.27,34.285,183.27,34.285,183.27,34.163
	C183.27,34.285,183.393,34.285,183.27,34.163C183.393,34.285,183.27,34.285,183.27,34.163"/>
<path fill="#9FAAC1" d="M110.149,17.723c0.245-0.858,0.49-1.594,0.735-2.331h7.853c-0.245,0.981-0.491,1.84-0.736,2.699
	c-1.227,4.538-2.332,9.201-3.558,13.741c-0.245,1.104-0.613,2.085-0.86,3.189c-0.244,0.982,0.247,1.718,1.229,1.595
	c0.368,0,0.857-0.122,1.227-0.122c0.123,0,0.245,0,0.491-0.123c-0.246,0.736-0.368,1.473-0.614,2.086
	c-0.246,0.858-0.49,1.718-0.735,2.453c0,0.123-0.123,0.368-0.246,0.491c-1.718,1.104-3.558,1.963-5.644,1.84
	c-1.718,0-3.067-0.858-4.171-2.085c-0.123-0.123-0.246-0.246-0.368-0.491c-0.491,0.368-0.981,0.613-1.35,0.859
	c-1.473,0.858-2.944,1.472-4.662,1.35c-2.945-0.123-4.907-1.596-6.135-4.172c-0.981-2.208-1.227-4.662-0.981-6.993
	c0.245-4.049,1.718-7.606,3.926-10.919c1.596-2.331,3.559-4.294,6.135-5.398c2.086-0.981,4.172-1.104,6.257,0
	C108.799,16.129,109.535,16.864,110.149,17.723 M99.229,32.567c0.123,0.736,0.123,1.35,0.246,2.086
	c0.368,1.963,1.718,2.576,3.313,1.473c0.49-0.368,0.981-0.859,1.472-1.35c1.35-1.595,2.209-3.436,2.822-5.275
	c0.49-1.228,0.736-2.577,0.858-3.927c0-0.981,0-1.963-0.368-2.945c-0.368-1.103-1.35-1.471-2.453-1.226
	c-0.736,0.245-1.228,0.613-1.718,1.104C100.579,25.207,99.475,28.765,99.229,32.567"/>
<path fill="#9FAAC1" d="M62.3,26.188c0,3.435-0.981,6.502-2.699,9.324c-1.595,2.699-3.681,4.907-6.502,6.502
	c-2.331,1.35-4.785,1.841-7.484,1.227c-3.436-0.858-5.644-3.065-6.625-6.379c-1.104-3.927-0.736-7.729,0.858-11.533
	c0.859-2.086,2.086-4.049,3.559-5.644c2.208-2.208,4.662-3.926,7.852-4.417c4.417-0.735,9.079,1.963,10.306,6.748
	c0.123,0.613,0.246,1.227,0.368,1.841C62.178,24.594,62.178,25.452,62.3,26.188 M55.184,25.697c0-1.35-0.122-2.331-0.49-3.189
	c-0.368-0.859-1.227-1.228-2.086-1.104c-0.368,0.123-0.613,0.123-0.982,0.368c-1.226,0.613-2.086,1.595-2.82,2.699
	c-1.35,2.085-2.331,4.416-2.699,6.871c-0.246,1.226-0.246,2.575,0.122,3.803c0.491,1.595,1.718,2.208,3.19,1.35
	c0.736-0.368,1.472-0.858,1.963-1.473C53.834,32.322,54.939,29.011,55.184,25.697"/>
<path fill="#9FAAC1" d="M183.27,34.408c-0.122,0.368-0.245,0.736-0.245,1.104c-0.49,1.963-0.981,3.926-1.472,5.766
	c-0.123,0.368-0.246,0.613-0.614,0.859c-2.576,1.472-5.397,1.595-8.22,0.613c-1.227-0.368-2.331-0.981-3.313-1.841
	c-1.473-1.227-2.454-2.821-2.944-4.662c-0.859-3.313-0.613-6.625,0.49-9.814c1.472-4.049,4.049-7.361,7.853-9.569
	c1.963-1.104,4.171-1.841,6.502-1.596c1.963,0.123,3.681,0.736,5.275,1.841c1.35,0.981,2.086,2.453,2.331,4.171
	c0.491,3.19-0.491,6.012-2.698,8.343c-1.964,2.086-4.172,3.559-6.993,4.172c-1.718,0.368-3.436,0.368-5.03,0
	c-0.123,0-0.246,0-0.491-0.123c-0.123,1.473,1.104,3.19,2.454,3.436c0.613,0.122,1.35,0,2.085-0.123
	c1.718-0.245,3.19-1.104,4.54-2.208C182.903,34.653,183.148,34.531,183.27,34.408C183.148,34.408,183.27,34.408,183.27,34.408
	 M174.069,28.642c0.123,0,0.245,0.123,0.245,0.123c1.963,0.368,3.926,0.245,5.767-0.613c1.227-0.613,2.086-1.596,2.576-2.823
	c0.491-1.104,0.123-2.33-0.736-3.188c-0.735-0.736-1.717-0.736-2.821-0.123c-0.123,0-0.123,0.123-0.245,0.123
	c-0.981,0.613-1.841,1.472-2.454,2.331C175.418,25.574,174.56,27.047,174.069,28.642"/>
<path fill="#9FAAC1" d="M65,15.392h3.681c0.981-3.926,2.086-7.975,3.067-11.9h7.975c-0.981,3.926-1.963,7.852-3.067,11.9h5.03
	c-0.613,2.086-1.104,3.926-1.595,6.012h-5.03c-1.718,7.116-3.558,14.354-5.521,21.471h-7.976c1.842-7.116,3.682-14.232,5.645-21.471
	h-3.681C64.018,19.317,64.509,17.478,65,15.392"/>
<path fill="#9FAAC1" d="M77.146,42.874c3.558-13.741,7.238-27.482,10.796-41.224h8.098c-3.681,13.741-7.361,27.482-10.919,41.224
	H77.146z"/>
<path fill="#9FAAC1" d="M163.763,33.059C163.763,33.059,163.763,32.936,163.763,33.059
	C163.763,32.936,163.886,32.936,163.763,33.059"/>
<path fill="#9FAAC1" d="M183.27,34.163C183.27,34.285,183.393,34.285,183.27,34.163C183.393,34.285,183.27,34.285,183.27,34.163
	C183.27,34.285,183.27,34.285,183.27,34.163C183.27,34.285,183.27,34.285,183.27,34.163"/>
<path fill="#9FAAC1" d="M196.275,19.809l0.123-0.123C196.398,19.686,196.398,19.809,196.275,19.809"/>
<path fill="#9FAAC1" d="M212.712,39.485c-0.075,2.259-1.731,3.915-3.99,3.915c-2.183,0-3.989-1.581-3.989-3.915
	c0-2.184,1.73-3.915,4.064-3.84C211.056,35.57,212.637,37.227,212.712,39.485 M211.734,39.41c0.075-1.807-1.581-3.463-3.613-3.087
	c-1.355,0.302-2.259,1.356-2.409,2.786c-0.075,1.054,0.301,1.957,1.054,2.635s2.184,0.903,3.087,0.527
	C211.131,41.819,211.659,40.766,211.734,39.41"/>
<path fill="#9FAAC1" d="M208.045,41.519h-0.828v-3.915c0.828-0.15,1.581-0.226,2.334,0c0.752,0.15,1.054,0.979,0.602,1.506
	c-0.15,0.15-0.376,0.301-0.602,0.451c0.828,0.377,0.677,1.205,0.979,1.958h-0.828c-0.075,0-0.15-0.151-0.227-0.227
	c-0.075-0.226-0.15-0.526-0.226-0.753c-0.15-0.526-0.301-0.602-0.828-0.602h-0.452C208.045,40.464,208.045,40.991,208.045,41.519
	 M208.196,39.335c0.301-0.075,0.603-0.075,0.903-0.15c0.226-0.075,0.376-0.302,0.376-0.527s-0.15-0.376-0.376-0.451
	c-0.301-0.076-0.603-0.076-0.903,0V39.335z"/>
<path fill="#9FAAC1" d="M210.807,35.847l13.704-7.494L211.45,17.86l1.392,6.103c0,0-4.068-1.285-8.351,0.214
	c0,0-7.066,2.356-10.706,7.709l-3.426,12.419h8.351l1.927-6.638c0,0,3.212-6.424,8.137-7.494c0,0,2.569-0.215,3.854,0.856
	L210.807,35.847z"/>
<path fill="#9FAAC1" d="M191.322,15.612l-1.284,7.065h5.995l-1.07,4.498c0,0,4.139-3.897,9.488-5.3l0.032-0.009l1.511-6.255h-0.03
	H191.322z"/>
</svg>
