<?xml version="1.0" encoding="utf-8"?>
<!-- Generator: Adobe Illustrator 23.0.5, SVG Export Plug-In . SVG Version: 6.00 Build 0)  -->
<svg version="1.1" id="Layer_1" xmlns="http://www.w3.org/2000/svg" xmlns:xlink="http://www.w3.org/1999/xlink" x="0px" y="0px"
	 viewBox="0 0 50 50" style="enable-background:new 0 0 50 50;" xml:space="preserve">
<style type="text/css">
	.st0{fill:#D32030;}
	.st1{fill:#29337A;}
	.st2{fill:#FFFFFF;}
	.st3{fill:#252F6C;}
	.st4{fill:#E7E7E7;}
	.st5{fill:#D71F28;}
	.st6{fill:#E51D35;}
</style>
<g>
	<path class="st0" d="M29.2,4.1V1.4C27.8,1.1,26.3,1,24.8,1C26.5,1,28,2.7,29.2,4.1z"/>
	<g>
		<g>
			<path class="st1" d="M5.2,11.3c-1.5,2.2-2.7,4.7-3.4,7.4h10.8L5.2,11.3z"/>
			<path class="st1" d="M18.2,2c-2.7,0.8-5.3,2.1-7.5,3.7l7.5,7.5V2z"/>
			<path class="st1" d="M11.2,44.4c2.1,1.5,4.4,2.6,7,3.3V37.4L11.2,44.4z"/>
			<path class="st1" d="M2.1,31.9c0.8,2.6,2,4.9,3.5,7l7-7H2.1z"/>
		</g>
		<g>
			<path class="st2" d="M5.6,10.8c-0.1,0.2-0.3,0.4-0.4,0.6l7.4,7.4H1.8c-0.2,0.7-0.3,1.4-0.4,2h14.3L5.6,10.8z"/>
			<path class="st2" d="M10.6,44c0.2,0.1,0.4,0.3,0.6,0.4l7-7v10.3c0.7,0.2,1.3,0.4,2,0.5V34.4L10.6,44z"/>
			<path class="st2" d="M1.5,29.8c0.1,0.7,0.3,1.4,0.5,2h10.6l-7,7c0.8,1,1.6,2,2.5,2.9l12-12H1.5L1.5,29.8z"/>
			<path class="st2" d="M18.2,2v11.3l-7.5-7.5c-1,0.8-2,1.6-2.9,2.6l12.5,12.5V1.5C19.5,1.6,18.8,1.8,18.2,2z"/>
		</g>
		<g>
			<polygon class="st0" points="18.2,31.8 18.1,31.9 18.2,31.9 			"/>
			<polygon class="st0" points="20.1,29.8 20.2,29.8 20.2,29.8 			"/>
			<polygon class="st0" points="29.3,20.8 29.2,20.8 29.2,20.9 			"/>
			<polygon class="st0" points="18.2,18.8 18.2,18.7 18.2,18.8 			"/>
			<polygon class="st0" points="20.2,20.7 20.2,20.8 20.3,20.8 			"/>
		</g>
		<g>
			<path class="st3" d="M31.3,42.4v5.3c2.6-0.7,4.9-1.8,7.1-3.3l-5.8-5.8C32.1,40.3,31.9,41.2,31.3,42.4z"/>
			<path class="st3" d="M32.6,11.9l6.3-6.3c-2.3-1.7-4.8-2.9-7.6-3.7v5.5C32,8.9,32.1,10,32.6,11.9z"/>
			<path class="st3" d="M44,39c1.6-2.1,2.8-4.6,3.6-7.2H36.8L44,39z"/>
			<path class="st3" d="M47.9,18.8c-0.7-2.7-1.9-5.3-3.5-7.6l-7.6,7.6H47.9z"/>
		</g>
		<g>
			<path class="st4" d="M34,30.2l1.6,1.6l7.8,7.8c0.2-0.2,0.4-0.4,0.5-0.7l-7.2-7.2h10.8c0.2-0.7,0.4-1.3,0.5-2h-14
				C34.1,30.1,34,30,34,30.2z"/>
			<path class="st4" d="M32.3,13.1L39.4,6c-0.2-0.1-0.4-0.3-0.5-0.4l-6.3,6.3C32.7,12.2,32.3,12.9,32.3,13.1z"/>
			<path class="st4" d="M31.3,6.9V1.9c-0.7-0.2-1.3-0.3-2-0.5v2.5C30,4.7,30.7,5.7,31.3,6.9z"/>
			<path class="st4" d="M33.8,20.8h14.5c-0.1-0.7-0.3-1.4-0.4-2H36.8l7.6-7.6c-0.7-1.1-1.6-2.1-2.5-3l-8.5,8.5
				C33.6,18.3,33.7,19.2,33.8,20.8z"/>
			<path class="st4" d="M32.2,38.3l6.1,6.1c1-0.7,2-1.5,2.9-2.3l-8.1-8.1C32.9,35.6,32.6,37,32.2,38.3z"/>
			<path class="st4" d="M29.2,45.5v2.7c0.7-0.1,1.4-0.3,2-0.5v-5.3C30.7,43.7,30,44.7,29.2,45.5z"/>
		</g>
		<path class="st5" d="M33.4,16.7l8.5-8.5c-0.8-0.8-1.6-1.5-2.5-2.2l-6.7,6.7C33,14,33.2,15.4,33.4,16.7z"/>
		<g>
			<path class="st0" d="M23.7,1c0.4,0,0.8,0,1.2,0C24.4,1,24,1,23.7,1z"/>
			<path class="st0" d="M24.8,48.7c-0.4,0-0.8,0-1.2,0C24,48.7,24.4,48.7,24.8,48.7z"/>
			<path class="st0" d="M24.8,48.7c1.5,0,3-0.1,4.4-0.4v-2.7C28,46.9,26.5,48.7,24.8,48.7z"/>
		</g>
		<g>
			<path class="st5" d="M48.3,20.8H34c0.2,3,0.2,6.1-0.1,9h14.2c0.3-1.6,0.5-3.3,0.5-5C48.7,23.5,48.6,22.1,48.3,20.8z"/>
			<path class="st5" d="M34,30.2c-0.1,1.4-0.6,2.5-0.8,3.8l8.1,8.1c0.8-0.8,1.5-1.6,2.2-2.4l-7.8-7.8L34,30.2z"/>
		</g>
		<g>
			<path class="st1" d="M31.3,43.5c0.6-1.3,1.2-2.8,1.7-4.4l-1.7-1.7V43.5z"/>
			<path class="st1" d="M33.1,11.4c-0.5-1.9-1.1-3.7-1.9-5.2v7L33.1,11.4z"/>
		</g>
		<g>
			<path class="st2" d="M34.4,30.7c0-0.3,0.1-0.6,0.1-0.9h-0.9L34.4,30.7z"/>
			<path class="st2" d="M31.3,13.2v-7C30.7,5,30,4,29.2,3.1v13.1l4.1-4.1c-0.1-0.3-0.1-0.5-0.2-0.8L31.3,13.2z"/>
			<path class="st2" d="M29.3,20.8h5.3c-0.1-1.6-0.3-3.2-0.5-4.8L29.3,20.8z"/>
			<path class="st2" d="M29.2,46.5c0.8-0.8,1.4-1.9,2-3.1v-6.1l1.7,1.7c0.4-1.3,0.7-2.8,1-4.3l-4.7-4.7L29.2,46.5L29.2,46.5z"/>
		</g>
		<path class="st6" d="M29.2,46.5V30.2l4.7,4.7c0.2-1.3,0.4-2.7,0.5-4.1l-0.9-0.9h0.9c0.2-3,0.3-6,0.1-9h-5.3l4.8-4.8
			c-0.2-1.4-0.5-2.7-0.7-3.9l-4.1,4.1V3.1C28,1.8,26.5,1,24.8,1c-0.4,0-0.8,0-1.2,0c-1.2,0.1-2.3,0.2-3.4,0.4v19.3L7.7,8.3
			C7,9,6.2,9.9,5.6,10.8l8,8l2,2H1.3c-0.2,1.3-0.3,2.7-0.3,4c0,1.7,0.2,3.4,0.5,5h18.6l-12,12c0.8,0.8,1.6,1.5,2.5,2.1l9.6-9.6v13.8
			c1.1,0.2,2.3,0.4,3.4,0.4c0.4,0,0.8,0,1.2,0C26.5,48.7,28,47.9,29.2,46.5z"/>
	</g>
</g>
</svg>
