<?xml version="1.0" encoding="utf-8"?>
<!-- Generator: Adobe Illustrator 23.0.5, SVG Export Plug-In . SVG Version: 6.00 Build 0)  -->
<svg version="1.1" id="Layer_1" xmlns="http://www.w3.org/2000/svg" xmlns:xlink="http://www.w3.org/1999/xlink" x="0px" y="0px"
	 viewBox="0 0 100 100" style="enable-background:new 0 0 100 100;" xml:space="preserve">
<style type="text/css">
	.st0{fill:#F7F8FA;}
	.st1{fill:#FBBD00;}
	.st2{fill:#0F9D58;}
	.st3{fill:#31AA52;}
	.st4{fill:#3C79E6;}
	.st5{fill:#CF2D48;}
	.st6{fill:#EB4132;}
</style>
<g>
	<path class="st0" d="M96,98H5c-1.6,0-3-1.3-3-3V4c0-1.6,1.3-3,3-3H96c1.6,0,3,1.3,3,3V95C99,96.7,97.7,98,96,98z"/>
	<g>
		<path class="st1" d="M36.5,48.2c0-2.9,0.8-5.5,2.2-7.8v-9.7h-9.7c-3.9,5-6,11.1-6,17.5s2.1,12.5,6,17.5h9.7V56
			C37.3,53.7,36.5,51,36.5,48.2z"/>
		<path class="st2" d="M51.8,63.5l-6.8,6.8l6.8,6.8c6.4,0,12.5-2.1,17.5-6v-9.7h-9.7C57.3,62.7,54.6,63.5,51.8,63.5z"/>
		<path class="st3" d="M38.6,56l-9.7,9.7c0.8,1,1.6,1.9,2.5,2.8C36.9,74,44.1,77,51.8,77V63.5C46.2,63.5,41.3,60.5,38.6,56L38.6,56z
			"/>
		<path class="st4" d="M80.6,48.2c0-1.8-0.2-3.5-0.5-5.2l-0.3-1.4H51.8v13.5h13.7c-1.3,2.6-3.4,4.8-5.8,6.3l9.7,9.7
			c1-0.8,1.9-1.6,2.8-2.5C77.6,63.1,80.6,55.9,80.6,48.2z"/>
		<path class="st5" d="M62.6,37.4l1.2,1.2l9.6-9.6l-1.2-1.2c-5.4-5.4-12.7-8.4-20.4-8.4l-6.8,6.8l6.8,6.8
			C55.9,32.9,59.8,34.5,62.6,37.4z"/>
		<path class="st6" d="M51.8,32.9V19.4c-7.7,0-14.9,3-20.4,8.4c-0.9,0.9-1.7,1.9-2.5,2.8l9.7,9.7C41.3,35.9,46.2,32.9,51.8,32.9z"/>
	</g>
</g>
</svg>
