<?xml version="1.0" encoding="utf-8"?>
<!-- Generator: Adobe Illustrator 23.0.5, SVG Export Plug-In . SVG Version: 6.00 Build 0)  -->
<svg version="1.1" id="Layer_1" xmlns="http://www.w3.org/2000/svg" xmlns:xlink="http://www.w3.org/1999/xlink" x="0px" y="0px"
	 viewBox="0 0 170.3 50" style="enable-background:new 0 0 170.3 50;" xml:space="preserve">
<style type="text/css">
	.st0{fill:#FFFFFF;}
	.st1{fill:#08C552;}
	.st2{fill:#2C54BD;}
</style>
<g>
	<g>
		<path class="st0" d="M14.8,13.3c-1.1,0.6-2.5,1.9-3.3,2.9c-0.7,1-1.3,2.2-1.7,3.6c-0.4,1.4-0.6,2.8-0.6,4.3c0,1.6,0.2,3,0.7,4.1
			c0.5,1.2,1.2,2.1,2.2,2.7c1,0.6,2.2,0.9,3.7,0.9c1.2,0,2.2-0.2,3-0.5c0.9-0.4,1.6-0.9,2.1-1.5c0.5-0.7,1-1.4,1.2-2.3l0.3-1h-7.2
			l1.2-5.2H30l-4.1,16.1h-5.2l1.6-7.1l0.7,0.7c-0.5,1.5-1.3,2.7-2.1,3.7c-0.9,1-1.9,1.8-3.1,2.3c-1.2,0.5-2.7,0.8-4.3,0.8
			c-2.3,0-4.3-0.5-6.1-1.6c-1.8-1.1-3.3-2.6-4.4-4.5c-1.1-1.9-1.6-4.2-1.6-6.8c0-0.1,0-0.1,0-0.2c0,0,0,0,0,0
			C6.5,14.3,14.8,13.3,14.8,13.3z"/>
		<path class="st1" d="M1.3,22.8c0,0,2.2-8.4,11.9-10.8c0,0,6.6-2,11.5,3l-2.2,2.5h10.1L29.5,5.6l-1.3,3.9c0,0-7.9-6.4-18.1-1
			C10.1,8.6,1.3,12.5,1.3,22.8z"/>
	</g>
	<path id="XMLID_301_" class="st0" d="M122.9,30.1c-0.3,0.3-0.5,0.5-0.8,0.7c-1.1,1-2.3,1.7-3.7,2c-1.3,0.3-2-0.2-2.4-1.4
		c-0.3-0.8-0.4-1.6-0.3-2.5c0.1-1.1,0.3-2.1,0.7-3.1c0.6-1.5,1.5-2.7,2.8-3.7c0.5-0.4,1.1-0.7,1.7-0.6c0.9,0.1,1.7,0.5,2.3,1.2
		c0.5,0.5,0.8,1.2,1.2,1.7l0,0c0.5-1.5,0.8-3.1,1.2-4.6c0-0.2,0-0.4-0.1-0.5c-0.8-1-1.7-1.8-3-2.2c-2.1-0.6-4.1-0.4-6,0.7
		c-1.6,0.9-3,2.1-4.1,3.6c-1.5,2-2.4,4.3-2.6,6.7c-0.2,1.8-0.1,3.7,0.7,5.4c1.2,2.5,3.1,3.7,5.8,3.9c1.8,0.1,3.4-0.5,4.9-1.4
		c0.1-0.1,0.2-0.3,0.2-0.4c0.4-1.5,0.7-2.9,1.1-4.3C122.7,31.1,122.8,30.6,122.9,30.1L122.9,30.1C123,30,122.9,30,122.9,30.1
		C122.9,30,122.9,30.1,122.9,30.1z"/>
	<path id="XMLID_296_" class="st0" d="M94.7,37.4c0-0.1,0.1-0.2,0.1-0.3c0.3-1.1,0.5-2.1,0.8-3.2c0.7-2.8,1.5-5.6,2.3-8.6
		c0.1-0.5,0.3-0.9,0.6-1.2c0.7-0.6,1.5-1.3,2.3-1.9c0.3-0.2,0.6-0.3,0.9-0.4c1-0.2,1.8,0.7,1.5,1.7c-0.2,0.7-0.4,1.5-0.5,2.2
		c-0.8,3.2-1.6,6.5-2.6,9.6c-0.2,0.7-0.4,1.4-0.5,2.1c-0.2,0.9-0.2,1.8-0.3,2.8c0,0.4-0.1,0.7-0.1,1.1c0.5,2.2,1.7,3.5,3.8,4.3
		c1,0.4,2,0.3,3,0.1c1.5-0.3,3-0.8,4.2-1.9c0.3-0.2,0.3-0.4,0.2-0.7c-0.4-1-0.7-2.1-1.1-3.1c0-0.1-0.1-0.2-0.2-0.4
		c-0.3,0.2-0.5,0.4-0.7,0.5c-1,0.5-2,0.3-2.6-0.6c-0.5-0.8-0.5-1.7-0.4-2.5c0.3-1,0.5-2.1,0.8-3.1c0.8-3,1.6-6.1,2.5-9.1
		c0.3-0.9,0.5-1.8,0.5-2.8c-0.1-1.8-0.9-3.3-2.5-4.3c-0.5-0.3-0.9-0.5-1.5-0.6c-0.9-0.3-1.9-0.1-2.9,0.1c-1,0.2-1.9,0.6-2.8,1.1
		c0.1-0.5,0.2-0.9,0.3-1.4c-2,0-3.9,0-5.9,0c-1.8,6.7-3.6,13.5-5.4,20.3C90.9,37.4,92.8,37.4,94.7,37.4z"/>
	<path id="XMLID_291_" class="st0" d="M49.5,17c-0.4,1.5-0.7,2.9-1.2,4.5c0.9,0,1.8,0,2.7,0c-1.4,5.4-2.7,10.6-4.2,15.9
		c2,0,3.9,0,5.9,0c1.5-5.3,2.9-10.6,4.3-15.9c1.3,0,2.5,0,3.7,0c0.4-1.5,0.8-2.9,1.2-4.5c-1.3,0-2.5,0-3.7,0c0.7-3,1.5-5.8,2.3-8.8
		c-2,0-3.9,0-5.9,0c-0.7,2.9-1.5,5.9-2.3,8.8C51.3,17,50.5,17,49.5,17z"/>
	<path id="XMLID_286_" class="st0" d="M58.5,37.4c2,0,3.9,0,5.9,0c2.6-10.2,5.4-20.4,8-30.6c-2,0-4,0-6,0
		C63.8,17,61.2,27.2,58.5,37.4z"/>
	<path id="XMLID_285_" class="st2" d="M137.4,31C137.4,31.1,137.4,31.1,137.4,31C137.4,31.1,137.4,31.1,137.4,31
		C137.4,31.1,137.5,31.1,137.4,31C137.5,31.1,137.4,31.1,137.4,31z"/>
	<path id="XMLID_283_" class="st0" d="M83.1,18.8c0.2-0.6,0.4-1.2,0.5-1.7c1.9,0,3.8,0,5.8,0c-0.2,0.7-0.4,1.4-0.5,2
		c-0.9,3.4-1.7,6.8-2.6,10.2c-0.2,0.8-0.5,1.5-0.6,2.4c-0.2,0.7,0.2,1.3,0.9,1.2c0.3,0,0.6-0.1,0.9-0.1c0.1,0,0.2,0,0.4-0.1
		c-0.2,0.5-0.3,1.1-0.5,1.5c-0.2,0.6-0.4,1.3-0.5,1.8c0,0.1-0.1,0.3-0.2,0.4c-1.3,0.8-2.6,1.5-4.2,1.4c-1.3,0-2.3-0.6-3.1-1.5
		c-0.1-0.1-0.2-0.2-0.3-0.4c-0.4,0.3-0.7,0.5-1,0.6c-1.1,0.6-2.2,1.1-3.5,1c-2.2-0.1-3.6-1.2-4.6-3.1c-0.7-1.6-0.9-3.5-0.7-5.2
		c0.2-3,1.3-5.6,2.9-8.1c1.2-1.7,2.6-3.2,4.6-4c1.5-0.7,3.1-0.8,4.6,0C82.1,17.6,82.6,18.1,83.1,18.8z M74.9,29.8
		c0.1,0.5,0.1,1,0.2,1.5c0.3,1.5,1.3,1.9,2.5,1.1c0.4-0.3,0.7-0.6,1.1-1c1-1.2,1.6-2.5,2.1-3.9c0.4-0.9,0.5-1.9,0.6-2.9
		c0-0.7,0-1.5-0.3-2.2c-0.3-0.8-1-1.1-1.8-0.9c-0.5,0.2-0.9,0.5-1.3,0.8C75.9,24.3,75.1,27,74.9,29.8z"/>
	<path id="XMLID_278_" class="st0" d="M47.5,25c0,2.5-0.7,4.8-2,6.9c-1.2,2-2.7,3.6-4.8,4.8c-1.7,1-3.6,1.4-5.6,0.9
		c-2.6-0.6-4.2-2.3-4.9-4.7c-0.8-2.9-0.5-5.7,0.6-8.6c0.6-1.5,1.5-3,2.6-4.2c1.6-1.6,3.5-2.9,5.8-3.3c3.3-0.5,6.7,1.5,7.7,5
		c0.1,0.5,0.2,0.9,0.3,1.4C47.4,23.9,47.4,24.5,47.5,25z M42.2,24.7c0-1-0.1-1.7-0.4-2.4c-0.3-0.6-0.9-0.9-1.5-0.8
		c-0.3,0.1-0.5,0.1-0.7,0.3c-0.9,0.5-1.5,1.2-2.1,2c-1,1.5-1.7,3.3-2,5.1c-0.2,0.9-0.2,1.9,0.1,2.8c0.4,1.2,1.3,1.6,2.4,1
		c0.5-0.3,1.1-0.6,1.5-1.1C41.2,29.6,42,27.1,42.2,24.7z"/>
	<path id="XMLID_273_" class="st0" d="M137.4,31.1c-0.1,0.3-0.2,0.5-0.2,0.8c-0.4,1.5-0.7,2.9-1.1,4.3c-0.1,0.3-0.2,0.5-0.5,0.6
		c-1.9,1.1-4,1.2-6.1,0.5c-0.9-0.3-1.7-0.7-2.5-1.4c-1.1-0.9-1.8-2.1-2.2-3.5c-0.6-2.5-0.5-4.9,0.4-7.3c1.1-3,3-5.5,5.8-7.1
		c1.5-0.8,3.1-1.4,4.8-1.2c1.5,0.1,2.7,0.5,3.9,1.4c1,0.7,1.5,1.8,1.7,3.1c0.4,2.4-0.4,4.5-2,6.2c-1.5,1.5-3.1,2.6-5.2,3.1
		c-1.3,0.3-2.6,0.3-3.7,0c-0.1,0-0.2,0-0.4-0.1c-0.1,1.1,0.8,2.4,1.8,2.5c0.5,0.1,1,0,1.5-0.1c1.3-0.2,2.4-0.8,3.4-1.6
		C137.1,31.3,137.3,31.2,137.4,31.1C137.3,31.1,137.4,31.1,137.4,31.1z M130.5,26.9c0.1,0,0.2,0.1,0.2,0.1c1.5,0.3,2.9,0.2,4.3-0.5
		c0.9-0.5,1.5-1.2,1.9-2.1c0.4-0.8,0.1-1.7-0.5-2.4c-0.5-0.5-1.3-0.5-2.1-0.1c-0.1,0-0.1,0.1-0.2,0.1c-0.7,0.5-1.4,1.1-1.8,1.7
		C131.5,24.6,130.9,25.7,130.5,26.9z"/>
	<path id="XMLID_271_" class="st0" d="M49.5,17c0.9,0,1.8,0,2.7,0c0.7-2.9,1.5-5.9,2.3-8.8c2,0,3.9,0,5.9,0C59.7,11.1,59,14,58.2,17
		c1.3,0,2.5,0,3.7,0c-0.5,1.5-0.8,2.9-1.2,4.5c-1.3,0-2.5,0-3.7,0c-1.3,5.3-2.6,10.6-4.1,15.9c-2,0-3.9,0-5.9,0
		c1.4-5.3,2.7-10.6,4.2-15.9c-0.9,0-1.8,0-2.7,0C48.8,19.9,49.2,18.6,49.5,17z"/>
	<path id="XMLID_266_" class="st0" d="M58.5,37.4c2.6-10.2,5.4-20.4,8-30.6c2,0,4,0,6,0c-2.7,10.2-5.5,20.4-8.1,30.6
		C62.5,37.4,60.5,37.4,58.5,37.4z"/>
	<path id="XMLID_265_" class="st2" d="M122.9,30.1C122.9,30.1,122.9,30,122.9,30.1C122.9,30,123,30,122.9,30.1L122.9,30.1
		L122.9,30.1z"/>
	<path id="XMLID_261_" class="st2" d="M137.4,31C137.4,31.1,137.5,31.1,137.4,31C137.5,31.1,137.4,31.1,137.4,31
		C137.4,31.1,137.4,31.1,137.4,31C137.4,31.1,137.4,31.1,137.4,31z"/>
	<path id="XMLID_260_" class="st2" d="M147,20.3L147,20.3C147.1,20.2,147.1,20.3,147,20.3z"/>
	<g id="XMLID_3_">
		<g>
			<g>
				<path id="XMLID_22_" class="st0" d="M159.2,34.9c-0.1,1.7-1.3,2.9-3,2.9c-1.6,0-3-1.2-3-2.9c0-1.6,1.3-2.9,3-2.8
					C158,32,159.2,33.2,159.2,34.9z M158.5,34.9c0.1-1.3-1.2-2.6-2.7-2.3c-1,0.2-1.7,1-1.8,2.1c-0.1,0.8,0.2,1.5,0.8,2
					c0.6,0.5,1.6,0.7,2.3,0.4C158.1,36.6,158.5,35.9,158.5,34.9z"/>
				<path id="XMLID_21_" class="st0" d="M155.8,36.4c-0.2,0-0.4,0-0.6,0c0-0.9,0-1.9,0-2.9c0.6-0.1,1.2-0.2,1.7,0
					c0.6,0.1,0.8,0.7,0.4,1.1c-0.1,0.1-0.3,0.2-0.4,0.3c0.6,0.3,0.5,0.9,0.7,1.5c-0.2,0-0.4,0-0.6,0c-0.1,0-0.1-0.1-0.2-0.2
					c-0.1-0.2-0.1-0.4-0.2-0.6c-0.1-0.4-0.2-0.4-0.6-0.4c-0.1,0-0.2,0-0.3,0C155.8,35.6,155.8,36,155.8,36.4z M155.9,34.8
					c0.2-0.1,0.4-0.1,0.7-0.1c0.2-0.1,0.3-0.2,0.3-0.4s-0.1-0.3-0.3-0.3c-0.2-0.1-0.4-0.1-0.7,0C155.9,34.2,155.9,34.5,155.9,34.8z"
					/>
			</g>
		</g>
	</g>
	<path class="st1" d="M157.8,32.2l10.2-5.6l-9.7-7.8l1,4.5c0,0-3-1-6.2,0.2c0,0-5.2,1.7-8,5.7l-2.5,9.2h6.2l1.4-4.9
		c0,0,2.4-4.8,6-5.6c0,0,1.9-0.2,2.9,0.6L157.8,32.2z"/>
	<path class="st0" d="M143.4,17.2l-1,5.2h4.5l-0.8,3.3c0,0,3.1-2.9,7-3.9c0,0,0,0,0,0l1.1-4.6h0H143.4z"/>
</g>
</svg>
