<?xml version="1.0" encoding="utf-8"?>
<!-- Generator: Adobe Illustrator 23.0.5, SVG Export Plug-In . SVG Version: 6.00 Build 0)  -->
<svg version="1.1" id="Layer_1" xmlns="http://www.w3.org/2000/svg" xmlns:xlink="http://www.w3.org/1999/xlink" x="0px" y="0px"
	 viewBox="0 0 37 16" style="enable-background:new 0 0 37 16;" xml:space="preserve">
<style type="text/css">
	.st0{fill:#606469;}
	.st1{fill:#E94436;}
	.st2{fill:#FABB05;}
	.st3{fill:#616569;}
	.st4{fill:#35A854;}
	.st5{fill:#4285F3;}
</style>
<g>
	<path class="st0" d="M36,6.1c-0.4,1-0.9,2.1-1.3,3.1c-1,2.2-1.9,4.5-2.9,6.7c-0.4,0-0.9,0-1.3,0c0.3-0.6,0.6-1.2,0.8-1.9
		c0.2-0.4,0.4-0.9,0.6-1.3c0.1-0.2,0.1-0.3,0-0.5c-0.9-1.9-1.7-3.9-2.5-5.8c0-0.1-0.1-0.2-0.1-0.3c0.4,0,0.9,0,1.3,0
		c0.1,0,0.2,0.1,0.2,0.2c0.6,1.5,1.2,2.9,1.8,4.4c0,0.1,0.1,0.2,0.1,0.3c0.2-0.5,0.4-1.1,0.6-1.6c0.4-1,0.8-2.1,1.3-3.1
		c0.1-0.2,0.1-0.2,0.3-0.2C35.2,6.1,35.6,6.1,36,6.1z"/>
	<path class="st1" d="M7.8,2.1c0.2,0.1,0.4,0.1,0.7,0.2c0.9,0.2,1.7,0.7,2.4,1.3c-0.5,0.5-1.1,1.1-1.6,1.6C8.9,4.8,8.4,4.6,7.8,4.5
		C6.2,4.1,4.6,5,4,6.5c0,0.1-0.1,0.1-0.1,0.2C3.3,6.3,2.7,5.8,2,5.3c0,0,0-0.1,0-0.1c0.8-1.5,2-2.5,3.7-2.9C6,2.2,6.2,2.2,6.4,2.1
		C6.9,2.1,7.4,2.1,7.8,2.1z"/>
	<path class="st2" d="M2,5.3c0.6,0.5,1.3,1,1.9,1.5c-0.2,0.7-0.2,1.5,0,2.2c-0.6,0.5-1.3,1-1.9,1.5C1.8,9.8,1.6,9.2,1.5,8.6
		c0-0.1,0-0.1-0.1-0.2c0-0.4,0-0.8,0-1.2c0-0.1,0-0.1,0.1-0.2C1.6,6.5,1.7,5.8,2,5.3z"/>
	<path class="st3" d="M17.8,8.8c0,1.4,0,2.7,0,4c-0.4,0-0.8,0-1.3,0c0-3.3,0-6.6,0-9.9c0,0,0.1,0,0.1,0c1.2,0,2.3,0,3.5,0
		c1.2,0,2.4,1,2.7,2.1c0.5,1.9-0.8,3.7-2.8,3.8C19.3,8.9,18.6,8.8,17.8,8.8z M17.8,7.6c0.8,0,1.5,0,2.3,0c0.8,0,1.6-0.8,1.6-1.6
		c0-0.9-0.6-1.7-1.4-1.8c-0.7-0.1-1.5,0-2.2,0c-0.1,0-0.1,0-0.2,0C17.8,5.3,17.8,6.4,17.8,7.6z"/>
	<path class="st0" d="M29,12.9c-0.4,0-0.8,0-1.2,0c0-0.3,0-0.6,0-1c-0.1,0.2-0.2,0.3-0.3,0.4c-1.1,1.2-3.3,1-4.2-0.4
		c-0.5-0.9-0.5-2.6,1.2-3.2c1.1-0.4,2.2-0.3,3.2,0.1c0.2-0.6-0.1-1.2-0.8-1.6c-0.8-0.5-1.7-0.3-2.7,0.6c-0.4-0.2-0.7-0.5-1.1-0.7
		c0.4-0.6,1-1.1,1.8-1.2c0.9-0.2,1.9-0.2,2.8,0.3c0.8,0.4,1.2,1.2,1.2,2C29,9.8,29,11.3,29,12.9z M25.7,12c1,0,1.9-0.8,2-1.8
		c0-0.2,0-0.3-0.2-0.4c-0.8-0.4-1.6-0.4-2.4-0.1c-0.2,0.1-0.4,0.2-0.6,0.4c-0.4,0.4-0.4,1.1,0.1,1.5C25,11.8,25.3,11.9,25.7,12z"/>
	<path class="st4" d="M2,10.4c0.6-0.5,1.3-1,1.9-1.5c0.4,1.1,1.2,1.9,2.4,2.2c1,0.3,1.9,0.1,2.8-0.4c0.6,0.5,1.2,0.9,1.8,1.4
		c-0.7,0.7-1.5,1-2.4,1.2C5.9,14,3.3,12.8,2,10.4C2,10.5,2,10.4,2,10.4z"/>
	<path class="st5" d="M10.9,12.2c-0.6-0.5-1.2-0.9-1.8-1.4c0.6-0.4,1-1,1.1-1.7c-1,0-2,0-3.1,0c0-0.7,0-1.5,0-2.2c0.1,0,0.2,0,0.3,0
		c1.6,0,3.1,0,4.7,0c0.4,0,0.4,0,0.4,0.4c0.2,1.6-0.1,3.2-1.2,4.5C11.2,11.9,11.1,12,10.9,12.2z"/>
</g>
</svg>
