<?xml version="1.0" encoding="utf-8"?>
<!-- Generator: Adobe Illustrator 16.0.0, SVG Export Plug-In . SVG Version: 6.00 Build 0)  -->
<!DOCTYPE svg PUBLIC "-//W3C//DTD SVG 1.1//EN" "http://www.w3.org/Graphics/SVG/1.1/DTD/svg11.dtd">
<svg version="1.1" id="Layer_1" xmlns="http://www.w3.org/2000/svg" xmlns:xlink="http://www.w3.org/1999/xlink" x="0px" y="0px"
	 width="14.655px" height="14.655px" viewBox="0 0 14.655 14.655" enable-background="new 0 0 14.655 14.655" xml:space="preserve">
<path fill="#9FAAC1" d="M7.327,0C3.281,0,0,3.281,0,7.327s3.281,7.328,7.327,7.328s7.328-3.282,7.328-7.328S11.373,0,7.327,0
	 M8.852,11.356c-0.377,0.148-0.677,0.262-0.902,0.34s-0.486,0.117-0.783,0.117c-0.457,0-0.812-0.112-1.065-0.335
	s-0.379-0.505-0.379-0.848c0-0.133,0.009-0.27,0.028-0.408C5.77,10.083,5.8,9.927,5.842,9.751l0.472-1.667
	c0.041-0.16,0.078-0.313,0.106-0.453c0.029-0.143,0.042-0.273,0.042-0.393c0-0.213-0.044-0.36-0.131-0.445
	C6.242,6.709,6.075,6.668,5.827,6.668c-0.122,0-0.247,0.019-0.376,0.057C5.324,6.764,5.213,6.799,5.123,6.833l0.125-0.514
	c0.309-0.125,0.604-0.232,0.887-0.322c0.282-0.091,0.549-0.136,0.8-0.136c0.453,0,0.803,0.11,1.049,0.329
	c0.245,0.219,0.369,0.503,0.369,0.854c0,0.072-0.009,0.2-0.025,0.383C8.311,7.609,8.279,7.776,8.233,7.93L7.764,9.592
	C7.725,9.726,7.691,9.879,7.66,10.049c-0.03,0.17-0.045,0.301-0.045,0.388c0,0.221,0.049,0.372,0.148,0.452
	c0.098,0.08,0.27,0.12,0.513,0.12c0.115,0,0.243-0.021,0.389-0.061c0.143-0.039,0.248-0.075,0.313-0.105L8.852,11.356z M8.769,4.608
	C8.55,4.812,8.287,4.913,7.978,4.913c-0.308,0-0.573-0.102-0.794-0.305c-0.219-0.203-0.331-0.451-0.331-0.74
	c0-0.288,0.112-0.536,0.331-0.742C7.405,2.922,7.67,2.818,7.978,2.818c0.309,0,0.573,0.104,0.791,0.308
	C8.988,3.332,9.098,3.58,9.098,3.868C9.098,4.158,8.988,4.405,8.769,4.608"/>
</svg>
