<?xml version="1.0" encoding="utf-8"?>
<!-- Generator: Adobe Illustrator 16.0.0, SVG Export Plug-In . SVG Version: 6.00 Build 0)  -->
<!DOCTYPE svg PUBLIC "-//W3C//DTD SVG 1.1//EN" "http://www.w3.org/Graphics/SVG/1.1/DTD/svg11.dtd">
<svg version="1.1" id="Layer_1" xmlns="http://www.w3.org/2000/svg" xmlns:xlink="http://www.w3.org/1999/xlink" x="0px" y="0px"
	 width="33.998px" height="27.225px" viewBox="0 0 33.998 27.225" enable-background="new 0 0 33.998 27.225" xml:space="preserve">
<path fill="#64B4E4" d="M33.998,0.996v25.232c0,0.55-0.446,0.997-0.996,0.997H0.996C0.446,27.225,0,26.778,0,26.228V0.996
	C0,0.446,0.446,0,0.996,0h32.006C33.552,0,33.998,0.446,33.998,0.996"/>
<path fill="#5493CE" d="M33.002,0H16.999v27.225h16.003c0.55,0,0.996-0.447,0.996-0.996V0.996C33.998,0.446,33.552,0,33.002,0"/>
<path fill="#52C7E3" d="M14.276,16.533v10.691H0.996C0.446,27.224,0,26.778,0,26.229v-10.69h13.28
	C13.83,15.538,14.276,15.983,14.276,16.533"/>
<path fill="#9EDBE8" d="M33.998,25.745v0.483c0,0.55-0.446,0.996-0.996,0.996H0.996C0.446,27.224,0,26.778,0,26.228v-0.483
	l12.947-10.207l3.435-2.708c0.362-0.285,0.872-0.285,1.234,0L33.998,25.745z"/>
<path fill="#52C7E3" d="M17.616,12.83c-0.183-0.143-0.399-0.214-0.617-0.214v14.609h16.003c0.55,0,0.996-0.447,0.996-0.997v-0.483
	L17.616,12.83z"/>
<path fill="#FEDD40" d="M25.697,3.984c-2.38,0-4.315,1.936-4.315,4.315c0,2.38,1.936,4.317,4.315,4.317s4.316-1.937,4.316-4.317
	C30.014,5.92,28.077,3.984,25.697,3.984"/>
<path fill="#64B4E4" d="M141.498,6.886h-0.565V8.02h0.872c0.09-0.091,0.26-0.307,0.26-0.567
	C142.066,7.134,141.816,6.886,141.498,6.886"/>
<path fill="#64B4E4" d="M141.498-0.481c-3.129,0-5.666-2.538-5.666-5.666c0-2.244,1.326-4.239,3.299-5.146
	c0.317-0.612,0.701-1.168,1.167-1.654h-11.55c-1.721,0-3.114,1.394-3.114,3.116v20.964c0,1.724,1.394,3.118,3.114,3.118h16.434
	c1.723,0,3.116-1.394,3.116-3.116V-0.48h-6.8V-0.481z M132.717,10.285c0.469,0,0.85,0.381,0.85,0.85c0,0.47-0.381,0.85-0.85,0.85
	h-2.834c-0.301,0-0.579-0.16-0.732-0.418c-0.154-0.26-0.156-0.579-0.01-0.843l2.131-3.837h-1.389c-0.469,0-0.85-0.381-0.85-0.85
	c0-0.468,0.381-0.849,0.85-0.849h2.834c0.301,0,0.58,0.159,0.732,0.418c0.153,0.257,0.156,0.579,0.01,0.842l-2.131,3.837H132.717z
	 M137.248,11.135c0,0.47-0.381,0.85-0.85,0.85s-0.85-0.38-0.85-0.85v-5.1c0-0.468,0.381-0.849,0.85-0.849s0.85,0.381,0.85,0.849
	V11.135z M141.93,9.717h-0.997v1.416c0,0.465-0.386,0.851-0.851,0.851s-0.85-0.386-0.85-0.851v-5.1c0-0.463,0.385-0.849,0.85-0.849
	h1.416c1.246,0,2.267,1.021,2.267,2.265C143.766,8.596,142.858,9.717,141.93,9.717"/>
<path fill="#64B4E4" d="M148.865-2.748H141.5c-1.875,0-3.4-1.524-3.4-3.399c0-1.653,1.184-3.033,2.748-3.337
	c0.588-2.015,2.466-3.463,4.618-3.463c1.698,0,3.271,0.904,4.128,2.338c1.851,0.338,3.237,1.963,3.237,3.895
	C152.831-4.527,151.052-2.748,148.865-2.748"/>
<path fill="#557FC0" d="M238.106,27.323l-5.492-1.569l-1.569-5.493h-10.983c-1.3,0-2.354,1.055-2.354,2.355v22.071
	c0,1.301,1.054,2.355,2.354,2.355h15.69c1.299,0,2.354-1.054,2.354-2.355V27.323z"/>
<path fill="#89ACDA" d="M238.106,27.323h-5.492c-0.863,0-1.569-0.706-1.569-1.569v-5.493c0.204,0,0.408,0.08,0.549,0.237
	l6.276,6.276C238.027,26.915,238.106,27.119,238.106,27.323"/>
<path fill="#FEF5F5" d="M232.614,32.867h-9.415c-0.434,0-0.784-0.351-0.784-0.784c0-0.434,0.351-0.785,0.784-0.785h9.415
	c0.434,0,0.784,0.351,0.784,0.785C233.398,32.516,233.048,32.867,232.614,32.867"/>
<path fill="#FEF5F5" d="M232.614,36.006h-9.415c-0.434,0-0.784-0.352-0.784-0.785c0-0.434,0.351-0.784,0.784-0.784h9.415
	c0.434,0,0.784,0.35,0.784,0.784C233.398,35.654,233.048,36.006,232.614,36.006"/>
<path fill="#FEF5F5" d="M232.614,39.144h-9.415c-0.434,0-0.784-0.351-0.784-0.784c0-0.434,0.351-0.785,0.784-0.785h9.415
	c0.434,0,0.784,0.351,0.784,0.785C233.398,38.792,233.048,39.144,232.614,39.144"/>
<path fill="#FEF5F5" d="M229.476,42.282h-6.276c-0.434,0-0.785-0.352-0.785-0.785c0-0.434,0.352-0.784,0.785-0.784h6.276
	c0.434,0,0.785,0.35,0.785,0.784C230.261,41.93,229.909,42.282,229.476,42.282"/>
<polygon fill="#D9E2EF" points="341.86,130.953 320.29,130.953 320.29,101.293 337.006,101.293 341.86,106.146 "/>
<polygon fill="#A4B2C2" points="337.007,101.293 337.007,106.147 341.86,106.147 "/>
<rect x="320.29" y="122.864" fill="#B63639" width="21.57" height="9.707"/>
<path fill="#FFFFFF" d="M323.525,130.953c-0.298,0-0.539-0.241-0.539-0.539v-5.393c0-0.298,0.241-0.54,0.539-0.54
	s0.539,0.242,0.539,0.54v5.393C324.064,130.712,323.823,130.953,323.525,130.953"/>
<path fill="#FFFFFF" d="M338.625,125.561h-3.235c-0.298,0-0.54-0.242-0.54-0.539c0-0.298,0.242-0.54,0.54-0.54h3.235
	c0.298,0,0.539,0.242,0.539,0.54C339.164,125.318,338.923,125.561,338.625,125.561"/>
<path fill="#FFFFFF" d="M338.625,128.257h-3.235c-0.298,0-0.54-0.241-0.54-0.539s0.242-0.54,0.54-0.54h3.235
	c0.298,0,0.539,0.242,0.539,0.54S338.923,128.257,338.625,128.257"/>
<path fill="#FFFFFF" d="M335.39,130.953c-0.298,0-0.54-0.241-0.54-0.539v-5.393c0-0.298,0.242-0.54,0.54-0.54
	s0.539,0.242,0.539,0.54v5.393C335.929,130.712,335.688,130.953,335.39,130.953"/>
<path fill="#B63639" d="M330.688,107.104c-0.053,0.018-0.715,0.933,0.052,1.707C331.248,107.688,330.711,107.099,330.688,107.104
	 M331.014,111.597c-0.385,1.313-0.892,2.73-1.438,4.014c1.123-0.43,2.344-0.805,3.491-1.071
	C332.342,113.707,331.617,112.668,331.014,111.597 M335.028,115.09c0.437,0.332,0.544,0.5,0.831,0.5c0.126,0,0.484-0.005,0.65-0.233
	c0.08-0.111,0.111-0.183,0.123-0.219c-0.065-0.035-0.153-0.105-0.633-0.105C335.729,115.032,335.389,115.044,335.028,115.09
	 M327.7,117.447c-1.148,0.637-1.618,1.161-1.651,1.456c-0.004,0.05-0.019,0.178,0.232,0.367
	C326.361,119.245,326.829,119.035,327.7,117.447 M326.27,120.168c-0.188,0-0.367-0.062-0.521-0.173
	c-0.558-0.416-0.634-0.877-0.598-1.191c0.098-0.863,1.18-1.768,3.216-2.689c0.808-1.75,1.578-3.905,2.036-5.706
	c-0.536-1.152-1.058-2.648-0.678-3.525c0.133-0.308,0.3-0.543,0.609-0.646c0.122-0.04,0.433-0.09,0.545-0.09
	c0.283,0,0.554,0.336,0.685,0.555c0.242,0.406,0.243,0.879,0.205,1.335c-0.037,0.442-0.112,0.884-0.199,1.319
	c-0.063,0.321-0.136,0.64-0.212,0.957c0.724,1.478,1.75,2.982,2.732,4.013c0.705-0.125,1.312-0.188,1.806-0.188
	c0.841,0,1.352,0.193,1.56,0.592c0.172,0.33,0.101,0.716-0.21,1.146c-0.3,0.413-0.711,0.632-1.192,0.632
	c-0.655,0-1.415-0.407-2.264-1.213c-1.524,0.315-3.305,0.876-4.744,1.498c-0.449,0.94-0.879,1.699-1.28,2.256
	C327.215,119.813,326.739,120.168,326.27,120.168"/>
<path fill="#FFFFFF" d="M325.144,128.796h-1.618c-0.298,0-0.539-0.241-0.539-0.539v-3.234c0-0.299,0.241-0.541,0.539-0.541h1.618
	c1.189,0,2.157,0.967,2.157,2.157C327.301,127.828,326.333,128.796,325.144,128.796 M324.064,127.718h1.079
	c0.595,0,1.078-0.484,1.078-1.079s-0.483-1.078-1.078-1.078h-1.079V127.718z"/>
<path fill="#FFFFFF" d="M329.997,130.954h-0.539c-0.298,0-0.54-0.242-0.54-0.539v-5.394c0-0.298,0.242-0.54,0.54-0.54h0.539
	c1.783,0,3.235,1.451,3.235,3.236C333.232,129.501,331.78,130.954,329.997,130.954 M329.997,129.874h0.005H329.997z
	 M329.997,125.561v4.313c1.188,0,2.155-0.967,2.155-2.156C332.152,126.527,331.186,125.561,329.997,125.561"/>
</svg>
