<?xml version="1.0" encoding="utf-8"?>
<!-- Generator: Adobe Illustrator 23.0.5, SVG Export Plug-In . SVG Version: 6.00 Build 0)  -->
<svg version="1.1" id="Layer_1" xmlns="http://www.w3.org/2000/svg" xmlns:xlink="http://www.w3.org/1999/xlink" x="0px" y="0px"
	 viewBox="0 0 50 50" style="enable-background:new 0 0 50 50;" xml:space="preserve">
<style type="text/css">
	.st0{fill:#F0F0F0;}
	.st1{fill:#FF9811;}
	.st2{fill:#6DA544;}
	.st3{fill:#0052B4;}
</style>
<g>
	<circle class="st0" cx="25" cy="25" r="24"/>
	<path class="st1" d="M25,1C15.5,1,7.3,6.5,3.4,14.6h43.2C42.7,6.5,34.5,1,25,1z"/>
	<path class="st2" d="M25,49c9.5,0,17.7-5.5,21.6-13.6H3.4C7.3,43.5,15.5,49,25,49z"/>
	<circle class="st3" cx="25" cy="25" r="8.3"/>
	<circle class="st0" cx="25" cy="25" r="5.2"/>
	<polygon class="st3" points="25,18.6 26.6,22.2 30.6,21.8 28.2,25 30.6,28.2 26.6,27.8 25,31.4 23.4,27.8 19.4,28.2 21.8,25 
		19.4,21.8 23.4,22.2 	"/>
</g>
</svg>
