<?xml version="1.0" encoding="utf-8"?>
<!-- Generator: Adobe Illustrator 23.0.5, SVG Export Plug-In . SVG Version: 6.00 Build 0)  -->
<svg version="1.1" id="Layer_1" xmlns="http://www.w3.org/2000/svg" xmlns:xlink="http://www.w3.org/1999/xlink" x="0px" y="0px"
	 viewBox="0 0 100 100" style="enable-background:new 0 0 100 100;" xml:space="preserve">
<style type="text/css">
	.st0{fill:#069FF5;}
	.st1{fill:#FFFFFF;}
</style>
<g>
	<path class="st0" d="M94.5,98h-89c-1.5,0-2.8-1.3-2.8-2.8V3.8C2.7,2.3,4,1,5.5,1h89c1.5,0,2.8,1.3,2.8,2.8v91.3
		C97.3,96.7,96,98,94.5,98z"/>
	<path class="st1" d="M80.5,28.3L79,28.9c0,0,1.7-3.1,2.3-4.6c0.3-0.8-0.1-1.2-0.6-1.4c-0.5-0.2-1-0.2-1.5,0.1
		c-3.1,1.7-7.7,2.2-7.7,2.2c-2.4-2.8-6.3-3.6-10.2-3.6c-7.4-0.1-13.6,5.9-13.7,13.5c0,0.9,0.1,1.8,0.2,2.6
		c-13.9-0.4-24.4-13.1-24.4-13.1C15.6,28.1,22,40.9,22,40.9C15.8,44.3,24.9,54,24.9,54c-2.2,7,8.8,11.6,8.8,11.6
		c-6.1,4.2-15.5,3.3-15.5,3.3c-2.4,0.8-0.8,2.6-0.8,2.6c23.4,13.7,42.5-0.5,42.5-0.5c18.3-13.7,16.8-33.7,16.8-33.7l6.3-7.1
		c0.6-0.8,0.2-1.3-0.4-1.6C81.9,28.1,81.2,28.1,80.5,28.3L80.5,28.3z"/>
</g>
</svg>
