<?xml version="1.0" encoding="utf-8"?>
<!-- Generator: Adobe Illustrator 16.0.0, SVG Export Plug-In . SVG Version: 6.00 Build 0)  -->
<!DOCTYPE svg PUBLIC "-//W3C//DTD SVG 1.1//EN" "http://www.w3.org/Graphics/SVG/1.1/DTD/svg11.dtd">
<svg version="1.1" id="Layer_1" xmlns="http://www.w3.org/2000/svg" xmlns:xlink="http://www.w3.org/1999/xlink" x="0px" y="0px"
	 width="145.633px" height="37.602px" viewBox="0 0 145.633 37.602" enable-background="new 0 0 145.633 37.602"
	 xml:space="preserve">
<path fill="#8EA3B4" d="M-612.588,0.591h18.38v18.38c-6.127-0.098-12.254-0.098-18.38-0.098V0.591z"/>
<rect x="-592.331" y="0.591" fill="#8EA3B4" width="18.38" height="18.38"/>
<path fill="#8EA3B4" d="M-446.969,7.508c1.68-1.087,3.854-1.186,5.831-0.692v3.36c-0.89-0.395-1.977-0.692-2.965-0.296
	c-0.791,0.296-1.186,1.086-1.285,1.878c-0.099,0.987-0.099,1.976-0.099,2.964h5.83v-3.756c1.285-0.395,2.57-0.79,3.954-1.185v4.941
	h3.952v3.261h-3.952v5.533c0,0.989-0.099,2.075,0.098,3.064c0.099,0.593,0.297,1.285,0.889,1.581
	c0.989,0.494,2.175,0.297,3.064-0.296v3.261c-1.087,0.494-2.372,0.691-3.656,0.592c-1.186-0.098-2.372-0.494-3.162-1.482
	c-0.89-1.087-1.087-2.47-1.087-3.755v-8.498h-5.831v13.439h-3.953V17.983h-2.766V14.82h2.766c0.1-1.383-0.098-2.865,0.297-4.249
	C-448.846,9.386-448.056,8.299-446.969,7.508"/>
<path fill="#8EA3B4" d="M-531.953,7.805c0.791-0.099,1.68,0.099,2.174,0.791c0.593,0.691,0.791,1.778,0.297,2.569
	c-0.494,0.889-1.68,1.285-2.669,1.087c-0.988-0.198-1.877-1.186-1.877-2.174C-534.028,8.892-533.139,7.904-531.953,7.805"/>
<path fill="#8EA3B4" d="M-562.389,8.299h5.731c1.779,4.546,3.657,9.091,5.436,13.736c0.494,1.186,0.889,2.273,1.383,3.458
	c2.273-5.731,4.644-11.364,6.917-17.095h5.534v23.124h-4.051V14.426v-0.791c-0.099,0.099-0.198,0.297-0.198,0.395
	c-2.273,5.831-4.645,11.661-6.918,17.492h-2.865c-2.372-5.831-4.743-11.661-7.115-17.492c-0.099-0.098-0.099-0.197-0.198-0.395
	v7.511v10.376h-3.755C-562.389,23.715-562.488,16.007-562.389,8.299"/>
<path fill="#8EA3B4" d="M-521.083,14.821c1.877-0.494,3.953-0.494,5.929,0c0.395,0.099,0.791,0.296,1.186,0.494v3.756
	c-1.285-0.989-2.866-1.582-4.546-1.384c-1.284,0.098-2.569,0.791-3.261,1.878c-0.988,1.284-1.185,2.964-1.087,4.545
	c0.099,1.285,0.692,2.47,1.581,3.261c0.989,0.889,2.372,1.186,3.756,1.087c1.284-0.098,2.569-0.692,3.557-1.482v3.557
	c-1.581,0.989-3.557,1.186-5.435,1.087c-1.878-0.098-3.755-0.79-5.138-2.174c-1.483-1.482-2.273-3.458-2.372-5.534
	c-0.099-2.174,0.296-4.347,1.581-6.127C-524.443,16.403-522.862,15.315-521.083,14.821"/>
<path fill="#8EA3B4" d="M-477.701,14.524c1.877-0.296,3.755-0.099,5.534,0.593v3.656c-1.186-0.889-2.668-1.284-4.151-1.284
	c-0.79,0-1.581,0.395-1.877,1.087c-0.297,0.691-0.099,1.581,0.593,2.075c1.087,0.79,2.47,1.087,3.656,1.778
	c0.89,0.494,1.779,1.186,2.273,2.175c0.889,1.778,0.494,4.249-1.087,5.632c-1.483,1.384-3.558,1.779-5.534,1.68
	c-1.384-0.099-2.767-0.395-4.052-0.889v-3.854c1.087,0.79,2.273,1.383,3.558,1.581c0.889,0.099,1.878,0.198,2.767-0.296
	c0.791-0.396,0.988-1.581,0.494-2.273c-0.494-0.494-1.087-0.89-1.778-1.087c-1.187-0.494-2.373-0.989-3.459-1.779
	c-0.692-0.593-1.285-1.384-1.482-2.273c-0.297-1.285-0.198-2.767,0.592-3.953C-480.764,15.612-479.183,14.821-477.701,14.524"/>
<path fill="#8EA3B4" d="M-505.173,15.117c1.087-0.691,2.471-0.691,3.656-0.296v3.952c-0.79-0.494-1.778-0.691-2.668-0.593
	c-1.087,0.099-2.075,0.989-2.47,1.977c-0.494,1.087-0.593,2.272-0.593,3.359v7.906h-3.953V14.821h3.953v2.865
	C-506.754,16.698-506.161,15.71-505.173,15.117"/>
<rect x="-533.633" y="14.821" fill="#8EA3B4" width="3.953" height="16.602"/>
<path fill="#8EA3B4" d="M-494.105,14.525c1.878-0.296,3.953-0.099,5.732,0.692c1.482,0.692,2.767,1.976,3.458,3.458
	c0.692,1.581,0.89,3.459,0.791,5.238c-0.099,1.778-0.691,3.459-1.778,4.842c-1.088,1.482-2.767,2.47-4.546,2.767
	c-1.581,0.296-3.162,0.296-4.645,0c-1.779-0.396-3.557-1.482-4.545-2.965c-1.285-1.778-1.581-4.052-1.483-6.225
	c0.099-1.779,0.692-3.657,1.878-5.041C-498.058,15.71-496.181,14.821-494.105,14.525 M-492.919,17.687
	c-0.988,0-1.877,0.396-2.668,0.988c-0.988,0.89-1.383,2.174-1.581,3.459c-0.099,1.383,0,2.865,0.593,4.151
	c0.494,0.987,1.384,1.778,2.47,2.075c1.087,0.296,2.174,0.296,3.261-0.099c0.89-0.395,1.582-1.087,1.977-1.878
	c0.593-1.284,0.593-2.668,0.593-4.051c-0.099-1.285-0.495-2.57-1.384-3.459C-490.449,17.984-491.733,17.588-492.919,17.687"/>
<path fill="#8EA3B4" d="M-462.483,14.525c1.976-0.296,4.051-0.099,5.929,0.79c1.581,0.791,2.767,2.175,3.36,3.854
	c0.494,1.285,0.593,2.57,0.593,3.953c0,1.977-0.494,4.052-1.779,5.633c-1.186,1.581-2.965,2.569-4.842,2.866
	c-1.878,0.296-3.854,0.197-5.633-0.495c-1.778-0.691-3.261-2.173-4.051-3.952c-0.791-1.779-0.89-3.854-0.593-5.732
	c0.296-1.976,1.087-3.854,2.569-5.138C-465.646,15.315-464.064,14.723-462.483,14.525 M-461.396,17.687
	c-1.087,0.099-2.174,0.494-2.866,1.384c-0.79,0.889-1.087,2.075-1.186,3.359c-0.098,1.186,0,2.471,0.494,3.656
	c0.396,0.989,1.087,1.78,2.076,2.175c0.889,0.395,1.877,0.494,2.865,0.296c0.89-0.099,1.779-0.593,2.372-1.285
	c0.593-0.691,0.89-1.581,0.988-2.47c0.198-1.186,0.198-2.372,0-3.557c-0.198-0.989-0.593-1.977-1.383-2.668
	C-459.123,17.885-460.309,17.588-461.396,17.687"/>
<rect x="-612.588" y="20.849" fill="#8EA3B4" width="18.38" height="18.38"/>
<rect x="-592.331" y="20.849" fill="#8EA3B4" width="18.38" height="18.38"/>
<path fill-rule="evenodd" clip-rule="evenodd" fill="#8EA3B4" d="M-307.563,26.132c0.549,1.648,0.988,2.638,1.979,3.186
	c0.768,0.44,1.537,0.331,1.537,0.77c0,0.439-0.221,0.549-0.879,0.549s-1.76-0.219-3.406-0.219c-2.309,0-3.627,0.219-4.178,0.219
	c-0.549,0-0.658-0.11-0.658-0.439c0-0.33,0.33-0.549,0.77-0.549c1.318,0,1.648-0.22,1.648-0.879c0-0.33-0.109-0.88-0.33-1.649
	l-1.648-4.615c-0.109-0.22-0.33-0.33-0.66-0.33h-4.943c-0.221,0-0.439,0.11-0.439,0.33l-0.99,3.187
	c-0.439,1.428-0.659,2.307-0.659,2.747c0,0.769,0.33,0.878,1.099,0.989c1.099,0.109,1.65,0.22,1.65,0.769
	c0,0.329-0.221,0.439-0.66,0.439c-0.549,0-1.758-0.219-3.517-0.219c-1.209,0-2.088,0.219-2.748,0.219
	c-0.549,0-0.769-0.219-0.769-0.439c0-0.769,1.209-0.33,2.088-0.88c0.769-0.439,0.989-1.318,1.429-2.637l6.484-18.461
	c0.219-0.55,0.219-0.88,0.658-0.88c0.551,0,0.66,0.66,0.99,1.649L-307.563,26.132z M-315.914,13.714c-0.111,0-0.221,0.11-0.221,0.33
	l-1.979,6.374v0.329c0,0.11,0.111,0.22,0.33,0.22h4.066c0.219,0,0.328-0.11,0.328-0.33c0-0.11,0-0.219-0.109-0.329l-2.197-6.155
	C-315.805,13.824-315.805,13.714-315.914,13.714"/>
<path fill-rule="evenodd" clip-rule="evenodd" fill="#8EA3B4" d="M-300.201,16.681c0,0.22,0,0.22,0.111,0.22
	c0.109,0,0.219-0.11,0.33-0.22l0.438-0.439c1.43-1.429,2.859-2.088,4.617-2.088c3.625,0,6.703,3.187,6.703,8.022
	c0,5.274-3.408,9.011-8.354,9.011c-1.316,0-2.416-0.22-3.516-0.879l-0.219,0.11v5.055c0,0.879,0.109,1.209,0.768,1.429
	c1.1,0.439,2.088,0,2.088,0.879c0,0.329-0.33,0.549-0.879,0.549c-1.098,0-2.307-0.22-3.736-0.22c-1.428,0-2.527,0.22-3.297,0.22
	c-0.549,0-0.768-0.11-0.768-0.549c0-0.66,0.658-0.44,1.537-0.77c0.66-0.22,0.879-0.549,0.879-1.538V19.538
	c0-2.527-1.867-1.208-1.867-2.197c0-0.55,0.988-0.66,2.197-1.429c1.648-0.989,2.088-1.758,2.527-1.758
	c0.221,0,0.439,0.22,0.439,0.769V16.681z M-296.793,30.198c3.186,0,5.383-2.857,5.383-6.813c0-4.176-2.307-6.704-5.383-6.704
	c-2.309,0-3.188,1.209-3.188,3.517v6.593C-300.09,29.099-298.881,30.198-296.793,30.198"/>
<path fill-rule="evenodd" clip-rule="evenodd" fill="#8EA3B4" d="M-265.035,27.89c0,0.769,0.221,1.208,0.77,1.539
	c0.879,0.439,1.867-0.111,1.867,0.878c0,0.33-0.328,0.55-0.77,0.55c-0.988,0-2.197-0.22-3.516-0.22c-1.43,0-2.527,0.22-3.297,0.22
	c-0.439,0-0.77-0.11-0.77-0.55c0-0.659,0.66-0.439,1.539-0.769c0.768-0.22,0.768-0.549,0.768-1.318V9.539
	c0-1.209-1.758-0.879-1.758-1.538c0-0.55,0.879-0.55,1.869-0.88c1.867-0.659,2.748-1.318,2.967-1.318
	c0.439,0,0.439,0.219,0.439,0.659c0,0.659-0.109,1.429-0.109,2.418V27.89z"/>
<path fill-rule="evenodd" clip-rule="evenodd" fill="#8EA3B4" d="M-258.551,20.527c-0.441,0-0.441,0.11-0.441,0.55v0.879
	c0,4.395,2.418,7.142,5.824,7.142c3.078,0,4.396-2.087,4.617-2.087c0.219,0,0.328,0.11,0.328,0.439c0,0.989-2.746,3.847-6.924,3.847
	c-4.504,0-7.471-3.297-7.471-8.462c0-5.275,3.406-8.572,7.912-8.572c3.955,0,6.594,2.528,6.594,5.495
	c0,0.549-0.439,0.769-1.43,0.769H-258.551z M-251.629,17.45c0-1.208-1.318-2.417-2.967-2.417c-1.979,0-3.406,1.428-3.846,3.406
	l-0.109,0.55v0.109c0,0.22,0.219,0.331,0.439,0.331h2.637C-252.838,19.429-251.629,18.989-251.629,17.45"/>
<path fill-rule="evenodd" clip-rule="evenodd" fill="#8EA3B4" d="M-283.057,16.681c0,0.22,0,0.22,0.109,0.22s0.219-0.11,0.33-0.22
	l0.439-0.439c1.428-1.429,2.857-2.088,4.615-2.088c3.625,0,6.703,3.187,6.703,8.022c0,5.274-3.406,9.011-8.352,9.011
	c-1.318,0-2.418-0.22-3.518-0.879l-0.219,0.11v5.055c0,0.879,0.109,1.209,0.77,1.429c1.098,0.439,2.088,0,2.088,0.879
	c0,0.329-0.33,0.549-0.879,0.549c-1.1,0-2.309-0.22-3.738-0.22c-1.428,0-2.527,0.22-3.297,0.22c-0.438,0-0.768-0.11-0.768-0.549
	c0-0.66,0.66-0.44,1.539-0.77c0.658-0.22,0.879-0.549,0.879-1.538V19.538c0-2.527-1.869-1.208-1.869-2.197
	c0-0.55,0.99-0.66,2.197-1.429c1.539-0.989,2.088-1.758,2.527-1.758c0.221,0,0.441,0.22,0.441,0.769V16.681z M-279.65,30.198
	c3.186,0,5.385-2.857,5.385-6.813c0-4.176-2.309-6.704-5.385-6.704c-2.309,0-3.188,1.209-3.188,3.517v6.593
	C-282.947,29.099-281.738,30.198-279.65,30.198"/>
<path fill-rule="evenodd" clip-rule="evenodd" fill="#8EA3B4" d="M-332.398,27.121c-0.989,2.308-1.539,3.296-2.857,5.274
	c-1.868,2.747-4.396,6.264-7.582,6.264c-2.857,0-3.627-1.868-7.473-1.868c-3.847,0-4.727,1.868-7.474,1.868
	c-3.187,0-5.604-3.186-7.472-5.934c-5.165-7.802-5.715-16.923-2.528-21.758c2.198-3.407,5.824-5.495,9.121-5.495
	c3.407,0,5.494,1.868,8.353,1.868c2.746,0,4.395-1.868,8.351-1.868c2.968,0,6.153,1.649,8.353,4.396
	C-341.081,13.933-339.872,24.374-332.398,27.121"/>
<path fill-rule="evenodd" clip-rule="evenodd" fill="#8EA3B4" d="M-345.037,2.396c1.43-1.868,2.528-4.396,2.088-7.033
	c-2.308,0.11-5.055,1.648-6.592,3.626c-1.43,1.759-2.639,4.396-2.199,6.924C-349.212,5.802-346.574,4.264-345.037,2.396"/>
<path fill="#8EA3B4" d="M-243.498,14.704c0,1.209-0.986,2.198-2.195,2.198s-2.199-0.989-2.199-2.198s0.99-2.198,2.199-2.198
	C-244.377,12.505-243.498,13.495-243.498,14.704 M-247.344,14.704c0,0.989,0.771,1.758,1.65,1.758c0.988,0,1.646-0.769,1.646-1.758
	c0-0.989-0.658-1.758-1.646-1.758C-246.684,12.945-247.344,13.714-247.344,14.704 M-246.023,15.801h-0.549v-2.197
	c0.219,0,0.438-0.11,0.879-0.11c0.438,0,0.549,0.11,0.768,0.11c0.111,0.11,0.221,0.22,0.221,0.44c0,0.219-0.221,0.439-0.439,0.549
	c0.219,0.11,0.33,0.22,0.439,0.549c0.109,0.33,0.109,0.44,0.109,0.55h-0.549c-0.111-0.11-0.111-0.33-0.221-0.55
	c0-0.219-0.221-0.329-0.439-0.329h-0.219V15.801z M-246.023,14.593h0.219c0.33,0,0.549-0.11,0.549-0.33
	c0-0.219-0.109-0.33-0.438-0.33h-0.33V14.593z"/>
<path fill="#8EA3B4" d="M-330.311,35.583c0,1.208-0.987,2.198-2.196,2.198s-2.199-0.99-2.199-2.198c0-1.209,0.99-2.198,2.199-2.198
	C-331.19,33.385-330.311,34.374-330.311,35.583 M-334.157,35.583c0,0.989,0.769,1.758,1.649,1.758c0.987,0,1.647-0.769,1.647-1.758
	c0-0.989-0.66-1.758-1.647-1.758C-333.498,33.825-334.157,34.594-334.157,35.583 M-332.837,36.682h-0.551v-2.198
	c0.221,0,0.44-0.11,0.881-0.11c0.438,0,0.549,0.11,0.769,0.11c0.108,0.11,0.219,0.219,0.219,0.439c0,0.22-0.219,0.44-0.438,0.55
	c0.22,0.11,0.328,0.22,0.438,0.549c0.111,0.33,0.111,0.44,0.111,0.55h-0.55c-0.11-0.11-0.11-0.33-0.221-0.55
	c0-0.219-0.22-0.329-0.438-0.329h-0.22V36.682z M-332.837,35.473h0.22c0.329,0,0.549-0.11,0.549-0.33c0-0.22-0.11-0.329-0.438-0.329
	h-0.33V35.473z"/>
<path fill-rule="evenodd" clip-rule="evenodd" fill="#8EA3B4" d="M-100.975,37.392c-7.145,5.275-17.584,8.133-26.486,8.133
	c-12.527,0-23.848-4.616-32.42-12.309c-0.66-0.55-0.109-1.429,0.77-0.989c9.23,5.385,20.66,8.572,32.42,8.572
	c7.912,0,16.705-1.649,24.727-5.055C-100.865,35.194-99.766,36.513-100.975,37.392"/>
<path fill-rule="evenodd" clip-rule="evenodd" fill="#8EA3B4" d="M-98.008,33.984c-0.879-1.209-6.045-0.549-8.354-0.329
	c-0.658,0.109-0.768-0.55-0.219-0.989c4.066-2.858,10.77-2.088,11.65-1.099c0.77,0.988-0.221,7.692-4.066,10.879
	c-0.551,0.55-1.209,0.221-0.879-0.439C-98.996,40.03-97.129,35.194-98.008,33.984"/>
<path fill-rule="evenodd" clip-rule="evenodd" fill="#8EA3B4" d="M-106.25,12.444V9.587c0-0.44,0.33-0.77,0.77-0.77h12.527
	c0.441,0,0.77,0.33,0.77,0.77v2.418c0,0.439-0.328,0.878-0.988,1.758l-6.484,9.341c2.418,0,4.945,0.33,7.145,1.539
	c0.439,0.329,0.658,0.659,0.658,1.099v2.967c0,0.44-0.439,0.88-0.879,0.66c-3.846-1.979-9.012-2.198-13.297,0
	c-0.441,0.22-0.881-0.22-0.881-0.66v-2.857c0-0.44,0-1.209,0.439-1.978l7.475-10.771h-6.594
	C-105.92,13.104-106.25,12.884-106.25,12.444"/>
<path fill-rule="evenodd" clip-rule="evenodd" fill="#8EA3B4" d="M-151.969,29.918h-3.846c-0.33,0-0.66-0.33-0.66-0.66V9.698
	c0-0.44,0.33-0.66,0.77-0.66h3.518c0.33,0,0.658,0.33,0.658,0.66v2.527h0.111c0.879-2.527,2.637-3.627,5.055-3.627
	c2.416,0,3.846,1.209,4.945,3.627c0.879-2.527,3.078-3.627,5.275-3.627c1.648,0,3.297,0.66,4.396,2.089
	c1.209,1.648,0.988,4.065,0.988,6.154v12.418c0,0.44-0.33,0.66-0.77,0.66h-3.846c-0.33,0-0.66-0.33-0.66-0.66v-10.44
	c0-0.879,0.111-2.858-0.109-3.627c-0.33-1.318-1.1-1.648-2.197-1.648c-0.881,0-1.869,0.66-2.309,1.648
	c-0.439,0.989-0.33,2.638-0.33,3.737V29.15c0,0.439-0.33,0.659-0.77,0.659h-3.846c-0.439,0-0.66-0.33-0.66-0.659V18.819
	c0-2.198,0.33-5.385-2.307-5.385c-2.748,0-2.639,3.077-2.639,5.385V29.15C-151.309,29.589-151.529,29.918-151.969,29.918"/>
<path fill-rule="evenodd" clip-rule="evenodd" fill="#8EA3B4" d="M-81.412,8.598c5.715,0,8.682,4.836,8.682,11.101
	c0,5.934-3.408,10.77-8.682,10.77c-5.605,0-8.572-4.836-8.572-10.88C-89.984,13.324-86.908,8.598-81.412,8.598 M-81.412,12.554
	c-2.857,0-2.969,3.847-2.969,6.264c0,2.418,0,7.474,2.969,7.474c2.967,0,3.076-4.177,3.076-6.594c0-1.649-0.109-3.627-0.549-5.166
	C-79.324,13.104-80.203,12.554-81.412,12.554"/>
<path fill-rule="evenodd" clip-rule="evenodd" fill="#8EA3B4" d="M-65.367,29.918h-3.848c-0.328,0-0.658-0.33-0.658-0.66V9.698
	c0-0.33,0.33-0.66,0.77-0.66h3.516c0.33,0,0.658,0.22,0.658,0.549v2.968h0.111c1.098-2.637,2.527-3.957,5.166-3.957
	c1.758,0,3.406,0.66,4.506,2.308c0.988,1.539,0.988,4.177,0.988,6.045v12.308c0,0.33-0.33,0.66-0.77,0.66h-3.846
	c-0.33,0-0.66-0.33-0.66-0.66v-10.66c0-2.088,0.221-5.275-2.418-5.275c-0.879,0-1.758,0.659-2.197,1.539
	c-0.549,1.209-0.66,2.418-0.66,3.736V29.15C-64.598,29.589-64.93,29.918-65.367,29.918"/>
<path fill-rule="evenodd" clip-rule="evenodd" fill="#8EA3B4" d="M-116.25,20.578c0,1.538,0,2.747-0.77,4.066
	c-0.551,1.099-1.539,1.758-2.639,1.758c-1.428,0-2.309-1.099-2.309-2.747c0-3.297,2.969-3.847,5.717-3.847V20.578z M-112.404,29.809
	c-0.221,0.22-0.66,0.22-0.879,0.11c-1.318-1.099-1.539-1.539-2.199-2.528c-2.088,2.088-3.625,2.748-6.264,2.748
	c-3.188,0-5.715-1.978-5.715-5.935c0-3.077,1.648-5.166,4.066-6.264c2.088-0.879,4.945-1.099,7.145-1.319v-0.44
	c0-0.879,0.109-1.977-0.439-2.747c-0.441-0.659-1.32-0.989-2.199-0.989c-1.428,0-2.748,0.769-3.078,2.307
	c-0.109,0.33-0.33,0.66-0.658,0.66l-3.736-0.439c-0.33-0.11-0.66-0.33-0.549-0.769c0.879-4.506,4.943-5.826,8.57-5.826
	c1.869,0,4.287,0.44,5.715,1.869c1.867,1.758,1.648,4.066,1.648,6.594v5.934c0,1.759,0.77,2.528,1.428,3.517
	c0.221,0.329,0.332,0.769,0,0.989C-110.207,28.05-111.635,29.15-112.404,29.809"/>
<path fill-rule="evenodd" clip-rule="evenodd" fill="#8EA3B4" d="M-166.256,20.578c0,1.538,0,2.747-0.658,4.066
	c-0.66,1.099-1.539,1.758-2.639,1.758c-1.428,0-2.307-1.099-2.307-2.747c0-3.297,2.967-3.847,5.715-3.847L-166.256,20.578z
	 M-162.408,29.809c-0.221,0.22-0.66,0.22-0.879,0.11c-1.209-1.099-1.539-1.539-2.199-2.528c-2.088,2.088-3.625,2.748-6.264,2.748
	c-3.188,0-5.715-1.978-5.715-5.935c0-3.077,1.648-5.166,4.066-6.264c2.088-0.879,4.945-1.099,7.143-1.319v-0.44
	c0-0.879,0.111-1.977-0.439-2.747c-0.439-0.659-1.316-0.989-2.088-0.989c-1.428,0-2.746,0.769-3.076,2.307
	c-0.109,0.33-0.33,0.66-0.66,0.66l-3.736-0.439c-0.33-0.11-0.66-0.33-0.549-0.769c0.879-4.506,4.945-5.826,8.572-5.826
	c1.867,0,4.285,0.44,5.715,1.869c1.867,1.758,1.648,4.066,1.648,6.594v5.934c0,1.759,0.77,2.528,1.428,3.517
	c0.221,0.329,0.33,0.769,0,0.989C-160.211,28.05-161.639,29.15-162.408,29.809"/>
<path fill="#8EA3B4" d="M35.141,29.553c0-1.117-0.307-2.132-0.711-3.148c-0.307-0.813-0.711-1.524-1.018-2.336
	c-2.74-5.992-5.584-11.882-8.631-17.772c-0.408-0.813-0.813-1.625-1.322-2.437c-0.404-0.813-0.912-1.524-1.625-2.133
	C20.82,0.711,19.398,0.102,17.875,0h-0.711c-1.523,0.102-2.945,0.711-4.063,1.727c-0.609,0.609-1.117,1.32-1.523,2.133
	c-0.406,0.812-0.813,1.624-1.32,2.437c-2.031,3.96-3.961,7.921-5.891,11.882c-1.117,2.437-2.234,4.773-3.352,7.21
	C0.611,26.405,0.205,27.421,0,28.537c0,1.828,0.408,3.758,1.422,5.282c0.813,1.421,2.133,2.539,3.656,3.148
	c1.117,0.508,2.438,0.711,3.656,0.609c1.727-0.101,3.352-0.711,4.773-1.625c1.625-1.015,2.945-2.336,4.266-3.656
	c1.219,1.32,2.436,2.539,3.961,3.453c1.422,0.914,3.047,1.625,4.672,1.727c1.828,0.203,3.756-0.305,5.281-1.321
	c1.32-0.914,2.436-2.234,3.047-3.757C35.039,31.686,35.242,30.569,35.141,29.553 M17.672,28.842
	c-0.508-0.508-0.914-1.117-1.32-1.726c-0.711-1.016-1.32-2.031-1.828-3.149c-0.406-0.913-0.711-1.929-0.914-2.944
	c-0.102-0.813-0.102-1.625,0.203-2.438c0.305-0.711,0.711-1.32,1.422-1.726c1.523-1.016,3.656-0.915,5.078,0.304
	c0.711,0.61,1.117,1.524,1.219,2.336c0.102,1.219-0.102,2.438-0.508,3.555C20.313,25.186,19.094,27.116,17.672,28.842
	 M32.602,31.381c-0.406,1.422-1.422,2.641-2.643,3.352c-1.115,0.609-2.537,0.812-3.756,0.609c-1.625-0.305-3.047-1.117-4.369-2.133
	c-0.912-0.711-1.725-1.625-2.537-2.437c1.32-1.625,2.438-3.25,3.352-5.078c0.811-1.625,1.422-3.351,1.422-5.179
	c0-1.117-0.203-2.336-0.711-3.352c-0.711-1.32-1.93-2.437-3.352-2.945c-1.32-0.508-2.844-0.508-4.164-0.102
	c-1.32,0.407-2.438,1.118-3.25,2.235c-0.711,0.914-1.117,2.133-1.219,3.25c-0.102,1.726,0.305,3.351,0.914,4.874
	c0.914,2.235,2.336,4.265,3.859,6.195c-0.711,0.813-1.422,1.523-2.234,2.234c-1.219,1.016-2.641,1.93-4.266,2.336
	c-1.32,0.305-2.742,0.203-3.961-0.507c-1.422-0.711-2.438-2.032-2.844-3.555c-0.406-1.016-0.305-2.235,0-3.351
	c0.305-0.914,0.711-1.727,1.117-2.641c2.742-5.89,5.586-11.781,8.531-17.569c0.406-0.914,0.914-1.727,1.32-2.539
	c0.406-0.711,0.813-1.32,1.422-1.828c0.711-0.508,1.523-0.812,2.438-0.812s1.727,0.304,2.438,0.914
	c0.711,0.609,1.219,1.32,1.625,2.132c0.914,1.727,1.828,3.453,2.639,5.179c2.541,4.977,4.979,10.055,7.314,15.133
	c0.305,0.812,0.711,1.523,1.016,2.437C32.906,29.248,32.906,30.365,32.602,31.381"/>
<path fill="#8EA3B4" d="M68.959,5.281c1.521-0.305,3.25,0.71,3.656,2.234c0.506,1.523-0.51,3.351-2.031,3.859
	c-1.523,0.508-3.354-0.406-3.859-1.929c-0.508-1.321,0-2.844,1.217-3.657C68.146,5.484,68.553,5.383,68.959,5.281"/>
<path fill="#8EA3B4" d="M79.316,15.335c0.914-1.016,2.234-1.625,3.555-1.828c0.914-0.102,1.828,0,2.742,0.203v4.266
	c-1.422-0.407-2.844-0.407-4.266,0.101c-0.711,0.305-1.422,0.711-1.93,1.32c-0.102,0.102-0.102,0.305-0.102,0.407v11.882v0.507
	h-4.57V14.015h3.859c0.305,0,0.609,0.101,0.711,0.406C79.418,14.624,79.316,15.03,79.316,15.335"/>
<path fill="#8EA3B4" d="M112.424,15.437c1.219-1.32,3.047-1.93,4.773-1.93c1.828-0.101,3.758,0.508,5.18,1.727
	c0.914,0.711,1.625,1.828,1.93,2.945c0.406,1.422,0.406,2.945,0.406,4.367v9.648h-4.672v-9.648c0-1.218,0.102-2.437-0.609-3.554
	c-0.406-0.813-1.32-1.117-2.133-1.219c-1.625-0.305-3.25,0.406-4.367,1.523c-0.102,0.102-0.203,0.305-0.203,0.407
	c0,0.507,0.102,1.015,0,1.523c-0.102,0.711,0,1.32,0,2.031v3.859c-0.102,1.726,0.102,3.351,0,5.078h-4.67V14.015h3.553
	c0.305,0,0.609,0.102,0.711,0.508C112.424,14.726,112.424,15.031,112.424,15.437"/>
<rect x="67.232" y="13.913" fill="#8EA3B4" width="4.57" height="18.179"/>
<path fill="#8EA3B4" d="M64.387,13.913h-3.654c-0.307,0-0.711,0-0.914,0.407c-0.102,0.304-0.102,0.71-0.102,1.117
	c-1.016-1.117-2.438-1.727-3.859-1.828c-2.234-0.204-4.57,0.406-6.398,1.828c-1.523,1.117-2.641,2.742-3.148,4.468
	c-0.305,0.813-0.406,1.727-0.508,2.54v1.218c0.102,2.64,1.32,5.179,3.352,6.906c1.523,1.32,3.453,2.031,5.484,2.132h1.016
	c1.521-0.101,3.148-0.711,4.164-1.929c0,0.406,0,0.711,0.102,1.117c0.102,0.305,0.506,0.406,0.813,0.305h3.758
	C64.387,25.999,64.387,20.007,64.387,13.913 M59.615,26.405c-0.914,1.117-2.439,1.828-3.859,1.726c-1.523,0-3.25-0.609-4.266-1.828
	c-1.016-1.218-1.32-2.843-1.016-4.265c0.203-1.218,0.813-2.336,1.727-3.148c0.914-0.711,2.031-1.016,3.146-1.117
	c1.625-0.102,3.455,0.609,4.369,1.929c0.102,1.93,0,3.961,0,5.891C59.717,25.897,59.818,26.202,59.615,26.405"/>
<path fill="#8EA3B4" d="M105.418,19.093c-0.711-1.727-1.93-3.25-3.555-4.266s-3.656-1.523-5.586-1.32
	c-1.523,0.101-3.047,0.711-4.063,1.828V5.18h-4.672v26.912h3.859c0.305,0,0.711-0.203,0.711-0.508c0.102-0.305,0-0.711,0-1.016
	c1.117,1.219,2.641,1.828,4.266,1.93h0.914c2.539-0.102,5.078-1.32,6.703-3.352C106.332,26.405,106.738,22.444,105.418,19.093
	 M100.035,26.811c-1.018,1.016-2.439,1.421-3.859,1.421c-1.422,0-2.945-0.609-3.859-1.726c-0.102-0.101-0.203-0.304-0.102-0.406
	v-6.195c0.914-1.117,2.336-1.929,3.758-1.929c1.42,0,3.045,0.406,4.063,1.421c1.016,0.914,1.521,2.438,1.521,3.758
	C101.557,24.373,101.051,25.795,100.035,26.811"/>
<path fill="#8EA3B4" d="M143.604,16.858c-1.93-2.539-5.385-3.758-8.43-3.351c-1.32,0.203-2.539,0.812-3.455,1.828V5.18h-4.67v26.913
	h3.656c0.303,0,0.711,0,0.914-0.305c0.1-0.305,0.1-0.711,0.1-1.117c1.119,1.218,2.643,1.828,4.166,1.929h1.016
	c2.539-0.101,4.977-1.32,6.602-3.351c1.318-1.625,2.029-3.656,2.131-5.687v-1.218C145.531,20.414,144.82,18.483,143.604,16.858
	 M139.947,26.303c-1.219,1.523-3.354,2.132-5.281,1.828c-1.117-0.203-2.336-0.914-2.947-1.828c-0.1-0.812,0-1.523,0-2.336v-4.265
	c0.711-1.016,1.83-1.625,2.947-1.828c2.133-0.406,4.672,0.508,5.688,2.437C141.369,22.14,141.268,24.577,139.947,26.303"/>
<path fill="#8EA3B4" d="M287.48,29.792c1.893,0,3.785-0.71,5.205-2.012l2.605,2.722c-1.658,1.775-4.025,3.077-7.811,3.077
	c-6.271,0-10.414-4.142-10.414-9.822c-0.119-5.325,4.143-9.703,9.467-9.822h0.355c6.271,0,9.822,4.733,9.467,11.36h-14.793
	C282.154,28.016,284.049,29.792,287.48,29.792 M291.977,22.218c-0.355-2.604-1.893-4.497-4.971-4.497
	c-2.84,0-4.852,1.656-5.324,4.497H291.977z M190.326,29.555l11.359-11.598h-11.004V14.29h16.33v3.668L195.65,29.555h11.598v3.668
	h-16.922V29.555z M219.91,29.792c1.893,0,3.787-0.71,5.207-2.012l2.604,2.722c-1.658,1.775-4.023,3.077-7.811,3.077
	c-6.271,0-10.414-4.142-10.414-9.822c-0.119-5.325,4.143-9.703,9.467-9.822h0.355c6.271,0,9.822,4.733,9.467,11.36h-14.674
	C214.584,28.016,216.596,29.792,219.91,29.792 M224.406,22.218c-0.355-2.604-1.893-4.497-4.971-4.497
	c-2.84,0-4.852,1.656-5.324,4.497H224.406z M253.516,23.756c0-6.035,4.498-9.822,9.469-9.822c2.365,0,4.734,1.065,6.271,2.84V5.65
	h4.023v27.573h-4.023V30.62c-1.537,1.893-3.906,2.958-6.391,2.958C258.133,33.578,253.516,29.792,253.516,23.756 M269.492,23.756
	c-0.117-3.314-2.84-5.917-6.152-5.799c-3.314,0.119-5.918,2.841-5.799,6.154c0.119,3.314,2.721,5.798,6.035,5.798
	C266.889,29.909,269.492,27.188,269.492,23.756 M298.959,29.199l3.668-1.893c0.947,1.775,2.84,2.84,4.852,2.722
	c2.248,0,3.432-1.183,3.432-2.485c0-1.539-2.248-1.894-4.615-2.367c-3.195-0.71-6.508-1.775-6.508-5.68
	c0-2.959,2.84-5.799,7.336-5.681c3.551,0,6.154,1.421,7.574,3.669l-3.313,1.893c-0.949-1.42-2.604-2.248-4.262-2.13
	c-2.129,0-3.314,1.065-3.314,2.249c0,1.42,1.777,1.775,4.498,2.366c3.078,0.711,6.627,1.657,6.627,5.681
	c0,2.603-2.248,6.153-7.691,6.035C303.338,33.578,300.615,32.04,298.959,29.199 M325.939,24.821l-3.195,3.55v4.852h-4.023V5.65
	h4.023v18.106l8.52-9.349h4.854l-7.455,8.047l7.572,10.769h-4.496L325.939,24.821z M241.328,13.934
	c-4.732,0-8.756,3.077-8.756,8.284v11.005h4.141V22.691c0-3.077,1.775-4.97,4.852-4.97s4.496,1.893,4.496,4.97v10.532h4.025V22.218
	C250.086,17.011,246.061,13.934,241.328,13.934"/>
<path fill="#8EA3B4" d="M375.404,26.242c-0.119-0.828,0-2.012,0-2.604l1.301-14.082h4.615l-1.301,14.2
	c-0.236,3.078,0.947,5.326,4.021,5.326c3.078,0,4.854-2.248,5.09-4.97l1.303-14.556h4.615l-1.303,14.319
	c-0.592,5.562-4.141,9.704-10.059,9.704C379.072,33.579,375.996,30.62,375.404,26.242 M396.941,21.508
	c0.592-6.745,5.207-12.425,13.016-12.425c2.131,0,4.143,0.473,6.037,1.775l-0.592,5.561c-1.777-2.366-4.023-2.839-5.918-2.839
	c-4.852,0-7.572,3.431-8.047,7.691c-0.355,4.261,1.775,7.692,6.51,7.692c2.129,0,4.258-0.591,6.508-2.958l-0.473,5.798
	c-2.248,1.184-4.379,1.776-6.391,1.776C399.9,33.579,396.35,27.78,396.941,21.508 M419.781,9.556h4.615l-1.658,19.171h6.627h2.486
	l-0.475,4.378H417.65L419.781,9.556 M444.867,8.491h-0.354l-12.545,24.614h4.971l1.775-3.787h8.875l1.064,3.787h4.852L444.867,8.491
	 M443.684,18.313c0.119-0.355,0.238-0.71,0.355-0.947h0.119c0,0.355,0.117,0.592,0.117,0.947c0.238,1.065,2.012,6.982,2.012,6.982
	h-5.797L443.684,18.313z"/>
</svg>
