<?xml version="1.0" encoding="utf-8"?>
<!-- Generator: Adobe Illustrator 16.0.0, SVG Export Plug-In . SVG Version: 6.00 Build 0)  -->
<!DOCTYPE svg PUBLIC "-//W3C//DTD SVG 1.1//EN" "http://www.w3.org/Graphics/SVG/1.1/DTD/svg11.dtd">
<svg version="1.1" id="Layer_1" xmlns="http://www.w3.org/2000/svg" xmlns:xlink="http://www.w3.org/1999/xlink" x="0px" y="0px"
	 width="145.908px" height="27.931px" viewBox="0 0 145.908 27.931" enable-background="new 0 0 145.908 27.931"
	 xml:space="preserve">
<path fill="#8EA3B4" d="M-802.915-5.06h18.38v18.38c-6.127-0.098-12.254-0.098-18.38-0.098V-5.06z"/>
<rect x="-782.657" y="-5.06" fill="#8EA3B4" width="18.38" height="18.38"/>
<path fill="#8EA3B4" d="M-637.295,1.858c1.68-1.087,3.854-1.186,5.831-0.692v3.36c-0.89-0.395-1.977-0.692-2.965-0.296
	c-0.791,0.296-1.186,1.086-1.285,1.878c-0.099,0.987-0.099,1.976-0.099,2.964h5.83V5.316c1.285-0.395,2.57-0.79,3.954-1.185v4.941
	h3.952v3.261h-3.952v5.533c0,0.989-0.099,2.075,0.098,3.064c0.099,0.593,0.297,1.285,0.889,1.581
	c0.989,0.494,2.175,0.297,3.064-0.296v3.261c-1.087,0.494-2.372,0.691-3.656,0.592c-1.186-0.098-2.372-0.494-3.162-1.482
	c-0.89-1.087-1.087-2.47-1.087-3.755v-8.498h-5.831v13.439h-3.953V12.333h-2.766V9.17h2.766c0.1-1.383-0.098-2.865,0.297-4.249
	C-639.172,3.735-638.382,2.649-637.295,1.858"/>
<path fill="#8EA3B4" d="M-722.279,2.154c0.791-0.099,1.68,0.099,2.174,0.791c0.593,0.691,0.791,1.778,0.297,2.569
	c-0.494,0.889-1.68,1.285-2.669,1.087c-0.988-0.198-1.877-1.186-1.877-2.174C-724.354,3.242-723.465,2.253-722.279,2.154"/>
<path fill="#8EA3B4" d="M-752.715,2.648h5.731c1.779,4.546,3.657,9.091,5.436,13.736c0.494,1.186,0.889,2.273,1.383,3.458
	c2.273-5.731,4.644-11.364,6.917-17.095h5.534v23.124h-4.051V8.776V7.985c-0.099,0.099-0.198,0.297-0.198,0.395
	c-2.273,5.831-4.645,11.661-6.918,17.492h-2.865c-2.372-5.831-4.743-11.661-7.115-17.492c-0.099-0.098-0.099-0.197-0.198-0.395
	v7.511v10.376h-3.755C-752.715,18.064-752.814,10.356-752.715,2.648"/>
<path fill="#8EA3B4" d="M-711.409,9.17c1.877-0.494,3.953-0.494,5.929,0c0.395,0.099,0.791,0.296,1.186,0.494v3.756
	c-1.285-0.989-2.866-1.582-4.546-1.384c-1.284,0.098-2.569,0.791-3.261,1.878c-0.988,1.284-1.185,2.964-1.087,4.545
	c0.099,1.285,0.692,2.47,1.581,3.261c0.989,0.889,2.372,1.186,3.756,1.087c1.284-0.098,2.569-0.692,3.557-1.482v3.557
	c-1.581,0.989-3.557,1.186-5.435,1.087c-1.878-0.098-3.755-0.79-5.138-2.174c-1.483-1.482-2.273-3.458-2.372-5.534
	c-0.099-2.174,0.296-4.347,1.581-6.127C-714.769,10.752-713.188,9.665-711.409,9.17"/>
<path fill="#8EA3B4" d="M-668.027,8.874c1.877-0.296,3.755-0.099,5.534,0.593v3.656c-1.186-0.889-2.668-1.284-4.151-1.284
	c-0.79,0-1.581,0.395-1.877,1.087c-0.297,0.691-0.099,1.581,0.593,2.075c1.087,0.79,2.47,1.087,3.656,1.778
	c0.89,0.494,1.779,1.186,2.273,2.175c0.889,1.778,0.494,4.249-1.087,5.632c-1.483,1.384-3.558,1.779-5.534,1.68
	c-1.384-0.099-2.767-0.395-4.052-0.889v-3.854c1.087,0.79,2.273,1.383,3.558,1.581c0.889,0.099,1.878,0.198,2.767-0.296
	c0.791-0.396,0.988-1.581,0.494-2.273c-0.494-0.494-1.087-0.89-1.778-1.087c-1.187-0.494-2.373-0.989-3.459-1.779
	c-0.692-0.593-1.285-1.384-1.482-2.273c-0.297-1.285-0.198-2.767,0.592-3.953C-671.09,9.961-669.509,9.17-668.027,8.874"/>
<path fill="#8EA3B4" d="M-695.499,9.467c1.087-0.691,2.471-0.691,3.656-0.296v3.952c-0.79-0.494-1.778-0.691-2.668-0.593
	c-1.087,0.099-2.075,0.989-2.47,1.977c-0.494,1.087-0.593,2.272-0.593,3.359v7.906h-3.953V9.171h3.953v2.865
	C-697.08,11.048-696.487,10.06-695.499,9.467"/>
<rect x="-723.959" y="9.17" fill="#8EA3B4" width="3.953" height="16.602"/>
<path fill="#8EA3B4" d="M-684.432,8.875c1.878-0.296,3.953-0.099,5.732,0.692c1.482,0.692,2.767,1.976,3.458,3.458
	c0.692,1.581,0.89,3.459,0.791,5.238c-0.099,1.778-0.691,3.459-1.778,4.842c-1.088,1.482-2.767,2.47-4.546,2.767
	c-1.581,0.296-3.162,0.296-4.645,0c-1.779-0.396-3.557-1.482-4.545-2.965c-1.285-1.778-1.581-4.052-1.483-6.225
	c0.099-1.779,0.692-3.657,1.878-5.041C-688.384,10.06-686.507,9.17-684.432,8.875 M-683.246,12.036
	c-0.988,0-1.877,0.396-2.668,0.988c-0.988,0.89-1.383,2.174-1.581,3.459c-0.099,1.383,0,2.865,0.593,4.151
	c0.494,0.987,1.384,1.778,2.47,2.075c1.087,0.296,2.174,0.296,3.261-0.099c0.89-0.395,1.582-1.087,1.977-1.878
	c0.593-1.284,0.593-2.668,0.593-4.051c-0.099-1.285-0.495-2.57-1.384-3.459C-680.775,12.333-682.06,11.938-683.246,12.036"/>
<path fill="#8EA3B4" d="M-652.809,8.875c1.976-0.296,4.051-0.099,5.929,0.79c1.581,0.791,2.767,2.175,3.36,3.854
	c0.494,1.285,0.593,2.57,0.593,3.953c0,1.977-0.494,4.052-1.779,5.633c-1.186,1.581-2.965,2.569-4.842,2.866
	c-1.878,0.296-3.854,0.197-5.633-0.495c-1.778-0.691-3.261-2.173-4.051-3.952c-0.791-1.779-0.89-3.854-0.593-5.732
	c0.296-1.976,1.087-3.854,2.569-5.138C-655.972,9.665-654.39,9.072-652.809,8.875 M-651.722,12.036
	c-1.087,0.099-2.174,0.494-2.866,1.384c-0.79,0.889-1.087,2.075-1.186,3.359c-0.098,1.186,0,2.471,0.494,3.656
	c0.396,0.989,1.087,1.78,2.076,2.175c0.889,0.395,1.877,0.494,2.865,0.296c0.89-0.099,1.779-0.593,2.372-1.285
	c0.593-0.691,0.89-1.581,0.988-2.47c0.198-1.186,0.198-2.372,0-3.557c-0.198-0.989-0.593-1.977-1.383-2.668
	C-649.449,12.234-650.635,11.938-651.722,12.036"/>
<rect x="-802.915" y="15.198" fill="#8EA3B4" width="18.38" height="18.38"/>
<rect x="-782.657" y="15.198" fill="#8EA3B4" width="18.38" height="18.38"/>
<path fill-rule="evenodd" clip-rule="evenodd" fill="#8EA3B4" d="M-497.889,20.482c0.549,1.648,0.988,2.638,1.979,3.186
	c0.768,0.44,1.537,0.331,1.537,0.77c0,0.439-0.221,0.549-0.879,0.549s-1.76-0.219-3.406-0.219c-2.309,0-3.627,0.219-4.178,0.219
	c-0.549,0-0.658-0.11-0.658-0.439c0-0.33,0.33-0.549,0.77-0.549c1.318,0,1.648-0.22,1.648-0.879c0-0.33-0.109-0.88-0.33-1.649
	l-1.648-4.615c-0.109-0.22-0.33-0.33-0.66-0.33h-4.943c-0.221,0-0.439,0.11-0.439,0.33l-0.99,3.187
	c-0.439,1.428-0.659,2.307-0.659,2.747c0,0.769,0.33,0.878,1.099,0.989c1.099,0.109,1.65,0.22,1.65,0.769
	c0,0.329-0.221,0.439-0.66,0.439c-0.549,0-1.758-0.219-3.517-0.219c-1.209,0-2.088,0.219-2.748,0.219
	c-0.549,0-0.769-0.219-0.769-0.439c0-0.769,1.209-0.33,2.088-0.88c0.769-0.439,0.989-1.318,1.429-2.637l6.484-18.461
	c0.219-0.55,0.219-0.88,0.658-0.88c0.551,0,0.66,0.66,0.99,1.649L-497.889,20.482z M-506.24,8.063c-0.111,0-0.221,0.11-0.221,0.33
	l-1.979,6.374v0.329c0,0.11,0.111,0.22,0.33,0.22h4.066c0.219,0,0.328-0.11,0.328-0.33c0-0.11,0-0.219-0.109-0.329l-2.197-6.155
	C-506.131,8.174-506.131,8.063-506.24,8.063"/>
<path fill-rule="evenodd" clip-rule="evenodd" fill="#8EA3B4" d="M-490.527,11.031c0,0.22,0,0.22,0.111,0.22
	c0.109,0,0.219-0.11,0.33-0.22l0.438-0.439c1.43-1.429,2.859-2.088,4.617-2.088c3.625,0,6.703,3.187,6.703,8.022
	c0,5.274-3.408,9.011-8.354,9.011c-1.316,0-2.416-0.22-3.516-0.879l-0.219,0.11v5.055c0,0.879,0.109,1.209,0.768,1.429
	c1.1,0.439,2.088,0,2.088,0.879c0,0.329-0.33,0.549-0.879,0.549c-1.098,0-2.307-0.22-3.736-0.22c-1.428,0-2.527,0.22-3.297,0.22
	c-0.549,0-0.768-0.11-0.768-0.549c0-0.66,0.658-0.44,1.537-0.77c0.66-0.22,0.879-0.549,0.879-1.538V13.888
	c0-2.527-1.867-1.208-1.867-2.197c0-0.55,0.988-0.66,2.197-1.429c1.648-0.989,2.088-1.758,2.527-1.758
	c0.221,0,0.439,0.22,0.439,0.769V11.031z M-487.119,24.547c3.186,0,5.383-2.857,5.383-6.813c0-4.176-2.307-6.704-5.383-6.704
	c-2.309,0-3.188,1.209-3.188,3.517v6.593C-490.416,23.449-489.207,24.547-487.119,24.547"/>
<path fill-rule="evenodd" clip-rule="evenodd" fill="#8EA3B4" d="M-455.361,22.24c0,0.769,0.221,1.208,0.77,1.539
	c0.879,0.439,1.867-0.111,1.867,0.878c0,0.33-0.328,0.55-0.77,0.55c-0.988,0-2.197-0.22-3.516-0.22c-1.43,0-2.527,0.22-3.297,0.22
	c-0.439,0-0.77-0.11-0.77-0.55c0-0.659,0.66-0.439,1.539-0.769c0.768-0.22,0.768-0.549,0.768-1.318V3.888
	c0-1.209-1.758-0.879-1.758-1.538c0-0.55,0.879-0.55,1.869-0.88c1.867-0.659,2.748-1.318,2.967-1.318
	c0.439,0,0.439,0.219,0.439,0.659c0,0.659-0.109,1.429-0.109,2.418V22.24z"/>
<path fill-rule="evenodd" clip-rule="evenodd" fill="#8EA3B4" d="M-448.877,14.877c-0.441,0-0.441,0.11-0.441,0.55v0.879
	c0,4.395,2.418,7.142,5.824,7.142c3.078,0,4.396-2.087,4.617-2.087c0.219,0,0.328,0.11,0.328,0.439c0,0.989-2.746,3.847-6.924,3.847
	c-4.504,0-7.471-3.297-7.471-8.462c0-5.275,3.406-8.572,7.912-8.572c3.955,0,6.594,2.528,6.594,5.495
	c0,0.549-0.439,0.769-1.43,0.769H-448.877z M-441.955,11.8c0-1.208-1.318-2.417-2.967-2.417c-1.979,0-3.406,1.428-3.846,3.406
	l-0.109,0.55v0.109c0,0.22,0.219,0.331,0.439,0.331h2.637C-443.164,13.779-441.955,13.339-441.955,11.8"/>
<path fill-rule="evenodd" clip-rule="evenodd" fill="#8EA3B4" d="M-473.383,11.031c0,0.22,0,0.22,0.109,0.22s0.219-0.11,0.33-0.22
	l0.439-0.439c1.428-1.429,2.857-2.088,4.615-2.088c3.625,0,6.703,3.187,6.703,8.022c0,5.274-3.406,9.011-8.352,9.011
	c-1.318,0-2.418-0.22-3.518-0.879l-0.219,0.11v5.055c0,0.879,0.109,1.209,0.77,1.429c1.098,0.439,2.088,0,2.088,0.879
	c0,0.329-0.33,0.549-0.879,0.549c-1.1,0-2.309-0.22-3.738-0.22c-1.428,0-2.527,0.22-3.297,0.22c-0.438,0-0.768-0.11-0.768-0.549
	c0-0.66,0.66-0.44,1.539-0.77c0.658-0.22,0.879-0.549,0.879-1.538V13.888c0-2.527-1.869-1.208-1.869-2.197
	c0-0.55,0.99-0.66,2.197-1.429c1.539-0.989,2.088-1.758,2.527-1.758c0.221,0,0.441,0.22,0.441,0.769V11.031z M-469.977,24.547
	c3.186,0,5.385-2.857,5.385-6.813c0-4.176-2.309-6.704-5.385-6.704c-2.309,0-3.188,1.209-3.188,3.517v6.593
	C-473.273,23.449-472.064,24.547-469.977,24.547"/>
<path fill-rule="evenodd" clip-rule="evenodd" fill="#8EA3B4" d="M-522.724,21.471c-0.989,2.308-1.539,3.296-2.857,5.274
	c-1.868,2.747-4.396,6.264-7.582,6.264c-2.857,0-3.627-1.868-7.473-1.868c-3.847,0-4.727,1.868-7.474,1.868
	c-3.187,0-5.604-3.186-7.472-5.934c-5.165-7.802-5.715-16.923-2.528-21.758c2.198-3.407,5.824-5.495,9.121-5.495
	c3.407,0,5.494,1.868,8.353,1.868c2.746,0,4.395-1.868,8.351-1.868c2.968,0,6.153,1.649,8.353,4.396
	C-531.407,8.283-530.198,18.723-522.724,21.471"/>
<path fill-rule="evenodd" clip-rule="evenodd" fill="#8EA3B4" d="M-535.363-3.255c1.43-1.868,2.528-4.396,2.088-7.033
	c-2.308,0.11-5.055,1.648-6.592,3.626c-1.43,1.759-2.639,4.396-2.199,6.924C-539.539,0.151-536.9-1.387-535.363-3.255"/>
<path fill="#8EA3B4" d="M-433.824,9.053c0,1.209-0.986,2.198-2.195,2.198s-2.199-0.989-2.199-2.198s0.99-2.198,2.199-2.198
	C-434.703,6.855-433.824,7.844-433.824,9.053 M-437.67,9.053c0,0.989,0.771,1.758,1.65,1.758c0.988,0,1.646-0.769,1.646-1.758
	c0-0.989-0.658-1.758-1.646-1.758C-437.01,7.295-437.67,8.064-437.67,9.053 M-436.35,10.151h-0.549V7.954
	c0.219,0,0.438-0.11,0.879-0.11c0.438,0,0.549,0.11,0.768,0.11c0.111,0.11,0.221,0.22,0.221,0.44c0,0.219-0.221,0.439-0.439,0.549
	c0.219,0.11,0.33,0.22,0.439,0.549c0.109,0.33,0.109,0.44,0.109,0.55h-0.549c-0.111-0.11-0.111-0.33-0.221-0.55
	c0-0.219-0.221-0.329-0.439-0.329h-0.219V10.151z M-436.35,8.943h0.219c0.33,0,0.549-0.11,0.549-0.33c0-0.219-0.109-0.33-0.438-0.33
	h-0.33V8.943z"/>
<path fill="#8EA3B4" d="M-520.637,29.933c0,1.208-0.987,2.198-2.196,2.198s-2.199-0.99-2.199-2.198c0-1.209,0.99-2.198,2.199-2.198
	C-521.516,27.734-520.637,28.724-520.637,29.933 M-524.483,29.933c0,0.989,0.769,1.758,1.649,1.758c0.987,0,1.647-0.769,1.647-1.758
	c0-0.989-0.66-1.758-1.647-1.758C-523.824,28.174-524.483,28.943-524.483,29.933 M-523.164,31.032h-0.551v-2.198
	c0.221,0,0.44-0.11,0.881-0.11c0.438,0,0.549,0.11,0.769,0.11c0.108,0.11,0.219,0.219,0.219,0.439c0,0.22-0.219,0.44-0.438,0.55
	c0.22,0.11,0.328,0.22,0.438,0.549c0.111,0.33,0.111,0.44,0.111,0.55h-0.55c-0.11-0.11-0.11-0.33-0.221-0.55
	c0-0.219-0.22-0.329-0.438-0.329h-0.22V31.032z M-523.164,29.822h0.22c0.329,0,0.549-0.11,0.549-0.33c0-0.22-0.11-0.329-0.438-0.329
	h-0.33V29.822z"/>
<path fill-rule="evenodd" clip-rule="evenodd" fill="#8EA3B4" d="M-291.301,31.741c-7.145,5.275-17.584,8.133-26.486,8.133
	c-12.527,0-23.848-4.616-32.42-12.309c-0.66-0.55-0.109-1.429,0.77-0.989c9.23,5.385,20.66,8.572,32.42,8.572
	c7.912,0,16.705-1.649,24.727-5.055C-291.191,29.543-290.092,30.862-291.301,31.741"/>
<path fill-rule="evenodd" clip-rule="evenodd" fill="#8EA3B4" d="M-288.334,28.334c-0.879-1.209-6.045-0.549-8.354-0.329
	c-0.658,0.109-0.768-0.55-0.219-0.989c4.066-2.858,10.77-2.088,11.65-1.099c0.77,0.988-0.221,7.692-4.066,10.879
	c-0.551,0.55-1.209,0.221-0.879-0.439C-289.322,34.379-287.455,29.543-288.334,28.334"/>
<path fill-rule="evenodd" clip-rule="evenodd" fill="#8EA3B4" d="M-296.576,6.794V3.937c0-0.44,0.33-0.77,0.77-0.77h12.527
	c0.441,0,0.77,0.33,0.77,0.77v2.418c0,0.439-0.328,0.878-0.988,1.758l-6.484,9.341c2.418,0,4.945,0.33,7.145,1.539
	c0.439,0.329,0.658,0.659,0.658,1.099v2.967c0,0.44-0.439,0.88-0.879,0.66c-3.846-1.979-9.012-2.198-13.297,0
	c-0.441,0.22-0.881-0.22-0.881-0.66v-2.857c0-0.44,0-1.209,0.439-1.978l7.475-10.771h-6.594
	C-296.246,7.453-296.576,7.233-296.576,6.794"/>
<path fill-rule="evenodd" clip-rule="evenodd" fill="#8EA3B4" d="M-342.295,24.268h-3.846c-0.33,0-0.66-0.33-0.66-0.66V4.047
	c0-0.44,0.33-0.66,0.77-0.66h3.518c0.33,0,0.658,0.33,0.658,0.66v2.527h0.111c0.879-2.527,2.637-3.627,5.055-3.627
	c2.416,0,3.846,1.209,4.945,3.627c0.879-2.527,3.078-3.627,5.275-3.627c1.648,0,3.297,0.66,4.396,2.089
	c1.209,1.648,0.988,4.065,0.988,6.154v12.418c0,0.44-0.33,0.66-0.77,0.66h-3.846c-0.33,0-0.66-0.33-0.66-0.66v-10.44
	c0-0.879,0.111-2.858-0.109-3.627c-0.33-1.318-1.1-1.648-2.197-1.648c-0.881,0-1.869,0.66-2.309,1.648
	c-0.439,0.989-0.33,2.638-0.33,3.737V23.5c0,0.439-0.33,0.659-0.77,0.659h-3.846c-0.439,0-0.66-0.33-0.66-0.659V13.168
	c0-2.198,0.33-5.385-2.307-5.385c-2.748,0-2.639,3.077-2.639,5.385V23.5C-341.635,23.938-341.855,24.268-342.295,24.268"/>
<path fill-rule="evenodd" clip-rule="evenodd" fill="#8EA3B4" d="M-271.738,2.947c5.715,0,8.682,4.836,8.682,11.101
	c0,5.934-3.408,10.77-8.682,10.77c-5.605,0-8.572-4.836-8.572-10.88C-280.311,7.674-277.234,2.947-271.738,2.947 M-271.738,6.904
	c-2.857,0-2.969,3.847-2.969,6.264c0,2.418,0,7.474,2.969,7.474c2.967,0,3.076-4.177,3.076-6.594c0-1.649-0.109-3.627-0.549-5.166
	C-269.65,7.453-270.529,6.904-271.738,6.904"/>
<path fill-rule="evenodd" clip-rule="evenodd" fill="#8EA3B4" d="M-255.693,24.268h-3.848c-0.328,0-0.658-0.33-0.658-0.66V4.047
	c0-0.33,0.33-0.66,0.77-0.66h3.516c0.33,0,0.658,0.22,0.658,0.549v2.968h0.111c1.098-2.637,2.527-3.957,5.166-3.957
	c1.758,0,3.406,0.66,4.506,2.308c0.988,1.539,0.988,4.177,0.988,6.045v12.308c0,0.33-0.33,0.66-0.77,0.66h-3.846
	c-0.33,0-0.66-0.33-0.66-0.66v-10.66c0-2.088,0.221-5.275-2.418-5.275c-0.879,0-1.758,0.659-2.197,1.539
	c-0.549,1.209-0.66,2.418-0.66,3.736V23.5C-254.924,23.938-255.256,24.268-255.693,24.268"/>
<path fill-rule="evenodd" clip-rule="evenodd" fill="#8EA3B4" d="M-306.576,14.927c0,1.538,0,2.747-0.77,4.066
	c-0.551,1.099-1.539,1.758-2.639,1.758c-1.428,0-2.309-1.099-2.309-2.747c0-3.297,2.969-3.847,5.717-3.847V14.927z M-302.73,24.158
	c-0.221,0.22-0.66,0.22-0.879,0.11c-1.318-1.099-1.539-1.539-2.199-2.528c-2.088,2.088-3.625,2.748-6.264,2.748
	c-3.188,0-5.715-1.978-5.715-5.935c0-3.077,1.648-5.166,4.066-6.264c2.088-0.879,4.945-1.099,7.145-1.319v-0.44
	c0-0.879,0.109-1.977-0.439-2.747c-0.441-0.659-1.32-0.989-2.199-0.989c-1.428,0-2.748,0.769-3.078,2.307
	c-0.109,0.33-0.33,0.66-0.658,0.66l-3.736-0.439c-0.33-0.11-0.66-0.33-0.549-0.769c0.879-4.506,4.943-5.826,8.57-5.826
	c1.869,0,4.287,0.44,5.715,1.869c1.867,1.758,1.648,4.066,1.648,6.594v5.934c0,1.759,0.77,2.528,1.428,3.517
	c0.221,0.329,0.332,0.769,0,0.989C-300.533,22.399-301.961,23.5-302.73,24.158"/>
<path fill-rule="evenodd" clip-rule="evenodd" fill="#8EA3B4" d="M-356.582,14.927c0,1.538,0,2.747-0.658,4.066
	c-0.66,1.099-1.539,1.758-2.639,1.758c-1.428,0-2.307-1.099-2.307-2.747c0-3.297,2.967-3.847,5.715-3.847L-356.582,14.927z
	 M-352.734,24.158c-0.221,0.22-0.66,0.22-0.879,0.11c-1.209-1.099-1.539-1.539-2.199-2.528c-2.088,2.088-3.625,2.748-6.264,2.748
	c-3.188,0-5.715-1.978-5.715-5.935c0-3.077,1.648-5.166,4.066-6.264c2.088-0.879,4.945-1.099,7.143-1.319v-0.44
	c0-0.879,0.111-1.977-0.439-2.747c-0.439-0.659-1.316-0.989-2.088-0.989c-1.428,0-2.746,0.769-3.076,2.307
	c-0.109,0.33-0.33,0.66-0.66,0.66l-3.736-0.439c-0.33-0.11-0.66-0.33-0.549-0.769c0.879-4.506,4.945-5.826,8.572-5.826
	c1.867,0,4.285,0.44,5.715,1.869c1.867,1.758,1.648,4.066,1.648,6.594v5.934c0,1.759,0.77,2.528,1.428,3.517
	c0.221,0.329,0.33,0.769,0,0.989C-350.537,22.399-351.965,23.5-352.734,24.158"/>
<path fill="#8EA3B4" d="M-155.186,23.903c0-1.117-0.307-2.132-0.711-3.148c-0.307-0.813-0.711-1.524-1.018-2.336
	c-2.74-5.992-5.584-11.882-8.631-17.772c-0.408-0.813-0.813-1.625-1.322-2.437c-0.404-0.813-0.912-1.524-1.625-2.133
	c-1.014-1.016-2.436-1.625-3.959-1.727h-0.711c-1.523,0.102-2.945,0.711-4.063,1.727c-0.609,0.609-1.117,1.32-1.523,2.133
	c-0.406,0.812-0.813,1.624-1.32,2.437c-2.031,3.96-3.961,7.921-5.891,11.882c-1.117,2.437-2.234,4.773-3.352,7.21
	c-0.404,1.016-0.811,2.032-1.016,3.148c0,1.828,0.408,3.758,1.422,5.282c0.813,1.421,2.133,2.539,3.656,3.148
	c1.117,0.508,2.438,0.711,3.656,0.609c1.727-0.101,3.352-0.711,4.773-1.625c1.625-1.015,2.945-2.336,4.266-3.656
	c1.219,1.32,2.436,2.539,3.961,3.453c1.422,0.914,3.047,1.625,4.672,1.727c1.828,0.203,3.756-0.305,5.281-1.321
	c1.32-0.914,2.436-2.234,3.047-3.757C-155.287,26.036-155.084,24.919-155.186,23.903 M-172.654,23.192
	c-0.508-0.508-0.914-1.117-1.32-1.726c-0.711-1.016-1.32-2.031-1.828-3.149c-0.406-0.913-0.711-1.929-0.914-2.944
	c-0.102-0.813-0.102-1.625,0.203-2.438c0.305-0.711,0.711-1.32,1.422-1.726c1.523-1.016,3.656-0.915,5.078,0.304
	c0.711,0.61,1.117,1.524,1.219,2.336c0.102,1.219-0.102,2.438-0.508,3.555C-170.014,19.536-171.232,21.466-172.654,23.192
	 M-157.725,25.73c-0.406,1.422-1.422,2.641-2.643,3.352c-1.115,0.609-2.537,0.812-3.756,0.609c-1.625-0.305-3.047-1.117-4.369-2.133
	c-0.912-0.711-1.725-1.625-2.537-2.437c1.32-1.625,2.438-3.25,3.352-5.078c0.811-1.625,1.422-3.351,1.422-5.179
	c0-1.117-0.203-2.336-0.711-3.352c-0.711-1.32-1.93-2.437-3.352-2.945c-1.32-0.508-2.844-0.508-4.164-0.102
	c-1.32,0.407-2.438,1.118-3.25,2.235c-0.711,0.914-1.117,2.133-1.219,3.25c-0.102,1.726,0.305,3.351,0.914,4.874
	c0.914,2.235,2.336,4.265,3.859,6.195c-0.711,0.813-1.422,1.523-2.234,2.234c-1.219,1.016-2.641,1.93-4.266,2.336
	c-1.32,0.305-2.742,0.203-3.961-0.507c-1.422-0.711-2.438-2.032-2.844-3.555c-0.406-1.016-0.305-2.235,0-3.351
	c0.305-0.914,0.711-1.727,1.117-2.641c2.742-5.89,5.586-11.781,8.531-17.569c0.406-0.914,0.914-1.727,1.32-2.539
	c0.406-0.711,0.813-1.32,1.422-1.828c0.711-0.508,1.523-0.812,2.438-0.812s1.727,0.304,2.438,0.914
	c0.711,0.609,1.219,1.32,1.625,2.132c0.914,1.727,1.828,3.453,2.639,5.179c2.541,4.977,4.979,10.055,7.314,15.133
	c0.305,0.812,0.711,1.523,1.016,2.437C-157.42,23.598-157.42,24.715-157.725,25.73"/>
<path fill="#8EA3B4" d="M-121.367-0.369c1.521-0.305,3.25,0.71,3.656,2.234c0.506,1.523-0.51,3.351-2.031,3.859
	c-1.523,0.508-3.354-0.406-3.859-1.929c-0.508-1.321,0-2.844,1.217-3.657C-122.18-0.166-121.773-0.267-121.367-0.369"/>
<path fill="#8EA3B4" d="M-111.01,9.685c0.914-1.016,2.234-1.625,3.555-1.828c0.914-0.102,1.828,0,2.742,0.203v4.266
	c-1.422-0.407-2.844-0.407-4.266,0.101c-0.711,0.305-1.422,0.711-1.93,1.32c-0.102,0.102-0.102,0.305-0.102,0.407v11.882v0.507
	h-4.57V8.365h3.859c0.305,0,0.609,0.101,0.711,0.406C-110.908,8.974-111.01,9.38-111.01,9.685"/>
<path fill="#8EA3B4" d="M-77.902,9.786c1.219-1.32,3.047-1.93,4.773-1.93c1.828-0.101,3.758,0.508,5.18,1.727
	c0.914,0.711,1.625,1.828,1.93,2.945c0.406,1.422,0.406,2.945,0.406,4.367v9.648h-4.672v-9.648c0-1.218,0.102-2.437-0.609-3.554
	c-0.406-0.813-1.32-1.117-2.133-1.219c-1.625-0.305-3.25,0.406-4.367,1.523c-0.102,0.102-0.203,0.305-0.203,0.407
	c0,0.507,0.102,1.015,0,1.523c-0.102,0.711,0,1.32,0,2.031v3.859c-0.102,1.726,0.102,3.351,0,5.078h-4.67V8.364h3.553
	c0.305,0,0.609,0.102,0.711,0.508C-77.902,9.075-77.902,9.38-77.902,9.786"/>
<rect x="-123.094" y="8.262" fill="#8EA3B4" width="4.57" height="18.179"/>
<path fill="#8EA3B4" d="M-125.939,8.263h-3.654c-0.307,0-0.711,0-0.914,0.407c-0.102,0.304-0.102,0.71-0.102,1.117
	c-1.016-1.117-2.438-1.727-3.859-1.828c-2.234-0.204-4.57,0.406-6.398,1.828c-1.523,1.117-2.641,2.742-3.148,4.468
	c-0.305,0.813-0.406,1.727-0.508,2.54v1.218c0.102,2.64,1.32,5.179,3.352,6.906c1.523,1.32,3.453,2.031,5.484,2.132h1.016
	c1.521-0.101,3.148-0.711,4.164-1.929c0,0.406,0,0.711,0.102,1.117c0.102,0.305,0.506,0.406,0.813,0.305h3.758
	C-125.939,20.349-125.939,14.356-125.939,8.263 M-130.711,20.754c-0.914,1.117-2.439,1.828-3.859,1.726
	c-1.523,0-3.25-0.609-4.266-1.828c-1.016-1.218-1.32-2.843-1.016-4.265c0.203-1.218,0.813-2.336,1.727-3.148
	c0.914-0.711,2.031-1.016,3.146-1.117c1.625-0.102,3.455,0.609,4.369,1.929c0.102,1.93,0,3.961,0,5.891
	C-130.609,20.247-130.508,20.552-130.711,20.754"/>
<path fill="#8EA3B4" d="M-84.908,13.443c-0.711-1.727-1.93-3.25-3.555-4.266s-3.656-1.523-5.586-1.32
	c-1.523,0.101-3.047,0.711-4.063,1.828V-0.47h-4.672v26.912h3.859c0.305,0,0.711-0.203,0.711-0.508c0.102-0.305,0-0.711,0-1.016
	c1.117,1.219,2.641,1.828,4.266,1.93h0.914c2.539-0.102,5.078-1.32,6.703-3.352C-83.994,20.755-83.588,16.794-84.908,13.443
	 M-90.291,21.161c-1.018,1.016-2.439,1.421-3.859,1.421c-1.422,0-2.945-0.609-3.859-1.726c-0.102-0.101-0.203-0.304-0.102-0.406
	v-6.195c0.914-1.117,2.336-1.929,3.758-1.929c1.42,0,3.045,0.406,4.063,1.421c1.016,0.914,1.521,2.438,1.521,3.758
	C-88.77,18.723-89.275,20.145-90.291,21.161"/>
<path fill="#8EA3B4" d="M-46.723,11.208c-1.93-2.539-5.385-3.758-8.43-3.351c-1.32,0.203-2.539,0.812-3.455,1.828V-0.471h-4.67
	v26.913h3.656c0.303,0,0.711,0,0.914-0.305c0.1-0.305,0.1-0.711,0.1-1.117c1.119,1.218,2.643,1.828,4.166,1.929h1.016
	c2.539-0.101,4.977-1.32,6.602-3.351c1.318-1.625,2.029-3.656,2.131-5.687v-1.218C-44.795,14.763-45.506,12.833-46.723,11.208
	 M-50.379,20.653c-1.219,1.523-3.354,2.132-5.281,1.828c-1.117-0.203-2.336-0.914-2.947-1.828c-0.1-0.812,0-1.523,0-2.336v-4.265
	c0.711-1.016,1.83-1.625,2.947-1.828c2.133-0.406,4.672,0.508,5.688,2.437C-48.957,16.489-49.059,18.926-50.379,20.653"/>
<path fill="#8EA3B4" d="M97.154,24.141c1.893,0,3.785-0.71,5.205-2.012l2.605,2.722c-1.658,1.775-4.025,3.077-7.811,3.077
	c-6.271,0-10.414-4.142-10.414-9.822c-0.119-5.325,4.143-9.703,9.467-9.822h0.355c6.271,0,9.822,4.733,9.467,11.36H91.236
	C91.828,22.366,93.723,24.141,97.154,24.141 M101.65,16.568c-0.355-2.604-1.893-4.497-4.971-4.497c-2.84,0-4.852,1.656-5.324,4.497
	H101.65z M0,23.905l11.359-11.598H0.355V8.639h16.33v3.668L5.324,23.905h11.598v3.668H0V23.905z M29.584,24.141
	c1.893,0,3.787-0.71,5.207-2.012l2.604,2.722c-1.658,1.775-4.023,3.077-7.811,3.077c-6.271,0-10.414-4.142-10.414-9.822
	c-0.119-5.325,4.143-9.703,9.467-9.822h0.355c6.271,0,9.822,4.733,9.467,11.36H23.785C24.258,22.366,26.27,24.141,29.584,24.141
	 M34.08,16.568c-0.355-2.604-1.893-4.497-4.971-4.497c-2.84,0-4.852,1.656-5.324,4.497H34.08z M63.189,18.106
	c0-6.035,4.498-9.822,9.469-9.822c2.365,0,4.734,1.065,6.271,2.84V0h4.023v27.573H78.93V24.97c-1.537,1.893-3.906,2.958-6.391,2.958
	C67.807,27.928,63.189,24.141,63.189,18.106 M79.166,18.106c-0.117-3.314-2.84-5.917-6.152-5.799
	c-3.314,0.119-5.918,2.841-5.799,6.154c0.119,3.314,2.721,5.798,6.035,5.798C76.563,24.259,79.166,21.537,79.166,18.106
	 M108.633,23.549l3.668-1.893c0.947,1.775,2.84,2.84,4.852,2.722c2.248,0,3.432-1.183,3.432-2.485c0-1.539-2.248-1.894-4.615-2.367
	c-3.195-0.71-6.508-1.775-6.508-5.68c0-2.959,2.84-5.799,7.336-5.681c3.551,0,6.154,1.421,7.574,3.669l-3.313,1.893
	c-0.949-1.42-2.604-2.248-4.262-2.13c-2.129,0-3.314,1.065-3.314,2.249c0,1.42,1.777,1.775,4.498,2.366
	c3.078,0.711,6.627,1.657,6.627,5.681c0,2.603-2.248,6.153-7.691,6.035C113.012,27.928,110.289,26.389,108.633,23.549
	 M135.613,19.171l-3.195,3.55v4.852h-4.023V0h4.023v18.106l8.52-9.349h4.854l-7.455,8.047l7.572,10.769h-4.496L135.613,19.171z
	 M51.002,8.284c-4.732,0-8.756,3.077-8.756,8.284v11.005h4.141V17.041c0-3.077,1.775-4.97,4.852-4.97s4.496,1.893,4.496,4.97v10.532
	h4.025V16.568C59.76,11.361,55.734,8.284,51.002,8.284"/>
<path fill="#8EA3B4" d="M185.078,20.591c-0.119-0.828,0-2.012,0-2.604l1.301-14.082h4.615l-1.301,14.2
	c-0.236,3.078,0.947,5.326,4.021,5.326c3.078,0,4.854-2.248,5.09-4.97l1.303-14.556h4.615l-1.303,14.319
	c-0.592,5.562-4.141,9.704-10.059,9.704C188.746,27.928,185.67,24.969,185.078,20.591 M206.615,15.857
	c0.592-6.745,5.207-12.425,13.016-12.425c2.131,0,4.143,0.473,6.037,1.775l-0.592,5.561c-1.777-2.366-4.023-2.839-5.918-2.839
	c-4.852,0-7.572,3.431-8.047,7.691c-0.355,4.261,1.775,7.692,6.51,7.692c2.129,0,4.258-0.591,6.508-2.958l-0.473,5.798
	c-2.248,1.184-4.379,1.776-6.391,1.776C209.574,27.928,206.023,22.129,206.615,15.857 M229.455,3.905h4.615l-1.658,19.171h6.627
	h2.486l-0.475,4.378h-13.727L229.455,3.905 M254.541,2.84h-0.354l-12.545,24.614h4.971l1.775-3.787h8.875l1.064,3.787h4.852
	L254.541,2.84 M253.357,12.662c0.119-0.355,0.238-0.71,0.355-0.947h0.119c0,0.355,0.117,0.592,0.117,0.947
	c0.238,1.065,2.012,6.982,2.012,6.982h-5.797L253.357,12.662z"/>
</svg>
