<?xml version="1.0" encoding="utf-8"?>
<!-- Generator: Adobe Illustrator 16.0.0, SVG Export Plug-In . SVG Version: 6.00 Build 0)  -->
<!DOCTYPE svg PUBLIC "-//W3C//DTD SVG 1.1//EN" "http://www.w3.org/Graphics/SVG/1.1/DTD/svg11.dtd">
<svg version="1.1" id="Layer_1" xmlns="http://www.w3.org/2000/svg" xmlns:xlink="http://www.w3.org/1999/xlink" x="0px" y="0px"
	 width="62px" height="62px" viewBox="0 0 62 62" enable-background="new 0 0 62 62" xml:space="preserve">
<path fill="#3C57A7" d="M-123.518,112.749h49.035V84h-49.035V112.749z M-103.985,103.566l-2.032,2.032l-7.225-7.225l7.225-7.225
	l2.032,2.032l-5.194,5.193L-103.985,103.566z M-99.259,107.037l-2.818-0.561l3.336-16.767l2.818,0.56L-99.259,107.037z
	 M-91.983,105.598l-2.032-2.032l5.194-5.193l-5.194-5.193l2.032-2.032l7.225,7.225L-91.983,105.598z"/>
<polygon fill="#3C57A7" points="-74.482,124.249 -74.482,115.622 -123.518,115.622 -123.518,124.249 -107.779,124.249 
	-107.779,127.127 -110.655,127.127 -110.655,130 -87.344,130 -87.344,127.127 -90.22,127.127 -90.22,124.249 "/>
<path fill="#FDB814" d="M148.418-7h-6.434c-0.875,0-1.582,0.708-1.582,1.582v1.582h-12.947C126.8-5.673,125.06-7,123-7
	c-2.061,0-3.8,1.327-4.455,3.164h-12.947v-1.582c0-0.874-0.708-1.582-1.582-1.582h-6.434C96.708-7,96-6.292,96-5.418V0.91
	c0,0.875,0.708,1.582,1.582,1.582h6.434c0.874,0,1.582-0.707,1.582-1.582v-1.603h6.497c-5.49,3.43-9.11,9.454-9.543,16.202
	C100.653,16.13,99.27,17.897,99.27,20c0,2.617,2.129,4.746,4.746,4.746s4.746-2.129,4.746-4.746c0-2.019-1.272-3.735-3.053-4.42
	c0.54-7.522,5.789-13.863,13.091-15.672c0.789,1.527,2.366,2.584,4.2,2.584s3.411-1.057,4.2-2.584
	c7.302,1.809,12.551,8.15,13.091,15.672c-1.78,0.685-3.053,2.401-3.053,4.42c0,2.617,2.129,4.746,4.746,4.746
	s4.746-2.129,4.746-4.746c0-2.103-1.384-3.87-3.282-4.491c-0.433-6.748-4.053-12.751-9.543-16.181h6.497V0.91
	c0,0.875,0.707,1.582,1.582,1.582h6.434c0.874,0,1.582-0.707,1.582-1.582v-6.328C150-6.292,149.292-7,148.418-7"/>
<path fill="#FDB814" d="M133.763,45.038c-0.827-2.532-3.211-4.472-6.017-4.472h-9.492c-2.806,0-5.189,1.94-6.017,4.472
	c-0.319,0.976,0.511,1.962,1.538,1.962h18.449C133.251,47,134.082,46.014,133.763,45.038"/>
<path fill="#FDB814" d="M136.973,25.45L124.582,6.864v15.009c1.838,0.655,3.164,2.395,3.164,4.454c0,2.618-2.129,4.747-4.746,4.747
	s-4.746-2.129-4.746-4.747c0-2.059,1.326-3.799,3.164-4.454V6.864L109.027,25.45c-0.419,0.627-0.335,1.463,0.198,1.996
	c2.904,2.904,4.761,6.646,5.476,10.659c1.101-0.446,2.295-0.703,3.553-0.703h9.492c1.257,0,2.452,0.257,3.552,0.703
	c0.716-4.014,2.571-7.755,5.477-10.659C137.308,26.914,137.392,26.078,136.973,25.45"/>
<path fill="#FDB814" d="M123,24.746c-0.873,0-1.582,0.709-1.582,1.582c0,0.873,0.709,1.582,1.582,1.582s1.582-0.709,1.582-1.582
	C124.582,25.455,123.873,24.746,123,24.746"/>
<path fill="#F05225" d="M-186.531,244.651c-0.023,2.016,1.22,3.831,3.107,4.537v-8.639c0-0.124,0.063-0.311,0.063-0.435
	C-185.262,240.815-186.527,242.625-186.531,244.651"/>
<path fill="#F05225" d="M-169.563,255.341h-8.142l3.045,11.063c0.451,1.688,1.982,2.862,3.729,2.858
	c1.244,0.016,2.42-0.562,3.17-1.553c0.758-0.944,0.991-2.204,0.622-3.357L-169.563,255.341z"/>
<path fill="#F05225" d="M-183.361,240.052h0.062v-0.062C-183.299,240.052-183.299,240.052-183.361,240.052"/>
<path fill="#F05225" d="M-138.798,239.182h-0.497v11.188h0.497c3.089,0,5.594-2.505,5.594-5.594
	C-133.204,241.686-135.709,239.182-138.798,239.182"/>
<path fill="#F05225" d="M-181.559,240.549v8.826c0.067,2.285,1.94,4.103,4.227,4.102h11.311v-16.782h-11.311
	C-179.57,236.695-181.559,238.312-181.559,240.549"/>
<polygon fill="#F05225" points="-164.156,253.725 -141.159,262.924 -141.159,227 -164.156,236.198 "/>
<path fill="#359FD9" d="M6.108,269.953h-37.167l29.826-11.163c0.437-0.163,0.775-0.518,0.917-0.962l4.847-15.134l-15.225-15.225
	l-15.134,4.847c-0.444,0.143-0.798,0.481-0.962,0.917l-13.997,37.399l0.233-0.232c-0.276,0.275-0.445,0.656-0.445,1.076
	c0,0.842,0.682,1.523,1.523,1.523H6.108c0.841,0,1.523-0.682,1.523-1.523S6.949,269.953,6.108,269.953 M-39.476,269.953
	c-0.42,0-0.801,0.17-1.076,0.445l18.812-18.812c-1.555-2.515-1.267-5.888,0.951-8.106c2.567-2.567,6.743-2.567,9.31,0
	c2.572,2.573,2.572,6.736,0,9.309c-2.182,2.182-5.549,2.524-8.105,0.95l-16.214,16.214H-39.476z"/>
<path fill="#359FD9" d="M10.554,233.139l-11.693-11.693C-1.425,221.16-1.812,221-2.216,221s-0.792,0.16-1.077,0.446l-4.558,4.557
	l13.848,13.848l4.557-4.557C10.84,235.008,11,234.62,11,234.216C11,233.812,10.84,233.425,10.554,233.139"/>
<path fill="#F15C61" d="M108.894,252.799h3.633c0,3.249,2.418,5.942,5.548,6.378v-2.079c0-5.555-4.519-10.075-10.074-10.075
	c-5.555,0-10.074,4.52-10.074,10.075v2.143h4.525C106.004,259.241,108.894,256.351,108.894,252.799"/>
<path fill="#F15C61" d="M90.967,270.949h3.426c-0.065-0.573-0.1-1.156-0.1-1.748v-12.103c0-7.558,6.148-13.707,13.707-13.707
	s13.707,6.149,13.707,13.707v12.103c0,0.592-0.034,1.176-0.1,1.748h3.426c2.728,0,4.945-2.219,4.945-4.945v-5.511
	c0-2.659-2.109-4.834-4.743-4.94C124.345,246.829,116.955,240,108,240s-16.346,6.829-17.235,15.553
	c-2.634,0.106-4.743,2.281-4.743,4.94v5.511C86.021,268.73,88.238,270.949,90.967,270.949"/>
<path fill="#F15C61" d="M108,280.041c3.093,0,5.863-1.506,7.713-3.875h-5.628v-3.633h7.502c0.316-1.049,0.487-2.17,0.487-3.332
	v-6.366c-3.043-0.269-5.702-1.897-7.364-4.271c-1.823,2.604-4.846,4.311-8.259,4.311h-4.525v6.327
	C97.926,275.178,102.445,280.041,108,280.041"/>
<path fill="#F15C61" d="M118.203,283.701v-4.846c-2.511,2.955-6.154,4.819-10.203,4.819c-4.023,0-7.645-1.839-10.154-4.762v4.784
	l-0.018,0.004c2.384,1.855,6.341,4.391,10.156,4.391C111.817,288.091,115.8,285.558,118.203,283.701"/>
<path fill="#F15C61" d="M134.421,289.027l-12.146-3.98c-2.055,1.832-8.081,6.678-14.29,6.678c-6.218,0-12.196-4.856-14.229-6.688
	l-12.177,3.99c-2.738,0.898-4.579,3.439-4.579,6.322V302h12.507v-6.297h3.633V302h29.72v-6.297h3.634V302H139v-6.65
	C139,292.466,137.159,289.925,134.421,289.027"/>
<path fill="#7FBA42" d="M12.828,58.792c0,1.769,1.439,3.207,3.207,3.207h29.93c1.768,0,3.207-1.438,3.207-3.207v-3.207H12.828
	V58.792z M24.586,57.724h12.827v2.138H24.586V57.724z"/>
<path fill="#7FBA42" d="M27.793,43.827v-10.69c0-2.947-2.397-5.345-5.345-5.345H5.345C2.397,27.792,0,30.19,0,33.137v10.69
	c0,2.947,2.397,5.345,5.345,5.345h17.104C25.396,49.172,27.793,46.774,27.793,43.827"/>
<path fill="#7FBA42" d="M32.069,26.724v-10.69c0-4.126,3.358-7.482,7.483-7.482h9.62V6.414H12.828v19.241h9.62
	c4.125,0,7.483,3.357,7.483,7.483v10.69c0,4.126-3.358,7.483-7.483,7.483h-9.62v2.137h36.344V34.207h-9.62
	C35.427,34.207,32.069,30.851,32.069,26.724 M21.379,21.378h-2.138V19.24h2.138V21.378z M25.655,21.378h-2.138V19.24h2.138V21.378z
	 M29.931,21.378h-2.138V19.24h2.138V21.378z M34.207,41.688h-2.138V39.55h2.138V41.688z M38.483,41.688h-2.138V39.55h2.138V41.688z
	 M40.621,39.551h2.138v2.138h-2.138V39.551z"/>
<path fill="#7FBA42" d="M49.172,3.207C49.172,1.438,47.733,0,45.965,0H16.034c-1.768,0-3.207,1.438-3.207,3.207v1.069h36.345V3.207z
	"/>
<path fill="#7FBA42" d="M56.655,10.689H39.551c-2.947,0-5.344,2.398-5.344,5.345v10.69c0,2.947,2.397,5.344,5.344,5.344
	c0-3.356,1.949-6.259,4.771-7.658c-1.592-1.168-2.633-3.047-2.633-5.169c0-3.537,2.877-6.414,6.414-6.414
	c3.537,0,6.414,2.877,6.414,6.414c0,2.122-1.04,4.001-2.633,5.169c2.822,1.399,4.771,4.302,4.771,7.658
	c2.947,0,5.345-2.397,5.345-5.344v-10.69C62,13.087,59.602,10.689,56.655,10.689"/>
<path fill="#7FBA42" d="M48.104,25.655c-3.537,0-6.414,2.876-6.414,6.414h12.828C54.518,28.531,51.641,25.655,48.104,25.655"/>
<path fill="#7FBA42" d="M48.104,14.965c2.361,0,4.276,1.914,4.276,4.275c0,2.362-1.915,4.277-4.276,4.277s-4.276-1.915-4.276-4.277
	C43.828,16.879,45.743,14.965,48.104,14.965"/>
<polygon fill="#FFFFFF" points="9.908,42.593 8.648,43.854 4.167,39.373 8.648,34.893 9.908,36.152 6.687,39.373 "/>
<rect x="12.109" y="34.071" transform="matrix(0.9808 0.1951 -0.1951 0.9808 7.9299 -1.7794)" fill="#FFFFFF" width="1.782" height="10.603"/>
<polygon fill="#FFFFFF" points="17.352,43.854 16.092,42.594 19.312,39.373 16.092,36.152 17.352,34.893 21.832,39.373 "/>
</svg>
