<?xml version="1.0" encoding="utf-8"?>
<!-- Generator: Adobe Illustrator 16.0.0, SVG Export Plug-In . SVG Version: 6.00 Build 0)  -->
<!DOCTYPE svg PUBLIC "-//W3C//DTD SVG 1.1//EN" "http://www.w3.org/Graphics/SVG/1.1/DTD/svg11.dtd">
<svg version="1.1" id="Layer_1" xmlns="http://www.w3.org/2000/svg" xmlns:xlink="http://www.w3.org/1999/xlink" x="0px" y="0px"
	 width="26.438px" height="18.18px" viewBox="0 0 26.438 18.18" enable-background="new 0 0 26.438 18.18" xml:space="preserve">
<g>
	<defs>
		<rect id="SVGID_1_" x="-493.872" y="-434" width="1920" height="1080"/>
	</defs>
	<clipPath id="SVGID_2_">
		<use xlink:href="#SVGID_1_"  overflow="visible"/>
	</clipPath>
	<path clip-path="url(#SVGID_2_)" fill="#5F6F82" d="M23.134,0H6.616C5.704,0,4.964,0.74,4.964,1.652
		c0,0.912,0.74,1.652,1.652,1.652h16.518c0.912,0,1.652-0.74,1.652-1.652C24.786,0.74,24.046,0,23.134,0"/>
	<path clip-path="url(#SVGID_2_)" fill="#5F6F82" d="M3.313,1.652C3.311,1.215,3.136,0.796,2.826,0.487
		c-0.644-0.64-1.685-0.64-2.329,0c-0.31,0.309-0.486,0.728-0.488,1.165c-0.012,0.107-0.012,0.215,0,0.322
		C0.027,2.082,0.059,2.187,0.1,2.288C0.145,2.386,0.196,2.48,0.256,2.569c0.059,0.092,0.129,0.178,0.206,0.256
		C0.539,2.9,0.622,2.966,0.71,3.023C0.797,3.086,0.893,3.139,0.992,3.18c0.11,0.056,0.226,0.098,0.347,0.124
		c0.107,0.012,0.215,0.012,0.322,0c0.436,0,0.855-0.172,1.165-0.479c0.078-0.078,0.147-0.164,0.206-0.256
		c0.06-0.089,0.113-0.183,0.157-0.281c0.053-0.1,0.094-0.205,0.124-0.314C3.325,1.867,3.325,1.759,3.313,1.652"/>
	<path clip-path="url(#SVGID_2_)" fill="#5F6F82" d="M3.313,9.085c0.012-0.107,0.012-0.215,0-0.322
		c-0.028-0.107-0.07-0.209-0.124-0.305c-0.043-0.102-0.095-0.199-0.157-0.29C2.975,8.077,2.904,7.993,2.826,7.92
		c-0.644-0.64-1.685-0.64-2.329,0c-0.31,0.309-0.486,0.728-0.488,1.165c0.004,0.218,0.046,0.433,0.124,0.636
		c0.042,0.098,0.092,0.192,0.149,0.281c0.063,0.089,0.135,0.173,0.215,0.248c0.073,0.079,0.156,0.148,0.248,0.206
		c0.087,0.064,0.181,0.116,0.28,0.157c0.101,0.042,0.206,0.073,0.314,0.091c0.106,0.024,0.214,0.035,0.322,0.033
		c0.107,0.012,0.215,0.012,0.322,0c0.105-0.018,0.208-0.048,0.306-0.091c0.102-0.04,0.199-0.093,0.289-0.157
		c0.091-0.057,0.175-0.127,0.248-0.206c0.079-0.073,0.149-0.156,0.206-0.248c0.064-0.087,0.116-0.181,0.157-0.281
		c0.057-0.109,0.098-0.226,0.124-0.347C3.326,9.3,3.326,9.192,3.313,9.085"/>
	<path clip-path="url(#SVGID_2_)" fill="#5F6F82" d="M3.313,16.518c0.012-0.107,0.012-0.215,0-0.322
		c-0.028-0.109-0.07-0.215-0.124-0.314c-0.044-0.097-0.097-0.192-0.157-0.281c-0.057-0.091-0.127-0.174-0.206-0.248
		c-0.644-0.64-1.685-0.64-2.329,0c-0.08,0.074-0.149,0.157-0.207,0.248c-0.06,0.089-0.112,0.184-0.157,0.281
		c-0.043,0.101-0.073,0.206-0.091,0.314c-0.023,0.106-0.034,0.214-0.033,0.322c0.002,0.437,0.178,0.856,0.488,1.165
		c0.073,0.079,0.156,0.149,0.248,0.206c0.087,0.064,0.181,0.116,0.28,0.157c0.101,0.042,0.206,0.073,0.314,0.091
		c0.106,0.024,0.214,0.035,0.322,0.033c0.107,0.013,0.215,0.013,0.322,0c0.105-0.018,0.208-0.048,0.306-0.091
		c0.102-0.04,0.199-0.093,0.289-0.157c0.091-0.057,0.175-0.127,0.248-0.206c0.079-0.073,0.149-0.156,0.206-0.248
		c0.064-0.087,0.116-0.181,0.157-0.281c0.057-0.109,0.098-0.226,0.124-0.347C3.326,16.733,3.326,16.625,3.313,16.518"/>
	<path clip-path="url(#SVGID_2_)" fill="#5F6F82" d="M24.786,7.433H6.616c-0.912,0-1.652,0.74-1.652,1.652
		c0,0.912,0.74,1.652,1.652,1.652h18.17c0.912,0,1.652-0.74,1.652-1.652C26.438,8.173,25.698,7.433,24.786,7.433"/>
	<path clip-path="url(#SVGID_2_)" fill="#5F6F82" d="M17.353,14.866H6.616c-0.912,0-1.652,0.74-1.652,1.652
		c0,0.912,0.74,1.652,1.652,1.652h10.737c0.912,0,1.652-0.74,1.652-1.652C19.005,15.606,18.265,14.866,17.353,14.866"/>
</g>
</svg>
