<?xml version="1.0" encoding="utf-8"?>
<!-- Generator: Adobe Illustrator 23.0.5, SVG Export Plug-In . SVG Version: 6.00 Build 0)  -->
<svg version="1.1" id="Layer_1" xmlns="http://www.w3.org/2000/svg" xmlns:xlink="http://www.w3.org/1999/xlink" x="0px" y="0px"
	 viewBox="0 0 35 16" style="enable-background:new 0 0 35 16;" xml:space="preserve">
<style type="text/css">
	.st0{fill:#ED1E26;}
	.st1{fill:#F7941E;}
	.st2{fill:#ED1D25;}
	.st3{fill:#F7951E;}
	.st4{fill:#F47C29;}
	.st5{fill:#FBDBC8;}
	.st6{fill:#EE2B23;}
	.st7{fill:#F57E1F;}
	.st8{fill:#F58425;}
	.st9{fill:#FBD6B5;}
	.st10{fill:#FAD0AC;}
	.st11{fill:#F8A86A;}
	.st12{fill:#EF3E24;}
	.st13{fill:#F79754;}
	.st14{fill:#F8A780;}
	.st15{fill:#F8B596;}
	.st16{fill:#F03322;}
	.st17{fill:#F79B52;}
	.st18{fill:#F25939;}
</style>
<g>
	<path class="st0" d="M29.9,7.7c0,0.5,0,1,0,1.5c0,0,0.1-0.1,0.1-0.1c0.4-0.4,0.8-0.7,1.3-1c0.2-0.1,0.5-0.2,0.7-0.3
		c0.1,0,0.2,0,0.3,0c0.3,0.1,0.7,0.2,0.9,0.5c0.1,0.1,0.2,0.2,0.2,0.3c0,0.1,0,0.2-0.1,0.2c-0.2,0.1-0.2,0.2-0.3,0.3
		c-0.1,0.2-0.2,0.5-0.3,0.7c-0.1,0.5-0.1,1.1-0.1,1.6c0,0.2,0,0.4,0.1,0.5c0,0.1,0.1,0.2,0.1,0.2c0.1,0.2,0.2,0.2,0.4,0.2
		c0.1,0,0.2,0,0.3-0.1c0.2,0.2,0.2,0.5,0.2,0.7c0,0.2-0.2,0.3-0.3,0.3c-0.3,0.1-0.5,0.1-0.8-0.1c-0.2-0.1-0.3-0.3-0.4-0.4
		c-0.2-0.3-0.3-0.6-0.3-0.9c-0.1-0.4-0.1-0.8-0.1-1.2c0-0.5-0.1-1-0.1-1.4c0,0,0,0,0,0c0,0-0.1,0-0.1,0.1c-0.6,0.4-1,1-1.2,1.7
		c-0.1,0.2-0.1,0.5-0.1,0.7c0,0.2-0.1,0.2-0.3,0.2c-0.3-0.1-0.6-0.3-1-0.4c0-1.3,0-2.6,0-3.9c-0.4,0-0.9,0-1.3,0c0,0.1,0,0.1,0,0.2
		c0,1.9,0,3.9,0,5.8c0,0,0,0.1,0,0.1c0,0.1-0.1,0.2-0.2,0.1c-0.3-0.2-0.6-0.3-0.9-0.5c0-0.1,0-0.1,0-0.2c0-1.4,0-2.8,0-4.2
		c0-0.1,0-0.2-0.1-0.3c-0.2-0.3-0.4-0.5-0.6-0.7c-0.2-0.2-0.5-0.4-0.8-0.4c-0.2,0-0.4,0-0.6,0.1C24.1,7.9,24,8,23.9,8.2
		c0,0.2,0,0.3,0.2,0.4c0.1,0,0.1,0.1,0.2,0c0.1,0,0.2-0.1,0.3-0.1c0.3-0.1,0.6,0,0.8,0.2c0.3,0.2,0.5,0.5,0.5,0.9
		c0.1,0.5,0,0.9-0.3,1.3c-0.4,0.6-1.3,0.7-1.8,0.5c-0.3-0.1-0.5-0.3-0.7-0.6c-0.1-0.2-0.1-0.4,0-0.7c0.1-0.1,0.1-0.3,0.2-0.5
		c0.1,0.1,0.1,0.2,0.2,0.3c0.1,0.2,0.3,0.3,0.5,0.3c0.3,0,0.5,0,0.8-0.2c0.1,0,0.2-0.1,0.2-0.2c0.2-0.2,0-0.5-0.2-0.6
		c-0.1,0-0.2,0-0.3,0c-0.4,0.2-0.9,0.2-1.3,0c-0.4-0.2-0.6-0.6-0.6-1.1c0-0.3,0.1-0.5,0.3-0.7c0.3-0.4,0.8-0.6,1.3-0.6
		c0.6-0.1,1.1,0.1,1.5,0.4c0.2,0.2,0.4,0.4,0.7,0.6c0,0,0.1,0.1,0.1,0.1c0-0.1,0-0.1,0-0.1c0-0.2,0-0.4,0-0.6c0-0.1,0.1-0.2,0.2-0.2
		c0,0,0.1,0,0.1,0c2.3,0,4.7,0,7,0c0.3,0,0.3,0,0.3,0.3c0,0.1,0,0.2,0,0.3c0,0.2-0.1,0.2-0.2,0.2c-0.6,0-1.1,0-1.7,0
		c-0.7,0-1.4,0-2,0C30,7.7,29.9,7.7,29.9,7.7z"/>
	<path class="st1" d="M4.3,4C4.3,4,4.3,4,4.3,4C4,4.7,3.8,5.4,3.7,6.1c-0.2,1.3,0,2.5,0.5,3.7c0.3,0.7,0.7,1.4,1.3,1.9
		c0.4,0.4,1,0.7,1.6,0.8c0.3,0.1,0.6,0.1,0.9,0.1c0.4,0,0.9-0.1,1.3-0.2c1.2-0.5,2-1.4,2.2-2.7c0.2-1,0-1.9-0.7-2.7
		c-0.1-0.1-0.2-0.2-0.3-0.3c0,0,0-0.1-0.1-0.1c0.2,0,0.3,0,0.5,0c0.7,0.1,1.4,0.3,2.1,0.7c0.2,0.1,0.5,0.3,0.7,0.4
		c0.1,0,0.1,0.1,0.2,0.1c0,0,0.1,0.1,0.1,0.1c0,0,0,0.1,0,0.1c0,0.4,0,0.9,0,1.3c-0.1,0.6-0.3,1.2-0.6,1.8c-0.4,0.7-0.9,1.4-1.5,1.9
		c-0.6,0.4-1.2,0.8-1.8,1c-0.4,0.1-0.9,0.2-1.4,0.3c-0.3,0-0.6,0-0.8,0c-0.2,0-0.5,0-0.7-0.1c-0.5-0.1-0.9-0.2-1.4-0.4
		c-0.1-0.1-0.3-0.1-0.4-0.2c0,0,0,0,0,0c0,0,0,0,0,0c0,0,0,0-0.1,0c0,0-0.1-0.1-0.1-0.1c0,0,0,0,0,0c0,0-0.1,0-0.1,0c0,0,0,0,0-0.1
		c0,0-0.1,0-0.1-0.1l0,0c0,0-0.1,0-0.1-0.1l0,0c0-0.1,0-0.1-0.1-0.1c0,0,0-0.1-0.1-0.1c-0.4-0.3-0.7-0.6-1-0.9
		c-0.4-0.5-0.7-0.9-0.9-1.5C2.4,9.7,2.2,8.8,2.2,8c0-0.1,0-0.2,0-0.3c0,0,0-0.1,0-0.1c0,0,0,0,0-0.1c0,0,0,0,0-0.1
		c0-0.1,0-0.2,0.1-0.3c0-0.1,0-0.1,0-0.2c0,0,0,0,0,0c0-0.1,0-0.1,0-0.2c0,0,0,0,0,0c0,0,0,0,0,0.1c0-0.1,0.1-0.2,0.1-0.3
		c0-0.1,0.1-0.2,0.1-0.3l0,0C2.7,6.1,2.7,6,2.7,6l0,0c0,0,0-0.1,0.1-0.1c0,0,0-0.1,0.1-0.1C2.9,5.6,3,5.4,3.1,5.3
		C3.2,5.1,3.3,5,3.4,4.8c0,0,0.1-0.1,0.1-0.1c0-0.1,0.1-0.1,0.1-0.2l0,0c0,0,0,0,0,0c0,0,0,0,0,0c0,0,0,0,0,0c0-0.1,0-0.1,0.1-0.1
		c0,0,0,0,0,0.1c0.1-0.1,0.2-0.2,0.3-0.3l0,0c0,0,0,0,0,0l0,0c0,0,0,0,0,0c0,0,0,0,0,0c0,0,0,0,0,0l0,0c0,0,0,0,0,0l0,0
		C4.1,4.1,4.2,4.1,4.3,4L4.3,4C4.3,4,4.3,4,4.3,4z"/>
	<path class="st2" d="M4.9,13.3C5,13.3,5,13.3,4.9,13.3C5,13.3,5,13.3,4.9,13.3c0.1,0.1,0.1,0.1,0.1,0.1c0,0,0,0,0,0c0,0,0,0,0.1,0
		l0,0c0,0,0,0,0.1,0l0,0c0.1,0.1,0.2,0.2,0.4,0.2C6.1,13.9,6.5,14,7,14.1c0.2,0,0.5,0.1,0.7,0.1c0.3,0,0.6,0,0.8,0
		c0.5,0,0.9-0.1,1.4-0.3c0.7-0.2,1.3-0.6,1.8-1c0.6-0.5,1.1-1.1,1.5-1.9c0.3-0.6,0.5-1.2,0.6-1.8c0.1-0.4,0-0.9,0-1.3
		c0,0,0-0.1,0-0.1c0,0,0,0,0-0.1C14,7.8,14.1,7.9,14.2,8c0.1-0.1,0.2-0.2,0.3-0.4c0,0.1,0,0.2,0.1,0.3c0.1,0.4,0.1,0.8,0.1,1.2
		c0,0.9-0.2,1.8-0.5,2.6c-0.7,1.7-2.4,3.4-4.8,3.9c-3.6,0.7-6.9-1.5-7.8-4.8C0.8,8.5,1.3,6.4,2.8,4.6C3.3,4,4,3.5,4.7,3.1
		c0.1,0,0.1-0.1,0.2-0.1l0,0C4.7,3.3,4.6,3.5,4.4,3.7c0,0,0,0-0.1,0.1c0,0,0,0-0.1,0C4.1,3.9,4,4.1,3.9,4.2c0,0,0,0.1,0,0.1v0
		c0,0,0,0,0,0l0,0c0,0,0,0,0,0l0,0c0,0,0,0,0,0l0,0c0,0,0,0,0,0l0,0c0,0,0,0,0,0l0,0c0,0,0,0,0,0l0,0c-0.1,0-0.1,0-0.1,0.1
		c0,0,0,0,0,0.1l0,0c0,0,0,0,0,0l0,0c0,0,0,0,0,0l0,0c0,0,0,0,0,0c0,0,0,0,0,0c0,0,0,0.1-0.1,0.1l0,0c0,0,0,0,0,0l0,0
		c-0.1,0-0.1,0-0.1,0.1l0,0c0,0,0,0,0,0l0,0c-0.1,0-0.1,0-0.1,0.1l0,0C3.2,5,3.2,5,3.2,5.1l0,0c-0.1,0-0.1,0-0.1,0.1l0,0
		c-0.1,0-0.1,0-0.1,0.1l0,0C3,5.2,3,5.3,3,5.4l0,0c0,0-0.1,0-0.1,0.1C2.8,5.7,2.7,5.9,2.6,6.2C2.5,6.3,2.4,6.5,2.4,6.7
		c0,0.1,0,0.1,0,0.2c0,0,0,0,0,0c0,0,0,0.1,0,0.1C2.2,7.2,2.2,7.4,2.2,7.6c0,0.3,0,0.6,0,0.9c0,0.4,0,0.7,0.1,1.1
		c0.2,0.8,0.5,1.5,1,2.1c0.1,0.1,0.2,0.3,0.3,0.4l0,0c0,0.1,0.1,0.1,0.2,0.2l0,0c0,0,0,0,0,0l0,0c0,0,0,0,0,0l0,0c0,0,0,0,0,0l0,0
		c0,0,0,0,0,0.1c0,0,0.1,0.1,0.1,0.1c0,0,0,0,0.1,0l0,0c0,0,0,0,0,0l0,0c0,0,0,0,0,0l0,0c0,0,0,0,0,0l0,0c0,0.1,0.1,0.1,0.1,0.1l0,0
		c0,0,0,0,0,0l0,0c0,0,0,0,0.1,0l0,0c0,0,0,0,0,0l0,0c0,0,0,0,0.1,0.1l0,0c0,0,0,0,0.1,0l0,0c0,0,0,0,0,0l0,0c0,0,0,0,0.1,0.1l0,0
		c0,0,0,0,0.1,0l0,0c0,0,0.1,0,0.1,0.1l0,0C4.7,13.2,4.8,13.3,4.9,13.3C4.9,13.3,4.9,13.3,4.9,13.3z"/>
	<path class="st2" d="M22,7.7c0,0.1,0,0.1,0,0.2c0,1.9,0,3.9,0,5.8c0,0.1,0,0.1,0,0.2c0,0.1-0.1,0.2-0.2,0.1c0,0,0,0,0,0
		c-0.3-0.2-0.6-0.3-0.9-0.5c0-0.3,0-0.7,0-1c0-0.2,0-0.5-0.1-0.7c-0.1-0.5-0.4-0.9-0.7-1.3c-0.3-0.3-0.7-0.5-1.1-0.5
		c-0.3,0-0.6,0.3-0.7,0.6c0,0.1,0,0.1,0,0.2c0,0.1,0,0.2,0.1,0.3c0.2,0.2,0.6,0.4,0.9,0.2c0.1-0.1,0.2-0.2,0.2-0.4
		c0-0.1,0-0.2,0-0.4c0.1,0.1,0.2,0.1,0.3,0.2c0.6,0.4,0.7,1.2,0.1,1.6c-0.2,0.1-0.4,0.2-0.7,0.2c-0.5,0-0.9-0.1-1.3-0.4
		c-0.2-0.2-0.3-0.4-0.4-0.7c-0.2-0.5-0.2-1,0-1.4c0.1-0.3,0.2-0.5,0.4-0.7c0.4-0.4,0.8-0.5,1.4-0.4c0.5,0.1,0.9,0.4,1.3,0.8
		c0.1,0.1,0.2,0.3,0.3,0.4c0-0.1,0-1.9,0-2.3c-0.1,0-0.1,0-0.2,0c-1.3,0-2.6,0-4,0c0,0-0.1,0-0.1,0c-0.1,0-0.2-0.1-0.2-0.2
		c0-0.1,0-0.3,0-0.4c0-0.1,0.1-0.2,0.2-0.2c0,0,0.1,0,0.1,0c1.8,0,3.7,0,5.5,0c0,0,0,0,0,0c0.2,0,0.3,0.1,0.3,0.3c0,0.1,0,0.2,0,0.4
		c0,0.1-0.1,0.2-0.2,0.2c-0.1,0-0.1,0-0.2,0C22.2,7.7,22.1,7.7,22,7.7z"/>
	<path class="st3" d="M6.3,8.3C6.8,7,7.6,6,8.8,5.4c1.2-0.6,2.5-0.7,3.9-0.3c0-0.5,0-1-0.1-1.4c0.5,0,1,0.1,1.5,0.2
		c0.7,0.2,1.3,0.5,1.8,1c-0.6,0.9-1.2,1.8-1.8,2.7C13,6.5,11.6,6,10,6.2C8.5,6.3,7.2,7.1,6.3,8.3z"/>
	<path class="st3" d="M7.4,1.4c0.4,0.8,0.8,1.5,1.2,2.3C7.4,4.2,6.4,5,5.7,6.2C5,7.4,4.8,8.6,4.9,10C3,7.2,3.9,2.9,7.4,1.4z"/>
	<path class="st2" d="M12.2,1.6c0,1,0.1,2,0.1,3.1c-1.3-0.2-2.6,0-3.8,0.6C7.3,5.8,6.3,6.7,5.7,7.9c0.1-1,0.5-1.8,1.1-2.5
		c0.6-0.7,1.4-1.3,2.3-1.6C8.9,3.3,8.7,2.9,8.4,2.5C9.6,1.7,10.8,1.4,12.2,1.6z"/>
	<path class="st4" d="M3.8,4.3C3.8,4.2,3.8,4.2,3.8,4.3C4,4.1,4.1,3.9,4.3,3.8c0,0,0.1,0,0.1,0c0,0,0,0,0,0c0,0-0.1,0.1-0.1,0.1l0,0
		C4.2,4,4.1,4.1,4,4.1l0,0c0,0,0,0,0,0c0,0,0,0,0,0c0,0,0,0,0,0c0,0,0,0,0,0C3.9,4.2,3.9,4.2,3.8,4.3C3.9,4.2,3.9,4.2,3.8,4.3
		C3.9,4.2,3.9,4.3,3.8,4.3L3.8,4.3C3.9,4.3,3.8,4.3,3.8,4.3z"/>
	<path class="st5" d="M4.2,4c0,0,0.1-0.1,0.1-0.1c0,0,0,0.1,0,0.1C4.3,3.9,4.3,3.9,4.2,4L4.2,4C4.3,4,4.3,4,4.2,4z"/>
	<path class="st2" d="M4.9,3.1C4.9,3.1,4.9,3.1,4.9,3.1C4.9,3.1,4.9,3.1,4.9,3.1C4.9,3.1,4.9,3.1,4.9,3.1z"/>
	<path class="st1" d="M4.3,4C4.3,3.9,4.3,3.9,4.3,4C4.3,3.9,4.3,3.9,4.3,4z"/>
	<path class="st6" d="M3.9,12.5C3.9,12.5,3.9,12.5,3.9,12.5c-0.1-0.1-0.1-0.1-0.1-0.2c0,0,0,0,0,0c0,0,0,0,0,0c0,0,0,0,0,0
		c0,0,0,0,0,0l0,0c0,0,0,0,0,0l0,0c0-0.1-0.1-0.1-0.2-0.2l0,0c0,0,0-0.1,0-0.1c-0.4-0.4-0.6-0.9-0.8-1.4C2.4,10,2.3,9.4,2.2,8.7
		c0-0.2,0-0.5,0-0.7c0,0,0,0,0,0c0,0.9,0.1,1.8,0.5,2.6c0.2,0.5,0.5,1,0.9,1.5c0.3,0.4,0.6,0.7,1,0.9c0,0,0,0.1,0.1,0.1c0,0,0,0,0,0
		c0,0,0,0-0.1,0l0,0c0,0,0,0-0.1,0l0,0c0,0,0,0-0.1-0.1l0,0c0,0,0,0,0,0l0,0c0,0,0,0-0.1,0l0,0c0,0,0,0-0.1-0.1l0,0c0,0,0,0,0,0
		c0,0,0,0,0,0c0,0,0,0-0.1,0l0,0c0,0,0,0,0,0l0,0c0-0.1,0-0.1-0.1-0.1l0,0c0,0,0,0,0,0c0,0,0,0,0,0C4,12.6,4,12.6,3.9,12.5L3.9,12.5
		C4,12.6,4,12.6,3.9,12.5C4,12.6,4,12.6,3.9,12.5C4,12.6,3.9,12.6,3.9,12.5z"/>
	<path class="st7" d="M2.2,8c0,0.2,0,0.5,0,0.7c0,0.7,0.2,1.3,0.4,1.9c0.2,0.5,0.5,1,0.8,1.4c0,0,0,0.1,0,0.1
		c-0.1-0.1-0.2-0.2-0.3-0.4c-0.5-0.6-0.8-1.4-1-2.1C2.2,9.3,2.1,8.9,2.1,8.5c0-0.3,0-0.6,0-0.9c0-0.2,0-0.4,0.1-0.6c0,0,0,0,0,0
		c0,0,0,0.1,0,0.1c0,0.1,0,0.2-0.1,0.3c0,0.1,0,0.1,0,0.2c0,0,0,0.1,0,0.1C2.2,7.7,2.2,7.8,2.2,8z"/>
	<path class="st8" d="M2.4,6.7c0.1-0.2,0.1-0.4,0.2-0.5c0.1-0.2,0.2-0.5,0.3-0.7c0,0,0.1,0,0.1-0.1c0,0,0,0.1-0.1,0.1
		c0,0.1-0.1,0.2-0.1,0.3c0,0,0,0.1-0.1,0.1c0,0,0,0,0,0c0,0.1-0.1,0.1-0.1,0.2c0,0,0,0,0,0c0,0.1-0.1,0.2-0.1,0.3
		C2.5,6.5,2.4,6.6,2.4,6.7C2.4,6.7,2.4,6.7,2.4,6.7z"/>
	<path class="st9" d="M2.8,5.8c0-0.1,0.1-0.2,0.1-0.3c0,0,0-0.1,0.1-0.1c0,0,0,0,0,0c0,0,0.1-0.1,0.1-0.1l0,0c0,0,0-0.1,0.1-0.1l0,0
		c0,0,0-0.1,0.1-0.1l0,0c0,0,0-0.1,0.1-0.1l0,0c0,0,0-0.1,0.1-0.1c0,0,0,0,0,0c0,0,0,0,0,0c0,0,0,0,0,0c0,0,0,0,0.1,0c0,0,0,0,0,0
		C3.3,5,3.2,5.1,3.1,5.3C3,5.4,2.9,5.6,2.8,5.8C2.8,5.8,2.8,5.8,2.8,5.8C2.8,5.8,2.8,5.8,2.8,5.8z"/>
	<path class="st10" d="M3.8,4.3C3.8,4.3,3.9,4.3,3.8,4.3c0,0.1-0.1,0.2-0.2,0.3c0-0.1,0-0.1,0-0.1c0,0,0,0,0,0c0,0,0,0,0,0l0,0
		c0,0,0,0,0,0l0,0C3.7,4.4,3.7,4.4,3.8,4.3L3.8,4.3C3.7,4.3,3.8,4.3,3.8,4.3L3.8,4.3C3.8,4.3,3.8,4.3,3.8,4.3
		C3.8,4.3,3.8,4.3,3.8,4.3C3.8,4.3,3.8,4.3,3.8,4.3L3.8,4.3z"/>
	<path class="st7" d="M4.9,13.3C4.9,13.3,4.9,13.3,4.9,13.3c-0.1,0-0.2-0.1-0.3-0.2c0,0,0,0,0.1,0l0,0c0,0,0.1,0,0.1,0.1l0,0
		C4.8,13.2,4.9,13.2,4.9,13.3C4.9,13.2,4.9,13.3,4.9,13.3z"/>
	<path class="st11" d="M2.4,6.7c0-0.1,0.1-0.2,0.1-0.3c0,0,0,0,0,0C2.5,6.6,2.5,6.7,2.4,6.7C2.4,6.7,2.4,6.7,2.4,6.7z"/>
	<path class="st5" d="M4,4.1C4.1,4.1,4.2,4,4.2,3.9C4.2,4.1,4.1,4.1,4,4.1z"/>
	<path class="st12" d="M2.2,8c0-0.1,0-0.2,0.1-0.3C2.3,7.7,2.2,7.8,2.2,8C2.2,8,2.2,8,2.2,8z"/>
	<path class="st13" d="M2.3,7.4c0-0.1,0-0.2,0.1-0.3c0,0,0,0,0,0C2.4,7.2,2.3,7.3,2.3,7.4c0,0.1,0,0.1,0,0.1
		C2.3,7.4,2.3,7.4,2.3,7.4z"/>
	<path class="st14" d="M2.5,6.5C2.5,6.5,2.5,6.5,2.5,6.5c0-0.1,0-0.2,0.1-0.3C2.6,6.3,2.6,6.4,2.5,6.5z"/>
	<path class="st15" d="M2.6,6.2C2.7,6.1,2.7,6,2.7,6C2.7,6,2.7,6.1,2.6,6.2z"/>
	<path class="st9" d="M3.6,4.6c0,0.1-0.1,0.1-0.1,0.2c0,0,0,0,0,0c0,0,0,0,0-0.1l0,0C3.5,4.7,3.5,4.6,3.6,4.6L3.6,4.6
		C3.5,4.6,3.5,4.6,3.6,4.6L3.6,4.6C3.5,4.6,3.5,4.6,3.6,4.6C3.5,4.6,3.5,4.6,3.6,4.6C3.5,4.6,3.6,4.6,3.6,4.6z"/>
	<path class="st16" d="M5.1,13.4C5.1,13.4,5.1,13.4,5.1,13.4C5.1,13.4,5.1,13.4,5.1,13.4L5.1,13.4C5.1,13.4,5.1,13.4,5.1,13.4
		L5.1,13.4C5.2,13.4,5.1,13.4,5.1,13.4z"/>
	<path class="st17" d="M2.4,7.1C2.4,7.1,2.4,7.1,2.4,7.1c0-0.1,0-0.1,0-0.1c0,0,0-0.1,0-0.1c0,0,0,0,0,0c0,0,0,0,0,0
		C2.4,7,2.4,7,2.4,7.1z"/>
	<path class="st9" d="M3.5,4.7c0,0-0.1,0.1-0.1,0.1c0,0,0,0,0,0C3.4,4.8,3.4,4.8,3.5,4.7C3.4,4.8,3.4,4.8,3.5,4.7
		C3.4,4.8,3.4,4.8,3.5,4.7C3.4,4.7,3.4,4.7,3.5,4.7C3.4,4.7,3.4,4.7,3.5,4.7C3.5,4.7,3.5,4.7,3.5,4.7z"/>
	<path class="st15" d="M2.8,5.8C2.8,5.8,2.8,5.8,2.8,5.8c0,0.1,0,0.1-0.1,0.1C2.7,5.9,2.8,5.9,2.8,5.8z"/>
	<path class="st18" d="M2.3,7.4c0,0,0,0.1,0,0.1c0,0,0,0,0,0.1C2.3,7.5,2.3,7.4,2.3,7.4z"/>
	<path class="st6" d="M4.7,13.1C4.7,13.1,4.7,13.1,4.7,13.1L4.7,13.1C4.6,13.1,4.6,13.1,4.7,13.1C4.6,13.1,4.6,13,4.7,13.1
		C4.7,13.1,4.7,13.1,4.7,13.1z"/>
	<path class="st6" d="M4.8,13.2C4.8,13.1,4.7,13.1,4.8,13.2C4.7,13.1,4.8,13.1,4.8,13.2z"/>
	<path class="st6" d="M4.9,13.2C4.9,13.2,4.8,13.2,4.9,13.2C4.8,13.2,4.9,13.2,4.9,13.2z"/>
	<path class="st8" d="M3.6,4.6C3.6,4.6,3.5,4.6,3.6,4.6C3.5,4.6,3.6,4.5,3.6,4.6C3.6,4.5,3.6,4.5,3.6,4.6C3.6,4.6,3.6,4.6,3.6,4.6
		L3.6,4.6z"/>
	<path class="st16" d="M5.2,13.4C5.2,13.4,5.2,13.4,5.2,13.4L5.2,13.4C5.2,13.5,5.2,13.5,5.2,13.4C5.2,13.5,5.2,13.5,5.2,13.4
		C5.2,13.4,5.2,13.4,5.2,13.4L5.2,13.4z"/>
	<path class="st16" d="M5.2,13.5C5.3,13.5,5.3,13.5,5.2,13.5C5.3,13.5,5.3,13.5,5.2,13.5L5.2,13.5C5.2,13.5,5.2,13.5,5.2,13.5
		L5.2,13.5z"/>
	<path class="st5" d="M4,4.1C4,4.1,4,4.1,4,4.1C4,4.1,4,4.1,4,4.1z"/>
	<path class="st10" d="M3.9,4.2C3.9,4.2,3.9,4.2,3.9,4.2C3.9,4.2,3.9,4.2,3.9,4.2z"/>
	<path class="st10" d="M3.9,4.3C3.9,4.3,3.9,4.2,3.9,4.3C3.9,4.2,3.9,4.3,3.9,4.3z"/>
	<path class="st16" d="M5,13.3C5,13.3,5,13.3,5,13.3C5,13.3,5,13.3,5,13.3C5.1,13.3,5,13.3,5,13.3C5,13.3,5,13.3,5,13.3z"/>
	<path class="st9" d="M3.6,4.6C3.6,4.6,3.6,4.6,3.6,4.6C3.6,4.6,3.6,4.6,3.6,4.6C3.6,4.6,3.6,4.6,3.6,4.6z"/>
	<path class="st5" d="M4,4.2C4,4.2,4,4.2,4,4.2C4,4.2,4,4.2,4,4.2z"/>
	<path class="st7" d="M3.5,12.1c0.1,0,0.1,0.1,0.2,0.2C3.6,12.3,3.6,12.2,3.5,12.1z"/>
	<path class="st7" d="M4.1,12.7c0.1,0,0.1,0,0.1,0.1C4.1,12.8,4.1,12.7,4.1,12.7z"/>
	<path class="st8" d="M3.1,5.2C3,5.3,3,5.3,3,5.4C3,5.3,3,5.2,3.1,5.2z"/>
	<path class="st8" d="M3.4,4.8C3.4,4.8,3.4,4.8,3.4,4.8C3.3,4.8,3.3,4.8,3.4,4.8C3.3,4.8,3.3,4.8,3.4,4.8z"/>
	<path class="st8" d="M3.2,5C3.2,5,3.2,5,3.2,5C3.2,5,3.2,5,3.2,5z"/>
	<path class="st8" d="M3.2,5.1C3.2,5.1,3.1,5.1,3.2,5.1C3.1,5.1,3.1,5.1,3.2,5.1z"/>
	<path class="st8" d="M3.1,5.1C3.1,5.2,3.1,5.2,3.1,5.1C3.1,5.2,3.1,5.1,3.1,5.1z"/>
	<path class="st8" d="M3.3,4.9C3.3,4.9,3.2,4.9,3.3,4.9C3.2,4.9,3.2,4.9,3.3,4.9z"/>
	<path class="st8" d="M3.5,4.7C3.4,4.7,3.4,4.7,3.5,4.7C3.4,4.7,3.4,4.7,3.5,4.7C3.5,4.7,3.5,4.7,3.5,4.7z"/>
	<path class="st7" d="M4.3,12.9C4.3,12.9,4.3,12.9,4.3,12.9C4.3,12.9,4.3,12.9,4.3,12.9z"/>
	<path class="st7" d="M4.5,13C4.5,13,4.5,13,4.5,13C4.5,13,4.5,13,4.5,13z"/>
	<path class="st7" d="M4.6,13.1C4.6,13.1,4.6,13.1,4.6,13.1C4.6,13.1,4.6,13.1,4.6,13.1C4.6,13.1,4.6,13.1,4.6,13.1z"/>
	<path class="st1" d="M5,13.3C5,13.3,5,13.3,5,13.3C5.1,13.4,5.1,13.4,5,13.3C5.1,13.4,5,13.4,5,13.3z"/>
	<path class="st1" d="M2.3,6.9C2.3,6.9,2.3,7,2.3,6.9C2.3,7,2.3,7,2.3,6.9C2.3,7,2.3,6.9,2.3,6.9z"/>
	<path class="st7" d="M3.9,12.5C3.9,12.6,4,12.6,3.9,12.5C4,12.6,3.9,12.6,3.9,12.5z"/>
	<path class="st7" d="M3.8,12.4C3.8,12.4,3.8,12.4,3.8,12.4C3.8,12.4,3.8,12.4,3.8,12.4z"/>
	<path class="st7" d="M4.2,12.8C4.2,12.8,4.3,12.8,4.2,12.8C4.3,12.8,4.2,12.8,4.2,12.8z"/>
	<path class="st7" d="M4.4,12.9C4.4,12.9,4.4,12.9,4.4,12.9C4.4,12.9,4.4,12.9,4.4,12.9z"/>
	<path class="st7" d="M4.5,13C4.5,13,4.5,13,4.5,13C4.5,13,4.5,13,4.5,13z"/>
	<path class="st1" d="M5.2,13.4C5.2,13.4,5.2,13.4,5.2,13.4C5.2,13.4,5.1,13.4,5.2,13.4C5.1,13.4,5.2,13.4,5.2,13.4z"/>
	<path class="st1" d="M5.2,13.5C5.2,13.5,5.2,13.5,5.2,13.5C5.2,13.5,5.2,13.5,5.2,13.5C5.2,13.5,5.2,13.5,5.2,13.5z"/>
	<path class="st7" d="M3.7,12.3C3.7,12.3,3.7,12.3,3.7,12.3C3.7,12.3,3.7,12.3,3.7,12.3z"/>
	<path class="st7" d="M3.7,12.3C3.7,12.3,3.8,12.3,3.7,12.3C3.8,12.3,3.7,12.3,3.7,12.3z"/>
	<path class="st7" d="M3.8,12.3C3.8,12.4,3.8,12.4,3.8,12.3C3.8,12.4,3.8,12.4,3.8,12.3z"/>
	<path class="st7" d="M4,12.6C4,12.6,4,12.6,4,12.6C4,12.6,4,12.6,4,12.6z"/>
	<path class="st4" d="M3.7,4.4C3.7,4.4,3.7,4.4,3.7,4.4C3.7,4.4,3.7,4.4,3.7,4.4z"/>
	<path class="st4" d="M3.8,4.3C3.8,4.3,3.8,4.3,3.8,4.3C3.8,4.3,3.8,4.3,3.8,4.3z"/>
	<path class="st7" d="M4.1,12.6C4.1,12.6,4.1,12.6,4.1,12.6C4.1,12.6,4.1,12.6,4.1,12.6z"/>
	<path class="st4" d="M3.7,4.3C3.7,4.4,3.7,4.4,3.7,4.3C3.7,4.4,3.7,4.4,3.7,4.3z"/>
	<path class="st7" d="M4.2,12.8C4.2,12.8,4.2,12.8,4.2,12.8C4.2,12.8,4.2,12.8,4.2,12.8z"/>
	<path class="st7" d="M4.3,12.8C4.3,12.8,4.3,12.8,4.3,12.8C4.3,12.8,4.3,12.8,4.3,12.8z"/>
	<path class="st7" d="M4.4,12.9C4.4,13,4.4,13,4.4,12.9C4.4,13,4.4,13,4.4,12.9z"/>
	<path class="st8" d="M3.4,4.7C3.4,4.8,3.4,4.8,3.4,4.7C3.4,4.8,3.4,4.8,3.4,4.7z"/>
	<path class="st8" d="M3.5,4.6C3.5,4.6,3.5,4.7,3.5,4.6C3.5,4.7,3.5,4.6,3.5,4.6z"/>
	<path class="st4" d="M3.8,4.3C3.8,4.3,3.7,4.3,3.8,4.3C3.7,4.3,3.8,4.3,3.8,4.3z"/>
	<path class="st8" d="M3.5,4.6C3.5,4.6,3.5,4.6,3.5,4.6C3.5,4.6,3.5,4.6,3.5,4.6z"/>
	<path class="st8" d="M3.5,4.6C3.5,4.6,3.5,4.6,3.5,4.6C3.5,4.6,3.5,4.6,3.5,4.6z"/>
	<path class="st7" d="M4,12.6C4,12.6,4,12.6,4,12.6C4,12.6,4,12.6,4,12.6z"/>
	<path class="st4" d="M3.8,4.3C3.8,4.3,3.8,4.3,3.8,4.3C3.8,4.3,3.8,4.3,3.8,4.3z"/>
	<path class="st8" d="M3.3,4.9C3.3,4.9,3.3,4.9,3.3,4.9C3.3,4.9,3.3,4.9,3.3,4.9z"/>
	<path class="st4" d="M3.7,4.4C3.7,4.4,3.7,4.4,3.7,4.4C3.7,4.4,3.7,4.4,3.7,4.4z"/>
</g>
</svg>
