<?xml version="1.0" encoding="utf-8"?>
<!-- Generator: Adobe Illustrator 16.0.0, SVG Export Plug-In . SVG Version: 6.00 Build 0)  -->
<!DOCTYPE svg PUBLIC "-//W3C//DTD SVG 1.1//EN" "http://www.w3.org/Graphics/SVG/1.1/DTD/svg11.dtd">
<svg version="1.1" id="Layer_1" xmlns="http://www.w3.org/2000/svg" xmlns:xlink="http://www.w3.org/1999/xlink" x="0px" y="0px"
	 width="10.004px" height="16.938px" viewBox="0 0 10.004 16.938" enable-background="new 0 0 10.004 16.938" xml:space="preserve">
<path fill="#5F6F82" d="M9.168,16.667l0.559-0.555c0.174-0.174,0.27-0.406,0.27-0.655c0-0.248-0.096-0.48-0.27-0.655l-6.33-6.329
	l6.336-6.336c0.175-0.174,0.271-0.407,0.271-0.655S9.908,1.001,9.733,0.827L9.178,0.271c-0.361-0.361-0.948-0.361-1.31,0
	L0.297,7.815C0.123,7.99,0,8.222,0,8.473v0.003c0,0.248,0.123,0.48,0.297,0.654l7.551,7.537c0.174,0.175,0.413,0.271,0.661,0.271
	C8.758,16.938,8.994,16.841,9.168,16.667"/>
<path fill="#5F6F82" d="M197.408-36.457l-0.559,0.555c-0.175,0.174-0.271,0.406-0.271,0.655c0,0.248,0.096,0.48,0.271,0.655
	l6.33,6.329l-6.337,6.336c-0.175,0.174-0.271,0.407-0.271,0.655s0.096,0.481,0.271,0.655l0.555,0.557c0.361,0.36,0.948,0.36,1.311,0
	l7.571-7.544c0.174-0.175,0.297-0.407,0.297-0.658v-0.003c0-0.248-0.123-0.48-0.297-0.654l-7.551-7.537
	c-0.174-0.175-0.414-0.271-0.662-0.271S197.582-36.631,197.408-36.457"/>
</svg>
