<?xml version="1.0" encoding="utf-8"?>
<!-- Generator: Adobe Illustrator 16.0.0, SVG Export Plug-In . SVG Version: 6.00 Build 0)  -->
<!DOCTYPE svg PUBLIC "-//W3C//DTD SVG 1.1//EN" "http://www.w3.org/Graphics/SVG/1.1/DTD/svg11.dtd">
<svg version="1.1" id="Layer_1" xmlns="http://www.w3.org/2000/svg" xmlns:xlink="http://www.w3.org/1999/xlink" x="0px" y="0px"
	 width="10.004px" height="16.938px" viewBox="0 0 10.004 16.938" enable-background="new 0 0 10.004 16.938" xml:space="preserve">
<path fill="#5F6F82" d="M-187.404,53.394l0.559-0.555c0.174-0.174,0.27-0.406,0.27-0.655c0-0.248-0.096-0.48-0.27-0.655l-6.33-6.329
	l6.336-6.336c0.175-0.174,0.271-0.407,0.271-0.655s-0.096-0.481-0.271-0.655l-0.555-0.556c-0.361-0.361-0.948-0.361-1.31,0
	l-7.571,7.544c-0.174,0.175-0.297,0.407-0.297,0.658v0.003c0,0.248,0.123,0.48,0.297,0.654l7.551,7.537
	c0.174,0.175,0.413,0.271,0.661,0.271C-187.814,53.666-187.578,53.569-187.404,53.394"/>
<path fill="#5F6F82" d="M0.836,0.271L0.277,0.826C0.103,1,0.007,1.232,0.007,1.481c0,0.248,0.096,0.48,0.271,0.655l6.33,6.329
	l-6.337,6.336C0.096,14.975,0,15.208,0,15.456s0.096,0.481,0.271,0.655l0.555,0.557c0.361,0.36,0.948,0.36,1.311,0l7.571-7.544
	c0.174-0.175,0.297-0.407,0.297-0.658V8.462c0-0.248-0.123-0.48-0.297-0.654L2.156,0.271C1.982,0.096,1.742,0,1.494,0
	S1.01,0.096,0.836,0.271"/>
</svg>
