<?xml version="1.0" encoding="utf-8"?>
<!-- Generator: Adobe Illustrator 23.0.5, SVG Export Plug-In . SVG Version: 6.00 Build 0)  -->
<svg version="1.1" id="Layer_1" xmlns="http://www.w3.org/2000/svg" xmlns:xlink="http://www.w3.org/1999/xlink" x="0px" y="0px"
	 viewBox="0 0 41 16" style="enable-background:new 0 0 41 16;" xml:space="preserve">
<style type="text/css">
	.st0{fill:#FF4800;}
	.st1{fill:#333333;}
</style>
<path class="st0" d="M11.3,1.6c0,1.2,1,5.6,1,5.6c0.4,0.9,0.7,0,0.7,0c1.2-3.6-1.2-5.8-1.2-5.8C11.2,1.1,11.3,1.6,11.3,1.6 M25.4,1
	c0,0,1.2,0.8,0,1c0,0-4.4,0.5-7.7,3.7c0,0-4.9,4.4-6.8,9.3c0,0-0.6,0-0.4-1c0.2-1,1.4-5.1,6.9-10.2C17.4,3.8,22.7-1.2,25.4,1"/>
<path class="st1" d="M2.8,8c0.2,0,0.4,0.1,0.6,0.1c1,0,1.7-0.7,1.7-1.5c0-0.8-0.5-1-1.2-1c-0.3,0-0.5,0-0.7,0.1L2.8,8z M2.3,4.7
	c0.4-0.1,1.1-0.2,1.7-0.2c0.7,0,1.3,0.1,1.8,0.5c0.4,0.3,0.6,0.8,0.6,1.4C6.4,7.3,6,8,5.5,8.4C4.9,8.9,4.1,9.1,3.3,9.1
	c-0.2,0-0.5,0-0.7-0.1l-0.5,2.7H1L2.3,4.7z M9.6,7.5c-0.1,0-0.3-0.1-0.5-0.1c-1.1,0-2,1.3-2,2.5c0,0.5,0.2,1,0.7,1
	c0.6,0,1.3-0.7,1.5-2L9.6,7.5z M9.1,11.7c0-0.3,0-0.7,0.1-1.2h0c-0.5,0.9-1.2,1.3-1.8,1.3c-0.9,0-1.5-0.7-1.5-1.8
	c0-1.8,1.2-3.6,3.5-3.6c0.5,0,1,0.1,1.5,0.2l-0.5,2.7c-0.1,0.8-0.2,1.7-0.2,2.3L9.1,11.7z M17.7,9.7c0,0.7,0.4,1.2,1,1.2
	c0.9,0,1.5-1.3,1.5-2.3c0-0.5-0.2-1.2-1-1.2C18.3,7.4,17.7,8.7,17.7,9.7 M21.5,8.6c0,1.8-1.2,3.3-2.9,3.3c-1.3,0-2-0.9-2-2.1
	c0-1.7,1.2-3.3,2.9-3.3C20.8,6.5,21.5,7.5,21.5,8.6 M21.7,11.7l0.7-3.6l0.3-1.6h1.1l-0.1,0.9h0c0.5-0.7,1.1-1,1.8-1
	c0.7,0,1.3,0.4,1.3,1.4c0,0.3,0,0.6-0.1,0.8l-0.6,3h-1.2l0.5-2.9c0-0.2,0.1-0.4,0.1-0.6c0-0.4-0.2-0.7-0.6-0.7
	c-0.5,0-1.2,0.7-1.5,1.9l-0.4,2.4L21.7,11.7z M29.8,7.4c-0.8,0-1.2,0.7-1.4,1.3c1.2,0,2-0.2,2-0.8C30.5,7.6,30.2,7.4,29.8,7.4
	 M31,11.5c-0.5,0.3-1.2,0.4-1.8,0.4c-1.4,0-2.1-0.9-2.1-2.1c0-1.6,1.1-3.3,2.8-3.3c1,0,1.6,0.6,1.6,1.5c0,1.3-1.4,1.7-3.3,1.7
	c0,0.2,0,0.5,0.1,0.7c0.2,0.3,0.6,0.5,1,0.5c0.5,0,1-0.1,1.4-0.3L31,11.5z M34.5,7.4c-0.7,0-1.2,0.7-1.4,1.3c1.2,0,2-0.2,2-0.8
	C35.2,7.6,34.9,7.4,34.5,7.4 M35.7,11.5c-0.5,0.3-1.2,0.4-1.8,0.4c-1.4,0-2.1-0.9-2.1-2.1c0-1.6,1.1-3.3,2.8-3.3
	c1,0,1.6,0.6,1.6,1.5c0,1.3-1.4,1.7-3.3,1.7c0,0.2,0,0.5,0.1,0.7c0.2,0.3,0.6,0.5,1,0.5c0.6,0,1-0.1,1.4-0.3L35.7,11.5z M36.4,11.7
	L37,8.6c0.1-0.7,0.2-1.5,0.3-2h1l-0.1,1.1h0c0.3-0.7,0.9-1.2,1.6-1.2c0.1,0,0.2,0,0.3,0l-0.2,1.2c-0.1,0-0.1,0-0.2,0
	c-0.9,0-1.4,0.9-1.6,2l-0.4,2.1L36.4,11.7z"/>
</svg>
