<?xml version="1.0" encoding="utf-8"?>
<!-- Generator: Adobe Illustrator 23.0.5, SVG Export Plug-In . SVG Version: 6.00 Build 0)  -->
<svg version="1.1" id="Layer_1" xmlns="http://www.w3.org/2000/svg" xmlns:xlink="http://www.w3.org/1999/xlink" x="0px" y="0px"
	 viewBox="0 0 56 16" style="enable-background:new 0 0 56 16;" xml:space="preserve">
<style type="text/css">
	.st0{fill:#139AD6;}
	.st1{fill:#263B80;}
	.st2{fill:#232C65;}
</style>
<g>
	<path class="st0" d="M42.7,4.7h-2.9c-0.2,0-0.3,0.2-0.4,0.3l-1.2,7.5c0,0.2,0.1,0.3,0.3,0.3H40c0.2,0,0.3-0.1,0.3-0.3l0.3-2.1
		c0-0.2,0.2-0.3,0.4-0.3H42c2,0,3.1-0.9,3.3-2.8c0.2-0.8,0-1.5-0.3-1.9C44.5,5,43.7,4.7,42.7,4.7 M43.1,7.5c-0.2,1-0.9,1-1.7,1h-0.5
		l0.3-2c0-0.1,0.1-0.2,0.3-0.2h0.2c0.5,0,1,0,1.3,0.3C43.1,6.8,43.1,7.1,43.1,7.5"/>
	<g>
		<path class="st1" d="M21.7,4.7h-2.9c-0.2,0-0.3,0.2-0.4,0.3l-1.2,7.5c0,0.2,0.1,0.3,0.3,0.3h1.4c0.2,0,0.3-0.2,0.4-0.3l0.3-2.1
			c0-0.2,0.2-0.3,0.4-0.3H21c2,0,3.1-0.9,3.3-2.8c0.2-0.8,0-1.5-0.3-1.9C23.5,5,22.8,4.7,21.7,4.7 M22.1,7.5c-0.2,1-0.9,1-1.7,1
			h-0.4l0.3-2c0-0.1,0.1-0.2,0.3-0.2h0.2c0.5,0,1,0,1.3,0.3C22.1,6.8,22.2,7.1,22.1,7.5"/>
		<path class="st1" d="M30.6,7.4h-1.4c-0.1,0-0.3,0.1-0.3,0.2L28.9,8l-0.1-0.2c-0.3-0.4-0.9-0.6-1.6-0.6c-1.5,0-2.9,1.2-3.2,2.8
			c-0.2,0.9,0.1,1.6,0.5,2.1c0.4,0.5,1,0.7,1.8,0.7c1.3,0,2-0.8,2-0.8l-0.1,0.4c0,0.2,0.1,0.3,0.3,0.3h1.3c0.2,0,0.3-0.2,0.4-0.3
			l0.8-4.8C30.8,7.6,30.7,7.4,30.6,7.4 M28.6,10.2c-0.2,0.8-0.8,1.4-1.6,1.4c-0.4,0-0.8-0.2-0.9-0.3c-0.2-0.3-0.3-0.6-0.3-1
			c0.1-0.8,0.8-1.4,1.5-1.4c0.4,0,0.7,0.2,0.9,0.3C28.5,9.4,28.6,9.8,28.6,10.2"/>
	</g>
	<path class="st0" d="M51.5,7.4h-1.4c-0.1,0-0.3,0.1-0.3,0.2L49.8,8l-0.1-0.2c-0.3-0.4-0.9-0.6-1.6-0.6c-1.5,0-2.9,1.2-3.2,2.8
		c-0.2,0.9,0.1,1.6,0.5,2.1c0.4,0.5,1,0.7,1.8,0.7c1.3,0,2-0.8,2-0.8l-0.1,0.4c0,0.2,0.1,0.3,0.3,0.3h1.3c0.2,0,0.3-0.2,0.4-0.3
		l0.8-4.8C51.7,7.6,51.7,7.4,51.5,7.4 M49.5,10.2c-0.2,0.8-0.8,1.4-1.6,1.4c-0.4,0-0.8-0.2-0.9-0.3c-0.2-0.3-0.3-0.6-0.3-1
		c0.1-0.8,0.8-1.4,1.5-1.4c0.4,0,0.7,0.2,0.9,0.3C49.5,9.4,49.6,9.8,49.5,10.2"/>
	<path class="st1" d="M38,7.4h-1.5c-0.2,0-0.3,0.1-0.3,0.2l-1.9,2.9l-0.9-2.7c-0.1-0.2-0.2-0.3-0.4-0.3h-1.4c-0.2,0-0.3,0.2-0.3,0.3
		l1.5,4.5l-1.5,2.1c-0.1,0.2,0,0.4,0.2,0.4h1.4c0.2,0,0.3-0.1,0.3-0.2L38.1,8C38.4,7.7,38.2,7.4,38,7.4"/>
	<path class="st0" d="M53.1,5l-1.2,7.7c0,0.2,0.1,0.3,0.3,0.3h1.2c0.2,0,0.3-0.2,0.4-0.3L55,5c0-0.2-0.1-0.3-0.3-0.3h-1.4
		C53.3,4.7,53.2,4.8,53.1,5"/>
	<path class="st1" d="M10.9,2.1c-0.6-0.7-1.7-1-3.3-1H3.3c-0.3,0-0.5,0.3-0.6,0.5L1,12.8c0,0.3,0.2,0.4,0.3,0.4H4l0.7-4.2v0.2
		C4.8,9,5,8.7,5.3,8.7h1.3c2.5,0,4.4-1,5-3.9c0-0.1,0-0.2,0-0.3c-0.1,0-0.1,0,0,0C11.6,3.5,11.5,2.8,10.9,2.1"/>
	<path class="st0" d="M11.5,4.6L11.5,4.6c0,0.1,0,0.2,0,0.3c-0.6,2.9-2.5,3.9-5,3.9H5.2C4.9,8.7,4.7,9,4.6,9.2l-0.9,5.2
		c0,0.2,0.1,0.3,0.3,0.3h2.2c0.3,0,0.5-0.2,0.5-0.4v-0.1l0.4-2.7v-0.2c0-0.3,0.3-0.4,0.5-0.4h0.3c2.1,0,3.9-0.9,4.3-3.4
		c0.2-1,0.1-2-0.4-2.6C11.9,4.9,11.7,4.7,11.5,4.6"/>
	<path class="st2" d="M10.9,4.4c-0.1,0-0.2-0.1-0.3-0.1c-0.1,0-0.2,0-0.3-0.1C10,4.1,9.7,4.1,9.2,4.1H5.9c-0.1,0-0.2,0-0.3,0.1
		C5.5,4.3,5.4,4.4,5.4,4.6L4.7,9.1v0.2C4.8,9,5,8.7,5.3,8.7h1.3c2.5,0,4.4-1,5-3.9c0-0.1,0-0.2,0.1-0.3c-0.2-0.1-0.3-0.2-0.4-0.2
		C10.9,4.4,10.9,4.4,10.9,4.4"/>
</g>
</svg>
