<?xml version="1.0" encoding="utf-8"?>
<!-- Generator: Adobe Illustrator 23.0.5, SVG Export Plug-In . SVG Version: 6.00 Build 0)  -->
<svg version="1.1" id="Layer_1" xmlns="http://www.w3.org/2000/svg" xmlns:xlink="http://www.w3.org/1999/xlink" x="0px" y="0px"
	 viewBox="0 0 46 16" style="enable-background:new 0 0 46 16;" xml:space="preserve">
<style type="text/css">
	.st0{fill:#02B9EF;}
	.st1{fill:#06306F;}
</style>
<g>
	<path class="st0" d="M35.5,3.5c0.2-0.1,0.3-0.2,0.4-0.3c1.3-1.1,2.9-1,4,0.3c0.1,0.1,0.2,0.1,0.3,0c0.1-0.1,0.2-0.1,0.2-0.2
		c0.8-0.8,2-1.1,3-0.6C44.4,3.2,45,4.1,45,5.3c0,2.6,0,5.2,0,7.8c0,0.9-0.6,1.5-1.5,1.5c-0.4,0-0.7,0-1.1,0c-0.4,0-0.5-0.1-0.5-0.5
		c0-2.5,0-5.1,0-7.6c0-0.1,0-0.2,0-0.3c0-0.6-0.2-0.8-0.8-0.9c-0.5,0-0.9,0.3-0.9,0.8c0,0.1,0,0.2,0,0.4c0,2.2,0,4.4,0,6.6
		c0,1-0.6,1.5-1.5,1.5c-0.5,0-1.2,0.2-1.4-0.1c-0.2-0.3-0.1-0.9-0.1-1.4c0-2.2,0-4.5,0-6.8c0-0.8-0.5-1.2-1.2-0.9
		c-0.4,0.2-0.6,0.5-0.6,0.9c0,2.1,0,4.2,0,6.3c0,0.2,0,0.3,0,0.5c0,0.9-0.6,1.4-1.5,1.4c-0.4,0-0.7,0-1.1,0c-0.4,0-0.5-0.1-0.5-0.5
		c0-3.6,0-7.1,0-10.7c0-0.2,0-0.3,0-0.5c0-0.2,0.1-0.3,0.3-0.3c0.8,0,1.7,0,2.5,0c0.2,0,0.3,0.1,0.3,0.3C35.4,3.2,35.5,3.3,35.5,3.5
		z"/>
	<path class="st1" d="M16.2,8.5c0,1.2,0,2.5,0,3.7c0,1.6-0.9,2.4-2.5,2.5c-0.7,0-1.4,0-2.1,0c-1.4,0-2.5-1-2.6-2.4
		c-0.1-1-0.1-2.1,0-3.1c0.1-1.5,1.2-2.5,2.7-2.5c0.4,0,0.8,0,1.2,0c0.4,0,0.5-0.2,0.5-0.6c0-0.4-0.2-0.5-0.5-0.5c-0.4,0-0.8,0-1.2,0
		c-1,0-1.6-0.6-1.5-1.5c0-0.4-0.2-0.9,0.1-1.2c0.2-0.2,0.7-0.1,1.1-0.1c1,0,2,0,3,0c1.1,0,1.8,0.7,1.8,1.8
		C16.3,5.8,16.2,7.2,16.2,8.5z M13.5,10.5c0-0.2,0-0.3,0-0.5c0-0.9,0-0.9-0.9-0.9c-0.5,0-0.7,0.3-0.7,0.7c0,0.4,0,0.8,0,1.1
		c0,0.7,0.3,0.8,1.2,0.9c0.7,0,0.3-0.5,0.4-0.7C13.5,10.9,13.5,10.7,13.5,10.5z"/>
	<path class="st1" d="M24.3,7.5c0,1.4,0,2.8,0,4.2c0,1.1-0.3,2-1.3,2.6c-0.4,0.2-0.9,0.4-1.3,0.4c-1,0-2.1,0-3.1,0
		c-0.3,0-0.3-0.1-0.3-0.3c0-0.4,0-0.8,0-1.1c0-0.7,0.6-1.3,1.3-1.3c0.5,0,0.9,0,1.4,0c0.4,0,0.6-0.2,0.6-0.6c0-0.4-0.2-0.6-0.6-0.6
		c-0.6,0-1.3,0.1-1.9-0.1c-1.1-0.3-1.9-1.2-1.9-2.3c-0.1-1.8,0-3.5,0-5.3c0-0.2,0.1-0.3,0.3-0.3c0.7,0,1.5,0,2.2,0
		c0.3,0,0.3,0.2,0.3,0.4c0,1.3,0,2.7,0,4c0,0.6,0.3,0.9,0.8,0.9c0.6,0,0.9-0.2,0.9-0.8c0-1.3,0-2.7,0-4c0-0.3,0.1-0.4,0.4-0.4
		c0.7,0,1.3,0,2,0c0.4,0,0.4,0.1,0.4,0.4C24.3,4.6,24.3,6,24.3,7.5z"/>
	<path class="st1" d="M1.2,9.5c0-1.5,0-3,0-4.4c0-1.5,0.9-2.4,2.3-2.3c1,0,1.9-0.1,2.8,0.1c1.2,0.2,2,1.2,2,2.4c0,1.3,0,2.6,0,3.9
		c0,1.7-1,2.7-2.6,2.7c-0.5,0-1,0-1.5,0c-0.2,0-0.3,0.1-0.3,0.3c0,0.4,0,0.7,0,1.1c0,0.8-0.6,1.3-1.3,1.4c-0.5,0-1,0.2-1.3-0.1
		c-0.3-0.2-0.1-0.8-0.1-1.3C1.2,12,1.2,10.8,1.2,9.5z M3.9,7.3c0,0.3,0,0.6,0,0.9c0,1,0,1,1,0.9c0.4,0,0.7-0.3,0.7-0.7
		c0-0.5,0-1,0-1.5c0.1-1.5-0.2-1.3-1.4-1.3C4,5.5,3.9,5.6,3.9,5.8C4,6.3,3.9,6.8,3.9,7.3z"/>
	<path class="st0" d="M26.9,9.5c0-1.2,0-2.4,0-3.6c0-0.3-0.1-0.4-0.4-0.4c-0.4,0-1,0.1-1.2-0.1c-0.3-0.3-0.1-0.8-0.1-1.3
		c0,0,0-0.1,0-0.1c0-0.4-0.1-0.9,0-1.2s0.7-0.1,1.1-0.2c0.8-0.2,1.4-0.6,1.8-1.3C28.6,1,29,0.7,29.5,0.6c0.3-0.1,0.5,0,0.4,0.3
		c0,0.5,0,1,0,1.5c0,0.2,0.1,0.3,0.3,0.3c0.4,0,0.7,0,1.1,0c0.2,0,0.3,0.1,0.3,0.3c0,0.7,0,1.5,0,2.2c0,0.2-0.1,0.3-0.3,0.3
		c0,0-0.1,0-0.1,0c-0.4,0-1-0.2-1.2,0.1c-0.2,0.3-0.1,0.8-0.1,1.2c0,2.5,0,4.9,0,7.4c0,0.3-0.1,0.5-0.4,0.4c-0.3,0-0.7,0-1,0
		c-1,0-1.6-0.7-1.6-1.7C26.9,11.8,26.9,10.7,26.9,9.5z"/>
</g>
</svg>
