<?xml version="1.0" encoding="utf-8"?>
<!-- Generator: Adobe Illustrator 16.0.0, SVG Export Plug-In . SVG Version: 6.00 Build 0)  -->
<!DOCTYPE svg PUBLIC "-//W3C//DTD SVG 1.1//EN" "http://www.w3.org/Graphics/SVG/1.1/DTD/svg11.dtd">
<svg version="1.1" id="Layer_1" xmlns="http://www.w3.org/2000/svg" xmlns:xlink="http://www.w3.org/1999/xlink" x="0px" y="0px"
	 width="21.57px" height="31.278px" viewBox="0 0 21.57 31.278" enable-background="new 0 0 21.57 31.278" xml:space="preserve">
<path fill="#64B4E4" d="M-286.292-100.297v25.232c0,0.55-0.446,0.997-0.996,0.997h-32.006c-0.55,0-0.996-0.447-0.996-0.997v-25.232
	c0-0.55,0.446-0.996,0.996-0.996h32.006C-286.738-101.293-286.292-100.847-286.292-100.297"/>
<path fill="#5493CE" d="M-287.288-101.293h-16.003v27.225h16.003c0.55,0,0.996-0.447,0.996-0.996v-25.233
	C-286.292-100.847-286.738-101.293-287.288-101.293"/>
<path fill="#52C7E3" d="M-306.014-84.76v10.691h-13.28c-0.55,0-0.996-0.446-0.996-0.996v-10.69h13.28
	C-306.46-85.755-306.014-85.31-306.014-84.76"/>
<path fill="#9EDBE8" d="M-286.292-75.548v0.483c0,0.55-0.446,0.996-0.996,0.996h-32.006c-0.55,0-0.996-0.446-0.996-0.996v-0.483
	l12.947-10.207l3.435-2.708c0.362-0.285,0.872-0.285,1.234,0L-286.292-75.548z"/>
<path fill="#52C7E3" d="M-302.674-88.463c-0.183-0.143-0.399-0.214-0.617-0.214v14.609h16.003c0.55,0,0.996-0.447,0.996-0.997
	v-0.483L-302.674-88.463z"/>
<path fill="#FEDD40" d="M-294.593-97.309c-2.38,0-4.315,1.936-4.315,4.315c0,2.38,1.936,4.317,4.315,4.317s4.316-1.937,4.316-4.317
	C-290.276-95.373-292.213-97.309-294.593-97.309"/>
<path fill="#64B4E4" d="M-178.792-94.407h-0.565v1.134h0.872c0.09-0.091,0.26-0.307,0.26-0.567
	C-178.224-94.159-178.474-94.407-178.792-94.407"/>
<path fill="#64B4E4" d="M-178.792-101.774c-3.129,0-5.666-2.538-5.666-5.666c0-2.244,1.326-4.239,3.299-5.146
	c0.317-0.612,0.701-1.168,1.167-1.654h-11.55c-1.721,0-3.114,1.394-3.114,3.116v20.964c0,1.724,1.394,3.118,3.114,3.118h16.434
	c1.723,0,3.116-1.394,3.116-3.116v-11.615h-6.8V-101.774z M-187.573-91.008c0.469,0,0.85,0.381,0.85,0.85
	c0,0.47-0.381,0.85-0.85,0.85h-2.834c-0.301,0-0.579-0.16-0.732-0.418c-0.154-0.26-0.156-0.579-0.01-0.843l2.131-3.837h-1.389
	c-0.469,0-0.85-0.381-0.85-0.85c0-0.468,0.381-0.849,0.85-0.849h2.834c0.301,0,0.58,0.159,0.732,0.418
	c0.153,0.257,0.156,0.579,0.01,0.842l-2.131,3.837H-187.573z M-183.042-90.158c0,0.47-0.381,0.85-0.85,0.85s-0.85-0.38-0.85-0.85
	v-5.1c0-0.468,0.381-0.849,0.85-0.849s0.85,0.381,0.85,0.849V-90.158z M-178.36-91.576h-0.997v1.416
	c0,0.465-0.386,0.851-0.851,0.851s-0.85-0.386-0.85-0.851v-5.1c0-0.463,0.385-0.849,0.85-0.849h1.416
	c1.246,0,2.267,1.021,2.267,2.265C-176.524-92.697-177.432-91.576-178.36-91.576"/>
<path fill="#64B4E4" d="M-171.425-104.041h-7.365c-1.875,0-3.4-1.524-3.4-3.399c0-1.653,1.184-3.033,2.748-3.337
	c0.588-2.015,2.466-3.463,4.618-3.463c1.698,0,3.271,0.904,4.128,2.338c1.851,0.338,3.237,1.963,3.237,3.895
	C-167.459-105.82-169.238-104.041-171.425-104.041"/>
<path fill="#557FC0" d="M-82.184-73.97l-5.492-1.569l-1.569-5.493h-10.983c-1.3,0-2.354,1.055-2.354,2.355v22.071
	c0,1.301,1.054,2.355,2.354,2.355h15.69c1.299,0,2.354-1.054,2.354-2.355V-73.97z"/>
<path fill="#89ACDA" d="M-82.184-73.97h-5.492c-0.863,0-1.569-0.706-1.569-1.569v-5.493c0.204,0,0.408,0.08,0.549,0.237l6.276,6.276
	C-82.263-74.378-82.184-74.174-82.184-73.97"/>
<path fill="#FEF5F5" d="M-87.676-68.426h-9.415c-0.434,0-0.784-0.351-0.784-0.784c0-0.434,0.351-0.785,0.784-0.785h9.415
	c0.434,0,0.784,0.351,0.784,0.785C-86.892-68.777-87.242-68.426-87.676-68.426"/>
<path fill="#FEF5F5" d="M-87.676-65.287h-9.415c-0.434,0-0.784-0.352-0.784-0.785c0-0.434,0.351-0.784,0.784-0.784h9.415
	c0.434,0,0.784,0.35,0.784,0.784C-86.892-65.639-87.242-65.287-87.676-65.287"/>
<path fill="#FEF5F5" d="M-87.676-62.149h-9.415c-0.434,0-0.784-0.351-0.784-0.784c0-0.434,0.351-0.785,0.784-0.785h9.415
	c0.434,0,0.784,0.351,0.784,0.785C-86.892-62.5-87.242-62.149-87.676-62.149"/>
<path fill="#FEF5F5" d="M-90.814-59.011h-6.276c-0.434,0-0.785-0.352-0.785-0.785c0-0.434,0.352-0.784,0.785-0.784h6.276
	c0.434,0,0.785,0.35,0.785,0.784C-90.029-59.363-90.381-59.011-90.814-59.011"/>
<polygon fill="#D9E2EF" points="21.57,29.66 0,29.66 0,0 16.716,0 21.57,4.854 "/>
<polygon fill="#A4B2C2" points="16.717,0 16.717,4.854 21.57,4.854 "/>
<rect y="21.571" fill="#B63639" width="21.57" height="9.707"/>
<path fill="#FFFFFF" d="M3.235,29.66c-0.298,0-0.539-0.241-0.539-0.539v-5.393c0-0.298,0.241-0.54,0.539-0.54
	s0.539,0.242,0.539,0.54v5.393C3.774,29.419,3.533,29.66,3.235,29.66"/>
<path fill="#FFFFFF" d="M18.335,24.268H15.1c-0.298,0-0.54-0.242-0.54-0.539c0-0.298,0.242-0.54,0.54-0.54h3.235
	c0.298,0,0.539,0.242,0.539,0.54C18.874,24.025,18.633,24.268,18.335,24.268"/>
<path fill="#FFFFFF" d="M18.335,26.964H15.1c-0.298,0-0.54-0.241-0.54-0.539s0.242-0.54,0.54-0.54h3.235
	c0.298,0,0.539,0.242,0.539,0.54S18.633,26.964,18.335,26.964"/>
<path fill="#FFFFFF" d="M15.1,29.66c-0.298,0-0.54-0.241-0.54-0.539v-5.393c0-0.298,0.242-0.54,0.54-0.54s0.539,0.242,0.539,0.54
	v5.393C15.639,29.419,15.397,29.66,15.1,29.66"/>
<path fill="#B63639" d="M10.397,5.812c-0.053,0.018-0.715,0.933,0.052,1.707C10.958,6.396,10.421,5.806,10.397,5.812 M10.724,10.304
	c-0.385,1.313-0.892,2.73-1.438,4.014c1.123-0.43,2.344-0.805,3.491-1.071C12.052,12.414,11.327,11.375,10.724,10.304
	 M14.738,13.797c0.437,0.332,0.544,0.5,0.831,0.5c0.126,0,0.484-0.005,0.65-0.233c0.08-0.111,0.111-0.183,0.123-0.219
	c-0.065-0.035-0.153-0.105-0.633-0.105C15.439,13.739,15.099,13.751,14.738,13.797 M7.41,16.154
	c-1.148,0.637-1.618,1.161-1.651,1.456c-0.004,0.05-0.019,0.178,0.232,0.367C6.071,17.952,6.539,17.742,7.41,16.154 M5.979,18.875
	c-0.188,0-0.367-0.062-0.521-0.173C4.9,18.286,4.824,17.825,4.86,17.511c0.098-0.863,1.18-1.768,3.216-2.689
	c0.808-1.75,1.578-3.905,2.036-5.706C9.576,7.963,9.055,6.467,9.435,5.59c0.133-0.308,0.3-0.543,0.609-0.646
	c0.122-0.04,0.433-0.09,0.545-0.09c0.283,0,0.554,0.336,0.685,0.555c0.242,0.406,0.243,0.879,0.205,1.335
	c-0.037,0.442-0.112,0.884-0.199,1.319c-0.063,0.321-0.136,0.64-0.212,0.957c0.724,1.478,1.75,2.982,2.732,4.013
	c0.705-0.125,1.312-0.188,1.806-0.188c0.841,0,1.352,0.193,1.56,0.592c0.172,0.33,0.101,0.716-0.21,1.146
	c-0.3,0.413-0.711,0.632-1.192,0.632c-0.655,0-1.415-0.407-2.264-1.213c-1.524,0.315-3.305,0.876-4.744,1.498
	c-0.449,0.94-0.879,1.699-1.28,2.256C6.925,18.521,6.449,18.875,5.979,18.875"/>
<path fill="#FFFFFF" d="M4.854,27.503H3.235c-0.298,0-0.539-0.241-0.539-0.539v-3.234c0-0.299,0.241-0.541,0.539-0.541h1.618
	c1.189,0,2.157,0.967,2.157,2.157C7.011,26.535,6.043,27.503,4.854,27.503 M3.774,26.425h1.079c0.595,0,1.078-0.484,1.078-1.079
	s-0.483-1.078-1.078-1.078H3.774V26.425z"/>
<path fill="#FFFFFF" d="M9.707,29.661H9.168c-0.298,0-0.54-0.242-0.54-0.539v-5.394c0-0.298,0.242-0.54,0.54-0.54h0.539
	c1.783,0,3.235,1.451,3.235,3.236C12.942,28.208,11.49,29.661,9.707,29.661 M9.707,28.581h0.005H9.707z M9.707,24.268v4.313
	c1.188,0,2.155-0.967,2.155-2.156C11.862,25.234,10.896,24.268,9.707,24.268"/>
</svg>
