<?xml version="1.0" encoding="utf-8"?>
<!-- Generator: Adobe Illustrator 16.0.0, SVG Export Plug-In . SVG Version: 6.00 Build 0)  -->
<!DOCTYPE svg PUBLIC "-//W3C//DTD SVG 1.1//EN" "http://www.w3.org/Graphics/SVG/1.1/DTD/svg11.dtd">
<svg version="1.1" id="Layer_1" xmlns="http://www.w3.org/2000/svg" xmlns:xlink="http://www.w3.org/1999/xlink" x="0px" y="0px"
	 width="98.36px" height="97.541px" viewBox="0 0 98.36 97.541" enable-background="new 0 0 98.36 97.541" xml:space="preserve">
<path fill="#5C9AD3" d="M-393.324-40.538c-0.666,0-1.33,0.012-1.991,0.033c-0.545,0.017-1.023,0.369-1.209,0.882l-12.199,33.527
	c-0.318,0.875,0.329,1.8,1.26,1.8h9.548c6.82,0,10.495,5.249,8.16,11.665L-405.668,51.1c-0.193,0.53-0.697,0.883-1.26,0.883
	l-10.777-0.002c-0.931,0-1.579-0.926-1.26-1.801l16.109-44.219c0.319-0.875-0.329-1.801-1.26-1.801h-7.394
	c-0.564,0-1.067,0.353-1.26,0.883l-16.778,46.055c-0.193,0.53-0.696,0.882-1.26,0.882l-10.782-0.001c-0.931,0-1.579-0.925-1.26-1.8
	l31.237-85.82c0.383-1.052-0.617-2.082-1.682-1.734c-25.758,8.402-44.372,32.617-44.372,61.181
	c0,29.965,20.485,55.144,48.214,62.301c0.672,0.173,1.367-0.186,1.604-0.839l32.281-88.68c0.193-0.53,0.696-0.882,1.26-0.882h24.167
	c6.826,0,10.501,5.249,8.167,11.664l-14.267,39.185c-1.085,2.984-4.572,5.426-7.749,5.426h-17.157c-0.564,0-1.068,0.352-1.26,0.882
	l-12.185,33.486c-0.317,0.87,0.323,1.8,1.249,1.8h0.019c35.536,0,64.343-28.808,64.343-64.343
	C-328.981-11.731-357.788-40.538-393.324-40.538"/>
<path fill="#4576BB" d="M-548.137,268.814c-0.31,0.016-0.637,0.042-0.964,0.048c-1.05,0.019-2.101,0.058-3.152,0.037
	c-0.807-0.016-1.615-0.08-2.418-0.175c-0.823-0.098-1.644-0.233-2.456-0.396c-0.776-0.158-1.51-0.449-2.148-0.928
	c-0.518-0.388-0.841-0.898-0.836-1.572c0.003-0.43-0.054-0.873,0.14-1.271c0.16-0.328,0.342-0.66,0.58-0.931
	c0.733-0.834,1.636-1.457,2.632-1.937c0.876-0.422,1.758-0.835,2.653-1.214c0.389-0.164,0.82-0.82,0.738-1.369
	c-0.069-0.452-0.303-0.758-0.574-1.086c-0.255-0.311-0.466-0.66-0.664-1.012c-0.398-0.704-0.717-1.448-0.876-2.244
	c-0.115-0.58-0.19-1.17-0.245-1.76c-0.037-0.396-0.038-0.801-0.001-1.196c0.097-1.06,0.407-2.044,1.083-2.896
	c0.355-0.449,0.781-0.808,1.274-1.074c0.488-0.262,1.013-0.457,1.575-0.504c0.357-0.028,0.717-0.054,1.074-0.041
	c1.059,0.035,2.003,0.375,2.815,1.078c0.836,0.721,1.31,1.636,1.499,2.709c0.067,0.377,0.103,0.76,0.132,1.142
	c0.096,1.248-0.149,2.45-0.585,3.606c-0.342,0.908-0.819,1.75-1.47,2.487c-0.155,0.177-0.218,0.447-0.279,0.685
	c-0.077,0.305-0.06,0.617,0.046,0.92c0.015,0.043-0.013,0.117-0.045,0.162c-0.435,0.607-0.78,1.265-1.019,1.972
	c-0.288,0.852-0.384,1.737-0.306,2.627c0.088,0.999,0.356,1.958,0.903,2.815C-548.747,267.942-548.44,268.371-548.137,268.814"/>
<path fill="#3FB655" d="M-543.175,269.66c-3.1-0.055-5.522-2.418-5.516-5.533c0.006-3.101,2.403-5.513,5.53-5.505
	c3.089,0.008,5.506,2.404,5.494,5.541C-537.678,267.247-540.079,269.602-543.175,269.66 M-543.934,267.123h1.514v-2.242h2.23v-1.506
	h-2.242v-2.23h-1.505v2.242h-2.231v1.506h2.234V267.123z"/>
<path fill="#A7AFBC" d="M-923.093,20.291h-56.047c-3.295,0-5.976,2.681-5.976,5.977v38.914c0,3.296,2.681,5.976,5.976,5.976h21.359
	c-0.299,1.389-0.749,3.256-1.354,5.179c-1.808,5.733-3.534,7.453-4.41,7.97h-5.634c-1.1,0-1.992,0.891-1.992,1.992
	s0.892,1.992,1.992,1.992h36.125c1.1,0,1.992-0.891,1.992-1.992s-0.892-1.992-1.992-1.992h-5.527
	c-0.873-0.515-2.593-2.229-4.396-7.929c-0.611-1.933-1.065-3.818-1.367-5.22h21.251c3.295,0,5.977-2.681,5.977-5.976V26.268
	C-917.116,22.972-919.798,20.291-923.093,20.291 M-979.14,24.276h56.047c1.099,0,1.992,0.893,1.992,1.992v29.218h-60.031V26.268
	C-981.132,25.169-980.239,24.276-979.14,24.276 M-946.791,77.534c0.884,2.804,1.854,5.054,2.925,6.772h-14.395
	c1.07-1.719,2.041-3.969,2.924-6.772c0.785-2.49,1.32-4.859,1.626-6.376h5.295C-948.11,72.676-947.575,75.044-946.791,77.534
	 M-923.093,67.174h-2.656v-1.195c0-1.101-0.892-1.993-1.992-1.993c-1.101,0-1.993,0.892-1.993,1.993v1.195h-49.406
	c-1.099,0-1.992-0.894-1.992-1.992v-5.711h60.031v5.711C-921.102,66.28-921.994,67.174-923.093,67.174"/>
<path fill="#A7AFBC" d="M-965.992,44.596h29.75c1.1,0,1.992-0.892,1.992-1.992c0-1.101-0.892-1.992-1.992-1.992h-29.75
	c-1.1,0-1.992,0.891-1.992,1.992C-967.984,43.704-967.092,44.596-965.992,44.596"/>
<path fill="#A7AFBC" d="M-959.617,36.096h17c1.1,0,1.992-0.892,1.992-1.992c0-1.101-0.892-1.992-1.992-1.992h-17
	c-1.1,0-1.992,0.891-1.992,1.992C-961.609,35.204-960.717,36.096-959.617,36.096"/>
<path fill="#8792A2" d="M86.36,97.541H12c-6.6,0-12-5.399-12-12V12C0,5.4,5.4,0,12,0h74.36c6.6,0,12,5.4,12,12v73.541
	C98.36,92.142,92.96,97.541,86.36,97.541"/>
<path fill="#FFFFFF" d="M69.163,36.576l-2.274-15.788c-0.187-1.295-1.792-1.833-2.729-0.902l-3.313,3.285
	c-4.259-2.548-9.095-3.889-14.067-3.889c-14.954,0-26.96,11.607-27.335,26.424c-0.021,0.81,0.574,1.505,1.381,1.62l6.428,0.911
	c0.958,0.139,1.85-0.607,1.836-1.602c-0.133-9.778,7.831-17.784,17.69-17.784c2.387,0,4.747,0.481,6.927,1.401l-3.193,3.167
	c-0.933,0.925-0.403,2.521,0.909,2.707l15.922,2.255C68.392,38.539,69.314,37.634,69.163,36.576"/>
<path fill="#FFFFFF" d="M72.961,45.802l-6.423-0.91c-0.83-0.104-1.836,0.602-1.836,1.717c0,9.675-7.937,17.545-17.691,17.545
	c-2.375,0-4.724-0.477-6.896-1.388l3.091-3.066c0.933-0.924,0.403-2.52-0.909-2.706l-15.922-2.258
	c-1.045-0.147-1.972,0.742-1.82,1.807l2.273,15.789c0.188,1.296,1.791,1.83,2.73,0.901l3.393-3.362
	c4.239,2.524,9.072,3.853,14.06,3.853c14.882,0,26.886-11.549,27.331-26.293C74.364,46.618,73.771,45.917,72.961,45.802"/>
</svg>
