<?xml version="1.0" encoding="utf-8"?>
<!-- Generator: Adobe Illustrator 16.0.0, SVG Export Plug-In . SVG Version: 6.00 Build 0)  -->
<!DOCTYPE svg PUBLIC "-//W3C//DTD SVG 1.1//EN" "http://www.w3.org/Graphics/SVG/1.1/DTD/svg11.dtd">
<svg version="1.1" id="Layer_1" xmlns="http://www.w3.org/2000/svg" xmlns:xlink="http://www.w3.org/1999/xlink" x="0px" y="0px"
	 width="19.608px" height="20px" viewBox="0 0 19.608 20" enable-background="new 0 0 19.608 20" xml:space="preserve">
<path fill="#929EAB" d="M13.66,11.868c2.401-3.39,1.599-8.085-1.792-10.485c-3.39-2.4-8.084-1.598-10.484,1.793
	S-0.214,11.26,3.176,13.66c2.419,1.714,5.618,1.846,8.171,0.338l5.545,5.512c0.6,0.631,1.596,0.656,2.226,0.057
	c0.631-0.598,0.655-1.594,0.058-2.225c-0.019-0.02-0.037-0.038-0.058-0.057L13.66,11.868z M7.517,12.382
	c-2.679,0-4.851-2.169-4.853-4.849c-0.002-2.679,2.17-4.851,4.849-4.852c2.676-0.001,4.847,2.166,4.852,4.842
	c0.005,2.679-2.164,4.855-4.845,4.859H7.517z"/>
</svg>
