<?xml version="1.0" encoding="utf-8"?>
<!-- Generator: Adobe Illustrator 16.0.0, SVG Export Plug-In . SVG Version: 6.00 Build 0)  -->
<!DOCTYPE svg PUBLIC "-//W3C//DTD SVG 1.1//EN" "http://www.w3.org/Graphics/SVG/1.1/DTD/svg11.dtd">
<svg version="1.1" id="Layer_1" xmlns="http://www.w3.org/2000/svg" xmlns:xlink="http://www.w3.org/1999/xlink" x="0px" y="0px"
	 width="53.328px" height="42.265px" viewBox="0 0 53.328 42.265" enable-background="new 0 0 53.328 42.265" xml:space="preserve">
<path fill="#3C57A7" d="M63.014-114.25h49.035V-143H63.014V-114.25z M82.547-123.434l-2.032,2.032l-7.225-7.225l7.225-7.225
	l2.032,2.032l-5.194,5.193L82.547-123.434z M87.273-119.962l-2.818-0.561l3.336-16.767l2.818,0.56L87.273-119.962z M94.549-121.402
	l-2.032-2.032l5.194-5.193l-5.194-5.193l2.032-2.032l7.225,7.225L94.549-121.402z"/>
<polygon fill="#3C57A7" points="112.049,-102.751 112.049,-111.378 63.014,-111.378 63.014,-102.751 78.752,-102.751 
	78.752,-99.873 75.876,-99.873 75.876,-97 99.188,-97 99.188,-99.873 96.312,-99.873 96.312,-102.751 "/>
<path fill="#FDB814" d="M334.95-234h-6.434c-0.875,0-1.582,0.708-1.582,1.582v1.582h-12.947c-0.655-1.837-2.396-3.164-4.455-3.164
	c-2.061,0-3.8,1.327-4.455,3.164h-12.947v-1.582c0-0.874-0.708-1.582-1.582-1.582h-6.434c-0.874,0-1.582,0.708-1.582,1.582v6.328
	c0,0.875,0.708,1.582,1.582,1.582h6.434c0.874,0,1.582-0.707,1.582-1.582v-1.603h6.497c-5.49,3.43-9.11,9.454-9.543,16.202
	c-1.898,0.621-3.282,2.388-3.282,4.491c0,2.617,2.129,4.746,4.746,4.746s4.746-2.129,4.746-4.746c0-2.019-1.272-3.735-3.053-4.42
	c0.54-7.522,5.789-13.863,13.091-15.672c0.789,1.527,2.366,2.584,4.2,2.584s3.411-1.057,4.2-2.584
	c7.302,1.809,12.551,8.15,13.091,15.672c-1.78,0.685-3.053,2.401-3.053,4.42c0,2.617,2.129,4.746,4.746,4.746
	s4.746-2.129,4.746-4.746c0-2.103-1.384-3.87-3.282-4.491c-0.433-6.748-4.053-12.751-9.543-16.181h6.497v1.582
	c0,0.875,0.707,1.582,1.582,1.582h6.434c0.874,0,1.582-0.707,1.582-1.582v-6.328C336.532-233.292,335.824-234,334.95-234"/>
<path fill="#FDB814" d="M320.294-181.962c-0.827-2.532-3.211-4.472-6.017-4.472h-9.492c-2.806,0-5.189,1.94-6.017,4.472
	c-0.319,0.976,0.511,1.962,1.538,1.962h18.449C319.783-180,320.614-180.986,320.294-181.962"/>
<path fill="#FDB814" d="M323.504-201.549l-12.391-18.586v15.009c1.838,0.655,3.164,2.395,3.164,4.454
	c0,2.618-2.129,4.747-4.746,4.747s-4.746-2.129-4.746-4.747c0-2.059,1.326-3.799,3.164-4.454v-15.009l-12.391,18.586
	c-0.419,0.627-0.335,1.463,0.198,1.996c2.904,2.904,4.761,6.646,5.476,10.659c1.101-0.446,2.295-0.703,3.553-0.703h9.492
	c1.257,0,2.452,0.257,3.552,0.703c0.716-4.014,2.571-7.755,5.477-10.659C323.839-200.086,323.923-200.922,323.504-201.549"/>
<path fill="#FDB814" d="M309.532-202.254c-0.873,0-1.582,0.709-1.582,1.582c0,0.873,0.709,1.582,1.582,1.582
	s1.582-0.709,1.582-1.582C311.114-201.544,310.405-202.254,309.532-202.254"/>
<path fill="#F05225" d="M0,17.651c-0.023,2.016,1.22,3.831,3.107,4.537V13.55c0-0.124,0.063-0.311,0.063-0.435
	C1.27,13.815,0.004,15.625,0,17.651"/>
<path fill="#F05225" d="M16.968,28.342H8.826l3.045,11.063c0.451,1.688,1.982,2.862,3.729,2.858c1.244,0.016,2.42-0.562,3.17-1.553
	c0.758-0.944,0.991-2.204,0.622-3.357L16.968,28.342z"/>
<path fill="#F05225" d="M3.17,13.052h0.062v-0.062C3.232,13.052,3.232,13.052,3.17,13.052"/>
<path fill="#F05225" d="M47.734,12.182h-0.497v11.188h0.497c3.089,0,5.594-2.505,5.594-5.594
	C53.328,14.687,50.823,12.182,47.734,12.182"/>
<path fill="#F05225" d="M4.973,13.549v8.826c0.067,2.285,1.94,4.103,4.227,4.102h11.311V9.696H9.2
	C6.961,9.696,4.973,11.313,4.973,13.549"/>
<polygon fill="#F05225" points="22.375,26.726 45.373,35.925 45.373,0 22.375,9.199 "/>
<path fill="#359FD9" d="M192.64,42.953h-37.167l29.826-11.163c0.437-0.163,0.775-0.518,0.917-0.962l4.847-15.134L175.837,0.469
	l-15.134,4.847c-0.444,0.143-0.798,0.481-0.962,0.917l-13.997,37.399l0.233-0.232c-0.276,0.275-0.445,0.656-0.445,1.076
	c0,0.842,0.682,1.523,1.523,1.523h45.584c0.841,0,1.523-0.682,1.523-1.523S193.48,42.953,192.64,42.953 M147.056,42.953
	c-0.42,0-0.801,0.17-1.076,0.445l18.812-18.812c-1.555-2.515-1.267-5.888,0.951-8.106c2.567-2.567,6.743-2.567,9.31,0
	c2.572,2.573,2.572,6.736,0,9.309c-2.182,2.182-5.549,2.524-8.105,0.95l-16.214,16.214H147.056z"/>
<path fill="#359FD9" d="M197.086,6.139L185.393-5.554C185.107-5.839,184.72-6,184.316-6s-0.792,0.16-1.077,0.446l-4.558,4.557
	l13.848,13.848l4.557-4.557c0.286-0.286,0.446-0.674,0.446-1.078C197.532,6.813,197.372,6.425,197.086,6.139"/>
<path fill="#F15C61" d="M295.425,25.799h3.633c0,3.249,2.418,5.942,5.548,6.378v-2.079c0-5.555-4.519-10.075-10.074-10.075
	c-5.555,0-10.074,4.52-10.074,10.075v2.143h4.525C292.536,32.242,295.425,29.352,295.425,25.799"/>
<path fill="#F15C61" d="M277.499,43.949h3.426c-0.065-0.573-0.1-1.156-0.1-1.748V30.098c0-7.558,6.148-13.707,13.707-13.707
	s13.707,6.149,13.707,13.707v12.103c0,0.592-0.034,1.176-0.1,1.748h3.426c2.728,0,4.945-2.219,4.945-4.945v-5.511
	c0-2.659-2.109-4.834-4.743-4.94C310.876,19.829,303.487,13,294.532,13s-16.346,6.829-17.235,15.553
	c-2.634,0.106-4.743,2.281-4.743,4.94v5.511C272.553,41.73,274.77,43.949,277.499,43.949"/>
<path fill="#F15C61" d="M294.532,53.041c3.093,0,5.863-1.506,7.713-3.875h-5.628v-3.633h7.502c0.316-1.049,0.487-2.17,0.487-3.332
	v-6.366c-3.043-0.269-5.702-1.897-7.364-4.271c-1.823,2.604-4.846,4.311-8.259,4.311h-4.525v6.327
	C284.458,48.179,288.977,53.041,294.532,53.041"/>
<path fill="#F15C61" d="M304.735,56.701v-4.846c-2.511,2.955-6.154,4.819-10.203,4.819c-4.023,0-7.645-1.839-10.154-4.762v4.784
	l-0.018,0.004c2.384,1.855,6.341,4.391,10.156,4.391C298.349,61.092,302.332,58.559,304.735,56.701"/>
<path fill="#F15C61" d="M320.953,62.027l-12.146-3.98c-2.055,1.832-8.081,6.678-14.29,6.678c-6.218,0-12.196-4.856-14.229-6.688
	l-12.177,3.99c-2.738,0.898-4.579,3.439-4.579,6.322V75h12.507v-6.297h3.633V75h29.72v-6.297h3.634V75h12.507v-6.65
	C325.532,65.467,323.691,62.926,320.953,62.027"/>
<path fill="#7FBA42" d="M199.36-168.207c0,1.769,1.439,3.207,3.207,3.207h29.93c1.768,0,3.207-1.438,3.207-3.207v-3.207H199.36
	V-168.207z M211.118-169.276h12.827v2.138h-12.827V-169.276z"/>
<path fill="#7FBA42" d="M214.325-183.172v-10.69c0-2.947-2.397-5.345-5.345-5.345h-17.104c-2.948,0-5.345,2.398-5.345,5.345v10.69
	c0,2.947,2.397,5.345,5.345,5.345h17.104C211.928-177.827,214.325-180.225,214.325-183.172"/>
<path fill="#7FBA42" d="M218.601-200.276v-10.69c0-4.126,3.358-7.482,7.483-7.482h9.62v-2.138H199.36v19.241h9.62
	c4.125,0,7.483,3.357,7.483,7.483v10.69c0,4.126-3.358,7.483-7.483,7.483h-9.62v2.137h36.344v-19.241h-9.62
	C221.958-192.793,218.601-196.149,218.601-200.276 M207.911-205.621h-2.138v-2.138h2.138V-205.621z M212.187-205.621h-2.138v-2.138
	h2.138V-205.621z M216.463-205.621h-2.138v-2.138h2.138V-205.621z M220.739-185.311h-2.138v-2.138h2.138V-185.311z M225.015-185.311
	h-2.138v-2.138h2.138V-185.311z M227.153-187.448h2.138v2.138h-2.138V-187.448z"/>
<path fill="#7FBA42" d="M235.704-223.793c0-1.769-1.439-3.207-3.207-3.207h-29.931c-1.768,0-3.207,1.438-3.207,3.207v1.069h36.345
	V-223.793z"/>
<path fill="#7FBA42" d="M243.187-216.311h-17.104c-2.947,0-5.344,2.398-5.344,5.345v10.69c0,2.947,2.397,5.344,5.344,5.344
	c0-3.356,1.949-6.259,4.771-7.658c-1.592-1.168-2.633-3.047-2.633-5.169c0-3.537,2.877-6.414,6.414-6.414
	c3.537,0,6.414,2.877,6.414,6.414c0,2.122-1.04,4.001-2.633,5.169c2.822,1.399,4.771,4.302,4.771,7.658
	c2.947,0,5.345-2.397,5.345-5.344v-10.69C248.532-213.912,246.134-216.311,243.187-216.311"/>
<path fill="#7FBA42" d="M234.635-201.345c-3.537,0-6.414,2.876-6.414,6.414h12.828C241.049-198.468,238.172-201.345,234.635-201.345
	"/>
<path fill="#7FBA42" d="M234.635-212.034c2.361,0,4.276,1.914,4.276,4.275c0,2.362-1.915,4.277-4.276,4.277
	s-4.276-1.915-4.276-4.277C230.359-210.12,232.274-212.034,234.635-212.034"/>
<polygon fill="#FFFFFF" points="196.44,-184.406 195.18,-183.146 190.699,-187.627 195.18,-192.107 196.44,-190.847 
	193.219,-187.627 "/>
<rect x="198.64" y="-192.928" transform="matrix(0.9808 0.1951 -0.1951 0.9808 -32.7661 -42.5252)" fill="#FFFFFF" width="1.782" height="10.603"/>
<polygon fill="#FFFFFF" points="203.884,-183.146 202.624,-184.406 205.844,-187.627 202.624,-190.848 203.884,-192.107 
	208.364,-187.627 "/>
</svg>
