<?xml version="1.0" encoding="utf-8"?>
<!-- Generator: Adobe Illustrator 23.0.5, SVG Export Plug-In . SVG Version: 6.00 Build 0)  -->
<svg version="1.1" id="Layer_1" xmlns="http://www.w3.org/2000/svg" xmlns:xlink="http://www.w3.org/1999/xlink" x="0px" y="0px"
	 viewBox="0 0 300 300" style="enable-background:new 0 0 300 300;" xml:space="preserve">
<style type="text/css">
	.st0{fill:#B9CBFD;}
	.st1{opacity:0.38;}
	.st2{opacity:0.18;}
	.st3{opacity:0.8;clip-path:url(#SVGID_2_);}
	.st4{clip-path:url(#SVGID_2_);}
	.st5{fill:#0776FD;}
	.st6{fill:#739FE0;}
	.st7{opacity:0.8;clip-path:url(#SVGID_4_);}
	.st8{clip-path:url(#SVGID_4_);}
	.st9{opacity:0.8;clip-path:url(#SVGID_6_);}
	.st10{clip-path:url(#SVGID_6_);}
	.st11{opacity:0.8;clip-path:url(#SVGID_8_);}
	.st12{clip-path:url(#SVGID_8_);}
	.st13{opacity:0.8;fill:#B9CBFD;}
	.st14{opacity:0.4;clip-path:url(#XMLID_3_);fill:#2E7DCA;}
	.st15{opacity:0.5;clip-path:url(#XMLID_3_);fill:#0776F4;}
	.st16{opacity:0.31;clip-path:url(#XMLID_4_);fill:#F2B285;}
	.st17{fill:#F2B285;}
	.st18{opacity:0.28;clip-path:url(#XMLID_5_);fill:#C27139;}
	.st19{opacity:0.31;clip-path:url(#XMLID_6_);fill:#B073B1;}
	.st20{fill:#FDBA8D;}
	.st21{opacity:0.28;clip-path:url(#XMLID_7_);fill:#C27139;}
	.st22{fill:#0776F4;}
	.st23{fill:#404449;}
	.st24{fill:#E11E76;}
	.st25{fill:#FFFFFF;}
	.st26{fill:#FD9D90;}
	.st27{fill:#CACFD6;}
	.st28{opacity:0.61;clip-path:url(#XMLID_8_);fill:#808BC2;}
	.st29{fill:#808BC2;}
	.st30{clip-path:url(#SVGID_10_);fill:#D3BDFA;}
	.st31{clip-path:url(#SVGID_10_);}
	.st32{fill:#41ABA3;}
	.st33{opacity:0.45;clip-path:url(#XMLID_9_);fill:#F7B59C;}
	.st34{fill:#005173;}
	.st35{fill:#F7B59C;}
	.st36{fill:#72002C;}
	.st37{fill:#E9FCFF;}
	.st38{fill:#F59F9D;}
	.st39{fill:#AB6251;}
	.st40{opacity:0.22;clip-path:url(#XMLID_10_);fill:#606060;}
	.st41{opacity:0.22;clip-path:url(#XMLID_13_);fill:#F5B847;}
	.st42{clip-path:url(#SVGID_12_);fill:#4EBFB9;}
	.st43{clip-path:url(#SVGID_12_);}
	.st44{opacity:0.45;clip-path:url(#XMLID_14_);fill:#F7B59C;}
	.st45{fill:#FFCA33;}
	.st46{opacity:0.52;clip-path:url(#XMLID_15_);fill:#AF73B1;}
	.st47{opacity:0.45;clip-path:url(#XMLID_17_);fill:#F7B59C;}
	.st48{opacity:0.45;clip-path:url(#XMLID_18_);fill:#F7B59C;}
	.st49{fill:#AF73B1;}
	.st50{fill:#F5A29D;}
</style>
<g>
	<g>
		<g>
			<path class="st0" d="M150.5,252.8c-27.6,0-53.5-10.7-73-30.2c-19.5-19.5-30.2-45.4-30.2-73c0-27.6,10.7-53.5,30.2-73
				c19.5-19.5,45.4-30.2,73-30.2c27.6,0,53.5,10.7,73,30.2c19.5,19.5,30.2,45.4,30.2,73c0,27.6-10.7,53.5-30.2,73
				C204,242.1,178.1,252.8,150.5,252.8z M150.5,46.6c-27.5,0-53.4,10.7-72.8,30.2s-30.2,45.3-30.2,72.8c0,27.5,10.7,53.4,30.2,72.8
				s45.3,30.2,72.8,30.2c27.5,0,53.4-10.7,72.8-30.2s30.2-45.3,30.2-72.8c0-27.5-10.7-53.4-30.2-72.8S178,46.6,150.5,46.6z"/>
		</g>
		<g>
			<path class="st0" d="M150.5,265.1c-15.6,0-30.7-3.1-45-9.1c-13.8-5.8-26.1-14.2-36.7-24.8c-10.6-10.6-18.9-23-24.8-36.7
				c-6-14.2-9.1-29.4-9.1-45c0-15.6,3.1-30.7,9.1-45c5.8-13.8,14.2-26.1,24.8-36.7c10.6-10.6,23-18.9,36.7-24.8
				c14.2-6,29.4-9.1,45-9.1c15.6,0,30.7,3.1,45,9.1c13.8,5.8,26.1,14.2,36.7,24.8c10.6,10.6,18.9,23,24.8,36.7
				c6,14.2,9.1,29.4,9.1,45c0,15.6-3.1,30.7-9.1,45c-5.8,13.8-14.2,26.1-24.8,36.7c-10.6,10.6-23,18.9-36.7,24.8
				C181.2,262.1,166.1,265.1,150.5,265.1z M150.5,34.3c-15.6,0-30.6,3-44.9,9.1c-13.7,5.8-26,14.1-36.6,24.7
				C58.4,78.7,50.1,91,44.3,104.7c-6,14.2-9.1,29.3-9.1,44.9c0,15.6,3,30.6,9.1,44.9c5.8,13.7,14.1,26,24.7,36.6
				c10.6,10.6,22.9,18.9,36.6,24.7c14.2,6,29.3,9.1,44.9,9.1c15.6,0,30.6-3,44.9-9.1c13.7-5.8,26-14.1,36.6-24.7
				c10.6-10.6,18.9-22.9,24.7-36.6c6-14.2,9.1-29.3,9.1-44.9c0-15.6-3-30.6-9.1-44.9c-5.8-13.7-14.1-26-24.7-36.6
				c-10.6-10.6-22.9-18.9-36.6-24.7C181.1,37.4,166,34.3,150.5,34.3z"/>
		</g>
		<g>
			<path class="st0" d="M150.5,231.2c-11,0-21.7-2.2-31.8-6.4c-9.7-4.1-18.5-10-26-17.5c-7.5-7.5-13.4-16.2-17.5-26
				c-4.3-10.1-6.4-20.8-6.4-31.8c0-11,2.2-21.7,6.4-31.8c4.1-9.7,10-18.5,17.5-26c7.5-7.5,16.2-13.4,26-17.5
				c10.1-4.3,20.8-6.4,31.8-6.4c11,0,21.7,2.2,31.8,6.4c9.7,4.1,18.5,10,26,17.5c7.5,7.5,13.4,16.2,17.5,26
				c4.3,10.1,6.4,20.8,6.4,31.8c0,11-2.2,21.7-6.4,31.8c-4.1,9.7-10,18.5-17.5,26c-7.5,7.5-16.2,13.4-26,17.5
				C172.2,229,161.5,231.2,150.5,231.2z M150.5,68.1c-11,0-21.7,2.2-31.7,6.4c-9.7,4.1-18.4,10-25.9,17.4
				c-7.5,7.5-13.3,16.2-17.4,25.9c-4.2,10-6.4,20.7-6.4,31.7c0,11,2.2,21.7,6.4,31.7c4.1,9.7,10,18.4,17.4,25.9
				c7.5,7.5,16.2,13.3,25.9,17.4c10,4.2,20.7,6.4,31.7,6.4s21.7-2.2,31.7-6.4c9.7-4.1,18.4-10,25.9-17.4s13.3-16.2,17.4-25.9
				c4.2-10,6.4-20.7,6.4-31.7c0-11-2.2-21.7-6.4-31.7c-4.1-9.7-10-18.4-17.4-25.9c-7.5-7.5-16.2-13.3-25.9-17.4
				C172.1,70.3,161.5,68.1,150.5,68.1z"/>
		</g>
		<g class="st1">
			<path class="st0" d="M150.5,279.6c-17.6,0-34.6-3.4-50.6-10.2c-15.5-6.6-29.4-15.9-41.3-27.9c-11.9-11.9-21.3-25.9-27.9-41.3
				c-6.8-16-10.2-33.1-10.2-50.6c0-17.6,3.4-34.6,10.2-50.6c6.6-15.5,15.9-29.4,27.9-41.3c11.9-11.9,25.9-21.3,41.3-27.9
				c16-6.8,33.1-10.2,50.6-10.2c17.6,0,34.6,3.4,50.6,10.2c15.5,6.6,29.4,15.9,41.3,27.9c11.9,11.9,21.3,25.9,27.9,41.3
				c6.8,16,10.2,33.1,10.2,50.6c0,17.6-3.4,34.6-10.2,50.6c-6.6,15.5-15.9,29.4-27.9,41.3c-11.9,11.9-25.9,21.3-41.3,27.9
				C185.1,276.2,168,279.6,150.5,279.6z M150.5,19.8C133,19.8,116,23.3,100,30c-15.4,6.5-29.3,15.9-41.2,27.8
				C46.8,69.7,37.5,83.6,30.9,99.1c-6.8,16-10.2,33-10.2,50.5c0,17.5,3.4,34.5,10.2,50.5c6.5,15.4,15.9,29.3,27.8,41.2
				c11.9,11.9,25.8,21.3,41.2,27.8c16,6.8,33,10.2,50.5,10.2c17.5,0,34.5-3.4,50.5-10.2c15.4-6.5,29.3-15.9,41.2-27.8
				c11.9-11.9,21.3-25.8,27.8-41.2c6.8-16,10.2-33,10.2-50.5c0-17.5-3.4-34.5-10.2-50.5c-6.5-15.4-15.9-29.3-27.8-41.2
				C230.3,45.9,216.4,36.6,201,30C185,23.3,168,19.8,150.5,19.8z"/>
		</g>
		<g class="st2">
			<path class="st0" d="M150.5,295.1c-19.7,0-38.7-3.8-56.7-11.4c-17.3-7.3-32.9-17.8-46.3-31.2c-13.4-13.4-23.9-28.9-31.2-46.3
				c-7.6-17.9-11.4-37-11.4-56.7c0-19.7,3.8-38.7,11.4-56.7C23.7,75.6,34.2,60,47.5,46.6c13.4-13.4,28.9-23.9,46.3-31.2
				C111.7,7.8,130.8,4,150.5,4c19.7,0,38.7,3.8,56.7,11.4c17.3,7.3,32.9,17.8,46.3,31.2c13.4,13.4,23.9,28.9,31.2,46.3
				c7.6,17.9,11.4,37,11.4,56.7c0,19.7-3.8,38.7-11.4,56.7c-7.3,17.3-17.8,32.9-31.2,46.3c-13.4,13.4-28.9,23.9-46.3,31.2
				C189.2,291.3,170.1,295.1,150.5,295.1z M150.5,4.4c-19.6,0-38.6,3.8-56.5,11.4c-17.3,7.3-32.8,17.8-46.1,31.1S24,75.8,16.7,93
				C9.1,110.9,5.3,130,5.3,149.6c0,19.6,3.8,38.6,11.4,56.5c7.3,17.3,17.8,32.8,31.1,46.1S76.7,276,94,283.3
				c17.9,7.6,36.9,11.4,56.5,11.4c19.6,0,38.6-3.8,56.5-11.4c17.3-7.3,32.8-17.8,46.1-31.1s23.8-28.9,31.1-46.1
				c7.6-17.9,11.4-36.9,11.4-56.5c0-19.6-3.8-38.6-11.4-56.5c-7.3-17.3-17.8-32.8-31.1-46.1S224.3,23.1,207,15.8
				C189.1,8.2,170.1,4.4,150.5,4.4z"/>
		</g>
		<g>
			<path class="st0" d="M150.5,284c-18.1,0-35.7-3.6-52.3-10.6c-16-6.8-30.4-16.5-42.7-28.8c-12.3-12.3-22-26.7-28.8-42.7
				c-7-16.6-10.6-34.2-10.6-52.3c0-18.1,3.6-35.7,10.6-52.3c6.8-16,16.5-30.4,28.8-42.7c12.3-12.3,26.7-22,42.7-28.8
				c16.6-7,34.2-10.6,52.3-10.6c18.1,0,35.7,3.6,52.3,10.6c16,6.8,30.4,16.5,42.7,28.8c12.3,12.3,22,26.7,28.8,42.7
				c7,16.6,10.6,34.2,10.6,52.3c0,18.1-3.6,35.7-10.6,52.3c-6.8,16-16.5,30.4-28.8,42.7c-12.3,12.3-26.7,22-42.7,28.8
				C186.2,280.4,168.6,284,150.5,284z M150.5,15.5c-18.1,0-35.6,3.5-52.2,10.5c-16,6.8-30.3,16.4-42.6,28.7
				C43.4,67.1,33.7,81.4,27,97.4c-7,16.5-10.5,34.1-10.5,52.2c0,18.1,3.5,35.6,10.5,52.2c6.8,16,16.4,30.3,28.7,42.6
				c12.3,12.3,26.6,22,42.6,28.7c16.5,7,34.1,10.5,52.2,10.5c18.1,0,35.6-3.5,52.2-10.5c16-6.8,30.3-16.4,42.6-28.7
				c12.3-12.3,22-26.6,28.7-42.6c7-16.5,10.5-34.1,10.5-52.2c0-18.1-3.5-35.6-10.5-52.2c-6.8-16-16.4-30.3-28.7-42.6
				c-12.3-12.3-26.6-22-42.6-28.7C186.1,19.1,168.6,15.5,150.5,15.5z"/>
		</g>
		<g>
			<defs>
				
					<ellipse id="SVGID_1_" transform="matrix(0.2308 -0.973 0.973 0.2308 64.0605 173.7455)" cx="141.9" cy="46.4" rx="7.3" ry="7.3"/>
			</defs>
			<clipPath id="SVGID_2_">
				<use xlink:href="#SVGID_1_"  style="overflow:visible;"/>
			</clipPath>
			<g class="st3">
				
					<ellipse transform="matrix(0.225 -0.9744 0.9744 0.225 64.8231 174.2085)" class="st0" cx="141.9" cy="46.4" rx="9.8" ry="9.8"/>
			</g>
			<g class="st4">
				<g>
					<path class="st5" d="M141.9,56.1C141.9,56.1,141.9,56.1,141.9,56.1C141.9,56.1,141.8,56.1,141.9,56.1L141.9,56.1z"/>
				</g>
				<g>
					<path class="st6" d="M147.6,53.2c-0.1-1.9-1.2-3.1-2-3c-0.8,0.1-2.6-0.2-2.6-0.2c-0.1-0.3-0.2-0.7-0.1-1
						c0.8-0.5,1.5-1.8,1.6-3.2c0.2,0,0.4-0.3,0.5-0.6c0.1-0.4,0-0.7-0.2-0.8c-0.1,0-0.2,0-0.3,0c0-2-0.1-3.5-2.7-3.5
						c-2.5,0-2.7,1.5-2.7,3.5c-0.1-0.1-0.1-0.1-0.2-0.1c-0.2,0-0.4,0.4-0.3,0.8c0,0.4,0.3,0.7,0.5,0.7c0,0,0.1,0,0.1,0
						c0.1,1.4,0.7,2.6,1.5,3.2c0,0.4,0,0.8-0.1,1.1c0,0-1.8,0.3-2.6,0.2c-0.8-0.1-1.9,1.1-2,3c-0.1,1.8,5.2,2.8,5.8,2.9
						C142.4,56,147.7,54.9,147.6,53.2z"/>
				</g>
			</g>
		</g>
		<g>
			<defs>
				<circle id="SVGID_3_" cx="85.6" cy="245.5" r="11.1"/>
			</defs>
			<clipPath id="SVGID_4_">
				<use xlink:href="#SVGID_3_"  style="overflow:visible;"/>
			</clipPath>
			<g class="st7">
				<circle class="st0" cx="85.6" cy="245.5" r="15"/>
			</g>
			<g class="st8">
				<g>
					<path class="st5" d="M85.6,260.3C85.6,260.3,85.5,260.3,85.6,260.3c-0.1,0-0.1,0-0.1,0H85.6z"/>
				</g>
				<g>
					<path class="st6" d="M94.3,255.8c-0.1-2.8-1.8-4.7-3-4.6c-1.2,0.1-4-0.3-4-0.3c-0.2-0.5-0.2-1-0.2-1.6c1.3-0.8,2.2-2.7,2.5-4.9
						c0.3-0.1,0.6-0.4,0.7-0.9c0.2-0.6,0-1.1-0.3-1.2c-0.1,0-0.3,0-0.4,0.1c0-3-0.1-5.4-4.1-5.4c-3.8,0-4,2.3-4.1,5.3
						c-0.1-0.1-0.2-0.1-0.3-0.1c-0.4,0-0.6,0.6-0.5,1.2c0.1,0.6,0.4,1.1,0.8,1c0,0,0.1,0,0.1,0c0.2,2.2,1.1,4,2.3,4.9
						c0.1,0.6,0.1,1.2-0.2,1.7c0,0-2.8,0.4-4,0.3c-1.2-0.1-2.9,1.7-3,4.6c-0.1,2.7,8,4.3,8.8,4.5C86.3,260.1,94.4,258.5,94.3,255.8z
						"/>
				</g>
			</g>
		</g>
		<g>
			<defs>
				
					<ellipse id="SVGID_5_" transform="matrix(0.1608 -0.987 0.987 0.1608 99.5347 362.3601)" cx="262.9" cy="122.6" rx="8.2" ry="8.2"/>
			</defs>
			<clipPath id="SVGID_6_">
				<use xlink:href="#SVGID_5_"  style="overflow:visible;"/>
			</clipPath>
			<g class="st9">
				
					<ellipse transform="matrix(0.1778 -0.9841 0.9841 0.1778 95.424 359.5072)" class="st0" cx="262.9" cy="122.6" rx="11.1" ry="11.1"/>
			</g>
			<g class="st10">
				<g>
					<path class="st5" d="M262.9,133.7C262.9,133.7,262.8,133.7,262.9,133.7C262.8,133.7,262.8,133.7,262.9,133.7L262.9,133.7z"/>
				</g>
				<g>
					<path class="st6" d="M269.3,130.3c-0.1-2.1-1.4-3.5-2.3-3.4c-0.9,0.1-2.9-0.2-2.9-0.2c-0.2-0.3-0.2-0.8-0.1-1.2
						c1-0.6,1.7-2,1.8-3.6c0.2,0,0.4-0.3,0.5-0.7c0.1-0.4,0-0.8-0.2-0.9c-0.1,0-0.2,0-0.3,0.1c0-2.3-0.1-4-3-4c-2.8,0-3,1.7-3,3.9
						c-0.1-0.1-0.2-0.1-0.3-0.1c-0.3,0-0.4,0.4-0.4,0.9s0.3,0.8,0.6,0.8c0,0,0.1,0,0.1,0c0.2,1.6,0.8,3,1.7,3.6c0,0.4,0,0.9-0.1,1.3
						c0,0-2.1,0.3-2.9,0.2c-0.9-0.1-2.2,1.3-2.3,3.4c-0.1,2,5.9,3.2,6.5,3.3C263.4,133.5,269.4,132.3,269.3,130.3z"/>
				</g>
			</g>
		</g>
		<g>
			<path class="st6" d="M46.3,191.3c0,1.9-1.6,3.5-3.5,3.5c-1.9,0-3.5-1.6-3.5-3.5c0-1.9,1.6-3.5,3.5-3.5
				C44.8,187.9,46.3,189.4,46.3,191.3z"/>
		</g>
		<g>
			<path class="st6" d="M269.5,158.1c0,1.9-1.6,3.5-3.5,3.5c-1.9,0-3.5-1.6-3.5-3.5c0-1.9,1.6-3.5,3.5-3.5
				C267.9,154.6,269.5,156.2,269.5,158.1z"/>
		</g>
		<g>
			<path class="st6" d="M184.1,40.1c-0.7,0.9-2.1,1.1-3.1,0.3c-0.9-0.7-1.1-2.1-0.3-3.1c0.7-0.9,2.1-1.1,3.1-0.3
				C184.7,37.8,184.9,39.2,184.1,40.1z"/>
		</g>
		<g>
			<path class="st6" d="M172.9,250.2c0.2,1.2-0.6,2.3-1.8,2.5s-2.3-0.6-2.5-1.8c-0.2-1.2,0.6-2.3,1.8-2.5
				C171.5,248.2,172.7,249,172.9,250.2z"/>
		</g>
		<g>
			<path class="st6" d="M134.3,282.1c0.2,1.2-0.6,2.3-1.8,2.5c-1.2,0.2-2.3-0.6-2.5-1.8c-0.2-1.2,0.6-2.3,1.8-2.5
				C132.9,280.2,134,281,134.3,282.1z"/>
		</g>
		<g>
			<path class="st6" d="M284.6,174.2c0.2,1.2-0.6,2.3-1.8,2.5c-1.2,0.2-2.3-0.6-2.5-1.8c-0.2-1.2,0.6-2.3,1.8-2.5
				C283.3,172.2,284.4,173,284.6,174.2z"/>
		</g>
		<g>
			<path class="st6" d="M65.2,46c0.2,1.2-0.6,2.3-1.8,2.5c-1.2,0.2-2.3-0.6-2.5-1.8c-0.2-1.2,0.6-2.3,1.8-2.5
				C63.9,44,65,44.8,65.2,46z"/>
		</g>
	</g>
	<g>
		<defs>
			<circle id="SVGID_7_" cx="16.9" cy="129.6" r="5.4"/>
		</defs>
		<clipPath id="SVGID_8_">
			<use xlink:href="#SVGID_7_"  style="overflow:visible;"/>
		</clipPath>
		<g class="st11">
			<circle class="st0" cx="16.9" cy="129.6" r="7.3"/>
		</g>
		<g class="st12">
			<g>
				<path class="st5" d="M16.9,136.8C16.9,136.8,16.9,136.8,16.9,136.8C16.8,136.8,16.8,136.8,16.9,136.8L16.9,136.8z"/>
			</g>
			<g>
				<path class="st6" d="M21.1,134.6c-0.1-1.4-0.9-2.3-1.5-2.2c-0.6,0.1-1.9-0.1-1.9-0.1c-0.1-0.2-0.1-0.5-0.1-0.8
					c0.6-0.4,1.1-1.3,1.2-2.4c0.1,0,0.3-0.2,0.4-0.4c0.1-0.3,0-0.6-0.1-0.6c-0.1,0-0.1,0-0.2,0c0-1.5,0-2.6-2-2.6
					c-1.8,0-2,1.1-2,2.6c-0.1,0-0.1-0.1-0.2-0.1c-0.2,0-0.3,0.3-0.2,0.6c0,0.3,0.2,0.5,0.4,0.5c0,0,0,0,0.1,0
					c0.1,1.1,0.5,1.9,1.1,2.4c0,0.3,0,0.6-0.1,0.8c0,0-1.3,0.2-1.9,0.1s-1.4,0.8-1.5,2.2c-0.1,1.3,3.9,2.1,4.3,2.2
					C17.2,136.7,21.2,136,21.1,134.6z"/>
			</g>
		</g>
	</g>
	<path class="st13" d="M246,152.4c0-52-42.1-94.1-94.1-94.1s-94.1,42.1-94.1,94.1c0,22.7,8,43.5,21.4,59.8h145.4
		C238,195.9,246,175.1,246,152.4z"/>
	<g>
		<g>
			<defs>
				<path id="XMLID_32_" d="M220.9,171.9c-5.4-13.3-11.6-15.8-11.6-15.8s0.2-0.3,0.5-0.7c2.5,1.1,4.7,3.1,6.1,5.4
					c0.1,0.2,0.4,0,0.3-0.2c-1.4-2.3-3.6-4.4-6.2-5.5c0.1-0.2,0.3-0.4,0.4-0.7c1.9,0.4,3.8,1.1,5.5,2c0.2,0.1,0.4-0.2,0.2-0.3
					c-1.7-0.9-3.6-1.6-5.5-2c3.4-5.5,10.6-20.8-10.6-22.6c1.3-1.4,3.2-2.3,5-3c0.2-0.1,0.1-0.4-0.1-0.3c-1.8,0.6-3.6,1.5-5,2.9
					c0.2-0.9,0.5-1.9,0.9-2.7c0.1-0.2-0.2-0.3-0.3-0.1c-0.4,1-0.7,2-0.9,3c-0.3-0.3-1.1-1-2.2-1.9c-0.6-0.9-1.2-1.7-1.9-2.4
					c-3.6-3.7-8.7-5-13.8-4.5c-0.1,0-0.1,0.1-0.1,0.1c-3,0-6.2,0.9-9,3.3c-3.6,3-4.1,7.5-3.2,11.9c0.1,0.7,0.2,1.4,0.3,1.8
					c0.5,3.3,2,6.4,3.7,9.2c-2.2,0.4-6.1,1.7-5.3,6.3c1.1,6.4,6.4,14.4,0.1,15.3c-6.2,0.8-9.2,15.1,12.8,28.4
					c22,13.3,43,0.7,34.3-9.8C215.2,189.1,226.3,185.3,220.9,171.9z M170.1,140.9c1.1,3.3,2.9,6.2,4.5,7.9c0,0-0.4,0-1,0.1
					C172,146.4,170.7,143.7,170.1,140.9z M195.2,127.5c0.4,0.4,0.8,0.8,1.1,1.3c-3.1-2.3-7.9-5.3-13.1-5.9
					C187.7,122.8,192.1,124.1,195.2,127.5z"/>
			</defs>
			<use xlink:href="#XMLID_32_"  style="overflow:visible;fill:#0776F4;"/>
			<clipPath id="XMLID_3_">
				<use xlink:href="#XMLID_32_"  style="overflow:visible;"/>
			</clipPath>
			<path class="st14" d="M199.8,149.4c0,0-2.4,1.2-2.9,2.3c-0.5,1.1,0.6,8,0.6,8l14,11.1c0,0,3.8,28.8-5.5,36.6
				c-9.3,7.8-43.7-27.3-43.7-27.3l9.8-12.4l9.1-2.9l1.6-6.7c0,0-9.8-4.6-1.9-20.5c7.9-15.9,0,0,0,0L199.8,149.4"/>
			<path class="st15" d="M182.1,135.1l-4.9-0.9c0,0,1.8,2.7,6.7,1.6C188.8,134.7,182.1,135.1,182.1,135.1"/>
		</g>
		<g>
			<defs>
				<path id="XMLID_31_" d="M181.7,168.4l-2-3.5c0,0-5.8,0.6-7.9,3c-2.1,2.5-15.5,26.9-15.5,26.9s-5.8,2.7-10.5,5.1
					c1.2,0.7,2.5,2.1,3.3,4.7c4.2-1.5,9.6-3.8,11.6-5.2c0,0,12.9-9.9,14.3-16.5S181.7,168.4,181.7,168.4z"/>
			</defs>
			<use xlink:href="#XMLID_31_"  style="overflow:visible;fill:#F2B285;"/>
			<clipPath id="XMLID_4_">
				<use xlink:href="#XMLID_31_"  style="overflow:visible;"/>
			</clipPath>
			<path class="st16" d="M169,193c0,0-5.3-4.2,2.9-15.1c7.5-9.9,6.2,3.1,6.2,3.1l-5.5,11.9L169,193z"/>
		</g>
		<path class="st17" d="M145.8,199.8c-5.9,2.9-12.7,6.3-13.1,6.5c-0.7,0.4-6.3-1.4-7-1.1c-0.7,0.4-4.6,2.5-6,2.8
			c-1.4,0.4,3.5,1.1,5.6,0c2.1-1.1,2.8,1.1,4.6,1.4c1.8,0.4,2.8,0.7,3.9,0c0,0,8.1-2.2,15.4-4.9C148.3,201.9,147,200.6,145.8,199.8z
			"/>
		<g>
			<defs>
				<path id="XMLID_30_" d="M185.3,156.1c0,0,1.1,3.9-3.5,8.4l-2.5,4.6l5.3,6l5.3,1.8l11.2-13l-4.9-3.2l-1.4-14.4L185.3,156.1z"/>
			</defs>
			<use xlink:href="#XMLID_30_"  style="overflow:visible;fill:#FDBA8D;"/>
			<clipPath id="XMLID_5_">
				<use xlink:href="#XMLID_30_"  style="overflow:visible;"/>
			</clipPath>
			<path class="st18" d="M184.6,158.6c0,0,9.8-0.4,10-6.4C194.8,146.2,183.5,156.2,184.6,158.6z"/>
		</g>
		<g>
			<defs>
				<path id="XMLID_29_" d="M183.6,162.4c0,0,2.1,6,12.6-1.7c0,0,6.6,3.5,8.4,4.6c4,2.4,4.8,2,5.9,5.9l-9.3,30.9l3.2,12.3l-33.7,0.1
					l3-13.7c0.3-3.4-1-6.7-3.5-9.1c-4.8-4.7,1.6-12.4,6.7-26.4C177.2,164.1,183.6,162.4,183.6,162.4z"/>
			</defs>
			<use xlink:href="#XMLID_29_"  style="overflow:visible;fill:#FD4471;"/>
			<clipPath id="XMLID_6_">
				<use xlink:href="#XMLID_29_"  style="overflow:visible;"/>
			</clipPath>
			<path class="st19" d="M200.8,176.8c0,0-6,7.8-5.3,22.6c0,0-18.5,6.4-26.3,6c-7.8-0.4,1,5.4,1,5.4s22.2,1.7,32.4-5.4
				C212.7,198.3,200.8,176.8,200.8,176.8"/>
		</g>
		<path class="st20" d="M170.8,206.1l-8.7-3.7l-3.6-2.7c-0.2-0.2-0.5-0.3-0.8-0.2l-4.2,0.4c-0.2,0-0.3,0.1-0.5,0.2
			c-0.7,0.6-3.1,2.4-2.5,2.4c0.7,0,2.1-0.4,3.2-1.1c0,0,3.2,0,3.5-0.4c0,0,1.4,1.4,2.1,1.8c0.7,0.4,0.4,0,0.4,0l-4.7,1.4
			c-0.2,0.1-0.5,0.2-0.6,0.4c-0.6,0.9-2.2,3.2-2.8,3.8c0,0,1.8,0.7,3.2-1.4c1.4-2.1,5.3-2.1,5.6-1.8c0,0-4.9,2.8-6.3,5.6
			c0,0,0.7,1.7,1.8,0.4c2.1-2.7,4.9-3.5,6-3.9l-2,2.3c-0.3,0.3-0.2,0.7,0.1,1l1.9,1.7c0,0,0.4-1.4-0.4-2.1l1.8-1.8
			c0,0,1.9,3.9,7.6,1.6V206.1z"/>
		<path class="st20" d="M186.1,203.4c-7.5,1.6-15.9,2.9-15.9,2.9l0.2,3.7c7.7,0.2,13.9-0.3,18.7-1
			C188.9,206.1,187.5,204.4,186.1,203.4z"/>
		<path class="st20" d="M209,167.9c-4.5-2-8.4,8.8-8.4,8.8c-4.9,10.2-3.7,23.5-3.7,23.5c-1.6,1-6,2.1-10.7,3c1.4,1,2.8,2.7,3,5.6
			c10.1-1.5,14.4-4.1,14.4-4.1C207.8,198.6,213.5,169.9,209,167.9z"/>
		<g>
			<defs>
				<path id="XMLID_28_" d="M187.2,129.6c0,0-9.8,7.3-8.5,18.6c0.6,5.1,1.8,6.8,3.8,8.3c2.4,1.8,10.6,0.7,12.7-3.4l1.1-3.3
					c0,0,2,1.8,4-0.9c2-2.7,1.6-6.9-1.3-4.9l1.8-5.3l-1.8-4.7L187.2,129.6z"/>
			</defs>
			<use xlink:href="#XMLID_28_"  style="overflow:visible;fill:#FDBA8D;"/>
			<clipPath id="XMLID_7_">
				<use xlink:href="#XMLID_28_"  style="overflow:visible;"/>
			</clipPath>
			<path class="st21" d="M180.2,135.6c0,0,3.7,1.5,7-4.9c0,0,0.9,10.4,7.8,10.2l-2-1.8c0,0,0.8,7.3,5.4,4.7
				c4.6-2.7-9.4-16.6-9.4-16.6l-9.3,3.3L180.2,135.6"/>
		</g>
		<path class="st22" d="M200.8,134.4l-7.1-3.5l-10-2.4c0,0-12.2,4.2-6.7,6.7c4.9,2.1,9-2.7,10-3.9c-0.1,1.5,0,3.9,1.4,5.9
			c1.2,1.7,3.1,2.9,5.6,3.5c-0.1,3.4,4,4.1,4,4.1l1.8-1.3l3.5-1.1L200.8,134.4z M188.6,137c-0.8-1.2-1.2-2.5-1.3-3.7
			c1.1,4.1,6.8,7,6.8,7c0,0,0,0.1,0,0.1C191.6,139.8,189.8,138.6,188.6,137z"/>
		<path class="st23" d="M194.1,127.2c0,0,2.7-1.2,5.3,4.1c0,0,3.3,7.8,0,14.9h-0.7C198.8,146.2,200.1,133.1,194.1,127.2z"/>
		<circle class="st24" cx="199.4" cy="146.9" r="3.1"/>
		<path class="st23" d="M188.3,144.3c-0.2,0.7-0.5,1.2-0.8,1.2c-0.2-0.1-0.3-0.7-0.1-1.4c0.2-0.7,0.5-1.2,0.8-1.2
			C188.5,143,188.5,143.6,188.3,144.3z"/>
		<path class="st23" d="M182.3,143.1c-0.1,0.7-0.3,1.3-0.6,1.3c-0.2,0-0.4-0.6-0.3-1.4s0.3-1.3,0.6-1.3
			C182.3,141.8,182.4,142.4,182.3,143.1z"/>
		<path class="st25" d="M181.7,152.2c0,0,4.1,1.2,7.3-2c0,0,0,3.8-5.3,4.4C183.7,154.5,182.9,154.5,181.7,152.2z"/>
		<path class="st22" d="M181.1,139.7c0.1-0.2,0.2-0.4,0.3-0.6c0.1-0.2,0.3-0.3,0.5-0.4c0.2-0.1,0.4-0.2,0.7-0.1
			c0.1,0,0.2,0.1,0.3,0.1c0.1,0.1,0.2,0.1,0.3,0.2l0,0c-0.1,0-0.2,0-0.3,0c-0.1,0-0.2,0-0.3,0c-0.1,0-0.2,0-0.3,0
			c-0.1,0-0.2,0-0.3,0c-0.2,0-0.3,0.1-0.5,0.2C181.4,139.4,181.2,139.5,181.1,139.7L181.1,139.7z"/>
		<path class="st22" d="M190,139.7c-0.1-0.2-0.2-0.4-0.3-0.6c-0.1-0.2-0.3-0.3-0.5-0.4c-0.2-0.1-0.4-0.2-0.7-0.1
			c-0.1,0-0.2,0.1-0.3,0.1c-0.1,0.1-0.2,0.1-0.3,0.2l0,0c0.1,0,0.2,0,0.3,0c0.1,0,0.2,0,0.3,0c0.1,0,0.2,0,0.3,0c0.1,0,0.2,0,0.3,0
			c0.2,0,0.3,0.1,0.5,0.2C189.7,139.4,189.9,139.5,190,139.7L190,139.7z"/>
		<path class="st26" d="M183.5,149.4c0,0-3-1.2-2.3-1.6c0.6-0.4,1.8-2.4,2.4-3.5c0.1-0.1,0.3-0.1,0.3,0
			C183.9,145.5,184,147.9,183.5,149.4z"/>
		<g>
			<circle class="st23" cx="199.4" cy="146.9" r="1.3"/>
			<g>
				<path class="st23" d="M196.6,153.3h-10v-0.5h9.8c0.4-0.8,2.5-4.8,2.7-5.3l0.4,0.2c-0.2,0.5-2.7,5.2-2.8,5.4L196.6,153.3z"/>
			</g>
			<ellipse class="st23" cx="186.1" cy="153" rx="1.3" ry="0.6"/>
		</g>
		<path class="st27" d="M228.5,215.2H75.6c-1.1,0-2-0.9-2-2l0,0c0-1.1,0.9-2,2-2h152.9c1.1,0,2,0.9,2,2l0,0
			C230.5,214.3,229.6,215.2,228.5,215.2z"/>
		<g>
			<defs>
				<path id="XMLID_27_" d="M85.6,162.6l1.3,38c0.1,2.4,2,4.2,4.4,4.2h54.6c2.5,0,4.5-2.1,4.4-4.5l-1.3-38c-0.1-2.4-2-4.2-4.4-4.2
					H89.9C87.5,158.1,85.5,160.2,85.6,162.6z"/>
			</defs>
			<use xlink:href="#XMLID_27_"  style="overflow:visible;fill:#808BC2;"/>
			<clipPath id="XMLID_8_">
				<use xlink:href="#XMLID_27_"  style="overflow:visible;"/>
			</clipPath>
			<path class="st28" d="M122,187.5c0,0-4.2,16.4,0,21.1c4.2,4.7-23.3-1.8-23.3-1.8s3.8-13.5,14.2-19.3c10.4-5.8,0,0,0,0l4.9,3.1
				L122,187.5"/>
		</g>
		<path class="st29" d="M112.9,187.5h9.1c0,0-13.8,22.2-1.4,23.7h-19C101.6,211.2,97.8,202.3,112.9,187.5z"/>
		<path class="st25" d="M116,172c0-0.4,0.1-0.8,0.2-1.2c-0.1,0-0.1,0-0.2,0c-2.6,0-4.7,2.1-4.7,4.7c0,2.6,2.1,4.7,4.7,4.7
			c2.4,0,4.4-1.9,4.7-4.2c-0.2,0-0.4,0.1-0.7,0.1C117.8,176,116,174.2,116,172z"/>
	</g>
	<g>
		<defs>
			
				<ellipse id="SVGID_9_" transform="matrix(3.076482e-02 -0.9995 0.9995 3.076482e-02 -26.6823 168.923)" cx="73.8" cy="98.2" rx="46.2" ry="46.2"/>
		</defs>
		<use xlink:href="#SVGID_9_"  style="overflow:visible;fill:#739FE0;"/>
		<clipPath id="SVGID_10_">
			<use xlink:href="#SVGID_9_"  style="overflow:visible;"/>
		</clipPath>
		
			<ellipse transform="matrix(0.7071 -0.7071 0.7071 0.7071 -47.8479 80.9241)" class="st30" cx="73.8" cy="98.2" rx="56.2" ry="56.2"/>
		<g class="st31">
			<path class="st32" d="M68.9,102.1c0,0-12,0-16.3,2.1c-4.2,2.1-6.3,7.5-5.4,11.1c0.9,3.6-3.9,12.6,1.2,17.5
				c4.6,4.3,8.2,3.8,9.8,3.2c0.2-0.1,0.3-0.1,0.5-0.2c1.2-0.6,0,16,0,16s30.4,1.8,32.2,0c1.8-1.8,2.4-39.7-1.8-44s-16-5.7-16-5.7
				H68.9z"/>
			<g>
				<defs>
					<path id="XMLID_26_" d="M67.9,91.4l-0.5,10.7l9.9,6.6c0.4,0.2,0.9,0,1-0.4l1.6-8.7l-9.6-11.7L67.9,91.4z"/>
				</defs>
				<use xlink:href="#XMLID_26_"  style="overflow:visible;fill:#F7B59C;"/>
				<clipPath id="XMLID_9_">
					<use xlink:href="#XMLID_26_"  style="overflow:visible;"/>
				</clipPath>
				<path class="st33" d="M67.1,98.2c0,0,1.5,1.2,2.7,0c0,0,6.9,11.7,12.9,9.6c6-2.1-6.3-11.7-6.3-11.7l-6.3-4.8L66.5,94L67.1,98.2z
					"/>
			</g>
			<path class="st34" d="M68.5,87.5c4.8-0.3,5.4-8.1,5.4-9s7.5-3.3,9.3-2.4c1.7,0.9,2.2,6.4,2.3,6.8c2.6-1.6,5-7.3,3.8-10.7
				c-1.5-4.2-3.3-2.7-4.5-1.8c-1.2,0.9-1.2-3.3-7.5-6.9c-6.3-3.6,0.9,4.2-6.6,3.6c-7.5-0.6-8.1,6.9-8.1,6.9c-3.9,0-6.6,3.3-3.6,6.6
				c3,3.3,0.6,3.6,0,6.6c-0.3,1.6,2.7,2.2,5.7,2.5C65.4,88.6,66.7,87.6,68.5,87.5z"/>
			<path class="st35" d="M76.3,92c5.5,2.4,10.7-0.4,12.5-1.6c-1.3-2.1-2.5-4.2-2.6-6.2c-0.1-1-0.2-1.9-0.4-2.7c0,0,0.1,0,0.1,0
				c-0.1-0.4-1-4.5-2.7-5.4c-1.8-0.9-9.3,1.5-9.3,2.4c0,0.7-0.4,5.8-3,8C71.9,88.7,73.5,90.8,76.3,92z"/>
			<path class="st34" d="M88.9,90.4c-1.8,1.2-7,4-12.5,1.6c-2.8-1.2-4.4-3.4-5.4-5.5c-0.7,0.6-1.5,1-2.5,1c-1.8,0.1-3.1,1.1-3.9,2.2
				c2.7,0.3,5.4,0.2,5.4,0.2c1.5,17.2,19.6,16,22.6,11.4C94.5,98.4,91.4,94.4,88.9,90.4z"/>
			
				<rect x="59" y="86" transform="matrix(-0.9985 -5.546491e-02 5.546491e-02 -0.9985 126.8054 182.719)" class="st36" width="13.9" height="7.1"/>
			<path class="st35" d="M58.3,98.4c0,0,0-9.3,1.5-10.5c1.5-1.2,5.1-5.7,6.9-4.5s0.9,1.8,2.1,2.4c1.2,0.6,0.6,1.5,1.5,2.1
				c0.9,0.6,2.1,3,1.5,3s-2.7,0-2.7,0s-4.2,7.8-6,7.5l-0.3,1.2h-4.5V98.4z"/>
			<path class="st35" d="M62.6,99.4c0,0,0.6,29.8-2.1,31.6c-2.7,1.8-9.9-0.3-8.4-6.3c1.5-6,6.9-28,6.9-28L62.6,99.4z"/>
			<path class="st37" d="M76.5,94c0,0,5.3,1.6,7.7,1c0.2,0,0.4,0.1,0.3,0.3c-0.3,0.7-0.7,2.1-0.7,2.5C83.7,98.5,78.3,97.6,76.5,94z"
				/>
			<path class="st38" d="M82.4,85c0,0,7,4.2,5.1,6.1c-1.9,1.8-3.4,1.5-3.4,1.5S81.7,86,82.4,85z"/>
			<path class="st39" d="M76.5,86.5c0-0.4,0.1-0.8,0.3-1.1c0.2-0.3,0.6-0.6,1.1-0.6c0.4,0,0.8,0.1,1.1,0.3c0.2,0.1,0.3,0.2,0.4,0.3
				c0.1,0.1,0.2,0.3,0.4,0.4c-0.2,0-0.3-0.1-0.5-0.2c-0.2-0.1-0.3-0.1-0.5-0.2c-0.3-0.1-0.6-0.2-0.9-0.1c-0.3,0-0.5,0.1-0.8,0.3
				C76.9,85.9,76.7,86.2,76.5,86.5z"/>
			<path class="st39" d="M86.3,83.6c-0.1-0.3-0.3-0.5-0.6-0.7c-0.3-0.2-0.7-0.2-1-0.1c-0.3,0.1-0.5,0.4-0.7,0.6
				c-0.1,0.1-0.1,0.3-0.2,0.4c0,0.1-0.1,0.3-0.1,0.4c0.1-0.1,0.2-0.2,0.3-0.3c0.1-0.1,0.2-0.2,0.3-0.3c0.2-0.2,0.4-0.3,0.6-0.4
				c0.2-0.1,0.4-0.1,0.7,0C85.7,83.3,86,83.4,86.3,83.6z"/>
			<g>
				<path class="st34" d="M74.9,84.1c0.1-0.5,0.3-1,0.6-1.4c0.8-1.1,2-1.2,3.3-1c0.6,0.1,0.7-0.8,0.1-0.9c-1.5-0.3-3-0.1-4,1.1
					c-0.5,0.6-0.8,1.3-0.9,2C73.9,84.6,74.8,84.7,74.9,84.1L74.9,84.1z"/>
			</g>
			<g>
				<path class="st34" d="M82.6,80.4c0.3-0.2,0.7-0.4,1.1-0.4c1.1-0.2,1.9,0.5,2.4,1.4c0.3,0.4,0.9,0,0.6-0.4
					c-0.6-1-1.6-1.8-2.9-1.7c-0.6,0-1.2,0.3-1.7,0.6C81.8,80.1,82.2,80.7,82.6,80.4L82.6,80.4z"/>
			</g>
		</g>
	</g>
	<g>
		<g>
			<defs>
				<path id="XMLID_25_" d="M177.6,52h82.6c1.4,0,2.6,1.2,2.6,2.6v20.8c0,0.9-0.4,1.7-1.1,2.2l-13.2,8.9c-0.7,0.5-1.6-0.2-1.3-1
					l2.6-8.7h-72.2c-1.4,0-2.6-1.2-2.6-2.6V54.6C175,53.2,176.2,52,177.6,52z"/>
			</defs>
			<use xlink:href="#XMLID_25_"  style="overflow:visible;fill:#AE72AF;"/>
			<clipPath id="XMLID_10_">
				<use xlink:href="#XMLID_25_"  style="overflow:visible;"/>
			</clipPath>
			<polygon class="st40" points="245.5,79.3 248.4,76.8 257,76.8 246,82.9 			"/>
		</g>
		<path class="st25" d="M185,58.7h69c0.6,0,1.1-0.5,1.1-1.1l0,0c0-0.6-0.5-1.1-1.1-1.1h-69c-0.6,0-1.1,0.5-1.1,1.1l0,0
			C183.9,58.2,184.4,58.7,185,58.7z"/>
		<path class="st25" d="M185,64.3h69c0.6,0,1.1-0.5,1.1-1.1l0,0c0-0.6-0.5-1.1-1.1-1.1h-69c-0.6,0-1.1,0.5-1.1,1.1l0,0
			C183.9,63.8,184.4,64.3,185,64.3z"/>
		<path class="st25" d="M220.1,69.9l34.4,0c0.3,0,0.6-0.3,0.6-0.6v-1c0-0.3-0.3-0.6-0.6-0.6h-34.4c-0.3,0-0.6,0.3-0.6,0.6v1
			C219.5,69.6,219.8,69.9,220.1,69.9z"/>
	</g>
	<g>
		<defs>
			<path id="XMLID_24_" d="M143.5,258.1h17.2c0.6,0,1.1,0.5,1.1,1.1v9.1c0,0.4-0.2,0.7-0.5,0.9l-5.7,3.9c-0.3,0.2-0.7-0.1-0.6-0.4
				l1.1-3.8h-12.7c-0.6,0-1.1-0.5-1.1-1.1v-8.5C142.4,258.6,142.9,258.1,143.5,258.1z"/>
		</defs>
		<use xlink:href="#XMLID_24_"  style="overflow:visible;fill:#739FE0;"/>
		<clipPath id="XMLID_11_">
			<use xlink:href="#XMLID_24_"  style="overflow:visible;"/>
		</clipPath>
	</g>
	<g>
		<defs>
			<path id="XMLID_23_" d="M265.9,89.8h10.5c0.4,0,0.7,0.3,0.7,0.7V96c0,0.2-0.1,0.4-0.3,0.6l-3.5,2.4c-0.2,0.1-0.4-0.1-0.4-0.3
				l0.7-2.3h-7.7c-0.4,0-0.7-0.3-0.7-0.7v-5.2C265.2,90.1,265.5,89.8,265.9,89.8z"/>
		</defs>
		<use xlink:href="#XMLID_23_"  style="overflow:visible;fill:#739FE0;"/>
		<clipPath id="XMLID_12_">
			<use xlink:href="#XMLID_23_"  style="overflow:visible;"/>
		</clipPath>
	</g>
	<g>
		<g>
			<defs>
				<path id="XMLID_22_" d="M234.7,81.1h-89.9c-1.6,0-2.8,1.3-2.8,2.8v22.7c0,0.9,0.5,1.8,1.3,2.4l14.4,9.7c0.7,0.5,1.7-0.2,1.5-1.1
					l-2.9-9.5h78.5c1.6,0,2.8-1.3,2.8-2.8V83.9C237.5,82.4,236.3,81.1,234.7,81.1z"/>
			</defs>
			<use xlink:href="#XMLID_22_"  style="overflow:visible;fill:#F5B847;"/>
			<clipPath id="XMLID_13_">
				<use xlink:href="#XMLID_22_"  style="overflow:visible;"/>
			</clipPath>
			<polygon class="st41" points="160.8,110.8 157.6,108.1 148.4,108.1 160.3,114.7 			"/>
		</g>
		<path class="st25" d="M226.7,88.3h-75.1c-0.7,0-1.2-0.5-1.2-1.2l0,0c0-0.7,0.5-1.2,1.2-1.2h75.1c0.7,0,1.2,0.5,1.2,1.2l0,0
			C227.9,87.8,227.3,88.3,226.7,88.3z"/>
		<path class="st25" d="M226.7,94.4h-75.1c-0.7,0-1.2-0.5-1.2-1.2l0,0c0-0.7,0.5-1.2,1.2-1.2h75.1c0.7,0,1.2,0.5,1.2,1.2l0,0
			C227.9,93.9,227.3,94.4,226.7,94.4z"/>
		<path class="st25" d="M188.5,100.6H151c-0.4,0-0.7-0.3-0.7-0.7v-1.1c0-0.4,0.3-0.7,0.7-0.7h37.4c0.4,0,0.7,0.3,0.7,0.7v1.1
			C189.1,100.3,188.8,100.6,188.5,100.6z"/>
	</g>
	<g>
		<defs>
			
				<ellipse id="SVGID_11_" transform="matrix(0.7071 -0.7071 0.7071 0.7071 -100.9999 235.7248)" cx="234" cy="239.8" rx="38.3" ry="38.3"/>
		</defs>
		<clipPath id="SVGID_12_">
			<use xlink:href="#SVGID_11_"  style="overflow:visible;"/>
		</clipPath>
		
			<ellipse transform="matrix(0.7071 -0.7071 0.7071 0.7071 -100.9999 235.7248)" class="st42" cx="234" cy="239.8" rx="47.4" ry="47.4"/>
		<g class="st43">
			<g>
				<defs>
					<path id="XMLID_20_" d="M237.3,243.9c-2.9,6.7-8,12.1-12,6.8c-2.9-4-0.6-9.3,0.7-11.8c4.1-1.3,8.3-1.9,8.3-1.9h3.9
						c0,0,2.3,0,5.2,0.2C241.3,238.4,238.8,240.4,237.3,243.9z"/>
				</defs>
				<use xlink:href="#XMLID_20_"  style="overflow:visible;fill:#F7B59C;"/>
				<clipPath id="XMLID_14_">
					<use xlink:href="#XMLID_20_"  style="overflow:visible;"/>
				</clipPath>
				<path class="st44" d="M229.6,237c0,0.3-0.2,5.6-0.2,5.6l-3.2-5.5L229.6,237z"/>
			</g>
			<path class="st45" d="M219.5,242.3c1.5-1.5,4-2.6,6.5-3.4c-1.4,2.5-3.7,7.9-0.7,11.8c3.9,5.3,9.1-0.2,12-6.8
				c1.5-3.5,4-5.5,6.1-6.7c3.5,0.2,7.7,0.7,9.8,1.8c3.9,2,5.9,7,5,10.3c-0.8,3.3,3.6,11.7-1.1,16.2c-4.3,4-7.6,3.5-9.1,3
				c-0.2-0.1-0.3-0.1-0.4-0.2c-1.1-0.6,0,14.8,0,14.8s-28.1,1.7-29.8,0C216.2,281.3,215.6,246.2,219.5,242.3z"/>
			<g>
				<defs>
					<path id="XMLID_19_" d="M236.6,208.7c0,0-2.7-3.9-9.4-0.9c-6.7,3.1-15,18.1-4.6,31.5c0,0,2.2-3.2,10.3-4.1
						C240.9,234.3,236.6,208.7,236.6,208.7z"/>
				</defs>
				<use xlink:href="#XMLID_19_"  style="overflow:visible;fill:#AF73B1;"/>
				<clipPath id="XMLID_15_">
					<use xlink:href="#XMLID_19_"  style="overflow:visible;"/>
				</clipPath>
				<polygon class="st46" points="238,207.3 230.6,210.2 235.8,206.6 				"/>
				<path class="st46" d="M221.7,220c0,0-6.8,17.2,5.2,17.5C238.8,237.9,221.7,220,221.7,220"/>
			</g>
			<g>
				<defs>
					<path id="XMLID_16_" d="M239,227.2l0.4,9.9l-9.1,6.1c-0.4,0.2-0.8,0-0.9-0.4l-1.5-8l8.9-10.9L239,227.2z"/>
				</defs>
				<use xlink:href="#XMLID_16_"  style="overflow:visible;fill:#F7B59C;"/>
				<clipPath id="XMLID_17_">
					<use xlink:href="#XMLID_16_"  style="overflow:visible;"/>
				</clipPath>
				<path class="st47" d="M239.7,233.4c0,0-1.6-1.4-2.8-2.5c0,0-2.9,8.4-11.6,7.4c-5.9-0.7,5.8-6.8,5.8-6.8l5.8-4.4l3.4,2.5
					L239.7,233.4z"/>
			</g>
			<g>
				<defs>
					<path id="XMLID_1_" d="M220.4,226.4c0.2-3,1.9-8.7,1.9-8.5c0.1-0.4,0.9-4.2,2.5-5c1.7-0.8,8.6,1.4,8.6,2.2
						c0,0.7,0.4,5.4,2.7,7.4c0.6,0.5,1.4,0.9,2.3,0.9c1.7,0.1,2.8,1,3.6,2.1c-2.5,0.2-5,0.2-5,0.2c-2.2,12.3-10.2,10.9-12.6,10.6
						C222.1,236,220,231.3,220.4,226.4z"/>
				</defs>
				<use xlink:href="#XMLID_1_"  style="overflow:visible;fill:#F7B59C;"/>
				<clipPath id="XMLID_18_">
					<use xlink:href="#XMLID_1_"  style="overflow:visible;"/>
				</clipPath>
				<path class="st48" d="M227.9,212.1c0.5,0,0.6,10.8,10.6,12.6c10,1.8-3.6-10.4-3.6-10.4L227.9,212.1z"/>
			</g>
			<path class="st37" d="M230.9,230.9c0,0-4.2,1.3-6.2,0.8c-0.2,0-0.3,0.1-0.2,0.3c0.2,0.6,0.6,1.7,0.6,2.1
				C225.1,234.6,229.4,233.9,230.9,230.9z"/>
			<path class="st39" d="M230.9,224.9c0-0.3-0.1-0.6-0.2-0.9c-0.2-0.3-0.5-0.5-0.9-0.5c-0.4,0-0.7,0.1-0.9,0.3
				c-0.1,0.1-0.2,0.2-0.4,0.3c-0.1,0.1-0.2,0.2-0.3,0.3c0.1,0,0.3-0.1,0.4-0.1c0.1-0.1,0.3-0.1,0.4-0.1c0.3-0.1,0.5-0.1,0.7-0.1
				c0.2,0,0.4,0.1,0.6,0.3C230.6,224.4,230.7,224.6,230.9,224.9z"/>
			<path class="st39" d="M223,222.5c0.1-0.2,0.3-0.4,0.5-0.6c0.2-0.1,0.5-0.2,0.8-0.1c0.3,0.1,0.4,0.3,0.6,0.5
				c0.1,0.1,0.1,0.2,0.2,0.3c0,0.1,0.1,0.2,0.1,0.4c-0.1-0.1-0.2-0.2-0.3-0.2c-0.1-0.1-0.2-0.2-0.2-0.2c-0.2-0.1-0.3-0.3-0.5-0.3
				c-0.2-0.1-0.3-0.1-0.5,0C223.4,222.3,223.2,222.4,223,222.5z"/>
			<path class="st49" d="M227.9,212.8c0,0,2.9,10.1,11.2,10.9c8.3,0.9-6.8-12.3-6.8-12.3H224l-2.6,6.3
				C221.4,217.7,226.3,216.2,227.9,212.8z"/>
			<path class="st49" d="M227.9,211.4c0.2,0,8.2-4.4,11.6-3.4c3.4,1,11.1,11.8,10.1,22.6c-1,10.8-15.6,9.2-15.6,9.2
				s7.5-9.7,0.7-20.9l-5.1-4.8L227.9,211.4z"/>
			
				<rect x="234.8" y="223.4" transform="matrix(0.5767 -0.817 0.817 0.5767 -83.0728 292.9611)" class="st36" width="12.8" height="6.6"/>
			<path class="st35" d="M247.6,233.4c0,0,0-7.5-1.2-8.4c-1.2-1-4.1-4.6-5.6-3.6c-1.4,1-0.7,1.4-1.7,1.9c-1,0.5-0.5,1.2-1.2,1.7
				c-0.7,0.5-1.7,2.4-1.2,2.4c0.5,0,2.2,0,2.2,0s3.4,6.3,4.8,6l0.2,1h3.6V233.4z"/>
			<path class="st35" d="M243.5,231.9c0,0-0.1,30.2,2.4,31.9c2.5,1.7,9.2-0.3,7.8-5.9c-1.4-5.6-6.4-25.9-6.4-25.9L243.5,231.9z"/>
			<path class="st50" d="M226,228.8l-1.5-0.9c0,0,1.1-1.5,1.6-2.5c0.1-0.1,0.3-0.1,0.3,0.1C226.4,226.4,226.3,227.8,226,228.8z"/>
			<g>
				<path class="st49" d="M232,223.4c-0.4-1.2-1.3-2.1-2.5-2.4c-0.2,0-0.1-0.3,0.1-0.2c1.3,0.3,2.3,1.4,2.7,2.6
					C232.3,223.5,232,223.5,232,223.4L232,223.4z"/>
			</g>
			<g>
				<path class="st49" d="M225.5,219.6c-1-0.1-2.1,0.3-2.8,1.1c-0.1,0.1-0.3,0-0.2-0.1c0.7-0.9,1.8-1.3,3-1.2
					C225.7,219.4,225.7,219.6,225.5,219.6L225.5,219.6z"/>
			</g>
			<path class="st49" d="M227.5,211.4l0,0.4c0,0.1,0,0.3,0,0.4c0,0.3,0,0.5,0.1,0.8c0.1,0.5,0.1,1,0.2,1.5c0.2,1,0.6,2,1.1,2.9
				c0.5,0.9,1.1,1.8,1.7,2.5c0.7,0.8,1.5,1.4,2.3,2c-0.8-0.6-1.5-1.4-2.1-2.2c-0.6-0.8-1.1-1.7-1.5-2.6c-0.4-0.9-0.7-1.9-0.8-2.9
				c-0.1-0.5-0.1-1-0.1-1.5c0-0.2,0-0.5,0-0.7c0-0.1,0-0.2,0-0.4l0-0.4H227.5z"/>
		</g>
	</g>
</g>
</svg>
