<?xml version="1.0" encoding="utf-8"?>
<!-- Generator: Adobe Illustrator 23.0.5, SVG Export Plug-In . SVG Version: 6.00 Build 0)  -->
<svg version="1.1" id="Layer_1" xmlns="http://www.w3.org/2000/svg" xmlns:xlink="http://www.w3.org/1999/xlink" x="0px" y="0px"
	 viewBox="0 0 50 50" style="enable-background:new 0 0 50 50;" xml:space="preserve">
<style type="text/css">
	.st0{fill:#C42126;}
	.st1{fill:#E7E7E7;}
	.st2{fill:#DC3027;}
	.st3{fill:#F3F4F5;}
	.st4{fill:#E73625;}
	.st5{fill:#283991;}
	.st6{fill:#EFEFEF;}
</style>
<g>
	<g>
		<rect x="1.1" y="27.1" class="st0" width="47.5" height="0"/>
		<rect x="3.6" y="14.1" class="st0" width="42.5" height="0"/>
		<rect x="1.9" y="18.4" class="st0" width="45.9" height="0"/>
		<polygon class="st0" points="11.2,44.4 38.4,44.4 38.4,44.4 11.2,44.4 		"/>
		<path class="st0" d="M24.8,1c-0.5,0-0.9,0-1.4,0h2.8C25.8,1,25.3,1,24.8,1z"/>
		<rect x="1.1" y="22.7" class="st0" width="47.5" height="0"/>
	</g>
	<path class="st1" d="M31.9,9.7h11.4c-1.4-1.6-2.9-3.1-4.7-4.3h-8.5C30.8,6.6,31.4,8.1,31.9,9.7z"/>
	<path class="st2" d="M30.1,5.4h8.5C35.1,2.9,30.8,1.3,26.2,1h-0.7C27.7,1.3,28.7,2.9,30.1,5.4z"/>
	<path class="st1" d="M47.8,18.4c-0.4-1.5-1-3-1.7-4.3H33c0.3,1.4,0.5,2.8,0.6,4.3H47.8z"/>
	<path class="st2" d="M32.3,14.1h13.8c-0.8-1.6-1.7-3-2.8-4.3H31.2C31.6,11.1,32,12.5,32.3,14.1z"/>
	<path class="st1" d="M34.1,27.1h14.4c0.1-0.7,0.1-1.5,0.1-2.2c0-0.7,0-1.4-0.1-2.1H34.1C34.2,24.2,34.2,25.6,34.1,27.1z"/>
	<path class="st2" d="M48.6,22.7c-0.1-1.5-0.4-2.9-0.8-4.3H33c0.1,1.4,0.2,2.9,0.3,4.3H48.6z"/>
	<path class="st1" d="M32.8,35.7H46c0.7-1.4,1.3-2.8,1.7-4.3H33.4C33.2,32.9,33,34.4,32.8,35.7z"/>
	<path class="st2" d="M47.8,31.4c0.4-1.4,0.7-2.8,0.8-4.3H33.7c-0.1,1.5-0.2,2.9-0.3,4.3L47.8,31.4L47.8,31.4z"/>
	<path class="st1" d="M38.4,44.4c1.8-1.2,3.4-2.7,4.7-4.3H32c-0.5,1.6-1.1,3.1-1.9,4.3L38.4,44.4L38.4,44.4z"/>
	<g>
		<path class="st2" d="M31.6,40.1h11.6c1.1-1.3,2.1-2.8,2.9-4.3H32.7C32.4,37.3,32,38.7,31.6,40.1z"/>
		<path class="st2" d="M24,48.7c0,0-0.1,0-0.1,0C23.9,48.7,23.9,48.7,24,48.7z"/>
		<path class="st2" d="M24.8,48.7c5.1,0,9.7-1.6,13.6-4.3h-8.6C28.3,47.1,27.3,48.7,24.8,48.7z"/>
	</g>
	<path class="st3" d="M30.8,5.4H11.1C9.3,6.6,7.8,8.1,6.4,9.7h26.3C32.2,8.1,31.6,6.6,30.8,5.4z"/>
	<path class="st4" d="M11.1,5.4h19.8c-1.4-2.5-3.2-4.1-5.3-4.3h-2.1C18.9,1.3,14.6,2.9,11.1,5.4z"/>
	<path class="st3" d="M1.9,18.4h32.5c-0.2-1.5-0.4-2.9-0.6-4.3H3.6C2.9,15.4,2.3,16.9,1.9,18.4z"/>
	<path class="st4" d="M6.4,9.7c-1.1,1.3-2,2.8-2.8,4.3h30.2c-0.3-1.5-0.7-3-1.1-4.3L6.4,9.7z"/>
	<path class="st3" d="M1,24.8c0,0.8,0,1.5,0.1,2.2h33.6c0-1.4,0.1-2.9,0-4.3H1.1C1,23.4,1,24.1,1,24.8z"/>
	<path class="st4" d="M1.1,22.7h33.6c0-1.5-0.1-2.9-0.3-4.3H1.9C1.5,19.8,1.2,21.2,1.1,22.7z"/>
	<path class="st3" d="M34.4,31.4H1.9c0.4,1.5,1,3,1.7,4.3h30.1C34,34.4,34.2,32.9,34.4,31.4z"/>
	<path class="st4" d="M1.9,31.4h32.4c0.2-1.4,0.3-2.9,0.3-4.3H1.1C1.2,28.6,1.5,30,1.9,31.4z"/>
	<path class="st3" d="M11.2,44.4h19.5c0.7-1.2,1.3-2.7,1.9-4.3H6.5C7.9,41.7,9.5,43.2,11.2,44.4z"/>
	<g>
		<path class="st4" d="M3.6,35.7c0.8,1.6,1.8,3,2.9,4.3h26.1c0.4-1.3,0.8-2.8,1.1-4.3H3.6z"/>
		<path class="st4" d="M23.8,48.7c0,0,0.1,0,0.1,0c0.3,0,0.6,0,0.9,0c2.4,0,4.4-1.6,5.9-4.3H11.2C14.8,46.9,19.2,48.5,23.8,48.7z"/>
	</g>
	<path class="st5" d="M24.3,1C12.1,1.3,2.2,10.7,1.1,22.7h23.2L24.3,1L24.3,1z"/>
	<g>
		<polygon class="st6" points="5.8,14.5 6.1,15.6 7.3,15.6 6.4,16.3 6.7,17.4 5.8,16.7 4.8,17.4 5.2,16.3 4.2,15.6 5.4,15.6 		"/>
		<polygon class="st6" points="5.8,18.5 6.1,19.6 7.3,19.6 6.4,20.3 6.7,21.4 5.8,20.7 4.8,21.4 5.2,20.3 4.2,19.6 5.4,19.6 		"/>
		<polygon class="st6" points="9.7,8.6 10.1,9.7 11.3,9.7 10.3,10.4 10.7,11.5 9.7,10.8 8.8,11.5 9.1,10.4 8.2,9.7 9.4,9.7 		"/>
		<polygon class="st6" points="9.7,12.5 10.1,13.6 11.3,13.6 10.3,14.3 10.7,15.5 9.7,14.8 8.8,15.5 9.1,14.3 8.2,13.6 9.4,13.6 		
			"/>
		<polygon class="st6" points="9.7,16.5 10.1,17.6 11.3,17.6 10.3,18.3 10.7,19.4 9.7,18.7 8.8,19.4 9.1,18.3 8.2,17.6 9.4,17.6 		
			"/>
		<path class="st6" d="M2.8,19.4l-0.4-1.1l1-0.7H2.2l0-0.1c-0.1,0.4-0.2,0.8-0.4,1.2l0,0L2.8,19.4z"/>
		<path class="st6" d="M4.8,13.5l1-0.7l1,0.7l-0.4-1.1l1-0.7H6.1l-0.4-1.1l-0.4,1.1H5c-0.1,0.1-0.2,0.2-0.2,0.4l0.4,0.3L4.8,13.5z"
			/>
		<path class="st6" d="M9.7,6.9l1,0.7l-0.4-1.1l1-0.7h-0.7C10,6.2,9.4,6.6,8.9,7.1L8.8,7.6L9.7,6.9z"/>
		<path class="st6" d="M12.7,5.6l1-0.7l1,0.7l-0.4-1.1l1-0.7H14l0-0.2c-0.4,0.2-0.8,0.4-1.2,0.6l0.3,0.2L12.7,5.6z"/>
		<polygon class="st6" points="13.7,6.6 14,7.7 15.2,7.7 14.3,8.4 14.6,9.5 13.7,8.8 12.7,9.5 13.1,8.4 12.1,7.7 13.3,7.7 		"/>
		<polygon class="st6" points="13.7,10.6 14,11.7 15.2,11.7 14.3,12.4 14.6,13.5 13.7,12.8 12.7,13.5 13.1,12.4 12.1,11.7 
			13.3,11.7 		"/>
		<polygon class="st6" points="13.7,14.5 14,15.6 15.2,15.6 14.3,16.3 14.6,17.4 13.7,16.7 12.7,17.4 13.1,16.3 12.1,15.6 
			13.3,15.6 		"/>
		<polygon class="st6" points="13.7,18.5 14,19.6 15.2,19.6 14.3,20.3 14.6,21.4 13.7,20.7 12.7,21.4 13.1,20.3 12.1,19.6 
			13.3,19.6 		"/>
		<polygon class="st6" points="17.6,4.6 18,5.7 19.2,5.7 18.2,6.4 18.6,7.6 17.6,6.9 16.7,7.6 17,6.4 16.1,5.7 17.3,5.7 		"/>
		<polygon class="st6" points="17.6,8.6 18,9.7 19.2,9.7 18.2,10.4 18.6,11.5 17.6,10.8 16.7,11.5 17,10.4 16.1,9.7 17.3,9.7 		"/>
		<polygon class="st6" points="17.6,12.5 18,13.6 19.2,13.6 18.2,14.3 18.6,15.5 17.6,14.8 16.7,15.5 17,14.3 16.1,13.6 17.3,13.6 
					"/>
		<polygon class="st6" points="17.6,16.5 18,17.6 19.2,17.6 18.2,18.3 18.6,19.4 17.6,18.7 16.7,19.4 17,18.3 16.1,17.6 17.3,17.6 
					"/>
		<polygon class="st6" points="21.6,2.7 21.9,3.8 23.1,3.8 22.2,4.5 22.5,5.6 21.6,4.9 20.6,5.6 21,4.5 20,3.8 21.2,3.8 		"/>
		<polygon class="st6" points="21.6,6.6 21.9,7.7 23.1,7.7 22.2,8.4 22.5,9.5 21.6,8.8 20.6,9.5 21,8.4 20,7.7 21.2,7.7 		"/>
		<polygon class="st6" points="21.6,10.6 21.9,11.7 23.1,11.7 22.2,12.4 22.5,13.5 21.6,12.8 20.6,13.5 21,12.4 20,11.7 21.2,11.7 
					"/>
		<polygon class="st6" points="21.6,14.5 21.9,15.6 23.1,15.6 22.2,16.3 22.5,17.4 21.6,16.7 20.6,17.4 21,16.3 20,15.6 21.2,15.6 
					"/>
		<polygon class="st6" points="21.6,18.5 21.9,19.6 23.1,19.6 22.2,20.3 22.5,21.4 21.6,20.7 20.6,21.4 21,20.3 20,19.6 21.2,19.6 
					"/>
	</g>
</g>
</svg>
