<?xml version="1.0" encoding="utf-8"?>
<!-- Generator: Adobe Illustrator 16.0.0, SVG Export Plug-In . SVG Version: 6.00 Build 0)  -->
<!DOCTYPE svg PUBLIC "-//W3C//DTD SVG 1.1//EN" "http://www.w3.org/Graphics/SVG/1.1/DTD/svg11.dtd">
<svg version="1.1" id="Layer_1" xmlns="http://www.w3.org/2000/svg" xmlns:xlink="http://www.w3.org/1999/xlink" x="0px" y="0px"
	 width="49.036px" height="46px" viewBox="0 0 49.036 46" enable-background="new 0 0 49.036 46" xml:space="preserve">
<path fill="#3C57A7" d="M0,28.749h49.035V0H0V28.749z M19.533,19.566l-2.032,2.032l-7.225-7.225l7.225-7.225l2.032,2.032
	l-5.194,5.193L19.533,19.566z M24.259,23.037l-2.818-0.561l3.336-16.767l2.818,0.56L24.259,23.037z M31.535,21.598l-2.032-2.032
	l5.194-5.193L29.503,9.18l2.032-2.032l7.225,7.225L31.535,21.598z"/>
<polygon fill="#3C57A7" points="49.036,40.249 49.036,31.622 0,31.622 0,40.249 15.739,40.249 15.739,43.127 12.863,43.127 
	12.863,46 36.174,46 36.174,43.127 33.298,43.127 33.298,40.249 "/>
<path fill="#FDB814" d="M271.936-91h-6.434c-0.875,0-1.582,0.708-1.582,1.582v1.582h-12.947c-0.655-1.837-2.396-3.164-4.455-3.164
	c-2.061,0-3.8,1.327-4.455,3.164h-12.947v-1.582c0-0.874-0.708-1.582-1.582-1.582H221.1c-0.874,0-1.582,0.708-1.582,1.582v6.328
	c0,0.875,0.708,1.582,1.582,1.582h6.434c0.874,0,1.582-0.707,1.582-1.582v-1.603h6.497c-5.49,3.43-9.11,9.454-9.543,16.202
	c-1.898,0.621-3.282,2.388-3.282,4.491c0,2.617,2.129,4.746,4.746,4.746s4.746-2.129,4.746-4.746c0-2.019-1.272-3.735-3.053-4.42
	c0.54-7.522,5.789-13.863,13.091-15.672c0.789,1.527,2.366,2.584,4.2,2.584s3.411-1.057,4.2-2.584
	c7.302,1.809,12.551,8.15,13.091,15.672c-1.78,0.685-3.053,2.401-3.053,4.42c0,2.617,2.129,4.746,4.746,4.746
	s4.746-2.129,4.746-4.746c0-2.103-1.384-3.87-3.282-4.491c-0.433-6.748-4.053-12.751-9.543-16.181h6.497v1.582
	c0,0.875,0.707,1.582,1.582,1.582h6.434c0.874,0,1.582-0.707,1.582-1.582v-6.328C273.518-90.292,272.81-91,271.936-91"/>
<path fill="#FDB814" d="M257.281-38.962c-0.827-2.532-3.211-4.472-6.017-4.472h-9.492c-2.806,0-5.189,1.94-6.017,4.472
	c-0.319,0.976,0.511,1.962,1.538,1.962h18.449C256.769-37,257.6-37.986,257.281-38.962"/>
<path fill="#FDB814" d="M260.491-58.55L248.1-77.136v15.009c1.838,0.655,3.164,2.395,3.164,4.454c0,2.618-2.129,4.747-4.746,4.747
	s-4.746-2.129-4.746-4.747c0-2.059,1.326-3.799,3.164-4.454v-15.009L232.545-58.55c-0.419,0.627-0.335,1.463,0.198,1.996
	c2.904,2.904,4.761,6.646,5.476,10.659c1.101-0.446,2.295-0.703,3.553-0.703h9.492c1.257,0,2.452,0.257,3.552,0.703
	c0.716-4.014,2.571-7.755,5.477-10.659C260.826-57.086,260.91-57.922,260.491-58.55"/>
<path fill="#FDB814" d="M246.518-59.254c-0.873,0-1.582,0.709-1.582,1.582c0,0.873,0.709,1.582,1.582,1.582s1.582-0.709,1.582-1.582
	C248.1-58.545,247.391-59.254,246.518-59.254"/>
<path fill="#F05225" d="M-63.013,160.651c-0.023,2.016,1.22,3.831,3.107,4.537v-8.639c0-0.124,0.063-0.311,0.063-0.435
	C-61.744,156.815-63.009,158.625-63.013,160.651"/>
<path fill="#F05225" d="M-46.045,171.341h-8.142l3.045,11.063c0.451,1.688,1.982,2.862,3.729,2.858
	c1.244,0.016,2.42-0.562,3.17-1.553c0.758-0.944,0.991-2.204,0.622-3.357L-46.045,171.341z"/>
<path fill="#F05225" d="M-59.843,156.052h0.062v-0.062C-59.781,156.052-59.781,156.052-59.843,156.052"/>
<path fill="#F05225" d="M-15.28,155.182h-0.497v11.188h0.497c3.089,0,5.594-2.505,5.594-5.594
	C-9.686,157.686-12.191,155.182-15.28,155.182"/>
<path fill="#F05225" d="M-58.041,156.549v8.826c0.067,2.285,1.94,4.103,4.227,4.102h11.311v-16.782h-11.311
	C-56.052,152.695-58.041,154.312-58.041,156.549"/>
<polygon fill="#F05225" points="-40.638,169.725 -17.641,178.924 -17.641,143 -40.638,152.198 "/>
<path fill="#359FD9" d="M129.626,185.953H92.459l29.826-11.163c0.437-0.163,0.775-0.518,0.917-0.962l4.847-15.134l-15.225-15.225
	l-15.134,4.847c-0.444,0.143-0.798,0.481-0.962,0.917l-13.997,37.399l0.233-0.232c-0.276,0.275-0.445,0.656-0.445,1.076
	c0,0.842,0.682,1.523,1.523,1.523h45.584c0.841,0,1.523-0.682,1.523-1.523S130.467,185.953,129.626,185.953 M84.042,185.953
	c-0.42,0-0.801,0.17-1.076,0.445l18.812-18.812c-1.555-2.515-1.267-5.888,0.951-8.106c2.567-2.567,6.743-2.567,9.31,0
	c2.572,2.573,2.572,6.736,0,9.309c-2.182,2.182-5.549,2.524-8.105,0.95L87.72,185.953H84.042z"/>
<path fill="#359FD9" d="M134.072,149.139l-11.693-11.693c-0.286-0.286-0.673-0.446-1.077-0.446s-0.792,0.16-1.077,0.446
	l-4.558,4.557l13.848,13.848l4.557-4.557c0.286-0.286,0.446-0.674,0.446-1.078C134.518,149.812,134.358,149.425,134.072,149.139"/>
<path fill="#F15C61" d="M232.412,168.799h3.633c0,3.249,2.418,5.942,5.548,6.378v-2.079c0-5.555-4.519-10.075-10.074-10.075
	c-5.555,0-10.074,4.52-10.074,10.075v2.143h4.525C229.522,175.241,232.412,172.351,232.412,168.799"/>
<path fill="#F15C61" d="M214.485,186.949h3.426c-0.065-0.573-0.1-1.156-0.1-1.748v-12.103c0-7.558,6.148-13.707,13.707-13.707
	s13.707,6.149,13.707,13.707v12.103c0,0.592-0.034,1.176-0.1,1.748h3.426c2.728,0,4.945-2.219,4.945-4.945v-5.511
	c0-2.659-2.109-4.834-4.743-4.94c-0.891-8.724-8.28-15.553-17.235-15.553s-16.346,6.829-17.235,15.553
	c-2.634,0.106-4.743,2.281-4.743,4.94v5.511C209.54,184.73,211.756,186.949,214.485,186.949"/>
<path fill="#F15C61" d="M231.518,196.041c3.093,0,5.863-1.506,7.713-3.875h-5.628v-3.633h7.502c0.316-1.049,0.487-2.17,0.487-3.332
	v-6.366c-3.043-0.269-5.702-1.897-7.364-4.271c-1.823,2.604-4.846,4.311-8.259,4.311h-4.525v6.327
	C221.444,191.178,225.963,196.041,231.518,196.041"/>
<path fill="#F15C61" d="M241.721,199.701v-4.846c-2.511,2.955-6.154,4.819-10.203,4.819c-4.023,0-7.645-1.839-10.154-4.762v4.784
	l-0.018,0.004c2.384,1.855,6.341,4.391,10.156,4.391C235.335,204.091,239.318,201.558,241.721,199.701"/>
<path fill="#F15C61" d="M257.939,205.027l-12.146-3.98c-2.055,1.832-8.081,6.678-14.29,6.678c-6.218,0-12.196-4.856-14.229-6.688
	l-12.177,3.99c-2.738,0.898-4.579,3.439-4.579,6.322V218h12.507v-6.297h3.633V218h29.72v-6.297h3.634V218h12.507v-6.65
	C262.518,208.466,260.677,205.925,257.939,205.027"/>
<path fill="#7FBA42" d="M136.346-25.208c0,1.769,1.439,3.207,3.207,3.207h29.93c1.768,0,3.207-1.438,3.207-3.207v-3.207h-36.344
	V-25.208z M148.104-26.276h12.827v2.138h-12.827V-26.276z"/>
<path fill="#7FBA42" d="M151.311-40.173v-10.69c0-2.947-2.397-5.345-5.345-5.345h-17.104c-2.948,0-5.345,2.398-5.345,5.345v10.69
	c0,2.947,2.397,5.345,5.345,5.345h17.104C148.914-34.828,151.311-37.226,151.311-40.173"/>
<path fill="#7FBA42" d="M155.587-57.276v-10.69c0-4.126,3.358-7.482,7.483-7.482h9.62v-2.138h-36.344v19.241h9.62
	c4.125,0,7.483,3.357,7.483,7.483v10.69c0,4.126-3.358,7.483-7.483,7.483h-9.62v2.137h36.344v-19.241h-9.62
	C158.945-49.793,155.587-53.149,155.587-57.276 M144.897-62.622h-2.138v-2.138h2.138V-62.622z M149.173-62.622h-2.138v-2.138h2.138
	V-62.622z M153.449-62.622h-2.138v-2.138h2.138V-62.622z M157.725-42.312h-2.138v-2.138h2.138V-42.312z M162.001-42.312h-2.138
	v-2.138h2.138V-42.312z M164.139-44.449h2.138v2.138h-2.138V-44.449z"/>
<path fill="#7FBA42" d="M172.69-80.793c0-1.769-1.439-3.207-3.207-3.207h-29.931c-1.768,0-3.207,1.438-3.207,3.207v1.069h36.345
	V-80.793z"/>
<path fill="#7FBA42" d="M180.173-73.311h-17.104c-2.947,0-5.344,2.398-5.344,5.345v10.69c0,2.947,2.397,5.344,5.344,5.344
	c0-3.356,1.949-6.259,4.771-7.658c-1.592-1.168-2.633-3.047-2.633-5.169c0-3.537,2.877-6.414,6.414-6.414
	c3.537,0,6.414,2.877,6.414,6.414c0,2.122-1.04,4.001-2.633,5.169c2.822,1.399,4.771,4.302,4.771,7.658
	c2.947,0,5.345-2.397,5.345-5.344v-10.69C185.518-70.913,183.12-73.311,180.173-73.311"/>
<path fill="#7FBA42" d="M171.622-58.345c-3.537,0-6.414,2.876-6.414,6.414h12.828C178.036-55.469,175.159-58.345,171.622-58.345"/>
<path fill="#7FBA42" d="M171.622-69.035c2.361,0,4.276,1.914,4.276,4.275c0,2.362-1.915,4.277-4.276,4.277s-4.276-1.915-4.276-4.277
	C167.346-67.121,169.261-69.035,171.622-69.035"/>
<polygon fill="#FFFFFF" points="133.426,-41.407 132.167,-40.146 127.685,-44.627 132.167,-49.107 133.426,-47.848 130.205,-44.627 
	"/>
<rect x="135.627" y="-49.929" transform="matrix(0.9808 0.1951 -0.1951 0.9808 -6.0827 -27.4867)" fill="#FFFFFF" width="1.782" height="10.603"/>
<polygon fill="#FFFFFF" points="140.87,-40.146 139.61,-41.406 142.83,-44.627 139.61,-47.848 140.87,-49.107 145.35,-44.627 "/>
</svg>
