<?xml version="1.0" encoding="utf-8"?>
<!-- Generator: Adobe Illustrator 16.0.0, SVG Export Plug-In . SVG Version: 6.00 Build 0)  -->
<!DOCTYPE svg PUBLIC "-//W3C//DTD SVG 1.1//EN" "http://www.w3.org/Graphics/SVG/1.1/DTD/svg11.dtd">
<svg version="1.1" id="Layer_1" xmlns="http://www.w3.org/2000/svg" xmlns:xlink="http://www.w3.org/1999/xlink" x="0px" y="0px"
	 width="51.999px" height="52px" viewBox="0 0 51.999 52" enable-background="new 0 0 51.999 52" xml:space="preserve">
<path fill="#3C57A7" d="M-82.519-108.251h49.035V-137h-49.035V-108.251z M-62.986-117.434l-2.032,2.032l-7.225-7.225l7.225-7.225
	l2.032,2.032l-5.194,5.193L-62.986-117.434z M-58.26-113.963l-2.818-0.561l3.336-16.767l2.818,0.56L-58.26-113.963z
	 M-50.984-115.402l-2.032-2.032l5.194-5.193l-5.194-5.193l2.032-2.032l7.225,7.225L-50.984-115.402z"/>
<polygon fill="#3C57A7" points="-33.483,-96.751 -33.483,-105.378 -82.519,-105.378 -82.519,-96.751 -66.78,-96.751 -66.78,-93.873 
	-69.656,-93.873 -69.656,-91 -46.345,-91 -46.345,-93.873 -49.221,-93.873 -49.221,-96.751 "/>
<path fill="#FDB814" d="M189.417-228h-6.434c-0.875,0-1.582,0.708-1.582,1.582v1.582h-12.947c-0.655-1.837-2.396-3.164-4.455-3.164
	c-2.061,0-3.8,1.327-4.455,3.164h-12.947v-1.582c0-0.874-0.708-1.582-1.582-1.582h-6.434c-0.874,0-1.582,0.708-1.582,1.582v6.328
	c0,0.875,0.708,1.582,1.582,1.582h6.434c0.874,0,1.582-0.707,1.582-1.582v-1.603h6.497c-5.49,3.43-9.11,9.454-9.543,16.202
	c-1.898,0.621-3.282,2.388-3.282,4.491c0,2.617,2.129,4.746,4.746,4.746s4.746-2.129,4.746-4.746c0-2.019-1.272-3.735-3.053-4.42
	c0.54-7.522,5.789-13.863,13.091-15.672c0.789,1.527,2.366,2.584,4.2,2.584s3.411-1.057,4.2-2.584
	c7.302,1.809,12.551,8.15,13.091,15.672c-1.78,0.685-3.053,2.401-3.053,4.42c0,2.617,2.129,4.746,4.746,4.746
	s4.746-2.129,4.746-4.746c0-2.103-1.384-3.87-3.282-4.491c-0.433-6.748-4.053-12.751-9.543-16.181h6.497v1.582
	c0,0.875,0.707,1.582,1.582,1.582h6.434c0.874,0,1.582-0.707,1.582-1.582v-6.328C190.999-227.292,190.291-228,189.417-228"/>
<path fill="#FDB814" d="M174.762-175.962c-0.827-2.532-3.211-4.472-6.017-4.472h-9.492c-2.806,0-5.189,1.94-6.017,4.472
	c-0.319,0.976,0.511,1.962,1.538,1.962h18.449C174.25-174,175.081-174.986,174.762-175.962"/>
<path fill="#FDB814" d="M177.972-195.55l-12.391-18.586v15.009c1.838,0.655,3.164,2.395,3.164,4.454
	c0,2.618-2.129,4.747-4.746,4.747s-4.746-2.129-4.746-4.747c0-2.059,1.326-3.799,3.164-4.454v-15.009l-12.391,18.586
	c-0.419,0.627-0.335,1.463,0.198,1.996c2.904,2.904,4.761,6.646,5.476,10.659c1.101-0.446,2.295-0.703,3.553-0.703h9.492
	c1.257,0,2.452,0.257,3.552,0.703c0.716-4.014,2.571-7.755,5.477-10.659C178.307-194.086,178.391-194.922,177.972-195.55"/>
<path fill="#FDB814" d="M163.999-196.254c-0.873,0-1.582,0.709-1.582,1.582c0,0.873,0.709,1.582,1.582,1.582
	s1.582-0.709,1.582-1.582C165.581-195.545,164.872-196.254,163.999-196.254"/>
<path fill="#F05225" d="M-145.532,23.651c-0.023,2.016,1.22,3.831,3.107,4.537v-8.639c0-0.124,0.063-0.311,0.063-0.435
	C-144.263,19.815-145.528,21.625-145.532,23.651"/>
<path fill="#F05225" d="M-128.564,34.341h-8.142l3.045,11.063c0.451,1.688,1.982,2.862,3.729,2.858
	c1.244,0.016,2.42-0.562,3.17-1.553c0.758-0.944,0.991-2.204,0.622-3.357L-128.564,34.341z"/>
<path fill="#F05225" d="M-142.362,19.052h0.062V18.99C-142.3,19.052-142.3,19.052-142.362,19.052"/>
<path fill="#F05225" d="M-97.799,18.182h-0.497V29.37h0.497c3.089,0,5.594-2.505,5.594-5.594
	C-92.205,20.686-94.71,18.182-97.799,18.182"/>
<path fill="#F05225" d="M-140.56,19.549v8.826c0.067,2.285,1.94,4.103,4.227,4.102h11.311V15.695h-11.311
	C-138.571,15.695-140.56,17.312-140.56,19.549"/>
<polygon fill="#F05225" points="-123.157,32.725 -100.16,41.924 -100.16,6 -123.157,15.198 "/>
<path fill="#359FD9" d="M47.107,48.953H9.94L39.766,37.79c0.437-0.163,0.775-0.518,0.917-0.962l4.847-15.134L30.305,6.469
	l-15.134,4.847c-0.444,0.143-0.798,0.481-0.962,0.917L0.212,49.632L0.445,49.4C0.169,49.675,0,50.056,0,50.476
	C0,51.318,0.682,52,1.523,52h45.584c0.841,0,1.523-0.682,1.523-1.523S47.948,48.953,47.107,48.953 M1.523,48.953
	c-0.42,0-0.801,0.17-1.076,0.445l18.812-18.812c-1.555-2.515-1.267-5.888,0.951-8.106c2.567-2.567,6.743-2.567,9.31,0
	c2.572,2.573,2.572,6.736,0,9.309c-2.182,2.182-5.549,2.524-8.105,0.95L5.201,48.953H1.523z"/>
<path fill="#359FD9" d="M51.553,12.139L39.86,0.446C39.574,0.16,39.187,0,38.783,0s-0.792,0.16-1.077,0.446l-4.558,4.557
	l13.848,13.848l4.557-4.557c0.286-0.286,0.446-0.674,0.446-1.078C51.999,12.812,51.839,12.425,51.553,12.139"/>
<path fill="#F15C61" d="M149.893,31.799h3.633c0,3.249,2.418,5.942,5.548,6.378v-2.079c0-5.555-4.519-10.075-10.074-10.075
	c-5.555,0-10.074,4.52-10.074,10.075v2.143h4.525C147.003,38.241,149.893,35.351,149.893,31.799"/>
<path fill="#F15C61" d="M131.966,49.949h3.426c-0.065-0.573-0.1-1.156-0.1-1.748V36.098c0-7.558,6.148-13.707,13.707-13.707
	s13.707,6.149,13.707,13.707v12.103c0,0.592-0.034,1.176-0.1,1.748h3.426c2.728,0,4.945-2.219,4.945-4.945v-5.511
	c0-2.659-2.109-4.834-4.743-4.94C165.344,25.829,157.954,19,148.999,19s-16.346,6.829-17.235,15.553
	c-2.634,0.106-4.743,2.281-4.743,4.94v5.511C127.021,47.73,129.237,49.949,131.966,49.949"/>
<path fill="#F15C61" d="M148.999,59.041c3.093,0,5.863-1.506,7.713-3.875h-5.628v-3.633h7.502c0.316-1.049,0.487-2.17,0.487-3.332
	v-6.366c-3.043-0.269-5.702-1.897-7.364-4.271c-1.823,2.604-4.846,4.311-8.259,4.311h-4.525v6.327
	C138.925,54.178,143.444,59.041,148.999,59.041"/>
<path fill="#F15C61" d="M159.202,62.701v-4.846c-2.511,2.955-6.154,4.819-10.203,4.819c-4.023,0-7.645-1.839-10.154-4.762v4.784
	l-0.018,0.004c2.384,1.855,6.341,4.391,10.156,4.391C152.816,67.091,156.799,64.558,159.202,62.701"/>
<path fill="#F15C61" d="M175.42,68.027l-12.146-3.98c-2.055,1.832-8.081,6.678-14.29,6.678c-6.218,0-12.196-4.856-14.229-6.688
	l-12.177,3.99c-2.738,0.898-4.579,3.439-4.579,6.322V81h12.507v-6.297h3.633V81h29.72v-6.297h3.634V81h12.507v-6.65
	C179.999,71.466,178.158,68.925,175.42,68.027"/>
<path fill="#7FBA42" d="M53.827-162.208c0,1.769,1.439,3.207,3.207,3.207h29.93c1.768,0,3.207-1.438,3.207-3.207v-3.207H53.827
	V-162.208z M65.585-163.276h12.827v2.138H65.585V-163.276z"/>
<path fill="#7FBA42" d="M68.792-177.173v-10.69c0-2.947-2.397-5.345-5.345-5.345H46.344c-2.948,0-5.345,2.398-5.345,5.345v10.69
	c0,2.947,2.397,5.345,5.345,5.345h17.104C66.395-171.828,68.792-174.226,68.792-177.173"/>
<path fill="#7FBA42" d="M73.068-194.276v-10.69c0-4.126,3.358-7.482,7.483-7.482h9.62v-2.138H53.827v19.241h9.62
	c4.125,0,7.483,3.357,7.483,7.483v10.69c0,4.126-3.358,7.483-7.483,7.483h-9.62v2.137h36.344v-19.241h-9.62
	C76.426-186.793,73.068-190.149,73.068-194.276 M62.378-199.622H60.24v-2.138h2.138V-199.622z M66.654-199.622h-2.138v-2.138h2.138
	V-199.622z M70.93-199.622h-2.138v-2.138h2.138V-199.622z M75.206-179.312h-2.138v-2.138h2.138V-179.312z M79.482-179.312h-2.138
	v-2.138h2.138V-179.312z M81.62-181.449h2.138v2.138H81.62V-181.449z"/>
<path fill="#7FBA42" d="M90.171-217.793c0-1.769-1.439-3.207-3.207-3.207H57.033c-1.768,0-3.207,1.438-3.207,3.207v1.069h36.345
	V-217.793z"/>
<path fill="#7FBA42" d="M97.654-210.311H80.55c-2.947,0-5.344,2.398-5.344,5.345v10.69c0,2.947,2.397,5.344,5.344,5.344
	c0-3.356,1.949-6.259,4.771-7.658c-1.592-1.168-2.633-3.047-2.633-5.169c0-3.537,2.877-6.414,6.414-6.414
	c3.537,0,6.414,2.877,6.414,6.414c0,2.122-1.04,4.001-2.633,5.169c2.822,1.399,4.771,4.302,4.771,7.658
	c2.947,0,5.345-2.397,5.345-5.344v-10.69C102.999-207.913,100.601-210.311,97.654-210.311"/>
<path fill="#7FBA42" d="M89.103-195.345c-3.537,0-6.414,2.876-6.414,6.414h12.828C95.517-192.469,92.64-195.345,89.103-195.345"/>
<path fill="#7FBA42" d="M89.103-206.035c2.361,0,4.276,1.914,4.276,4.275c0,2.362-1.915,4.277-4.276,4.277s-4.276-1.915-4.276-4.277
	C84.827-204.121,86.742-206.035,89.103-206.035"/>
<polygon fill="#FFFFFF" points="50.907,-178.407 49.647,-177.146 45.166,-181.627 49.647,-186.107 50.907,-184.848 47.686,-181.627 
	"/>
<rect x="53.108" y="-186.929" transform="matrix(0.9808 0.1951 -0.1951 0.9808 -34.3913 -14.022)" fill="#FFFFFF" width="1.782" height="10.603"/>
<polygon fill="#FFFFFF" points="58.351,-177.146 57.091,-178.406 60.311,-181.627 57.091,-184.848 58.351,-186.107 62.831,-181.627 
	"/>
</svg>
