<?xml version="1.0" encoding="utf-8"?>
<!-- Generator: Adobe Illustrator 16.0.0, SVG Export Plug-In . SVG Version: 6.00 Build 0)  -->
<!DOCTYPE svg PUBLIC "-//W3C//DTD SVG 1.1//EN" "http://www.w3.org/Graphics/SVG/1.1/DTD/svg11.dtd">
<svg version="1.1" id="Layer_1" xmlns="http://www.w3.org/2000/svg" xmlns:xlink="http://www.w3.org/1999/xlink" x="0px" y="0px"
	 width="27.197px" height="27.198px" viewBox="0 0 27.197 27.198" enable-background="new 0 0 27.197 27.198" xml:space="preserve">
<path fill="#64B4E4" d="M-91.636,13.943v25.232c0,0.55-0.446,0.997-0.996,0.997h-32.006c-0.55,0-0.996-0.447-0.996-0.997V13.943
	c0-0.55,0.446-0.996,0.996-0.996h32.006C-92.082,12.947-91.636,13.394-91.636,13.943"/>
<path fill="#5493CE" d="M-92.632,12.947h-16.003v27.225h16.003c0.55,0,0.996-0.447,0.996-0.996V13.943
	C-91.636,13.394-92.082,12.947-92.632,12.947"/>
<path fill="#52C7E3" d="M-111.357,29.48v10.691h-13.28c-0.55,0-0.996-0.446-0.996-0.996v-10.69h13.28
	C-111.804,28.485-111.357,28.931-111.357,29.48"/>
<path fill="#9EDBE8" d="M-91.636,38.692v0.483c0,0.55-0.446,0.996-0.996,0.996h-32.006c-0.55,0-0.996-0.446-0.996-0.996v-0.483
	l12.947-10.207l3.435-2.708c0.362-0.285,0.872-0.285,1.234,0L-91.636,38.692z"/>
<path fill="#52C7E3" d="M-108.018,25.777c-0.183-0.143-0.399-0.214-0.617-0.214v14.609h16.003c0.55,0,0.996-0.447,0.996-0.997
	v-0.483L-108.018,25.777z"/>
<path fill="#FEDD40" d="M-99.937,16.932c-2.38,0-4.315,1.936-4.315,4.315c0,2.38,1.936,4.317,4.315,4.317s4.316-1.937,4.316-4.317
	C-95.62,18.868-97.557,16.932-99.937,16.932"/>
<path fill="#64B4E4" d="M15.864,19.833h-0.565v1.134h0.872c0.09-0.091,0.26-0.307,0.26-0.567
	C16.433,20.081,16.183,19.833,15.864,19.833"/>
<path fill="#64B4E4" d="M15.864,12.466c-3.129,0-5.666-2.538-5.666-5.666c0-2.244,1.326-4.239,3.299-5.146
	C13.814,1.042,14.198,0.486,14.664,0H3.114C1.394,0,0,1.394,0,3.116V24.08c0,1.724,1.394,3.118,3.114,3.118h16.434
	c1.723,0,3.116-1.394,3.116-3.116V12.467h-6.8V12.466z M7.083,23.232c0.469,0,0.85,0.381,0.85,0.85c0,0.47-0.381,0.85-0.85,0.85
	H4.249c-0.301,0-0.579-0.16-0.732-0.418c-0.154-0.26-0.156-0.579-0.01-0.843l2.131-3.837H4.249c-0.469,0-0.85-0.381-0.85-0.85
	c0-0.468,0.381-0.849,0.85-0.849h2.834c0.301,0,0.58,0.159,0.732,0.418c0.153,0.257,0.156,0.579,0.01,0.842l-2.131,3.837H7.083z
	 M11.614,24.082c0,0.47-0.381,0.85-0.85,0.85s-0.85-0.38-0.85-0.85v-5.1c0-0.468,0.381-0.849,0.85-0.849s0.85,0.381,0.85,0.849
	V24.082z M16.296,22.664h-0.997v1.416c0,0.465-0.386,0.851-0.851,0.851s-0.85-0.386-0.85-0.851v-5.1c0-0.463,0.385-0.849,0.85-0.849
	h1.416c1.246,0,2.267,1.021,2.267,2.265C18.132,21.543,17.225,22.664,16.296,22.664"/>
<path fill="#64B4E4" d="M23.231,10.199h-7.365c-1.875,0-3.4-1.524-3.4-3.399c0-1.653,1.184-3.033,2.748-3.337
	C15.802,1.448,17.68,0,19.832,0c1.698,0,3.271,0.904,4.128,2.338c1.851,0.338,3.237,1.963,3.237,3.895
	C27.197,8.42,25.418,10.199,23.231,10.199"/>
<path fill="#557FC0" d="M112.473,40.271l-5.492-1.569l-1.569-5.493H94.428c-1.3,0-2.354,1.055-2.354,2.355v22.071
	c0,1.301,1.054,2.355,2.354,2.355h15.69c1.299,0,2.354-1.054,2.354-2.355V40.271z"/>
<path fill="#89ACDA" d="M112.473,40.271h-5.492c-0.863,0-1.569-0.706-1.569-1.569v-5.493c0.204,0,0.408,0.08,0.549,0.237
	l6.276,6.276C112.394,39.862,112.473,40.066,112.473,40.271"/>
<path fill="#FEF5F5" d="M106.98,45.814h-9.415c-0.434,0-0.784-0.351-0.784-0.784c0-0.434,0.351-0.785,0.784-0.785h9.415
	c0.434,0,0.784,0.351,0.784,0.785C107.765,45.463,107.414,45.814,106.98,45.814"/>
<path fill="#FEF5F5" d="M106.98,48.953h-9.415c-0.434,0-0.784-0.352-0.784-0.785c0-0.434,0.351-0.784,0.784-0.784h9.415
	c0.434,0,0.784,0.35,0.784,0.784C107.765,48.601,107.414,48.953,106.98,48.953"/>
<path fill="#FEF5F5" d="M106.98,52.091h-9.415c-0.434,0-0.784-0.351-0.784-0.784c0-0.434,0.351-0.785,0.784-0.785h9.415
	c0.434,0,0.784,0.351,0.784,0.785C107.765,51.74,107.414,52.091,106.98,52.091"/>
<path fill="#FEF5F5" d="M103.842,55.229h-6.276c-0.434,0-0.785-0.352-0.785-0.785c0-0.434,0.352-0.784,0.785-0.784h6.276
	c0.434,0,0.785,0.35,0.785,0.784C104.627,54.877,104.275,55.229,103.842,55.229"/>
<polygon fill="#D9E2EF" points="216.227,143.9 194.656,143.9 194.656,114.24 211.372,114.24 216.227,119.094 "/>
<polygon fill="#A4B2C2" points="211.373,114.24 211.373,119.095 216.227,119.095 "/>
<rect x="194.656" y="135.812" fill="#B63639" width="21.57" height="9.707"/>
<path fill="#FFFFFF" d="M197.892,143.9c-0.298,0-0.539-0.241-0.539-0.539v-5.393c0-0.298,0.241-0.54,0.539-0.54
	s0.539,0.242,0.539,0.54v5.393C198.431,143.659,198.189,143.9,197.892,143.9"/>
<path fill="#FFFFFF" d="M212.991,138.508h-3.235c-0.298,0-0.54-0.242-0.54-0.539c0-0.298,0.242-0.54,0.54-0.54h3.235
	c0.298,0,0.539,0.242,0.539,0.54C213.53,138.266,213.289,138.508,212.991,138.508"/>
<path fill="#FFFFFF" d="M212.991,141.204h-3.235c-0.298,0-0.54-0.241-0.54-0.539s0.242-0.54,0.54-0.54h3.235
	c0.298,0,0.539,0.242,0.539,0.54S213.289,141.204,212.991,141.204"/>
<path fill="#FFFFFF" d="M209.756,143.9c-0.298,0-0.54-0.241-0.54-0.539v-5.393c0-0.298,0.242-0.54,0.54-0.54s0.539,0.242,0.539,0.54
	v5.393C210.295,143.659,210.054,143.9,209.756,143.9"/>
<path fill="#B63639" d="M205.054,120.052c-0.053,0.018-0.715,0.933,0.052,1.707C205.614,120.636,205.077,120.046,205.054,120.052
	 M205.38,124.544c-0.385,1.313-0.892,2.73-1.438,4.014c1.123-0.43,2.344-0.805,3.491-1.071
	C206.708,126.654,205.983,125.615,205.38,124.544 M209.395,128.037c0.437,0.332,0.544,0.5,0.831,0.5c0.126,0,0.484-0.005,0.65-0.233
	c0.08-0.111,0.111-0.183,0.123-0.219c-0.065-0.035-0.153-0.105-0.633-0.105C210.096,127.979,209.755,127.991,209.395,128.037
	 M202.066,130.395c-1.148,0.637-1.618,1.161-1.651,1.456c-0.004,0.05-0.019,0.178,0.232,0.367
	C200.728,132.192,201.195,131.982,202.066,130.395 M200.636,133.115c-0.188,0-0.367-0.062-0.521-0.173
	c-0.558-0.416-0.634-0.877-0.598-1.191c0.098-0.863,1.18-1.768,3.216-2.689c0.808-1.75,1.578-3.905,2.036-5.706
	c-0.536-1.152-1.058-2.648-0.678-3.525c0.133-0.308,0.3-0.543,0.609-0.646c0.122-0.04,0.433-0.09,0.545-0.09
	c0.283,0,0.554,0.336,0.685,0.555c0.242,0.406,0.243,0.879,0.205,1.335c-0.037,0.442-0.112,0.884-0.199,1.319
	c-0.063,0.321-0.136,0.64-0.212,0.957c0.724,1.478,1.75,2.982,2.732,4.013c0.705-0.125,1.312-0.188,1.806-0.188
	c0.841,0,1.352,0.193,1.56,0.592c0.172,0.33,0.101,0.716-0.21,1.146c-0.3,0.413-0.711,0.632-1.192,0.632
	c-0.655,0-1.415-0.407-2.264-1.213c-1.524,0.315-3.305,0.876-4.744,1.498c-0.449,0.94-0.879,1.699-1.28,2.256
	C201.581,132.761,201.105,133.115,200.636,133.115"/>
<path fill="#FFFFFF" d="M199.51,141.743h-1.618c-0.298,0-0.539-0.241-0.539-0.539v-3.234c0-0.299,0.241-0.541,0.539-0.541h1.618
	c1.189,0,2.157,0.967,2.157,2.157C201.667,140.775,200.699,141.743,199.51,141.743 M198.431,140.665h1.079
	c0.595,0,1.078-0.484,1.078-1.079s-0.483-1.078-1.078-1.078h-1.079V140.665z"/>
<path fill="#FFFFFF" d="M204.363,143.901h-0.539c-0.298,0-0.54-0.242-0.54-0.539v-5.394c0-0.298,0.242-0.54,0.54-0.54h0.539
	c1.783,0,3.235,1.451,3.235,3.236C207.599,142.448,206.146,143.901,204.363,143.901 M204.363,142.821h0.005H204.363z
	 M204.363,138.508v4.313c1.188,0,2.155-0.967,2.155-2.156C206.519,139.475,205.552,138.508,204.363,138.508"/>
</svg>
